<?xml version="1.0" encoding="UTF-8"?>
<svg width="38px" height="38px" viewBox="0 0 38 38" version="1.1" xmlns="http://www.w3.org/2000/svg" xmlns:xlink="http://www.w3.org/1999/xlink">
    <!-- Generator: Sketch 52.6 (67491) - http://www.bohemiancoding.com/sketch -->
    <title>Group 2</title>
    <desc>Created with Sketch.</desc>
    <g id="Page-1" stroke="none" stroke-width="1" fill="none" fill-rule="evenodd">
        <g id="Artboard" transform="translate(-890.000000, -95.000000)">
            <g id="Group-2" transform="translate(890.000000, 95.000000)">
                <g id="Group-21-Copy" fill="#33D553">
                    <circle id="Oval-Copy-41" cx="19" cy="19" r="19"></circle>
                </g>
                <path d="M12.4002841,22.0926253 C12.0363882,22.5226835 11.9206048,23.0023568 12.0529306,23.5316598 C12.1852565,24.0609628 12.4995255,24.4248554 12.9957476,24.6233449 C14.1535983,25.1195687 15.8903482,25.4007525 18.2060496,25.4669181 L18.2060496,30.2306231 C18.2060496,30.759926 18.2887519,31.4215457 18.4541593,32.2155001 C18.619566,33.0094549 18.8015116,33.4064264 19.0000004,33.4064264 C19.1984892,33.4064264 19.3804348,33.0094549 19.5458379,32.2155001 C19.7112482,31.4215457 19.7939498,30.759926 19.7939498,30.2306231 L19.7939498,25.4669181 C22.1096512,25.4007525 23.8464055,25.1195687 25.0042562,24.6233449 C25.5004727,24.4248554 25.8147429,24.0609628 25.9470669,23.5316598 C26.079398,23.0023568 25.9636101,22.5226835 25.5997175,22.0926253 C25.0704145,21.497164 24.1937694,21.0505698 22.9697531,20.7528356 L22.9697531,12.515593 C23.7967903,12.2509452 24.4914891,11.9035958 25.0538785,11.4735376 C25.5831815,11.1096377 25.798207,10.6051532 25.6989622,9.9600695 C25.5997175,9.31497856 25.2358248,8.89319558 24.6072771,8.69470606 C23.2509369,8.23156869 21.381866,8 19.0000004,8 C16.5850543,8 14.6828998,8.23156869 13.293479,8.69470606 C12.6980127,8.92627475 12.3506627,9.35633296 12.2514183,9.98488069 C12.1521739,10.6134212 12.3672001,11.1096377 12.8965036,11.4735376 C13.4588879,11.9035958 14.1701284,12.2674811 15.0302463,12.5652154 L15.0302463,20.7528356 C13.8062329,21.0505698 12.9295871,21.497164 12.4002841,22.0926253 Z M15.5264657,11.0269362 C14.8317553,10.7953675 14.269379,10.5307196 13.8393201,10.2329853 C15.0633335,9.80292712 16.7835431,9.58790165 19.0000004,9.58790165 C21.1833764,9.58790165 22.8870443,9.78638391 24.1110606,10.183363 C23.6810024,10.5141764 23.1351634,10.7953675 22.4735365,11.0269362 L21.3818514,11.3742928 L21.3818514,21.9933805 L22.5727813,22.2911148 C23.4990561,22.5226835 24.1110606,22.8204105 24.4087876,23.1843104 C23.2509369,23.6474478 21.4480243,23.8790165 19.0000004,23.8790165 C16.5519729,23.8790165 14.749061,23.6474478 13.5912103,23.1843104 C13.8889432,22.8204105 14.5009412,22.5226835 15.4272217,22.2911148 L16.6181479,21.9933805 L16.6181479,11.4239152 L15.5264657,11.0269362 Z" id="Fill-1" fill="#FFFFFF"></path>
            </g>
        </g>
    </g>
</svg>