<?xml version="1.0" encoding="UTF-8"?>
<svg width="29px" height="39px" viewBox="0 0 29 39" version="1.1" xmlns="http://www.w3.org/2000/svg" xmlns:xlink="http://www.w3.org/1999/xlink">
    <!-- Generator: Sketch 52.6 (67491) - http://www.bohemiancoding.com/sketch -->
    <title>Fill 1</title>
    <desc>Created with Sketch.</desc>
    <g id="Page-1" stroke="none" stroke-width="1" fill="none" fill-rule="evenodd">
        <g id="Artboard" transform="translate(-800.000000, -522.000000)" fill="#FB5606">
            <path d="M801.146893,542.111573 C800.382294,540.309309 800,538.431978 800,536.47952 C800,534.527062 800.382294,532.649718 801.146893,530.847454 C801.843224,529.140761 802.874051,527.597935 804.239407,526.218917 C805.563801,524.894533 807.099803,523.870524 808.847457,523.146891 C810.622419,522.382285 812.49975,522 814.47952,522 C816.50025,522 818.384412,522.382285 820.132065,523.146891 C821.866058,523.870524 823.402065,524.894533 824.74011,526.218917 C826.105467,527.584274 827.143125,529.1271 827.853109,530.847454 C828.617703,532.649718 829,534.527062 829,536.47952 C829,538.431978 828.617703,540.309309 827.853109,542.111573 C827.361579,543.217515 826.8564,544.132291 826.33757,544.855924 L816.752821,559.417367 C816.124759,560.373115 815.373827,560.850982 814.5,560.850982 C813.626173,560.850982 812.86841,560.373115 812.226698,559.417367 L802.66243,544.855924 C802.034366,543.982097 801.529192,543.067322 801.146893,542.111573 Z M809.1137,536.47952 C809.1137,537.981408 809.632527,539.25117 810.670198,540.28884 C811.735174,541.35381 813.00493,541.886288 814.47952,541.886288 C815.995058,541.886288 817.27165,541.35381 818.309321,540.28884 C819.360641,539.26482 819.8863,537.995058 819.8863,536.47952 C819.8863,534.99128 819.360641,533.721519 818.309321,532.670199 C817.27165,531.605217 815.995058,531.072739 814.47952,531.072739 C813.00493,531.072739 811.735174,531.605217 810.670198,532.670199 C809.632527,533.735168 809.1137,535.00493 809.1137,536.47952 Z" id="Fill-1"></path>
        </g>
    </g>
</svg>