<?xml version="1.0" encoding="UTF-8"?>
<svg width="32px" height="36px" viewBox="0 0 32 36" version="1.1" xmlns="http://www.w3.org/2000/svg" xmlns:xlink="http://www.w3.org/1999/xlink">
    <!-- Generator: Sketch 52.6 (67491) - http://www.bohemiancoding.com/sketch -->
    <title>Shape</title>
    <desc>Created with Sketch.</desc>
    <g id="Page-1" stroke="none" stroke-width="1" fill="none" fill-rule="evenodd">
        <g id="Artboard" transform="translate(-853.000000, -498.000000)" fill="#FFBE0A">
            <g id="Location" transform="translate(853.000000, 498.000000)">
                <path d="M0.888888889,14.7872 C0.888888889,6.60958222 7.72245333,0 15.9882667,0 C24.2775111,0 31.1111111,6.60958222 31.1111111,14.7872 C31.1111111,18.9079111 29.6124444,22.7335111 27.1457778,25.9761778 C24.4245333,29.5528889 21.0705778,32.6693333 17.2951111,35.1153778 C16.4311111,35.6807111 15.6513778,35.7233778 14.7029333,35.1153778 C10.9062044,32.6693333 7.55216,29.5528889 4.85422222,25.9761778 C2.38574222,22.7335111 0.888888889,18.9079111 0.888888889,14.7872 Z M11.0119644,15.2476444 C11.0119644,17.9870222 13.2474667,20.1416889 15.9882667,20.1416889 C18.7310222,20.1416889 20.9880889,17.9870222 20.9880889,15.2476444 C20.9880889,12.5294222 18.7310222,10.26992 15.9882667,10.26992 C13.2474667,10.26992 11.0119644,12.5294222 11.0119644,15.2476444 Z" id="Shape"></path>
            </g>
        </g>
    </g>
</svg>