<?xml version="1.0" encoding="UTF-8"?>
<svg width="30px" height="30px" viewBox="0 0 30 30" version="1.1" xmlns="http://www.w3.org/2000/svg" xmlns:xlink="http://www.w3.org/1999/xlink">
    <!-- Generator: Sketch 52.6 (67491) - http://www.bohemiancoding.com/sketch -->
    <title>1</title>
    <desc>Created with Sketch.</desc>
    <g id="Page-1" stroke="none" stroke-width="1" fill="none" fill-rule="evenodd">
        <g id="1">
            <rect id="Rectangle-Copy-131" fill="#33D553" x="0" y="0" width="30" height="30" rx="15"></rect>
            <g id="Group-44" transform="translate(6.250000, 6.250000)" fill="#FFFFFF">
                <path d="M16.3734563,9.15123454 C16.4626195,9.15123454 16.5350629,9.12337078 16.5907904,9.06764325 C16.6465179,9.01191572 16.6743817,8.95061625 16.6743817,8.88374485 C16.6743817,8.79458162 16.6465179,8.72213827 16.5907904,8.66641074 C16.5350629,8.61068321 16.4626195,8.58281945 16.3734563,8.58281945 L0.959362119,8.58281945 C0.892489369,8.58281945 0.831190269,8.61068321 0.775462943,8.66641074 C0.719735659,8.72213827 0.691872424,8.79458162 0.691872424,8.88374485 C0.691872424,8.95061625 0.719735659,9.01191572 0.775462943,9.06764325 C0.831190269,9.12337078 0.892489369,9.15123454 0.959362119,9.15123454 L16.3734563,9.15123454 Z M14.668207,4.03549463 C14.7350824,4.03549463 14.7963819,4.00763087 14.8521094,3.95190334 C14.907837,3.89617581 14.9357007,3.82373247 14.9357007,3.73456923 C14.9357007,3.66769783 14.907837,3.60639836 14.8521094,3.55067083 C14.7963819,3.4949433 14.7350824,3.46707954 14.668207,3.46707954 L2.66460882,3.46707954 C2.5977362,3.46707954 2.53643714,3.4949433 2.48070961,3.55067083 C2.42498249,3.60639836 2.39711913,3.66769783 2.39711913,3.73456923 C2.39711913,3.82373247 2.42498249,3.89617581 2.48070961,3.95190334 C2.53643714,4.00763087 2.5977362,4.03549463 2.66460882,4.03549463 L14.668207,4.03549463 Z M3.09927948,14.3004118 L14.668207,14.3004118 L14.668207,13.7319959 L2.66460882,13.7319959 L3.09927948,14.3004118 Z M8.46419818,16.3016893 C8.46141821,16.2761198 8.46194958,16.2498881 8.46579245,16.222994 C8.47693633,16.1449755 8.51594397,16.0836764 8.58281945,16.0390948 C9.18467432,15.5486946 9.72522157,14.9970026 10.2044734,14.3840023 C10.6837294,13.7710019 11.0793859,13.1301475 11.3914592,12.4614221 C11.7258244,11.7703999 11.9654462,11.0571022 12.110337,10.3215045 C12.2552278,9.58590275 12.3165272,8.85031322 12.2942395,8.11471146 C12.2719477,7.42369336 12.1716405,6.76054718 11.99331,6.1252566 C11.8149835,5.48996603 11.5586418,4.89369532 11.2242807,4.33642003 C10.9122074,3.77914881 10.5332667,3.25531737 10.0874464,2.76491756 C9.64163028,2.27451775 9.14009067,1.85099749 8.58281945,1.49434049 C8.51594397,1.44976091 8.47693633,1.38846145 8.46579245,1.31044209 C8.46024522,1.27162156 8.46159826,1.23417968 8.46985108,1.19811744 C7.52701639,1.22995223 6.63960928,1.42342772 5.80761132,1.77855007 C4.89368717,2.16864278 4.0912242,2.70919003 3.40020569,3.40020813 C2.70918718,4.09122624 2.16864033,4.89368717 1.77854926,5.80761539 C1.38845818,6.72153954 1.1934155,7.70232693 1.1934155,8.75000204 C1.1934155,9.79767307 1.38845818,10.7784605 1.77854926,11.6923887 C2.16864033,12.6063128 2.70918718,13.4087758 3.40020569,14.0997943 C4.0912242,14.7908128 4.89368717,15.3313597 5.80761132,15.7214507 C6.6379463,16.0758618 7.52346914,16.2692732 8.46419818,16.3016893 Z M9.21395922,1.20641148 C9.67871819,1.55408296 10.1091965,1.93983775 10.5053988,2.36368506 C10.9846548,2.8763767 11.3914592,3.43363976 11.7258244,4.03549463 C12.0601855,4.65964133 12.3276752,5.30606763 12.5282894,5.9747939 C12.7289077,6.64352426 12.8403627,7.34567401 12.8626546,8.08127576 C12.9072342,8.88374892 12.8459347,9.66949404 12.6787562,10.4385274 C12.5115736,11.2075649 12.2608038,11.9598743 11.9264386,12.695472 C11.5920775,13.4087827 11.1741292,14.088646 10.6725814,14.7350824 C10.2277136,15.3084698 9.71708232,15.8292374 9.14068196,16.2973973 C10.042417,16.2546426 10.8929791,16.0626617 11.6923846,15.7214507 C12.6063128,15.3313597 13.4087738,14.7908128 14.0997919,14.0997943 C14.79081,13.4087758 15.3313572,12.6063128 15.7214499,11.6923887 C16.1115426,10.7784605 16.3065849,9.79767307 16.3065849,8.75000204 C16.3065849,7.70232693 16.1115426,6.72153954 15.7214499,5.80761539 C15.3313572,4.89368717 14.79081,4.09122624 14.0997919,3.40020813 C13.4087738,2.70919003 12.6063128,2.16864278 11.6923846,1.77855007 C10.9146664,1.44659451 10.0885296,1.25588332 9.21395922,1.20641148 Z M8.74999796,16.875 C7.63545553,16.875 6.58222479,16.6632394 5.59027721,16.2397119 C4.59833167,15.8161847 3.73457127,15.2366294 2.99897115,14.5010289 C2.26337061,13.7654287 1.68381531,12.9016683 1.26028813,11.9097228 C0.836760576,10.9177752 0.625,9.86454447 0.625,8.75000204 C0.625,7.63545553 0.836760576,6.58222479 1.26028813,5.59027721 C1.68381531,4.59833371 2.26337061,3.73457331 2.99897115,2.99897155 C3.73457127,2.2633698 4.59833167,1.68381491 5.59027721,1.26029057 C6.58222479,0.836762166 7.63545553,0.625 8.74999796,0.625 C9.86454447,0.625 10.9177752,0.836762166 11.9097228,1.26029057 C12.9016663,1.68381491 13.7654267,2.2633698 14.5010284,2.99897155 C15.2366302,3.73457331 15.8161851,4.59833371 16.2397094,5.59027721 C16.6632378,6.58222479 16.875,7.63545553 16.875,8.75000204 C16.875,9.86454447 16.6632378,10.9177752 16.2397094,11.9097228 C15.8161851,12.9016683 15.2366302,13.7654287 14.5010284,14.5010289 C13.7654267,15.2366294 12.9016663,15.8161847 11.9097228,16.2397119 C10.9177752,16.6632394 9.86454447,16.875 8.74999796,16.875 Z M8.74999796,16.5406379 C8.72771021,16.5406379 8.69984645,16.5350653 8.66641074,16.5239198 C8.63297097,16.5127743 8.60511128,16.4960564 8.58281945,16.4737655 C7.9140891,15.9610742 7.32896227,15.3815189 6.82741858,14.7350824 C6.32587082,14.088646 5.9079225,13.4087827 5.57355732,12.695472 C5.23919622,11.9821661 4.98842642,11.2354287 4.82124383,10.4552473 C4.65406287,9.67506598 4.5927634,8.88374892 4.63734543,8.08127576 C4.65963644,7.34567401 4.77108824,6.64352426 4.97170653,5.9747939 C5.17232482,5.30606763 5.43981451,4.67078521 5.77417561,4.06893033 C6.10854079,3.44478364 6.50976922,2.8763767 6.97788128,2.36368506 C7.44598926,1.85099342 7.98096458,1.39403746 8.58281945,0.992800878 C8.64969085,0.970509051 8.7221342,0.964937114 8.80015355,0.976080989 C8.87817291,0.987224865 8.93947238,1.02623658 8.98405195,1.09310799 C9.02863561,1.15997939 9.04535142,1.23242681 9.03420755,1.31044209 C9.02306367,1.38846145 8.98405195,1.44976091 8.91718055,1.49434049 C8.35990933,1.85099749 7.85836972,2.27451775 7.41254949,2.76491756 C6.96673333,3.25531737 6.58779265,3.77914881 6.2757193,4.33642003 C5.94135412,4.89369532 5.68501238,5.48996603 5.50668592,6.1252566 C5.32835945,6.76054718 5.22805235,7.42369336 5.20576052,8.11471146 C5.18346869,8.85031322 5.24476816,9.58590275 5.38965892,10.3215045 C5.53454968,11.0571022 5.77417561,11.7703999 6.10853671,12.4614221 C6.42061006,13.1301475 6.81627063,13.7710019 7.29552249,14.3840023 C7.77477843,14.9970026 8.31532568,15.5486946 8.91718055,16.0390948 C8.98405195,16.0836764 9.02306367,16.1449755 9.03420755,16.222994 C9.04535142,16.3010122 9.02863561,16.3734563 8.98405195,16.4403293 C8.93947238,16.4626204 8.90046066,16.4849108 8.86702496,16.5072016 C8.83358926,16.5294926 8.79458162,16.5406379 8.74999796,16.5406379 Z" id="Fill-1-Copy-57"></path>
                <path d="M16.3734563,9.24498454 L0.959362119,9.24498454 C0.866393599,9.24498454 0.781743839,9.20650693 0.709171537,9.13393436 C0.636599746,9.06136225 0.598122424,8.97671228 0.598122424,8.88374485 C0.598122424,8.77052187 0.635218408,8.67407308 0.709171561,8.6001196 C0.781743839,8.52754706 0.866393599,8.48906945 0.959362119,8.48906945 L16.3734563,8.48906945 C16.4866792,8.48906945 16.5831281,8.52616593 16.6570817,8.60011948 C16.7310352,8.67407304 16.7681317,8.77052198 16.7681317,8.88374485 C16.7681317,8.97671226 16.7296539,9.06136226 16.6570817,9.13393451 C16.5831281,9.20788806 16.4866792,9.24498454 16.3734563,9.24498454 Z M16.3734563,9.05748454 C16.4385589,9.05748454 16.486997,9.03885413 16.5244992,9.00135199 C16.563382,8.96246917 16.5806317,8.92452025 16.5806317,8.88374485 C16.5806317,8.81864227 16.5620013,8.77020415 16.5244992,8.732702 C16.486997,8.69519986 16.4385589,8.67656945 16.3734563,8.67656945 L0.959362119,8.67656945 C0.918585608,8.67656945 0.880637089,8.69381898 0.84175435,8.73270186 C0.804252603,8.77020377 0.785622424,8.81864185 0.785622424,8.88374485 C0.785622424,8.92452067 0.802871945,8.96246956 0.841754325,9.00135211 C0.880637089,9.04023502 0.918585608,9.05748454 0.959362119,9.05748454 L16.3734563,9.05748454 Z M14.668207,4.12924463 L2.66460882,4.12924463 C2.57164047,4.12924463 2.48699082,4.09076707 2.4144181,4.01819436 C2.34046514,3.94424085 2.30336913,3.84779206 2.30336913,3.73456923 C2.30336913,3.64160192 2.34184646,3.55695199 2.41441835,3.48437957 C2.48699082,3.4118071 2.57164047,3.37332954 2.66460882,3.37332954 L14.668207,3.37332954 C14.7611777,3.37332954 14.8458279,3.41180678 14.9184007,3.48437957 C14.9909729,3.55695182 15.0294507,3.64160183 15.0294507,3.73456923 C15.0294507,3.8477921 14.9923543,3.94424104 14.9184007,4.0181946 C14.8458279,4.09076739 14.7611777,4.12924463 14.668207,4.12924463 Z M14.668207,3.94174463 C14.7089862,3.94174463 14.7469351,3.92449519 14.7858182,3.88561208 C14.8233203,3.84810994 14.8419507,3.79967181 14.8419507,3.73456923 C14.8419507,3.69379383 14.824701,3.65584491 14.7858182,3.61696209 C14.7469351,3.57807898 14.7089862,3.56082954 14.668207,3.56082954 L2.66460882,3.56082954 C2.62383243,3.56082954 2.58588388,3.57807908 2.54700111,3.61696185 C2.5081187,3.65584455 2.49086913,3.69379351 2.49086913,3.73456923 C2.49086913,3.79967212 2.50949936,3.84811029 2.54700087,3.88561208 C2.58588388,3.92449509 2.62383243,3.94174463 2.66460882,3.94174463 L14.668207,3.94174463 Z M3.09927948,14.3941618 L3.02480841,14.3573602 L2.47489788,13.6382459 L14.668207,13.6382459 L14.761957,13.7319959 L14.761957,14.3004118 L14.668207,14.3941618 L3.09927948,14.3941618 Z M14.574457,14.2066618 L14.574457,13.8257459 L2.85431977,13.8257459 L3.14560818,14.2066618 L14.574457,14.2066618 Z M8.55739896,16.2915563 L8.56909236,16.3991094 L8.46096961,16.3953837 C7.50880505,16.3625736 6.61189433,16.1666748 5.77080821,15.8076748 C4.84591651,15.4129025 4.03343414,14.8656053 3.33391443,14.1660856 C2.63439472,13.4665659 2.08709753,12.6540835 1.69232511,11.7291917 C1.29719895,10.8034669 1.0996655,9.81015561 1.0996655,8.75000204 C1.0996655,7.68984436 1.29719896,6.69653299 1.69232511,5.77081242 C2.08709636,4.84591921 2.63439271,4.03343818 3.33391445,3.33391685 C4.03343397,2.63439775 4.84591624,2.08710012 5.77080822,1.69232598 C6.61357703,1.3326063 7.51239466,1.13664251 8.46668742,1.10442084 L8.58840766,1.10031096 L8.56123854,1.21903141 C8.55559008,1.24371344 8.55465549,1.26957793 8.55860051,1.29718587 C8.56595152,1.34865104 8.59001678,1.38646797 8.63335608,1.41537777 C9.19758596,1.77648836 9.70545617,2.20535681 10.1568157,2.70185431 C10.6073721,3.1974639 10.9904942,3.72707341 11.3046709,4.28818649 C11.6433467,4.85265304 11.9029989,5.4566278 12.0835713,6.09991962 C12.2639663,6.74256485 12.365408,7.41320214 12.3879465,8.11187227 C12.4104482,8.85453769 12.3485625,9.59715586 12.2023196,10.3396223 C12.0558695,11.0831367 11.8136838,11.8040635 11.4764138,12.5010677 C11.161295,13.1763192 10.7618985,13.823229 10.2783305,14.4417447 C9.79477619,15.0602483 9.24932031,15.6169512 8.63482095,16.1171006 C8.59001697,16.1469686 8.56595148,16.1847859 8.5585998,16.2362552 C8.5558496,16.2555023 8.55547727,16.2738811 8.55739896,16.2915563 Z M8.52360011,15.9664165 C9.12003348,15.4804338 9.65567105,14.9337517 10.1306166,14.3262595 C10.6055534,13.7187835 10.9974723,13.0839853 11.3070693,12.4205883 C11.6379617,11.7367431 11.8750215,11.0310749 12.0183543,10.3033868 C12.1618921,9.57465412 12.2226063,8.84609323 12.2005382,8.11773421 C12.1784869,7.43417264 12.0793117,6.77851852 11.9030486,6.15059304 C11.7269712,5.52331505 11.4739426,4.93474707 11.1424834,4.38222676 C10.8339151,3.83121453 10.4591535,3.31316232 10.0180769,2.82798049 C9.5778136,2.34368882 9.08260689,1.925514 8.5308196,1.5723474 C8.44187292,1.51305504 8.38792143,1.42827392 8.37298517,1.32370374 C8.37165837,1.3144185 8.37063876,1.30516834 8.3699274,1.29595682 C7.47692944,1.3376039 6.63527386,1.52721101 5.84441455,1.86477411 C4.94145299,2.25018763 4.14901057,2.78398618 3.46649693,3.46649942 C2.7839812,4.14901474 2.25018406,4.94145572 1.86477335,5.8444185 C1.47971781,6.74654516 1.2871655,7.71480845 1.2871655,8.75000204 C1.2871655,9.78519158 1.47971782,10.7534549 1.86477335,11.6555856 C2.25018514,12.5585469 2.78398319,13.3509893 3.46649695,14.0335031 C4.14901071,14.7160168 4.94145313,15.2498149 5.84441428,15.6352266 C6.63642168,15.9732783 7.47937115,16.1629451 8.37381112,16.2042229 C8.38983313,16.1021826 8.44331365,16.0194316 8.52360011,15.9664165 Z M9.15780207,1.28148102 L8.9088567,1.09525287 L9.21925392,1.11281111 C10.1045803,1.16289138 10.941383,1.35606516 11.7291877,1.69232598 C12.6540811,2.08709894 13.466562,2.63439574 14.1660831,3.33391687 C14.8656043,4.03343801 15.4129011,4.84591894 15.807674,5.77081215 C16.2028013,6.69653157 16.4003349,7.68984279 16.4003349,8.75000204 C16.4003349,9.81015718 16.2028013,10.8034684 15.807674,11.7291919 C15.4128999,12.6540838 14.8656023,13.466566 14.1660831,14.1660856 C13.4665618,14.8656073 12.6540808,15.4129036 11.7291877,15.8076748 C10.9194206,16.1533084 10.0578944,16.3477641 9.14512201,16.3910421 L8.860043,16.4045588 L9.08157648,16.2246264 C9.65245618,15.7609505 10.1580594,15.2453092 10.5985111,14.6776138 C11.0958512,14.0366005 11.5101605,13.3626564 11.8410919,12.6566777 C12.1727224,11.9270962 12.4213846,11.1811115 12.5871458,10.4186125 C12.7525228,9.65786605 12.8131629,8.88056884 12.7689476,8.08411548 C12.7469003,7.35658195 12.6367323,6.66253237 12.438493,6.00173232 C12.23969,5.33904335 11.9746049,4.69842052 11.6438722,4.0810238 C11.3132431,3.48589382 10.9109681,2.93483454 10.4369117,2.42770518 C10.0444895,2.00790177 9.61813798,1.62584376 9.15780207,1.28148102 Z M10.5738857,2.29966464 C11.0583444,2.81792209 11.4696774,3.3813895 11.8084633,3.9912242 C12.1457799,4.62088779 12.4156686,5.27311938 12.6180856,5.94785514 C12.8210859,6.6245253 12.9338255,7.33477613 12.9562602,8.07607571 C13.0013052,8.88692663 12.939347,9.68111976 12.7703664,10.4584428 C12.6017613,11.2340242 12.3488826,11.992658 12.0113255,12.7352623 C11.6739949,13.4549081 11.2524079,14.1406906 10.746652,14.7925508 C10.3551819,15.2971142 9.91331558,15.7613047 9.42112481,16.1850771 C10.2064922,16.1191681 10.9511816,15.9358863 11.6555816,15.6352266 C12.5585443,15.2498159 13.3509853,14.7160188 14.0335006,14.0335031 C14.7160138,13.3509894 15.2498124,12.558547 15.6352258,11.6555856 C16.0202824,10.7534562 16.2128349,9.78519309 16.2128349,8.75000204 C16.2128349,7.71480694 16.0202824,6.74654389 15.6352258,5.84441849 C15.2498135,4.94145558 14.7160158,4.1490146 14.0335006,3.4664994 C13.3509854,2.78398419 12.5585444,2.25018654 11.6555814,1.86477411 C10.9805209,1.57663623 10.2684621,1.39630486 9.51906151,1.32377027 C9.89398231,1.62316606 10.2455982,1.94847086 10.5738857,2.29966464 Z M8.74999796,16.78125 C9.85199616,16.78125 10.8926992,16.5720083 11.8729098,16.153492 C12.8539458,15.734622 13.7076795,15.1617941 14.4347373,14.4347375 C15.1617953,13.7076811 15.7346225,12.8539474 16.1534896,11.8729098 C16.572007,10.8926983 16.78125,9.85199518 16.78125,8.75000204 C16.78125,7.64800532 16.5720072,6.60730212 16.1534895,5.62709004 C15.7346225,4.64605454 15.1617952,3.79232081 14.4347372,3.06526281 C13.7076792,2.33820482 12.8539455,1.76537752 11.8729098,1.34651044 C10.8926979,0.927992773 9.85199468,0.71875 8.74999796,0.71875 C7.64800482,0.71875 6.60730167,0.927992964 5.62708997,1.34651054 C4.64605262,1.76537748 3.79231891,2.3382047 3.06526246,3.06526276 C2.33820592,3.79232051 1.76537804,4.64605421 1.34650802,5.62709015 C0.927991748,6.60730077 0.71875,7.64800384 0.71875,8.75000204 C0.71875,9.85199666 0.927991939,10.8926997 1.34650801,11.8729098 C1.76537799,12.8539477 2.3382058,13.7076814 3.06526243,14.4347376 C3.79231861,15.1617942 4.6460523,15.734622 5.62709015,16.153492 C6.60730032,16.5720081 7.64800334,16.78125 8.74999796,16.78125 Z M8.74999796,16.96875 C7.6229069,16.96875 6.55714852,16.7544705 5.55346424,16.3259318 C4.5506106,15.8977472 3.67682361,15.3114642 2.9326799,14.5673201 C2.18853575,13.8231764 1.60225282,12.9493894 1.17406823,11.9465357 C0.745529526,10.9428515 0.53125,9.8770931 0.53125,8.75000204 C0.53125,7.62290741 0.74552933,6.55714898 1.17406828,5.55346418 C1.6022529,4.55061248 2.18853584,3.67682558 2.93267981,2.93268037 C3.67682392,2.18853461 4.55061111,1.60225217 5.55346421,1.17407071 C6.55714975,0.745530583 7.6229083,0.53125 8.74999796,0.53125 C9.87709118,0.53125 10.9428498,0.745530387 11.9465356,1.17407063 C12.949387,1.60225224 13.8231741,2.1885347 14.5673197,2.93268029 C15.3114653,3.67682589 15.8977478,4.55061299 16.3259293,5.55346421 C16.7544696,6.55715021 16.96875,7.62290882 16.96875,8.75000204 C16.96875,9.8770917 16.7544694,10.9428503 16.3259294,11.9465356 C15.8977478,12.9493889 15.3114654,13.8231761 14.5673197,14.5673202 C13.8231744,15.3114642 12.9493875,15.8977471 11.9465357,16.3259318 C10.942851,16.7544707 9.87709259,16.96875 8.74999796,16.96875 Z M8.74999796,16.4468879 C8.77655662,16.4468879 8.79743269,16.4409233 8.81502113,16.4291974 C8.85187506,16.4046276 8.89422275,16.3804296 8.90604812,16.3883249 C8.93790367,16.3405433 8.94926445,16.2913127 8.94139951,16.2362504 C8.93404896,16.184789 8.90998131,16.1469692 8.85796121,16.1117731 C8.25068229,15.6169533 7.70522598,15.060251 7.22166539,14.4417447 C6.73809417,13.8232195 6.33869622,13.1763091 6.02414657,12.5022555 C5.68631117,11.804053 5.44412421,11.0831256 5.29767626,10.3396222 C5.15143247,9.59715125 5.08954778,8.85453291 5.11205926,8.11168872 C5.13459188,7.41320656 5.23603251,6.74256911 5.41642448,6.09992016 C5.59699804,5.45662426 5.85665111,4.85264976 6.19392195,4.2906133 C6.50950398,3.72707662 6.89262528,3.19746685 7.34318026,2.70185431 C7.7945457,2.2053548 8.30241623,1.77648696 8.8651785,1.41633504 C8.9099815,1.38646729 8.93404892,1.34864796 8.94139959,1.29718519 C8.94926447,1.24212529 8.93790318,1.19289213 8.90604651,1.14511003 C8.87617876,1.10030704 8.83835943,1.07623962 8.78689734,1.06888905 C8.72288995,1.05974657 8.66510756,1.06419161 8.63482259,1.07080559 C8.03922105,1.46787329 7.51004237,1.91987943 7.04711414,2.42689798 C6.58426601,2.93382439 6.18753193,3.49586325 5.85612801,4.11445908 C5.52505069,4.71040311 5.26018742,5.33945186 5.06150277,6.00173267 C4.86326521,6.66252722 4.7530991,7.35657627 4.73095108,8.0864761 C4.6868311,8.88063255 4.74748295,9.66359446 4.91291278,10.4356039 C5.07861059,11.2088563 5.32711007,11.9488332 5.65844406,12.6556812 C5.98984099,13.3626597 6.40415122,14.0366036 6.90148917,14.6776141 C7.3980695,15.3176533 7.97746347,15.8915296 8.64910938,16.4074729 C8.66079805,16.4191611 8.67604964,16.4283122 8.69605765,16.4349809 C8.72071148,16.443199 8.73915533,16.4468879 8.74999796,16.4468879 Z M8.74999796,16.6343879 C8.71626382,16.6343879 8.6789795,16.6269308 8.63676709,16.6128597 C8.58989867,16.5972385 8.54942876,16.572956 8.52577914,16.5481662 C7.85071815,16.0306215 7.25985761,15.4453878 6.75334822,14.7925511 C6.24759465,14.1406938 5.82600684,13.4549118 5.4886705,12.7352626 C5.15128235,12.015499 4.89824223,11.262001 4.72957483,10.4748906 C4.56064218,9.68653462 4.49869587,8.88686233 4.54363844,8.07843615 C4.56617381,7.33477071 4.67891154,6.62452035 4.88191033,5.94785499 C5.08445797,5.27269757 5.35457125,4.63118006 5.69153691,4.02465949 C6.0295521,3.39369945 6.43527586,2.81892524 6.90864814,2.30047243 C7.38193009,1.78211406 7.9227003,1.32020684 8.55317147,0.903862361 C8.63427048,0.876827711 8.72137416,0.87012705 8.81340977,0.883272933 C8.91798226,0.89820952 9.00276364,0.952162584 9.06205521,1.04110265 C9.1193642,1.1270609 9.14143934,1.22272162 9.1270156,1.3236983 C9.11207902,1.4282708 9.05812595,1.51305217 8.96771718,1.57330321 C8.41739513,1.92551271 7.92218789,2.34368713 7.481919,2.82798049 C7.04084414,3.31316486 6.66608325,3.83121755 6.35610926,4.38465401 C6.02605505,4.93474435 5.77302561,5.52331176 5.59694736,6.15059304 C5.42068727,6.77852213 5.32151293,7.43417678 5.2994675,8.11755118 C5.27738974,8.84608905 5.33810297,9.57464976 5.48164156,10.3033867 C5.62497224,11.031064 5.86203334,11.7367329 6.19349131,12.4217764 C6.50251888,13.0839752 6.89443937,13.7187744 7.36937935,14.3262595 C7.8443308,14.9337542 8.37996898,15.4804358 8.96918424,15.9610905 C9.0581267,16.0203863 9.11207906,16.1051667 9.12701557,16.2097376 C9.14143911,16.3107166 9.11936468,16.4063736 9.02598007,16.524181 C8.98470183,16.5448212 8.94903115,16.565204 8.91902885,16.5852059 C8.86974528,16.6180623 8.81260588,16.6343879 8.74999796,16.6343879 Z" id="Fill-1-Copy-57" fill-rule="nonzero"></path>
            </g>
        </g>
    </g>
</svg>