<?xml version="1.0" encoding="UTF-8"?>
<svg width="30px" height="30px" viewBox="0 0 30 30" version="1.1" xmlns="http://www.w3.org/2000/svg" xmlns:xlink="http://www.w3.org/1999/xlink">
    <!-- Generator: Sketch 52.6 (67491) - http://www.bohemiancoding.com/sketch -->
    <title>2</title>
    <desc>Created with Sketch.</desc>
    <g id="Page-1" stroke="none" stroke-width="1" fill="none" fill-rule="evenodd">
        <g id="2">
            <rect id="Rectangle-Copy-129" fill="#FB5606" x="0" y="0" width="30" height="30" rx="15"></rect>
            <path d="M11.6834958,15.8703426 C11.6791937,15.8703859 11.6748869,15.8704184 11.6705754,15.8704402 C11.6661741,15.8704175 11.6617761,15.8703831 11.6573816,15.8703371 L11.6573816,16.0267235 L11.6834958,16.0267235 L11.6834958,15.8703427 Z M10.3777855,7.49616992 C10.3743036,7.49756268 10.3699513,7.49912953 10.3647284,7.50087047 L10.3255571,7.51392758 C10.2959829,7.51392758 10.2668547,7.51459642 10.2381725,7.51593412 C10.2356899,7.56245807 10.2641733,7.58330411 10.3373524,7.63686142 C10.3730077,7.64468016 10.3730077,7.64468016 10.3777855,7.64406337 L10.3777855,7.49616993 Z M11.6705754,15.8704402 C11.674879,15.8704624 11.6791858,15.8704735 11.6834958,15.8704735 L11.6573816,15.8704735 C11.6617844,15.8704735 11.6661823,15.8704624 11.6705754,15.8704402 Z M10.0665404,16.5449304 L11.7636203,17.4540804 L13.4720629,16.5601278 L12.8782346,15.6934596 C12.8725637,15.696933 12.8668852,15.7003905 12.8611991,15.7038321 C12.509232,15.9168648 12.1116004,16.0244606 11.6697683,16.0266881 C11.26883,16.0246171 10.8930144,15.9317341 10.544383,15.7485261 L10.0665404,16.5449304 Z M9.41949299,14.8704963 C9.14993026,14.5290502 8.92540061,14.1518404 8.74598357,13.7391812 C8.58226786,13.362635 8.48462115,12.9918353 8.45364934,12.6271629 C8.37657008,12.6035149 8.30559471,12.5702562 8.24114843,12.527292 C8.15887508,12.4724431 8.07256768,12.4088482 7.96924994,12.3249701 C7.90716948,12.2628897 7.84744241,12.1832536 7.78906687,12.085961 C7.71752846,11.9667303 7.69227278,11.8404519 7.71461396,11.7480617 L7.68941319,10.6042632 C7.71048166,10.4146469 7.78547772,10.2485842 7.91269393,10.1107666 C7.99897371,10.0172969 8.0801893,9.93742179 8.15663354,9.87105441 L8.1327961,8.93907656 C8.1514308,8.67819085 8.21205695,8.42635912 8.31449023,8.1842441 C8.42021325,7.93435334 8.58779611,7.71410157 8.79925026,7.53997287 C8.97159989,7.34847328 9.19054271,7.19616523 9.45446682,7.0830549 C9.70677901,6.9749211 9.96076575,6.91834175 10.2155068,6.91400591 C10.3534521,6.85857406 10.6046974,6.77853991 10.974218,6.67178952 C11.3807176,6.55435631 11.83481,6.49590877 12.336351,6.49590877 C12.701157,6.49590877 13.031608,6.54639434 13.3272561,6.64802338 C13.6322721,6.75287261 13.8826863,6.92142064 14.0610137,7.13760518 C14.2908987,7.34833303 14.4538564,7.61194111 14.5489083,7.92561253 C14.6398897,8.22585102 14.6941375,8.56489987 14.7122448,8.95467138 L14.689633,9.74608271 C14.9161789,9.82302534 15.0569609,9.96301834 15.0890524,10.1662646 C15.1152788,10.3323645 15.1371524,10.4767304 15.1562078,10.6251508 L15.1271015,11.7137858 C15.1495606,11.8260811 15.1439116,11.9390606 15.110489,12.0504691 C15.0839589,12.138903 15.0617568,12.2099497 15.0205432,12.3082347 C14.9641812,12.3833839 14.9116685,12.4454444 14.8624005,12.4947125 C14.8198746,12.5372384 14.7674472,12.5701523 14.7058684,12.5944562 C14.6778733,12.9907473 14.5893253,13.379404 14.4404231,13.7599318 C14.2788127,14.1729363 14.0720163,14.5505644 13.8110724,14.9035979 C13.7063886,15.0213672 13.5980295,15.1315281 13.4859953,15.2340582 L14.2209339,16.3148503 L14.8955432,16.3148503 C15.328975,16.3148503 15.7322328,16.3737531 16.104851,16.4919003 C16.4864443,16.6128933 16.7927952,16.7967039 17.0039456,17.0280589 C17.2866017,17.2541837 17.4946514,17.5378879 17.6264753,17.8768636 C17.7547183,18.2066314 17.8276951,18.571515 17.8458778,18.9845688 L17.8118808,19.5553944 C17.8511749,19.6732768 17.8100864,19.7862703 17.7114494,19.8684677 C17.6328512,19.9339663 17.5464454,19.9699687 17.4547354,19.9699687 L17.4286212,19.9699687 C17.3492209,19.9699687 17.2757248,19.9332206 17.1980213,19.8684677 C17.0993844,19.7862703 17.0582958,19.6732768 17.0897072,19.6113098 L17.0635824,18.9718191 C17.0798153,18.5659966 17.008226,18.2398677 16.8521799,17.9901939 C16.690235,17.7310821 16.5067329,17.5396016 16.3065312,17.4163037 C16.0775823,17.2854757 15.8369418,17.1957454 15.5839929,17.1467875 C15.3235025,17.09637 15.0852594,17.0712918 14.869429,17.0712918 L14.2616493,17.0712918 L13.2041484,19.1930063 C13.1626343,19.2345204 13.1247388,19.2670022 13.0889351,19.2908714 C13.0493178,19.3172829 12.9984246,19.3399021 12.8847493,19.3693419 C12.7947782,19.3693419 12.7239884,19.3516445 12.669807,19.2974632 C12.6658861,19.2935422 12.6530942,19.2850143 12.5914644,19.2452347 L11.75185,18.4056203 L10.9322125,19.2452347 C10.8817721,19.2956751 10.8329994,19.3305128 10.7797379,19.3482666 C10.7366418,19.362632 10.689672,19.3693419 10.6389276,19.3693419 L10.5634028,19.3613237 C10.4899192,19.3368292 10.4367835,19.3102613 10.3978711,19.2713489 L10.2893027,19.1504504 L9.28557097,17.0712918 L8.70647632,17.0712918 C8.38865845,17.0712918 8.08400966,17.1088512 7.79222046,17.1838827 C7.50202461,17.2585045 7.23310397,17.37021 6.99353516,17.513565 C6.78496864,17.6579572 6.60353059,17.8514911 6.44902944,18.0954403 C6.30185181,18.3278261 6.23511532,18.6183261 6.25117025,18.9845688 L6.21717327,19.5553944 C6.25646739,19.6732768 6.21537886,19.7862703 6.1167419,19.8684677 C6.03903842,19.9332206 5.96554235,19.9699687 5.88614206,19.9699687 L5.86002786,19.9699687 C5.76831781,19.9699687 5.68191205,19.9339663 5.60331381,19.8684677 C5.50467685,19.7862703 5.46358832,19.6732768 5.49499966,19.6113098 L5.46891117,18.9709691 C5.48720091,18.5685947 5.57001264,18.2051432 5.71792247,17.8815905 C5.86738269,17.5546462 6.0913439,17.2700289 6.38508265,17.0314358 C6.64571908,16.8080331 6.97755202,16.6328991 7.37950465,16.5050051 C7.77832305,16.3781083 8.21209238,16.3148503 8.68036212,16.3148503 L9.32209473,16.3148503 L9.90510316,15.3215767 C9.73819347,15.187488 9.57798509,15.0390434 9.41949299,14.8704963 Z M14.3951549,10.4362077 C14.3929163,10.4402845 14.3777386,10.4382834 14.3471448,10.4382834 C14.21698,10.4382834 14.1112747,10.4005315 14.0423347,10.3143565 C13.9960368,10.2564842 13.9610281,10.1923015 13.929795,10.069487 L13.9561076,8.9588761 C13.9392396,8.65525213 13.901509,8.39113808 13.8433535,8.16682426 C13.7900399,7.96118604 13.6886261,7.79216301 13.5244712,7.64293313 C13.4224695,7.52635979 13.2676566,7.43196168 13.0573095,7.36184597 C12.8387145,7.28898098 12.5985799,7.25235028 12.336351,7.25235028 C11.8650324,7.25235028 11.4420528,7.31516903 11.0669942,7.44018859 C10.7414938,7.54868871 10.5533134,7.60856519 10.4526789,7.63213173 C10.434187,7.64397696 10.4289742,7.64530961 10.414139,7.64910224 L10.3255571,7.67017758 C10.1204587,7.67017758 9.94203246,7.70508706 9.78904984,7.77392924 C9.62413686,7.84814008 9.45852718,7.94336565 9.32023635,8.03464622 C9.20592171,8.16529152 9.10354703,8.31271105 9.0131274,8.47711039 C8.93225304,8.62415467 8.89974785,8.77584556 8.9149125,8.95384165 L8.88949695,10.0467105 C8.9120748,10.1237293 8.89533576,10.2035902 8.84453343,10.2713266 C8.81436351,10.3115532 8.78825684,10.3428812 8.73463787,10.3899025 C8.65846214,10.4356079 8.59023997,10.4886696 8.52970549,10.5492041 C8.47568849,10.6032211 8.4452413,10.6458472 8.44485679,10.6178854 L8.466348,11.7823252 C8.46981513,11.7684566 8.48421377,11.7888547 8.55594184,11.8349656 C8.65483847,11.898542 8.73249623,11.9276636 8.78481894,11.9276636 C8.91498379,11.9276636 9.02068913,11.9654156 9.08962914,12.0515906 C9.13592697,12.1094629 9.17093572,12.1736456 9.20201606,12.3006301 C9.18576396,12.625672 9.24705912,12.9648386 9.38712391,13.3191202 C9.5299044,13.6802708 9.71000226,14.0027716 9.92330756,14.281935 C10.173783,14.5825056 10.4481438,14.8236105 10.7465183,15.0059505 C11.0353871,15.1824814 11.3466803,15.270282 11.6834958,15.270282 C11.9841732,15.270282 12.273222,15.1831715 12.5535125,15.0069888 C12.8406764,14.8264858 13.082349,14.5971017 13.2803648,14.3165951 C13.4974162,14.0160623 13.664235,13.6907658 13.7810858,13.3402134 C13.8984875,12.9880081 13.9654379,12.6365188 13.9899994,12.3422379 C13.9507053,12.2243555 13.9917938,12.1113621 14.0904308,12.0291646 C14.1681343,11.9644117 14.2416304,11.9276636 14.3210306,11.9276636 C14.3451506,11.9276636 14.3652144,11.9221917 14.3842688,11.9107591 C14.3669831,11.9211305 14.3883941,11.8507801 14.3998507,11.7480617 L14.37465,10.6042632 C14.3854325,10.5072201 14.3845773,10.4396452 14.3890468,10.4285935 L14.3951549,10.4362077 Z M18.2381616,16.3148503 C18.6891647,16.3148503 19.114253,16.3781613 19.5129048,16.5050051 C19.9148574,16.6328991 20.2466904,16.8080331 20.5041708,17.0288018 C20.8019764,17.2707689 21.0221841,17.5565704 21.1629409,17.885003 C21.3012015,18.207611 21.3791513,18.5698486 21.3974098,18.9845688 L21.3634128,19.5553944 C21.4027069,19.6732768 21.3616184,19.7862703 21.2629815,19.8684677 C21.185278,19.9332206 21.1117819,19.9699687 21.0323816,19.9699687 L21.0062674,19.9699687 C20.9145574,19.9699687 20.8281516,19.9339663 20.7495534,19.8684677 C20.6509164,19.7862703 20.6098279,19.6732768 20.6412392,19.6113098 L20.6151507,18.9709691 C20.631239,18.6170261 20.5681505,18.3252415 20.4283426,18.0922284 C20.2828012,17.8496593 20.1064377,17.6572627 19.9074234,17.5190808 C19.6593055,17.37021 19.3903849,17.2585045 19.100189,17.1838827 C18.808222,17.1088055 18.5122804,17.0712918 18.2120474,17.0712918 L17.402507,17.0712918 C17.2925168,17.0712918 17.2185324,17.0564949 17.1614505,16.999413 C17.153402,16.9913645 17.1248999,16.969988 17.0808072,16.9405928 L17.0341538,16.8920615 L16.1952249,15.5109033 C16.1333406,15.449019 16.0972319,15.3768016 16.0972319,15.295961 L16.0972319,15.1915042 L16.1163107,15.1166835 L16.2518404,14.8682124 C16.2497592,14.8431559 16.2538046,14.8403938 16.3192356,14.7683632 C16.3345845,14.7514661 16.3483493,14.7368581 16.3870781,14.696211 C16.477108,14.6023295 16.5294134,14.5474699 16.5834509,14.4893549 C16.6031148,14.4681594 16.6031148,14.4681594 16.6225987,14.4469411 C16.7141774,14.3469214 16.7806289,14.2680793 16.8164103,14.2155998 C16.9438326,14.0287138 17.0672411,13.8244515 17.1748239,13.6309293 C17.2443007,13.4051295 17.3137808,13.1749769 17.3832658,12.940465 C17.4475768,12.7234155 17.471639,12.5028444 17.4631888,12.2173025 C17.4864459,12.1475314 17.5214546,12.0833486 17.5677525,12.0254764 C17.6343299,11.9422545 17.7320221,11.9015494 17.8464485,11.9015494 C17.9090438,11.9015494 17.9275809,11.8912511 17.9364018,11.8691986 C17.9558293,11.8206299 17.9592002,11.7970339 17.9678363,11.8143061 L17.9513828,11.7407962 L17.9790251,10.6436152 C17.9659658,10.5521999 17.9432091,10.4953081 17.9187625,10.4708615 C17.9106291,10.4627281 17.72322,10.4382834 17.4286212,10.4382834 C17.3492209,10.4382834 17.2757248,10.4015354 17.1980213,10.3367825 C17.0993844,10.254585 17.0582958,10.1415916 17.089614,10.0767525 L17.064233,8.93466146 C17.0803,8.77399096 17.0763118,8.62243893 17.0525264,8.47972634 C17.0273335,8.32856885 16.9981118,8.19498412 16.9716343,8.09776159 C16.9192059,7.97542861 16.8711266,7.86178673 16.8273918,7.75682317 C16.796077,7.68166756 16.7424419,7.61856746 16.619644,7.52225686 C16.6035972,7.49818675 16.5607026,7.46673069 16.4891386,7.43420159 C16.3955139,7.39164493 16.3063161,7.3534173 16.257499,7.32912251 C16.1389249,7.31218335 16.024779,7.29950046 15.9150705,7.29106135 C15.8128271,7.28319647 15.6909683,7.27898988 15.5497423,7.27851067 C15.4639149,7.30279242 15.3762576,7.27334626 15.2878375,7.21018903 C15.1873363,7.13840241 15.1392789,7.03360204 15.1538923,6.91734575 C15.1378935,6.81921693 15.1763038,6.72493978 15.2551135,6.64613016 C15.3340301,6.56721353 15.4093477,6.52202298 15.4961699,6.52202298 C15.6905689,6.52202298 15.8633192,6.52645248 16.0145723,6.53534971 C16.172166,6.54461993 16.3254076,6.56783836 16.4792065,6.60637748 C16.6119214,6.64429602 16.7398752,6.69642536 16.8629012,6.76267012 C16.9939402,6.83322956 17.1017548,6.92050803 17.1538408,6.99506863 C17.2959592,7.09658179 17.4043507,7.22045779 17.4769757,7.36570783 C17.539034,7.48982442 17.6053098,7.63121287 17.6856072,7.81951687 C17.7207839,7.97781202 17.7559195,8.14909774 17.7910252,8.33340301 C17.8285773,8.53055168 17.8379112,8.74056245 17.8198353,8.94574645 L17.8417719,9.71352746 C17.9699093,9.72331793 18.0847151,9.7460794 18.1862573,9.78234447 C18.3279826,9.83296066 18.4339291,9.89123123 18.5053322,9.96263434 C18.5973727,10.0546748 18.6560344,10.1661321 18.6791475,10.2932539 C18.6966971,10.3897765 18.7142374,10.4906332 18.733854,10.6251508 L18.7047478,11.7137858 C18.7284374,11.832234 18.7162709,11.9478155 18.6682009,12.0559731 C18.6369013,12.1263971 18.6137743,12.1919237 18.59866,12.2523809 L18.5408252,12.3394847 C18.4732091,12.3901968 18.4143432,12.4364486 18.3643046,12.4781474 C18.3177993,12.5169018 18.2598146,12.5510021 18.1900605,12.5814638 C18.1931102,12.8070797 18.1586719,13.0354992 18.087077,13.266194 C18.0077321,13.5218607 17.9239129,13.7644952 17.8273368,14.0121004 C17.7019759,14.2449136 17.5630782,14.4644615 17.4106456,14.6706939 C17.266433,14.8658051 17.1025175,15.0488555 16.9190057,15.2197992 L16.9148267,15.2406941 L17.5686609,16.3148503 L18.2381616,16.3148503 Z M21.5807799,16.3148503 C22.0142117,16.3148503 22.4174695,16.3737531 22.7900877,16.4919003 C23.1716811,16.6128933 23.4780319,16.7967039 23.6891824,17.0280589 C23.9718385,17.2541837 24.1798882,17.5378879 24.3117121,17.8768636 C24.4399551,18.2066314 24.5129318,18.571515 24.5311145,18.9845688 L24.4971176,19.5553944 C24.5364117,19.6732768 24.4953232,19.7862703 24.3966862,19.8684677 C24.3180879,19.9339663 24.2316822,19.9699687 24.1081045,19.9666844 C24.0154702,19.9473857 23.9404492,19.916127 23.8832581,19.8684677 C23.7846211,19.7862703 23.7435326,19.6732768 23.774944,19.6113098 L23.7488191,18.9718191 C23.765052,18.5659966 23.6934628,18.2398677 23.5374167,17.9901939 C23.3754718,17.7310821 23.1919697,17.5396016 22.991768,17.4163037 C22.7628191,17.2854757 22.5221786,17.1957454 22.2692297,17.1467875 C22.0087393,17.09637 21.7704962,17.0712918 21.5546657,17.0712918 L20.7451253,17.0712918 C20.6351352,17.0712918 20.5611508,17.0564949 20.5040689,16.999413 C20.4960204,16.9913645 20.4675183,16.969988 20.4234256,16.9405928 L20.3767722,16.8920615 L19.5378433,15.5109033 C19.475959,15.449019 19.4398503,15.3768016 19.4398503,15.295961 L19.4398503,15.1915042 L19.4589291,15.1166835 L19.595026,14.8671725 C19.5940342,14.8419329 19.5998319,14.8369295 19.6597003,14.7705475 C19.6870193,14.7408082 19.6870193,14.7408082 19.7230349,14.7028682 C19.8065985,14.6154423 19.8549783,14.5645061 19.9050588,14.5103313 C19.9251048,14.488588 19.9251048,14.488588 19.9449236,14.466824 C20.0269772,14.3763992 20.0866727,14.3045329 20.1189476,14.2561206 C20.2361661,14.0802928 20.3454115,13.8828108 20.4402083,13.679698 C20.5078249,13.4768482 20.5671994,13.2520736 20.6182301,13.005425 C20.667588,12.7668618 20.6840383,12.5242205 20.6752362,12.2173025 C20.6984932,12.1475314 20.733502,12.0833486 20.7797998,12.0254764 C20.8487398,11.9393014 20.9544452,11.9015494 21.08461,11.9015494 C21.0639966,11.9015494 21.0760677,11.8963761 21.0956198,11.8846449 C21.0638302,11.9037186 21.0704892,11.8571058 21.0589733,11.7407962 L21.0860009,10.638773 C21.0720363,10.5130917 21.0607597,10.4268588 21.0538339,10.3882682 C21.0635488,10.4415298 21.0462552,10.4382834 21.0062674,10.4382834 C20.9145574,10.4382834 20.8281516,10.402281 20.7495534,10.3367825 C20.6509164,10.254585 20.6098279,10.1415916 20.641146,10.0767525 L20.6159452,8.93295399 C20.6317304,8.79088742 20.6278051,8.65350324 20.60431,8.52036426 C20.5779121,8.37077624 20.5558814,8.23418559 20.5572339,8.16596182 C20.4853474,8.04016043 20.4265891,7.92716363 20.3809098,7.82666924 C20.3500605,7.75880069 20.2957354,7.69808441 20.1761838,7.60767758 C20.1411627,7.56098278 20.0789747,7.51516002 19.987621,7.47299679 C19.8795416,7.42311395 19.7760696,7.38172514 19.6837461,7.35079522 C19.5729754,7.31914645 19.4535139,7.2992362 19.3252116,7.2912173 C19.196696,7.28318508 19.0523922,7.27893619 18.8923927,7.27850161 C18.8065551,7.30279974 18.718887,7.27335411 18.6304559,7.21018903 C18.5299546,7.13840241 18.4818973,7.03360204 18.4965106,6.91734575 C18.4805119,6.81921693 18.5189222,6.72493978 18.5977318,6.64613016 C18.6766485,6.56721353 18.7519661,6.52202298 18.8387883,6.52202298 C19.0503042,6.52202298 19.2401556,6.52643813 19.4084561,6.53529605 C19.587858,6.54473825 19.7627519,6.5778263 19.9212527,6.63114504 C20.0730194,6.66908671 20.2198972,6.72594263 20.3616562,6.80154739 C20.5052595,6.87813585 20.6265403,6.96545805 20.7162405,7.05580905 C20.8533126,7.17329948 20.9578391,7.30271321 21.0285077,7.44405045 L21.2371393,7.87174528 C21.2722051,8.02954148 21.3072514,8.1960113 21.3422826,8.37116744 C21.3801111,8.56031001 21.3895332,8.75817341 21.3713673,8.94574645 L21.3943184,9.74903381 C21.5907266,9.82576061 21.7210825,9.96096738 21.7710566,10.1508691 C21.8195309,10.3350713 21.8344444,10.4991197 21.8153303,10.6178854 L21.8410897,11.7555613 C21.821924,12.0238816 21.7724728,12.2216862 21.6846736,12.353385 C21.6182164,12.4530707 21.532027,12.529296 21.4283524,12.5805196 C21.4332904,12.8196094 21.4037202,13.0554404 21.3396907,13.2875472 C21.2687199,13.5448166 21.1887914,13.7890424 21.0959077,14.0296143 C20.9883061,14.262751 20.8671314,14.4826607 20.7323739,14.6892889 C20.6029955,14.8876691 20.445686,15.0659425 20.260813,15.2238544 L20.2574451,15.2406941 L20.9112793,16.3148503 L21.5807799,16.3148503 Z M10.7407874,18.3477546 L11.132281,17.9707607 L10.3829879,17.5749078 L10.7407874,18.3477546 Z M12.7853946,18.3501669 L13.1620256,17.5679331 L12.3994728,17.9785385 L12.7853946,18.3501669 Z" id="Combined-Shape" fill="#FFFFFF"></path>
        </g>
    </g>
</svg>