<?xml version="1.0" encoding="UTF-8"?>
<svg width="30px" height="30px" viewBox="0 0 30 30" version="1.1" xmlns="http://www.w3.org/2000/svg" xmlns:xlink="http://www.w3.org/1999/xlink">
    <!-- Generator: Sketch 52.6 (67491) - http://www.bohemiancoding.com/sketch -->
    <title>3</title>
    <desc>Created with Sketch.</desc>
    <g id="Page-1" stroke="none" stroke-width="1" fill="none" fill-rule="evenodd">
        <g id="3">
            <g id="Group-43">
                <rect id="Rectangle-Copy-128" fill="#357BEB" x="0" y="0" width="30" height="30" rx="15"></rect>
                <path d="M6.24887274,10.84318 C6.15355173,10.9226142 6.06537459,10.9667028 5.97422929,10.9667028 C5.81470188,10.9667028 5.68844306,10.9216104 5.60775803,10.8207541 C5.54971518,10.7482005 5.50589779,10.6678686 5.47676823,10.58048 L5.46939169,10.5169232 C5.49395551,10.2467211 5.54954979,9.99963541 5.63652745,9.77597856 C5.72737936,9.54235936 5.87612187,9.33541326 6.06513302,9.17215778 C6.2210939,8.99020341 6.42151285,8.84797061 6.66443835,8.74568619 C6.90466383,8.64453862 7.15225834,8.59375 7.40606936,8.59375 C7.68431458,8.59375 7.93397596,8.64496259 8.15359726,8.74831379 C8.36510014,8.84784456 8.56929689,8.98397572 8.78192864,9.17215778 C8.93012654,9.34505533 9.05937771,9.54200948 9.1697398,9.76273367 C9.28783842,9.99893092 9.3336751,10.2608548 9.30689541,10.5089723 C9.32888681,10.6629121 9.36170392,10.8051195 9.40521635,10.9356568 C9.44222457,11.0466815 9.50608553,11.1379115 9.62345584,11.2366881 C9.69887702,11.3309646 9.79820665,11.4019143 9.92422632,11.4503834 C10.0582883,11.5019457 10.1849396,11.527276 10.3046724,11.527276 C10.4699729,11.527276 10.6053742,11.5022017 10.7114753,11.4539739 C10.8217339,11.4038564 10.9286881,11.3274605 11.0323373,11.2238113 C11.1130353,11.1431133 11.184898,11.0404523 11.247529,10.9151903 C11.3029562,10.8043359 11.3212986,10.6851103 11.3015208,10.5169232 C11.3260846,10.2467211 11.3816789,9.99963541 11.4686565,9.77597856 C11.5595085,9.54235936 11.708251,9.33541326 11.8972621,9.17215778 C12.053223,8.99020341 12.2536419,8.84797061 12.4965674,8.74568619 C12.7363194,8.64473798 12.9721388,8.59375 13.2032755,8.59375 C13.5044105,8.59375 13.7655597,8.64470594 13.9857264,8.74831379 C14.1972292,8.84784456 14.401426,8.98397572 14.6140577,9.17215778 C14.7622556,9.34505533 14.8915068,9.54200948 15.0018689,9.76273367 C15.1199675,9.99893092 15.1658042,10.2608548 15.1390245,10.5089723 C15.1610159,10.6629121 15.193833,10.8051195 15.2373454,10.9356568 C15.2743537,11.0466815 15.3382146,11.1379115 15.4555849,11.2366881 C15.5310061,11.3309646 15.6303357,11.4019143 15.7563554,11.4503834 C15.8904174,11.5019457 16.0170687,11.527276 16.1368015,11.527276 C16.302102,11.527276 16.4375033,11.5022017 16.5436044,11.4539739 C16.653863,11.4038564 16.7608172,11.3274605 16.8644664,11.2238113 C16.9451644,11.1431133 17.0170271,11.0404523 17.0796581,10.9151903 C17.1350853,10.8043359 17.1534277,10.6851103 17.1336499,10.5169232 C17.1582137,10.2467211 17.213808,9.99963541 17.3007856,9.77597856 C17.3916375,9.54235936 17.5403801,9.33541326 17.7208792,9.18302546 C17.8558017,8.99413397 18.0547069,8.84827015 18.3138392,8.74461723 C18.5643506,8.64441267 18.8049983,8.59375 19.0354046,8.59375 C19.3127824,8.59375 19.567206,8.64463472 19.7973223,8.74690866 C20.0214834,8.8465358 20.2326027,8.98314244 20.4546988,9.18302546 C20.5760523,9.35292027 20.6907875,9.54615851 20.7990751,9.76273367 C20.9171737,9.99893092 20.9630104,10.2608548 20.9362307,10.5089723 C20.9576855,10.659156 20.994992,10.7977232 21.0480121,10.9249713 C21.0961624,11.0405321 21.1674767,11.1356179 21.287714,11.2366881 C21.3631352,11.3309646 21.4624648,11.4019143 21.5884845,11.4503834 C21.7231297,11.5021701 21.8386171,11.527276 21.9340077,11.527276 C22.0993081,11.527276 22.2347094,11.5022017 22.3408105,11.4539739 C22.4552132,11.4019727 22.5775098,11.322214 22.6820809,11.2405467 C22.7479831,11.1526771 22.820458,11.0411773 22.8991145,10.9063376 C22.9627664,10.79722 22.9850322,10.6814381 22.9698025,10.4931732 C22.9982305,10.3794612 23.0425279,10.2834835 23.1041453,10.2064617 C23.1824678,10.1085586 23.2977773,10.060513 23.4356936,10.060513 C23.5450212,10.060513 23.6490442,10.1038559 23.74526,10.1840358 C23.8619895,10.2813103 23.9042439,10.4186372 23.8705516,10.5155219 C23.8967735,10.7777406 23.8505745,11.0285354 23.7326011,11.2644821 C23.622239,11.4852063 23.4929878,11.6821605 23.3290474,11.870962 C23.1321582,12.0432401 22.9279614,12.1793712 22.7164585,12.278902 C22.4968372,12.3822532 22.2471758,12.4334658 21.9689306,12.4334658 C21.7151196,12.4334658 21.4675251,12.3826772 21.2272996,12.2815296 C20.9843741,12.1792452 20.7839552,12.0370124 20.6437368,11.870962 C20.4389831,11.6918025 20.2902406,11.4848564 20.1993887,11.2512372 C20.1127207,11.0283767 20.0570626,10.7933756 20.0331817,10.5089723 C20.0520308,10.3770285 20.0336884,10.2578028 19.9782612,10.1469484 C19.9161561,10.0227384 19.8541981,9.90823517 19.792425,9.8034576 C19.6670845,9.72090697 19.54694,9.64830055 19.4320435,9.58562976 C19.3285649,9.52918689 19.196953,9.49993979 19.0354046,9.49993979 C18.9194363,9.49993979 18.7959967,9.52956528 18.6643459,9.59032723 C18.5348209,9.65010799 18.4447388,9.71648423 18.367129,9.81295365 C18.2486616,9.91167652 18.1727639,10.0160358 18.1359485,10.1264819 C18.0924361,10.2570192 18.059619,10.3992267 18.0384225,10.5155219 C18.0646444,10.7777406 18.0184454,11.0285354 17.900472,11.2644821 C17.7901099,11.4852063 17.6608587,11.6821605 17.4969183,11.870962 C17.3000291,12.0432401 17.0958323,12.1793712 16.8843294,12.278902 C16.6647081,12.3822532 16.4150468,12.4334658 16.1368015,12.4334658 C15.8829905,12.4334658 15.635396,12.3826772 15.3951705,12.2815296 C15.152245,12.1792452 14.9518261,12.0370124 14.8116077,11.870962 C14.6050344,11.6902103 14.4610229,11.480739 14.3821151,11.2440156 C14.3085526,11.0233283 14.2595985,10.7907961 14.2359755,10.5089723 C14.2543,10.3807007 14.2320343,10.2649187 14.1683823,10.1558011 C14.0942217,10.0286686 14.0249312,9.91126687 13.9605154,9.80360217 C13.8350957,9.72099174 13.7148779,9.64833713 13.5999144,9.58562976 C13.4964358,9.52918689 13.3648239,9.49993979 13.2032755,9.49993979 C13.0873072,9.49993979 12.9638676,9.52956528 12.8322168,9.59032723 C12.7026918,9.65010799 12.6126097,9.71648423 12.5349999,9.81295365 C12.4165325,9.91167652 12.3406348,10.0160358 12.3038194,10.1264819 C12.260307,10.2570192 12.2274899,10.3992267 12.2062934,10.5155219 C12.2325153,10.7777406 12.1863163,11.0285354 12.0683429,11.2644821 C11.9579808,11.4852063 11.8287296,11.6821605 11.6723833,11.8638573 C11.4958661,12.0403746 11.2936765,12.1793799 11.0665902,12.2803071 C10.8364738,12.3825811 10.5820502,12.4334658 10.3046724,12.4334658 C10.0742661,12.4334658 9.83361841,12.3828031 9.58310701,12.2825986 C9.32774926,12.1804555 9.12054667,12.0380037 8.97188451,11.8638573 C8.79368652,11.6856593 8.65944463,11.4811003 8.57005346,11.2512372 C8.48338548,11.0283767 8.42772733,10.7933756 8.4038464,10.5089723 C8.42217092,10.3807007 8.39990516,10.2649187 8.33625324,10.1558011 C8.26209262,10.0286686 8.19280208,9.91126687 8.12838629,9.80360217 C8.00296658,9.72099174 7.88274884,9.64833713 7.76778533,9.58562976 C7.6633867,9.52868505 7.54361477,9.49993979 7.40606936,9.49993979 C7.29010103,9.49993979 7.16666148,9.52956528 7.0350106,9.59032723 C6.89954268,9.65285088 6.79255784,9.72417411 6.71332744,9.80340451 C6.61104973,9.90568222 6.53532953,10.0167385 6.48515081,10.1371674 C6.43569765,10.255855 6.39991488,10.3843899 6.37791466,10.5230136 C6.40175556,10.6432419 6.35323521,10.7562113 6.24887274,10.84318 Z M22.0038536,16.6519147 C21.7027186,16.6519147 21.4415694,16.6009588 21.2214027,16.4973509 C21.0137435,16.3996289 20.8125755,16.2777089 20.5930714,16.1084299 C20.4440225,15.9345395 20.3143364,15.7307472 20.2038054,15.4974039 C20.0870172,15.2508509 20.0411668,14.995399 20.0681046,14.7716154 C20.0461132,14.6176756 20.0132961,14.4754681 19.9697836,14.3449308 C19.9327754,14.2339062 19.8689145,14.1426762 19.7515442,14.0438995 C19.676123,13.9496231 19.5767933,13.8786733 19.4507737,13.8302042 C19.3167117,13.7786419 19.1900604,13.7533117 19.0703276,13.7533117 C18.9050271,13.7533117 18.7696258,13.778386 18.6635247,13.8266137 C18.5532661,13.8767313 18.4463119,13.9531271 18.3426627,14.0567764 C18.2619647,14.1374744 18.190102,14.2401354 18.127471,14.3653974 C18.0720438,14.4762518 18.0537014,14.5954774 18.0733455,14.7650658 C18.0487463,15.011057 17.9933799,15.2509783 17.9073338,15.4845319 C17.8166973,15.7305453 17.6676674,15.9443708 17.4695895,16.1172292 C17.3148286,16.27199 17.1174118,16.3993557 16.8784326,16.4999786 C16.6386806,16.6009268 16.4028612,16.6519147 16.1717245,16.6519147 C15.8705895,16.6519147 15.6094403,16.6009588 15.3892736,16.4973509 C15.1816144,16.3996289 14.9804464,16.2777089 14.7609423,16.1084299 C14.6104031,15.9328008 14.4855821,15.7268462 14.3863413,15.4911493 C14.2831578,15.2460886 14.2442087,14.9929189 14.2708984,14.7716154 C14.2494436,14.6214317 14.2121371,14.4828645 14.159117,14.3556164 C14.1109667,14.2400555 14.0396524,14.1449698 13.9194151,14.0438995 C13.8439939,13.9496231 13.7446643,13.8786733 13.6186446,13.8302042 C13.4845826,13.7786419 13.3579313,13.7533117 13.2381985,13.7533117 C13.072898,13.7533117 12.9374967,13.778386 12.8313956,13.8266137 C12.721137,13.8767313 12.6141828,13.9531271 12.5105336,14.0567764 C12.4298356,14.1374744 12.3579729,14.2401354 12.2953419,14.3653974 C12.2399147,14.4762518 12.2215723,14.5954774 12.2412164,14.7650658 C12.2166172,15.011057 12.1612508,15.2509783 12.0752047,15.4845319 C11.9845682,15.7305453 11.8355383,15.9443708 11.6470095,16.1067726 C11.5124151,16.2682858 11.3164403,16.3989357 11.0611608,16.5010475 C10.8106494,16.6012521 10.5700017,16.6519147 10.3395954,16.6519147 C10.0622176,16.6519147 9.80779404,16.60103 9.57767767,16.4987561 C9.35736423,16.400839 9.14931419,16.2784566 8.92030116,16.0975622 C8.79820713,15.9266306 8.68303073,15.7265874 8.57447015,15.4974039 C8.4576819,15.2508509 8.41183156,14.995399 8.43876933,14.7716154 C8.41731452,14.6214317 8.38000796,14.4828645 8.32698792,14.3556164 C8.27883757,14.2400555 8.20752328,14.1449698 8.08728597,14.0438995 C8.01186479,13.9496231 7.91253516,13.8786733 7.78651549,13.8302042 C7.6518703,13.7784176 7.53638289,13.7533117 7.44099229,13.7533117 C7.27569186,13.7533117 7.14029056,13.778386 7.03418947,13.8266137 C6.91978677,13.878615 6.79749016,13.9583736 6.69291908,14.0400409 C6.62701687,14.1279106 6.554542,14.2394104 6.47588549,14.3742501 C6.41223356,14.4833677 6.38996781,14.5991496 6.40519748,14.7874145 C6.37676949,14.9011265 6.33247208,14.9971042 6.27085468,15.0741259 C6.19253219,15.1720291 6.07722273,15.2200747 5.93930636,15.2200747 C5.82997878,15.2200747 5.72595576,15.1767317 5.62973997,15.0965519 C5.51301048,14.9992773 5.47075607,14.8619505 5.50444837,14.7650658 C5.47830555,14.5036376 5.52415589,14.2481857 5.64094414,14.0016327 C5.75147516,13.7682894 5.88116122,13.5644971 6.05509393,13.3672929 C6.24971421,13.2213277 6.45088218,13.0994077 6.65854147,13.0016857 C6.87870815,12.8980778 7.13985736,12.8471219 7.44099229,12.8471219 C7.67212898,12.8471219 7.90794839,12.8981098 8.14770038,12.9990581 C8.38667966,13.0996809 8.58409645,13.2270466 8.73126321,13.3747028 C8.93693523,13.5546658 9.08596512,13.7684913 9.17660166,14.0145047 C9.2626477,14.2480583 9.31801417,14.4879796 9.34181834,14.7716154 C9.32296922,14.9035592 9.34131163,15.0227848 9.39673883,15.1336393 C9.46264811,15.2654578 9.52776549,15.3739868 9.56655097,15.4327111 C9.69609324,15.540663 9.81838985,15.6204216 9.93279255,15.6724229 C10.0388936,15.7206506 10.1742949,15.745725 10.3395954,15.745725 C10.4593282,15.745725 10.5859795,15.7203947 10.7200415,15.6688324 C10.8402497,15.6225984 10.9229399,15.5573167 10.9739165,15.4723557 L11.0212279,15.4227378 C11.1329655,15.3482461 11.2038899,15.2595906 11.2390515,15.1541058 C11.2825639,15.0235685 11.315381,14.881361 11.3365775,14.7650658 C11.3104346,14.5036376 11.356285,14.2481857 11.4730732,14.0016327 C11.5836043,13.7682894 11.7132903,13.5644971 11.887223,13.3672929 C12.0818433,13.2213277 12.2830113,13.0994077 12.4906706,13.0016857 C12.7102919,12.8983345 12.9599532,12.8471219 13.2381985,12.8471219 C13.4920095,12.8471219 13.739604,12.8979105 13.9798295,12.9990581 C14.2188088,13.0996809 14.4162255,13.2270466 14.5633923,13.3747028 C14.7690643,13.5546658 14.9180942,13.7684913 15.0087308,14.0145047 C15.0947768,14.2480583 15.1501433,14.4879796 15.1739474,14.7716154 C15.1550983,14.9035592 15.1734407,15.0227848 15.2288679,15.1336393 C15.2947772,15.2654578 15.3598946,15.3739868 15.3986801,15.4327111 C15.5282223,15.540663 15.6505189,15.6204216 15.7649216,15.6724229 C15.8710227,15.7206506 16.006424,15.745725 16.1717245,15.745725 C16.2914573,15.745725 16.4181086,15.7203947 16.5521706,15.6688324 C16.6723788,15.6225984 16.755069,15.5573167 16.8060456,15.4723557 L16.853357,15.4227378 C16.9650946,15.3482461 17.036019,15.2595906 17.0711806,15.1541058 C17.114693,15.0235685 17.1475101,14.881361 17.1687066,14.7650658 C17.1425637,14.5036376 17.1884141,14.2481857 17.3052023,14.0016327 C17.4157333,13.7682894 17.5454194,13.5644971 17.711416,13.373659 C17.8860935,13.2239354 18.0852496,13.0994629 18.3084098,13.0002805 C18.5385262,12.8980066 18.7929498,12.8471219 19.0703276,12.8471219 C19.3007339,12.8471219 19.5413816,12.8977845 19.791893,12.9979891 C20.0433203,13.09856 20.2474477,13.2261396 20.4031155,13.3818074 C20.5821712,13.5608631 20.7166784,13.7722316 20.8059369,14.0145047 C20.891983,14.2480583 20.9473494,14.4879796 20.9711536,14.7716154 C20.9528291,14.899887 20.9750948,15.0156689 21.0387468,15.1247865 C21.1174033,15.2596263 21.1898781,15.3711261 21.2308092,15.4327111 C21.3603514,15.540663 21.482648,15.6204216 21.5970507,15.6724229 C21.7039715,15.7210232 21.8274801,15.745725 21.9689306,15.745725 C22.0886634,15.745725 22.2153148,15.7203947 22.3493768,15.6688324 C22.4753964,15.6203633 22.5747261,15.5494135 22.6745494,15.4307349 C22.7703845,15.3540668 22.8416988,15.2589811 22.8898492,15.1434202 C22.9428692,15.0161721 22.9801758,14.8776049 23.0047254,14.7874145 C22.9671433,14.6370861 23.0093978,14.4997593 23.1261273,14.4024847 C23.2214483,14.3230505 23.3096254,14.2789619 23.4007707,14.2789619 C23.5602981,14.2789619 23.6865569,14.3240544 23.767242,14.4249107 C23.8288594,14.5019324 23.8731568,14.5979101 23.9054746,14.7650658 C23.8808754,15.011057 23.825509,15.2509783 23.7394629,15.4845319 C23.6475974,15.7338812 23.4954145,15.9389973 23.309867,16.073507 C23.1539061,16.2554613 22.9534871,16.3976941 22.7105617,16.4999786 C22.4708097,16.6009268 22.2349903,16.6519147 22.0038536,16.6519147 Z M23.7326011,19.7363029 C23.622239,19.9570271 23.4929878,20.1539813 23.3290474,20.3427828 C23.1321582,20.5150609 22.9279614,20.651192 22.7164585,20.7507228 C22.4968372,20.854074 22.2471758,20.9052866 21.9689306,20.9052866 C21.7151196,20.9052866 21.4675251,20.854498 21.2272996,20.7533504 C20.9843741,20.651066 20.7839552,20.5088332 20.6437368,20.3427828 C20.4389831,20.1636233 20.2902406,19.9566772 20.1993887,19.723058 C20.1124111,19.4994012 20.0568168,19.2523155 20.0331817,18.9458702 C20.0520308,18.8139263 20.0336884,18.6947007 19.9782612,18.5838463 C19.9123519,18.4520277 19.8472345,18.3434988 19.808449,18.2847745 C19.6789068,18.1768226 19.5566101,18.0970639 19.4422075,18.0450627 C19.3361064,17.9968349 19.2007051,17.9717606 19.0354046,17.9717606 C18.9156718,17.9717606 18.7890205,17.9970909 18.6549585,18.0486532 C18.5347503,18.0948871 18.4520601,18.1601688 18.4010835,18.2451298 L18.3537721,18.2947477 C18.2420345,18.3692395 18.1711101,18.4578949 18.1359485,18.5633798 C18.0924361,18.6939171 18.059619,18.8361245 18.0385563,18.953821 C18.0644073,19.2381819 18.0185706,19.5001057 17.900472,19.7363029 C17.7901099,19.9570271 17.6608587,20.1539813 17.4969183,20.3427828 C17.3000291,20.5150609 17.0958323,20.651192 16.8843294,20.7507228 C16.6647081,20.854074 16.4150468,20.9052866 16.1368015,20.9052866 C15.8829905,20.9052866 15.635396,20.854498 15.3951705,20.7533504 C15.152245,20.651066 14.9518261,20.5088332 14.8116077,20.3427828 C14.6050344,20.1620311 14.4610229,19.9525599 14.3821151,19.7158364 C14.3083021,19.4943976 14.2593814,19.2497939 14.2359755,18.9458702 C14.2543,18.8175985 14.2320343,18.7018166 14.1683823,18.592699 C14.0897258,18.4578593 14.017251,18.3463595 13.9763199,18.2847745 C13.8467777,18.1768226 13.7244811,18.0970639 13.6100784,18.0450627 C13.5039773,17.9968349 13.368576,17.9717606 13.2032755,17.9717606 C13.0835427,17.9717606 12.9568914,17.9970909 12.8228294,18.0486532 C12.7026212,18.0948871 12.619931,18.1601688 12.5689544,18.2451298 L12.521643,18.2947477 C12.4099054,18.3692395 12.338981,18.4578949 12.3038194,18.5633798 C12.260307,18.6939171 12.2274899,18.8361245 12.2064272,18.953821 C12.2322782,19.2381819 12.1864415,19.5001057 12.0683429,19.7363029 C11.9579808,19.9570271 11.8287296,20.1539813 11.6723833,20.3356781 C11.4958661,20.5121954 11.2936765,20.6512007 11.0665902,20.7521279 C10.8364738,20.8544019 10.5820502,20.9052866 10.3046724,20.9052866 C10.0742661,20.9052866 9.83361841,20.8546239 9.58310701,20.7544194 C9.32774926,20.6522763 9.12054667,20.5098245 8.97188451,20.3356781 C8.79368652,20.1574801 8.65944463,19.9529211 8.57005346,19.723058 C8.4830758,19.4994012 8.42748152,19.2523155 8.4038464,18.9458702 C8.42217092,18.8175985 8.39990516,18.7018166 8.33625324,18.592699 C8.25759673,18.4578593 8.18512186,18.3463595 8.14419084,18.2847745 C8.01464857,18.1768226 7.89235196,18.0970639 7.77794926,18.0450627 C7.67102846,17.9964623 7.54751987,17.9717606 7.40606936,17.9717606 C7.28633656,17.9717606 7.15968524,17.9970909 7.02562324,18.0486532 C6.89960357,18.0971223 6.80027393,18.168072 6.70045061,18.2867506 C6.60461545,18.3634188 6.53330116,18.4585045 6.48515081,18.5740653 C6.43213076,18.7013134 6.39482421,18.8398806 6.37027455,18.9300711 C6.40785665,19.0803994 6.36560224,19.2177263 6.24887274,19.3150009 C6.15355173,19.394435 6.06537459,19.4385236 5.97422929,19.4385236 C5.81470188,19.4385236 5.68844306,19.3934312 5.60775803,19.2925749 C5.54614064,19.2155531 5.50184323,19.1195754 5.46952544,18.9524198 C5.49420132,18.705661 5.54985947,18.4706599 5.63652745,18.2477994 C5.72737936,18.0141802 5.87612187,17.8072341 6.06513302,17.6439786 C6.2210939,17.4620242 6.42151285,17.3197914 6.66443835,17.217507 C6.90466383,17.1163594 7.15225834,17.0655708 7.40606936,17.0655708 C7.68431458,17.0655708 7.93397596,17.1167834 8.15359726,17.2201346 C8.36510014,17.3196654 8.56929689,17.4557965 8.78192864,17.6439786 C8.93012654,17.8168761 9.05937771,18.0138303 9.1697398,18.2345545 C9.28771319,18.4705013 9.33391223,18.721296 9.30689541,18.9458702 C9.32888681,19.0998099 9.36170392,19.2420174 9.40521635,19.3725547 C9.44387543,19.488532 9.51220425,19.5959058 9.61193052,19.6956321 C9.68869478,19.7723964 9.79233201,19.8365527 9.92422632,19.8872813 C10.0582883,19.9388436 10.1849396,19.9641739 10.3046724,19.9641739 C10.4699729,19.9641739 10.6053742,19.9390996 10.7114753,19.8908718 C10.8275693,19.8381018 10.9387635,19.7692673 11.020812,19.7085089 C11.1069832,19.6007949 11.1825479,19.4820505 11.247529,19.3520882 C11.3029562,19.2412338 11.3212986,19.1220081 11.3016545,18.9524198 C11.3263304,18.705661 11.3819886,18.4706599 11.4686565,18.2477994 C11.5595085,18.0141802 11.708251,17.8072341 11.8972621,17.6439786 C12.053223,17.4620242 12.2536419,17.3197914 12.4965674,17.217507 C12.7363194,17.1165588 12.9721388,17.0655708 13.2032755,17.0655708 C13.5044105,17.0655708 13.7655597,17.1165268 13.9857264,17.2201346 C14.1972292,17.3196654 14.401426,17.4557965 14.6140577,17.6439786 C14.7622556,17.8168761 14.8915068,18.0138303 15.0018689,18.2345545 C15.1198423,18.4705013 15.1660413,18.721296 15.1390245,18.9458702 C15.1610159,19.0998099 15.193833,19.2420174 15.2373454,19.3725547 C15.2760045,19.488532 15.3443333,19.5959058 15.4440596,19.6956321 C15.5208239,19.7723964 15.6244611,19.8365527 15.7563554,19.8872813 C15.8904174,19.9388436 16.0170687,19.9641739 16.1368015,19.9641739 C16.302102,19.9641739 16.4375033,19.9390996 16.5436044,19.8908718 C16.6596983,19.8381018 16.7708926,19.7692673 16.8529411,19.7085089 C16.9391123,19.6007949 17.0146769,19.4820505 17.0796581,19.3520882 C17.1350853,19.2412338 17.1534277,19.1220081 17.1337836,18.9524198 C17.1584595,18.705661 17.2141177,18.4706599 17.3007856,18.2477994 C17.3916375,18.0141802 17.5403801,17.8072341 17.7208792,17.6548463 C17.8558017,17.4659548 18.0547069,17.320091 18.3138392,17.216438 C18.5643506,17.1162335 18.8049983,17.0655708 19.0354046,17.0655708 C19.3127824,17.0655708 19.567206,17.1164555 19.7973223,17.2187295 C20.0214834,17.3183566 20.2326027,17.4549632 20.4546988,17.6548463 C20.5760523,17.8247411 20.6907875,18.0179793 20.7990751,18.2345545 C20.9170484,18.4705013 20.9632475,18.721296 20.9362307,18.9458702 C20.9576855,19.0960539 20.994992,19.2346211 21.0480121,19.3618692 C21.0981908,19.4822981 21.173911,19.5933544 21.2761887,19.6956321 C21.352953,19.7723964 21.4565902,19.8365527 21.5884845,19.8872813 C21.7231297,19.9390679 21.8386171,19.9641739 21.9340077,19.9641739 C22.0993081,19.9641739 22.2347094,19.9390996 22.3408105,19.8908718 C22.4520612,19.8403033 22.5689523,19.7751349 22.6913369,19.6952851 C22.7557274,19.5876612 22.8249882,19.4703092 22.8991145,19.3432355 C22.9627664,19.2341179 22.9850322,19.1183359 22.9667077,18.9900643 L22.9731555,18.9185567 C23.0022851,18.831168 23.0461025,18.7508361 23.1041453,18.6782825 C23.1824678,18.5803794 23.2977773,18.5323338 23.4356936,18.5323338 C23.5450212,18.5323338 23.6490442,18.5756767 23.74526,18.6558566 C23.8513901,18.7442983 23.8997704,18.8596289 23.8730282,18.9821381 C23.8934053,19.2555877 23.8467692,19.5079667 23.7326011,19.7363029 Z" id="Combined-Shape" fill="#FFFFFF"></path>
            </g>
        </g>
    </g>
</svg>