<?xml version="1.0" encoding="UTF-8"?>
<svg width="30px" height="30px" viewBox="0 0 30 30" version="1.1" xmlns="http://www.w3.org/2000/svg" xmlns:xlink="http://www.w3.org/1999/xlink">
    <!-- Generator: Sketch 52.6 (67491) - http://www.bohemiancoding.com/sketch -->
    <title>4</title>
    <desc>Created with Sketch.</desc>
    <g id="Page-1" stroke="none" stroke-width="1" fill="none" fill-rule="evenodd">
        <g id="4">
            <rect id="Rectangle-Copy-133" fill="#FF006E" x="0" y="0" width="30" height="30" rx="15"></rect>
            <path d="M14.982004,23.4361191 C14.7591776,23.4361191 14.5375061,23.3876283 14.3185087,23.2918186 C14.0962383,23.1945748 13.9236381,23.0723158 13.8319691,22.9515956 C13.6350367,22.7827987 13.4979762,22.5880285 13.4249123,22.3688378 C13.3603541,22.1751643 13.315188,21.9751419 13.289416,21.7147077 C13.3151879,21.508541 13.3603541,21.3085187 13.4249123,21.1148445 C13.4979762,20.8956539 13.6350367,20.7008836 13.8035134,20.5615232 C13.9236384,20.4113666 14.0962388,20.2891074 14.3185105,20.1918632 C14.5375061,20.0960544 14.7591776,20.0475637 14.982004,20.0475637 C15.2307559,20.0475637 15.4561538,20.0968693 15.6556464,20.1966167 C15.8386717,20.2881279 16.0087846,20.3993557 16.1937198,20.5581345 C16.3259291,20.7167852 16.4379709,20.894733 16.5298046,21.0915164 C16.6310678,21.3085177 16.6677404,21.5358931 16.6386039,21.7147077 C16.6677404,21.9477898 16.6310678,22.1751653 16.5298026,22.3921701 C16.4379709,22.5889494 16.3259291,22.7668972 16.1657111,22.9535564 C16.0087855,23.0843264 15.8386725,23.1955543 15.6556486,23.2870649 C15.4561538,23.3868134 15.2307559,23.4361191 14.982004,23.4361191 Z M15.5509404,21.49476 C15.5268002,21.4303926 15.4783644,21.3599416 15.3758056,21.2513734 C15.359334,21.2266645 15.3180223,21.2001069 15.2430468,21.1776135 C15.1417127,21.1472132 15.0651407,21.1328562 15.0179919,21.1328562 C14.8984665,21.1328562 14.8039034,21.1470406 14.734917,21.1729107 C14.671794,21.1965821 14.6071419,21.2309869 14.5410326,21.2765501 C14.4963615,21.3624899 14.4472626,21.4482654 14.3937518,21.5338828 C14.364006,21.5814759 14.355495,21.6325453 14.3687744,21.6989393 L14.3687744,21.7847435 C14.355495,21.8511375 14.364006,21.9022069 14.3937518,21.9498 C14.4472619,22.0354157 14.4963609,22.1211916 14.5410325,22.2071325 C14.6071425,22.252696 14.6717946,22.2871009 14.7349162,22.3107718 C14.8039038,22.336642 14.8984674,22.3508266 15.0179919,22.3508266 C15.0651397,22.3508266 15.1417117,22.3364695 15.2430447,22.30607 C15.3180219,22.283576 15.359334,22.2570181 15.4031397,22.1989662 C15.4783641,22.1237416 15.5268002,22.0532901 15.5509374,21.9889307 C15.5783749,21.9157625 15.6022068,21.8333801 15.6222462,21.7418414 C15.6022068,21.6503028 15.5783753,21.5679214 15.5509404,21.49476 Z M24.2928907,12.4365347 C24.2168562,12.4745554 24.1536598,12.4956202 24.0870918,12.4956202 L24.0511039,12.4956202 C24.0003992,12.4956202 23.9484192,12.4852239 23.8919646,12.4664011 C23.8253571,12.4442013 23.7680239,12.405736 23.7313332,12.3513411 C23.061197,11.9150973 22.3914187,11.5296476 21.7219889,11.1949348 C21.0367892,10.8523349 20.3159251,10.5628071 19.5553437,10.3250838 C18.8475993,10.0891719 18.1040254,9.91213146 17.3244771,9.79401716 C16.5434559,9.67568036 15.7746596,9.6165416 15.0179919,9.6165416 C14.189357,9.6165416 13.3968994,9.67568097 12.6405352,9.79386327 C11.8835321,9.91214541 11.1263013,10.0896203 10.3726774,10.3250834 C9.66192108,10.5620034 8.95083704,10.8523637 8.23938659,11.1962303 C7.53029876,11.5389549 6.85679231,11.9347884 6.2141867,12.3869082 C6.09794553,12.4643984 5.97053914,12.4962496 5.84096207,12.4746486 C5.71945951,12.454401 5.60823461,12.3895218 5.50631043,12.2875997 L5.45346317,12.2020908 C5.42183472,12.1072016 5.40625,12.0059003 5.40625,11.8989903 C5.40625,11.7250693 5.5059436,11.5879931 5.6387476,11.5252766 C6.29757077,11.0372575 7.00504083,10.6103365 7.76100657,10.2445496 C8.51258325,9.88088193 9.27640163,9.56565475 10.0601241,9.29640613 C10.8610332,9.05370896 11.6681211,8.86559027 12.4813537,8.73207567 C13.2969946,8.59816568 14.1425676,8.53125 15.0179919,8.53125 C15.8214448,8.53125 16.6426837,8.5981656 17.4816527,8.73191364 C18.3202806,8.86560658 19.1169559,9.05413285 19.8717977,9.297627 C20.6978492,9.56488013 21.4757871,9.88091829 22.2055522,10.2458031 C22.9335898,10.6098196 23.6611852,11.0342493 24.3883765,11.5190435 L24.462699,11.6032409 C24.4889151,11.6556828 24.5205571,11.7252956 24.5580638,11.8128142 C24.6261374,11.9716387 24.5953007,12.133233 24.4812502,12.2625445 C24.4362661,12.3376596 24.3723108,12.3968246 24.2928907,12.4365347 Z M8.73519313,15.4534482 C8.67871846,15.4722705 8.62675066,15.4826627 8.5760555,15.4826627 L8.54006713,15.4826627 C8.473501,15.4826627 8.41030776,15.4615992 8.33427002,15.4235789 C8.26111606,15.3870003 8.20108493,15.3339197 8.15691433,15.2670743 C8.0397941,15.1654428 7.99719584,15.0181285 8.04182573,14.8619305 C8.07545475,14.7442277 8.12924787,14.6456054 8.23689557,14.5433472 C8.77152473,14.1788303 9.29456965,13.8625708 9.80612882,13.5946094 C10.3238467,13.3234261 10.8899151,13.1019203 11.4967729,12.932141 C12.0349737,12.7608985 12.6031695,12.6264869 13.2013175,12.5288306 C13.8006961,12.4309733 14.3942875,12.382016 14.982004,12.382016 C15.593966,12.382016 16.1880492,12.4310138 16.7641533,12.5290738 C17.3356419,12.6263481 17.924868,12.7599869 18.5392109,12.932141 C19.0780249,13.1035785 19.6163609,13.3238073 20.1542103,13.5927298 C20.6938328,13.8625433 21.2088476,14.1813616 21.6657285,14.5284307 C21.830907,14.6110238 21.930603,14.7481044 21.930603,14.9220251 C21.930603,15.03715 21.9127559,15.135304 21.8715282,15.2177746 L21.83054,15.2746453 C21.7286171,15.376562 21.6173983,15.4414392 21.4958911,15.4616953 C21.3728859,15.4821937 21.2442541,15.4546303 21.0799372,15.369273 C20.6583989,15.0648291 20.195293,14.789311 19.6904752,14.5427712 C19.1831456,14.2950069 18.68225,14.0887547 18.1906335,13.9248623 C17.6734472,13.7603048 17.1505517,13.6369245 16.6218477,13.5546801 C16.0932948,13.4724599 15.5467152,13.4313197 14.982004,13.4313197 C14.441222,13.4313197 13.9004089,13.4724685 13.3594466,13.55479 C12.8197879,13.6369131 12.3040898,13.7599777 11.8067324,13.9256822 C11.267209,14.0898829 10.7574421,14.2949629 10.2772651,14.5409064 C9.81134453,14.7795485 9.35073753,15.0455602 8.89542332,15.3389747 C8.85871888,15.3930524 8.80156352,15.4313199 8.73519313,15.4534482 Z M10.704973,17.8489709 C10.7386046,17.7312631 10.7924006,17.6326391 10.8987593,17.5312773 C11.2180172,17.3102522 11.5317532,17.1195483 11.8400569,16.9592289 C12.1544966,16.7957212 12.4993253,16.6640612 12.8521339,16.5712631 C13.1803755,16.4450156 13.5329122,16.3568808 13.9094285,16.3066814 C14.2787184,16.2574404 14.6362455,16.2327821 14.982004,16.2327821 C15.3520936,16.2327821 15.7103094,16.2574878 16.0566059,16.3069607 C16.4058667,16.3568525 16.7664942,16.4439012 17.1336703,16.5663555 C17.4563194,16.6656318 17.784393,16.7956221 18.117927,16.9562134 C18.4572052,17.1195682 18.7657703,17.3147842 19.0025746,17.515474 C19.1677563,17.598061 19.267452,17.7351452 19.267452,17.9090676 C19.267452,18.0159823 19.2518675,18.117285 19.2202373,18.21217 L19.1965033,18.2833674 L19.1340598,18.3249989 C19.0464081,18.383437 18.9570389,18.4281229 18.8659613,18.458484 C18.7328597,18.5028512 18.5909425,18.4825762 18.4082133,18.3857857 C18.1815182,18.2044271 17.9257145,18.0452616 17.6404611,17.9083391 C17.3468145,17.7673858 17.0714911,17.6502274 16.8293003,17.5615815 C16.5014999,17.4679248 16.1920859,17.3978676 15.9011379,17.3513184 C15.6129755,17.3052108 15.3066138,17.2820901 14.982004,17.2820901 C14.6809525,17.2820901 14.3737654,17.3052731 14.0603684,17.3517045 C13.7488608,17.3978512 13.4553717,17.4669085 13.1749361,17.5603247 C12.8755979,17.6524285 12.5940343,17.7673512 12.3300723,17.9050718 C12.0612574,18.0453243 11.7860484,18.2092784 11.5045004,18.3969813 L11.4362034,18.4271925 L11.3642458,18.4451798 C11.3042531,18.4601796 11.3042531,18.4601796 11.2392017,18.4697095 L11.2032138,18.4697095 C11.1427881,18.4697095 11.080902,18.4520269 10.9960095,18.4180748 C10.8937234,18.3771589 10.8187264,18.3279445 10.7862954,18.2454771 C10.6955285,18.1293604 10.6643266,17.9912293 10.704973,17.8489709 Z" id="Combined-Shape" fill="#FFFFFF"></path>
        </g>
    </g>
</svg>