<?xml version="1.0" encoding="UTF-8"?>
<svg width="30px" height="30px" viewBox="0 0 30 30" version="1.1" xmlns="http://www.w3.org/2000/svg" xmlns:xlink="http://www.w3.org/1999/xlink">
    <!-- Generator: Sketch 52.6 (67491) - http://www.bohemiancoding.com/sketch -->
    <title>5</title>
    <desc>Created with Sketch.</desc>
    <g id="Page-1" stroke="none" stroke-width="1" fill="none" fill-rule="evenodd">
        <g id="5">
            <rect id="Rectangle-Copy-130" fill="#FFBE0A" x="0" y="0" width="30" height="30" rx="15"></rect>
            <path d="M20.3395669,11.7984744 C20.2388479,11.7984744 20.1484024,11.7803853 20.0694949,11.7409315 C19.9659349,11.6891516 19.8963634,11.5963895 19.8640801,11.4963231 C19.6879114,11.0999436 19.4680011,10.7370915 19.2041849,10.4073213 C18.9420352,10.0796341 18.6363255,9.79576081 18.2865049,9.55525917 C17.9378846,9.31558273 17.5625055,9.1360536 17.1596116,9.01627432 C16.7551595,8.89603181 16.3340687,8.83587598 15.8956693,8.83587598 C15.6769014,8.83587598 15.4580908,8.85228678 15.2391424,8.88512904 C15.0198511,8.91802274 14.8003511,8.96741023 14.5868914,9.03134337 C14.3901665,9.09691833 14.1930341,9.17905681 13.9954658,9.27784099 C13.8004913,9.37532824 13.6164708,9.48898791 13.4333485,9.62590864 C13.3199095,9.70153466 13.1911069,9.73125835 13.0571546,9.71212232 C12.9148156,9.69178817 12.7968732,9.61673393 12.716611,9.49634067 C12.640985,9.38290163 12.6112613,9.25409899 12.6303974,9.12014676 C12.6507315,8.97780773 12.7257858,8.85986534 12.8332202,8.78894338 C13.0512292,8.61938077 13.2816108,8.47387666 13.5242193,8.3525724 C13.7668278,8.23126814 14.02146,8.1342654 14.2707161,8.06705798 C14.5377791,7.96994419 14.8055326,7.9030058 15.0737904,7.86642519 C15.33641,7.83061344 15.6103764,7.81274606 15.8956693,7.81274606 C16.4455695,7.81274606 16.9726179,7.89060549 17.4760981,8.0464446 C17.9800374,8.2024258 18.4371574,8.42497107 18.8418131,8.71070553 C19.273144,8.99825945 19.6565853,9.34575313 19.9916944,9.75267132 C20.3283925,10.161519 20.5929895,10.6185502 20.7627197,11.0794467 C20.8512618,11.2122599 20.8639548,11.3645766 20.793589,11.5053083 C20.7417805,11.6089253 20.6642475,11.6950731 20.5642541,11.7617354 L20.4429134,11.7984744 L20.3395669,11.7984744 Z M16.136811,7.5957185 C15.9888072,7.5957185 15.8581561,7.54546811 15.7582141,7.44552607 C15.658272,7.34558402 15.6080217,7.21493299 15.6080217,7.06692913 L15.6080217,5.31003937 C15.6080217,5.16203551 15.658272,5.03138448 15.7582141,4.93144244 C15.8581561,4.83150039 15.9888072,4.78125 16.136811,4.78125 C16.2665992,4.78125 16.3842396,4.83472289 16.4809591,4.93144244 C16.5809012,5.03138448 16.6311516,5.16203551 16.6311516,5.31003937 L16.6311516,7.06692913 C16.6311516,7.21493299 16.5809012,7.34558402 16.4809591,7.44552607 C16.3842396,7.54224561 16.2665992,7.5957185 16.136811,7.5957185 Z M23.4744094,13.7620571 L22.3031496,13.7620571 C22.1551457,13.7620571 22.0244947,13.7118067 21.9245527,13.6118646 C21.8246106,13.5119226 21.7743602,13.3812716 21.7743602,13.2332677 C21.7743602,13.1034795 21.8278331,12.9858392 21.9245527,12.8891196 C22.0244947,12.7891776 22.1551457,12.7389272 22.3031496,12.7389272 L23.4744094,12.7389272 C23.6041977,12.7389272 23.721838,12.7924001 23.8185576,12.8891196 C23.9152771,12.9858392 23.96875,13.1034795 23.96875,13.2332677 C23.96875,13.3812716 23.9184996,13.5119226 23.8185576,13.6118646 C23.721838,13.7085842 23.6041977,13.7620571 23.4744094,13.7620571 Z M10.1771654,7.22711614 C10.3400171,7.22711614 10.4780396,7.29612737 10.5385379,7.39453299 L11.5720024,8.42799756 C11.6616396,8.51763469 11.7049705,8.63679466 11.7049705,8.77214567 C11.7049705,8.89606072 11.6690345,9.0128527 11.5720024,9.1507426 C11.5242897,9.19845534 11.4661622,9.23333181 11.4003756,9.25526069 C11.3421521,9.27466851 11.2788573,9.28371063 11.2106299,9.28371063 C11.1424025,9.28371063 11.0791077,9.27466851 11.0208842,9.25526069 C10.9550976,9.23333181 10.8969701,9.19845534 10.8492574,9.1507426 L9.81579283,8.11727803 C9.70784607,8.00933127 9.64837598,7.88047942 9.64837598,7.7386811 C9.64837598,7.59889485 9.70717684,7.4780408 9.81445443,7.39249245 C9.90237734,7.28379932 10.0295744,7.22711614 10.1771654,7.22711614 Z M20.3051181,9.0425689 C20.2308978,9.0425689 20.1647461,9.01610824 20.0976554,8.97138108 C20.0711988,8.95374338 20.0388003,8.93522994 20.0005972,8.91612839 L19.9437456,8.87515205 C19.8522547,8.78366116 19.8107776,8.65922975 19.8107776,8.51377953 C19.8107776,8.36832931 19.8522547,8.2438979 19.9472202,8.14900871 L20.708737,7.42787193 C20.7948832,7.29865267 20.9260335,7.22711614 21.0802165,7.22711614 C21.2220149,7.22711614 21.3508667,7.28658622 21.4588135,7.39453299 C21.5484506,7.48417012 21.5917815,7.60333009 21.5917815,7.7386811 C21.5917815,7.86259615 21.5558455,7.97938813 21.4588135,8.11727803 L20.7009395,8.87515205 L20.6440878,8.91612839 C20.6058847,8.93522994 20.5734862,8.95374338 20.5470296,8.97138108 C20.4756035,9.01899849 20.3931071,9.0425689 20.3051181,9.0425689 Z M17.0278044,12.4588562 C17.1929884,12.3998619 17.3582421,12.3467446 17.5235662,12.2995092 C17.6987218,12.2494647 17.8743875,12.2180958 18.0503596,12.2055264 C18.2163051,12.1936731 18.382263,12.1877461 18.5482283,12.1877461 C19.1778437,12.1877461 19.7727647,12.3212998 20.3306014,12.5880912 C20.8831477,12.8523525 21.3757371,13.2127838 21.8074242,13.6684535 C22.2395614,14.1245983 22.581438,14.6584057 22.8326867,15.2685811 C23.0846501,15.8804922 23.210876,16.5116215 23.210876,17.1604331 C23.210876,17.7841903 23.0912145,18.4183964 22.8527703,19.0621955 C22.6154847,19.7028666 22.294701,20.2850297 21.8836071,20.8165732 C21.4548116,21.3168346 20.9600064,21.7341401 20.3998511,22.0678497 C19.826405,22.4094772 19.207861,22.5809547 18.5482283,22.5809547 L11.8996063,22.5809547 C11.1313732,22.5809547 10.3869439,22.4068543 9.66858638,22.0596482 C8.95615781,21.7153077 8.32631699,21.2577818 7.78005721,20.6877716 C7.23285888,20.1167821 6.80451835,19.4564237 6.49562785,18.7079583 C6.18607132,17.957879 6.03125,17.1659084 6.03125,16.3336614 C6.03125,15.5014144 6.18607132,14.7094438 6.49562785,13.9593645 C6.80451835,13.2108991 7.23285888,12.5505408 7.78005721,11.9795512 C8.32697818,11.4088511 8.95774675,10.9566019 9.67127333,10.6236228 C10.3889682,10.2886985 11.132444,10.1208169 11.8996063,10.1208169 C12.3996948,10.1208169 12.8883095,10.1804041 13.3650625,10.2995924 C13.8412275,10.4186336 14.2826512,10.5856588 14.6844421,10.7984385 C15.1166916,11.0145633 15.5129269,11.2907272 15.8726823,11.626499 C16.1850066,11.9180017 16.461137,12.2370027 16.7008846,12.5833222 C16.8098244,12.5392763 16.9187974,12.4977872 17.0278044,12.4588562 Z M11.8996063,11.1439469 C11.2655456,11.1439469 10.6538423,11.2804878 10.0623745,11.5543155 C9.46880406,11.8291166 8.9529006,12.2078117 8.51323984,12.6914385 C8.07077258,13.1781525 7.71668638,13.7369448 7.45062349,14.3688442 C7.18635277,14.9964871 7.05437992,15.6508525 7.05437992,16.3336614 C7.05437992,17.0396703 7.18644695,17.7055082 7.45062349,18.3329275 C7.71609385,18.9634196 8.069052,19.5094017 8.51323984,19.9758843 C8.95361572,20.4602978 9.47055977,20.8452561 10.0653696,21.131646 C10.6560947,21.4160692 11.266734,21.5578248 11.8996063,21.5578248 L18.5482283,21.5578248 C19.0358021,21.5578248 19.4959883,21.4255874 19.9328691,21.1591967 C20.3814698,20.8856596 20.769548,20.5413086 21.094685,20.1295768 C21.4269833,19.6865124 21.6927246,19.2048563 21.8921755,18.6840678 C22.0895147,18.1687933 22.1877461,17.6612646 22.1877461,17.1604331 C22.1877461,16.639064 22.0847542,16.1403664 21.8784061,15.6625078 C21.6692386,15.1781198 21.4002332,14.749907 21.07565,14.3818956 C20.7495396,14.0340446 20.3635286,13.7513323 19.916398,13.5332198 C19.475191,13.3179969 19.0199273,13.210876 18.5482283,13.210876 C18.3978438,13.210876 18.2474216,13.2216204 18.0968808,13.2431263 C17.9460417,13.2646747 17.7950205,13.2970364 17.6145973,13.3464727 C17.4749088,13.3664282 17.3403431,13.4062995 17.2102713,13.4663327 C17.0713177,13.5304651 16.9377012,13.6052904 16.7858201,13.7045142 L16.3251417,13.9348534 L16.2224734,13.7551839 L16.0860582,13.5164225 C15.8664287,13.1430524 15.603174,12.8084996 15.2959925,12.5122888 C14.9876725,12.2149802 14.6581209,11.9678165 14.3071254,11.7703816 C13.9556533,11.5726785 13.5763595,11.4187622 13.168812,11.3086142 C12.7627543,11.1988689 12.3398548,11.1439469 11.8996063,11.1439469 Z" id="Combined-Shape" fill="#FFFFFF"></path>
        </g>
    </g>
</svg>