<?xml version="1.0" encoding="UTF-8"?>
<svg width="30px" height="30px" viewBox="0 0 30 30" version="1.1" xmlns="http://www.w3.org/2000/svg" xmlns:xlink="http://www.w3.org/1999/xlink">
    <!-- Generator: Sketch 52.6 (67491) - http://www.bohemiancoding.com/sketch -->
    <title>6</title>
    <desc>Created with Sketch.</desc>
    <g id="Page-1" stroke="none" stroke-width="1" fill="none" fill-rule="evenodd">
        <g id="6">
            <rect id="Rectangle-Copy-132" fill="#00A1FF" x="0" y="0" width="30" height="30" rx="15"></rect>
            <path d="M14.7677573,8.05171354 C14.9108887,7.8608746 15.0480798,7.66403455 15.1793378,7.46117774 C15.3139368,7.25316193 15.4545677,7.0391571 15.6082298,6.80927325 C15.677661,6.71669683 15.7411476,6.62435444 15.7987112,6.53225349 C15.8629314,6.42949739 15.9334281,6.32695637 15.9976218,6.24329255 C16.0714859,6.12019474 16.1391353,6.00949284 16.2006776,5.91102602 C16.2649189,5.80824099 16.3354212,5.70569348 16.4051506,5.61328724 C16.498948,5.47258686 16.6537373,5.40625 16.8429602,5.40625 C17.0321794,5.40625 17.1869685,5.4725876 17.2737498,5.60337151 C17.3504948,5.70569348 17.4209971,5.80824099 17.4852383,5.91102602 C17.5428289,6.00317012 17.6063146,6.09551489 17.688299,6.20675884 C17.7606955,6.32742267 17.8270122,6.43594187 17.8872024,6.53224968 C17.9447684,6.62435444 18.008255,6.71669683 18.0857728,6.82081183 C18.4996332,7.45377975 18.9196799,8.09298175 19.3459354,8.73845352 C19.7757963,9.38938033 20.1628482,10.034469 20.5039563,10.6681567 C20.8737968,11.30921 21.1945083,11.9506307 21.4660445,12.5924376 C21.7393803,13.2385091 21.9385941,13.8610511 22.0625703,14.4563068 C22.1874951,15.0059729 22.2563662,15.5319089 22.2689238,16.0341019 C22.2814419,16.5348968 22.2500789,17.0116076 22.1746592,17.4641353 C22.0992897,17.9163615 21.9860439,18.344181 21.8348265,18.7474259 C21.6819367,19.1551258 21.4780237,19.5374636 21.2222388,19.8955474 C21.0172435,20.177417 20.7861917,20.4277225 20.5292392,20.6461352 C20.2735462,20.8634733 19.9806567,21.0608553 19.6449192,21.2415236 C19.3409683,21.3934972 19.0184213,21.5199864 18.6774058,21.6210273 C18.4143265,21.6989772 18.1332171,21.7617222 17.8340794,21.8093588 C17.7485398,21.9359454 17.6577241,22.0559478 17.5660915,22.1637599 C17.3332707,22.4741879 17.0611219,22.739858 16.7501455,22.9601341 C16.4450993,23.1762062 16.1148943,23.3603591 15.7597751,23.512555 C15.4037292,23.6651458 15.0229293,23.7793855 14.617647,23.8553763 C14.2142132,23.9310197 13.7866029,23.96875 13.3348957,23.96875 C12.8831839,23.96875 12.4555723,23.9310197 12.0521406,23.8553763 C11.646859,23.7793859 11.2660614,23.6651466 10.9100139,23.5125549 C10.5548919,23.3603596 10.2246861,23.1762065 9.91964144,22.9601334 C9.60866423,22.7398578 9.33651415,22.4741875 9.11170295,22.1738098 C8.82932954,21.8400955 8.5985658,21.4618994 8.41955454,21.0399437 C8.24338591,20.6246893 8.10521125,20.1787621 8.00289288,19.6913748 C7.92770748,19.2151995 7.89643462,18.7148336 7.90892219,18.1903576 C7.92145634,17.663925 7.99030102,17.1256851 8.11409102,16.5813454 C8.23897002,15.9569477 8.43849026,15.3272124 8.71241182,14.6922119 C8.98380931,14.0630619 9.3043178,13.4282083 9.67076819,12.7932165 C10.0149978,12.1539341 10.4020531,11.5088414 10.8319158,10.857909 C11.2573971,10.2136069 11.6767711,9.56327432 12.1001659,8.89218891 C12.169585,8.79963047 12.2330728,8.70728429 12.2906491,8.61516304 C12.3548848,8.51238619 12.4253847,8.40984006 12.5021331,8.30750791 C12.5715368,8.21497387 12.6350225,8.12262911 12.6926131,8.03048501 C12.7568544,7.92769998 12.8273567,7.82515246 12.8834357,7.75627067 C12.9289605,7.66520441 12.9998321,7.59433059 13.0908961,7.54879858 C13.1691664,7.50966344 13.2511729,7.48916275 13.3348957,7.48916275 C13.418615,7.48916275 13.5006214,7.50966388 13.5788908,7.54879858 C13.6699548,7.59433059 13.7408265,7.66520441 13.7656853,7.72283049 C13.8424303,7.82515246 13.9129326,7.92769998 13.9771738,8.03048501 C14.0347644,8.12262911 14.0982501,8.21497387 14.1676576,8.30751303 C14.2444031,8.40984193 14.314903,8.51238767 14.3791379,8.61516243 C14.3853111,8.62503959 14.3915447,8.63503792 14.3978386,8.64515743 C14.5257649,8.4604064 14.6449184,8.26899296 14.7677573,8.05171354 Z M15.8378709,10.8579081 C16.2677208,11.5088182 16.6547748,12.1539115 16.9958918,12.7876112 C17.365464,13.4281995 17.6859734,14.0630531 17.9573771,14.6922125 C18.2312987,15.3272192 18.4308193,15.956954 18.5545058,16.5757658 C18.6794848,17.1256708 18.7483283,17.663911 18.7608656,18.1903584 C18.7733513,18.7148326 18.7420781,19.2151982 18.6648787,19.7023226 C18.5996247,20.0122807 18.5183408,20.3093269 18.4209934,20.593417 C18.6786901,20.5049669 18.92527,20.4072651 19.1500037,20.3056928 C19.4039944,20.167151 19.628089,20.0120088 19.8225986,19.8403842 C20.0164468,19.6693395 20.1937482,19.4691607 20.36443,19.2263992 C20.5683872,18.9771162 20.7332773,18.6871372 20.8590661,18.3555058 C20.9880576,18.0154469 21.0880244,17.6449841 21.1571473,17.2548731 C21.2041977,16.8784825 21.2160019,16.4712225 21.1923187,16.0331027 C21.1685667,15.5937111 21.1091451,15.1480464 21.0122627,14.6869202 C20.9179805,14.1212226 20.7408226,13.5484077 20.4803465,12.9682513 C20.2145785,12.3763181 19.9123862,11.7658904 19.5754868,11.1401463 C19.2369166,10.5355594 18.8619093,9.91861267 18.4504477,9.28931793 C18.1398349,8.81426633 18.1398349,8.81426633 17.8292258,8.33921747 C17.5186168,7.86416887 17.5186168,7.86416887 17.2202757,7.40605819 C17.1178965,7.27808302 17.0219619,7.14377219 16.9324761,7.00315502 C16.9033582,6.95739937 16.8735187,6.91091927 16.8429581,6.8637155 C16.8124,6.91091491 16.7825605,6.95739513 16.7534398,7.00315502 C16.6672887,7.13853219 16.5750876,7.27990906 16.4803237,7.42188672 C16.3562841,7.62034834 16.2200313,7.82472579 16.0715695,8.03504181 C15.9299074,8.23573558 15.8000977,8.4422516 15.665891,8.67963838 C15.5239337,8.86891194 15.3877359,9.07024763 15.2573107,9.28367272 C15.1820482,9.4068306 15.1086829,9.52618585 15.0372155,9.64173707 C15.3016541,10.0446732 15.568538,10.4500616 15.8378709,10.8579081 Z M13.2453753,9.08606777 C13.1592242,9.22144494 13.0670231,9.36282181 12.9698468,9.50857271 C12.5553095,10.1425674 12.1408087,10.7704138 11.7263301,11.3921327 C11.3159525,12.0077 10.9418904,12.6291258 10.6041093,13.2564324 C10.2654804,13.8853137 9.96328607,14.4957469 9.69750693,15.0877098 C9.43675394,15.6684772 9.25953143,16.2296807 9.16261414,16.7845381 C9.04420758,17.281844 8.97927332,17.7540933 8.96750419,18.2013191 C8.95570031,18.6498659 8.98513554,19.0737323 9.05560707,19.473073 C9.12599459,19.8719339 9.23125292,20.2403383 9.37119529,20.5785327 C9.50892826,20.9113871 9.69233512,21.2151548 9.92455888,21.4938923 C10.1081937,21.723435 10.3206719,21.9301706 10.5623497,22.1143058 C10.8033192,22.2979017 11.0611154,22.4468506 11.330507,22.5591874 C11.6341675,22.67598 11.9496249,22.7636071 12.2770776,22.822081 C12.6050525,22.8806478 12.9576429,22.9100304 13.3348957,22.9100304 C13.712144,22.9100304 14.0647326,22.8806478 14.3927082,22.822081 C14.7201635,22.7636067 15.0356234,22.6759793 15.3336734,22.5614338 C15.6086731,22.44685 15.86647,22.2979006 16.1074375,22.1143059 C16.3491188,21.9301674 16.5615986,21.723431 16.7479956,21.490504 C16.9774505,21.2151589 17.1608562,20.9113921 17.2985919,20.5785341 C17.4385371,20.2403268 17.5437969,19.8719202 17.6141801,19.473074 C17.6846506,19.073732 17.7140862,18.649865 17.7022841,18.2013204 C17.6905123,17.7540916 17.625577,17.2818417 17.5044568,16.7713516 C17.4102538,16.2296815 17.2330325,15.6684779 16.972282,15.0877103 C16.7065059,14.4957592 16.4043115,13.8853261 16.067422,13.2596047 C15.7288677,12.6550419 15.3538638,12.0381007 14.9423832,11.4087725 C14.6317704,10.9337209 14.6317704,10.9337209 14.3211613,10.458672 C14.0105523,9.98362341 14.0105523,9.98362341 13.701015,9.51020083 C13.6027638,9.36282181 13.5105627,9.22144494 13.4244116,9.08606777 C13.3953079,9.04033444 13.3654688,8.99536206 13.3348936,8.95114891 C13.3043188,8.99536112 13.2744797,9.04033347 13.2453753,9.08606777 Z M11.1416517,16.7952424 C11.2259506,16.9216887 11.2471824,17.0703105 11.210078,17.2182162 C11.1395275,17.5474488 11.098525,17.8578964 11.086861,18.1494926 C11.0750498,18.444772 11.0809378,18.7215164 11.1044083,18.9796921 C11.1269757,19.2279302 11.1772944,19.4515689 11.2548734,19.6510575 C11.3337214,19.8538096 11.428711,20.0326135 11.5162875,20.1603408 C11.6357172,20.2797712 11.6919976,20.4261004 11.6695146,20.5834816 C11.6484825,20.7307055 11.5709859,20.8524858 11.4797429,20.9082095 C11.4306346,20.9573169 11.3707633,20.9932395 11.3028838,21.015866 C11.2458523,21.0348765 11.1934211,21.0453629 11.1423531,21.0453629 C11.0515722,21.0453629 10.9666331,21.0210947 10.8931145,20.9720817 C10.864564,20.953048 10.8297231,20.9331389 10.7887287,20.9126417 L10.7045455,20.8383263 C10.5508596,20.6077969 10.4166195,20.358494 10.3017992,20.0905801 C10.1846415,19.8172121 10.1005626,19.5132339 10.0473426,19.1638306 C10.0222328,18.8625148 10.0159869,18.5252418 10.0284371,18.1517351 C10.0409953,17.7749878 10.0848718,17.3863678 10.1674402,16.9570333 C10.2077655,16.8360604 10.2875702,16.7363031 10.3997969,16.6614826 C10.5163723,16.5837694 10.645982,16.5572761 10.7743364,16.5891866 C10.9279033,16.5981625 11.0571886,16.6685431 11.1416517,16.7952424 Z" id="Combined-Shape" fill="#FFFFFF"></path>
        </g>
    </g>
</svg>