<?xml version="1.0" encoding="UTF-8"?>
<svg width="30px" height="30px" viewBox="0 0 30 30" version="1.1" xmlns="http://www.w3.org/2000/svg" xmlns:xlink="http://www.w3.org/1999/xlink">
    <!-- Generator: Sketch 52.6 (67491) - http://www.bohemiancoding.com/sketch -->
    <title>dashboard</title>
    <desc>Created with Sketch.</desc>
    <g id="Page-1" stroke="none" stroke-width="1" fill="none" fill-rule="evenodd">
        <g id="dashboard">
            <rect id="Rectangle-Copy-134" fill="#8338EC" x="0" y="0" width="30" height="30" rx="15"></rect>
            <g id="Group-45" transform="translate(6.250000, 5.625000)" fill="#FFFFFF">
                <path d="M15.8569956,15.4062496 L15.8009581,16.4062496 L0.449042545,16.4062496 L0.393004217,15.4062496 L15.8569956,15.4062496 Z" id="Combined-Shape"></path>
                <path d="M2.44318176,14.6571964 L1.38257564,14.6571964 C1.32433889,14.6571964 1.26184468,14.6259495 1.19104909,14.5669528 C1.11168959,14.5008199 1.08389862,14.4104995 1.10795735,14.322582 L1.07951753,11.2159026 C1.10177855,11.1268593 1.1358314,11.0530766 1.18225629,10.9950455 C1.23536345,10.9286616 1.31415335,10.8958344 1.41287858,10.8958344 L2.41287883,10.8958344 C2.53113852,10.8958344 2.61975236,10.9274803 2.67380405,10.9950455 C2.72022894,11.0530766 2.75428179,11.1268593 2.77840593,11.2316739 L2.74623989,14.3068107 C2.77216217,14.4104994 2.74437114,14.50082 2.66501142,14.5669526 C2.59385756,14.6262479 2.51958081,14.6571964 2.44318176,14.6571964 Z M2.13752656,14.017045 L2.10867711,11.5359854 L1.74738359,11.5359854 L1.71853379,14.017045 L2.13752656,14.017045 Z M8.65530232,14.6571964 L7.59469768,14.6571964 C7.51829628,14.6571964 7.44401964,14.626248 7.37286665,14.5669524 C7.2935078,14.5008189 7.26571668,14.410498 7.28977386,14.3221982 L7.26267745,6.02947881 C7.28521583,5.96185542 7.31907685,5.89977619 7.36407497,5.84353059 C7.41812938,5.77596506 7.50674357,5.74431664 7.62500025,5.74431664 L8.62499975,5.74431664 C8.74325643,5.74431664 8.83187062,5.77596506 8.88592677,5.84353277 C8.93091971,5.89977703 8.9647797,5.96185438 8.9905287,6.0494698 L8.95836032,14.3068102 C8.98428332,14.410498 8.9564922,14.5008189 8.87713352,14.5669523 C8.80598168,14.6262469 8.73170127,14.6571964 8.65530232,14.6571964 Z M8.35013347,14.017045 L8.32031918,6.38447137 L7.92968082,6.38447137 L7.89986653,14.017045 L8.35013347,14.017045 Z M11.7462122,14.6571964 L10.6856076,14.6571964 C10.627369,14.6571964 10.5648735,14.6259492 10.4940791,14.5669524 C10.4147203,14.5008189 10.3869292,14.410498 10.4109861,14.3221104 L10.3825459,0.882567674 C10.4048076,0.793524879 10.4388606,0.719745461 10.4852857,0.661716132 C10.538391,0.595330887 10.6171856,0.5625 10.7159102,0.5625 L11.7159097,0.5625 C11.8341663,0.5625 11.9227805,0.594148423 11.9768367,0.661716132 C12.0232599,0.719748323 12.0573118,0.793527808 12.0814389,0.897867884 L12.0492702,14.3068102 C12.0751932,14.410498 12.0474021,14.5008189 11.968042,14.5669535 C11.8968855,14.6262484 11.8226097,14.6571964 11.7462122,14.6571964 Z M11.4411415,14.017045 L11.4111316,1.20265104 L11.0509908,1.20265104 L11.0209809,14.017045 L11.4411415,14.017045 Z M14.8674247,14.6571964 L13.8068164,14.6571964 C13.7304181,14.6571964 13.6561415,14.6262476 13.5849905,14.5669536 C13.5056295,14.5008223 13.4778389,14.410503 13.5018924,14.3221359 L13.4734558,2.94317552 C13.495718,2.85413086 13.5297713,2.78034857 13.5761956,2.72232028 C13.6302459,2.65475376 13.7188634,2.62310415 13.837119,2.62310415 L14.8371222,2.62310415 C14.935846,2.62310415 15.0146374,2.65593469 15.0677412,2.72231811 C15.1141672,2.78034857 15.1482205,2.85413086 15.1723487,2.95850131 L15.1401808,14.3068128 C15.1660997,14.410503 15.1383091,14.5008223 15.0589497,14.5669523 C14.9881558,14.6259486 14.9256603,14.6571964 14.8674247,14.6571964 Z M14.5320236,14.017045 L14.5020692,3.26325888 L14.141873,3.26325888 L14.111915,14.017045 L14.5320236,14.017045 Z M5.5643924,14.6571964 L4.50378776,14.6571964 C4.42739029,14.6571964 4.35311446,14.6262484 4.28195688,14.5669525 C4.20259807,14.5008195 4.17480746,14.4104989 4.19886386,14.3221729 L4.17176803,4.99917413 C4.19430921,4.93155222 4.22816954,4.86947446 4.27316506,4.81322852 C4.32721946,4.74566299 4.41583365,4.71401456 4.53409033,4.71401456 L5.53408983,4.71401456 C5.63281251,4.71401456 5.71160325,4.74684434 5.76471254,4.81322852 C5.80971067,4.86947412 5.84357168,4.93155334 5.86931631,5.01914238 L5.83714783,14.3068102 C5.86307083,14.410498 5.83527971,14.5008189 5.75592103,14.5669523 C5.6851265,14.6259492 5.622631,14.6571964 5.5643924,14.6571964 Z M5.22894971,14.017045 L5.19907817,5.3541656 L4.83879942,5.3541656 L4.80892788,14.017045 L5.22894971,14.017045 Z" id="Combined-Shape"></path>
            </g>
        </g>
    </g>
</svg>