<?xml version="1.0" encoding="UTF-8"?>
<svg width="30px" height="30px" viewBox="0 0 30 30" version="1.1" xmlns="http://www.w3.org/2000/svg" xmlns:xlink="http://www.w3.org/1999/xlink">
    <!-- Generator: Sketch 52.6 (67491) - http://www.bohemiancoding.com/sketch -->
    <title>Group 20 Copy 2</title>
    <desc>Created with Sketch.</desc>
    <defs>
        <filter x="-43.8%" y="-43.8%" width="187.5%" height="187.5%" filterUnits="objectBoundingBox" id="filter-1">
            <feOffset dx="0" dy="2" in="SourceAlpha" result="shadowOffsetOuter1"></feOffset>
            <feGaussianBlur stdDeviation="1.5" in="shadowOffsetOuter1" result="shadowBlurOuter1"></feGaussianBlur>
            <feColorMatrix values="0 0 0 0 0.801684736   0 0 0 0 0.801684736   0 0 0 0 0.801684736  0 0 0 0.5 0" type="matrix" in="shadowBlurOuter1" result="shadowMatrixOuter1"></feColorMatrix>
            <feMerge>
                <feMergeNode in="shadowMatrixOuter1"></feMergeNode>
                <feMergeNode in="SourceGraphic"></feMergeNode>
            </feMerge>
        </filter>
    </defs>
    <g id="Page-1" stroke="none" stroke-width="1" fill="none" fill-rule="evenodd">
        <g id="Group-20-Copy-2" filter="url(#filter-1)" transform="translate(3.000000, 1.000000)">
            <g id="Group-11-Copy-25" fill="#FFFFFF">
                <g id="Group-11-Copy-20">
                    <circle id="Oval-Copy-11" cx="12" cy="12" r="12"></circle>
                </g>
            </g>
            <path d="M8.45608836,11.3780981 L6.80738147,11.3780981 C6.68615302,10.7355873 6.23154634,10.3112877 5.47992996,10.3112877 C4.52828664,10.3112877 3.99488147,11.0447198 3.99488147,12.3721713 C3.99488147,13.7178071 4.53434806,14.4633621 5.47992996,14.4633621 C6.20123922,14.4633621 6.67403017,14.1057381 6.80738147,13.4389817 L8.45608836,13.4389817 C8.31061422,14.9058459 7.21955819,15.8635506 5.47992996,15.8635506 C3.39480065,15.8635506 2.21282328,14.5967134 2.21282328,12.3721713 C2.21282328,10.171875 3.38873922,8.90503772 5.47992996,8.90503772 C7.2498653,8.90503772 8.31061422,9.88698815 8.45608836,11.3780981 Z M9.89264547,15.7241379 L9.89264547,6.49865302 L11.6262123,6.49865302 L11.6262123,10.1415679 L11.7353179,10.1415679 C12.0444504,9.38389009 12.7718211,8.92322198 13.7537716,8.92322198 C15.1903287,8.92322198 16.0449892,9.82637392 16.0449892,11.4265894 L16.0449892,15.7241379 L14.2811153,15.7241379 L14.2811153,11.8266433 C14.2811153,10.8810614 13.8507543,10.3961476 13.0506466,10.3961476 C12.1656789,10.3961476 11.6565194,10.9962284 11.6565194,11.8811961 L11.6565194,15.7241379 L9.89264547,15.7241379 Z M20.0940194,17.1970636 L20.0940194,16.2999731 L17.3178879,16.2999731 L17.3178879,15.2452856 C18.0149515,14.0511853 18.7483836,12.9480065 19.4878772,11.8630119 L21.3911638,11.8630119 L21.3911638,15.208917 L22.1064116,15.208917 L22.1064116,16.2999731 L21.3911638,16.2999731 L21.3911638,17.1970636 L20.0940194,17.1970636 Z M18.5059267,15.1907328 L18.5059267,15.2574084 L20.1303879,15.2574084 L20.1303879,12.8570851 L20.0637123,12.8570851 C19.54243,13.5905172 18.9847791,14.4027478 18.5059267,15.1907328 Z" id="ch₄" fill="#000000"></path>
        </g>
    </g>
</svg>