<?xml version="1.0" encoding="UTF-8"?>
<svg width="30px" height="30px" viewBox="0 0 30 30" version="1.1" xmlns="http://www.w3.org/2000/svg" xmlns:xlink="http://www.w3.org/1999/xlink">
    <!-- Generator: Sketch 52.6 (67491) - http://www.bohemiancoding.com/sketch -->
    <title>Group 12 Copy</title>
    <desc>Created with Sketch.</desc>
    <defs>
        <filter x="-43.8%" y="-43.8%" width="187.5%" height="187.5%" filterUnits="objectBoundingBox" id="filter-1">
            <feOffset dx="0" dy="2" in="SourceAlpha" result="shadowOffsetOuter1"></feOffset>
            <feGaussianBlur stdDeviation="1.5" in="shadowOffsetOuter1" result="shadowBlurOuter1"></feGaussianBlur>
            <feColorMatrix values="0 0 0 0 0.801684736   0 0 0 0 0.801684736   0 0 0 0 0.801684736  0 0 0 0.5 0" type="matrix" in="shadowBlurOuter1" result="shadowMatrixOuter1"></feColorMatrix>
            <feMerge>
                <feMergeNode in="shadowMatrixOuter1"></feMergeNode>
                <feMergeNode in="SourceGraphic"></feMergeNode>
            </feMerge>
        </filter>
    </defs>
    <g id="Page-1" stroke="none" stroke-width="1" fill="none" fill-rule="evenodd">
        <g id="Group-12-Copy" filter="url(#filter-1)" transform="translate(3.000000, 1.000000)">
            <g id="Group-2">
                <g id="Group-11-Copy-23" fill="#FFFFFF">
                    <circle id="Oval-Copy-11" cx="12" cy="12" r="12"></circle>
                </g>
                <g id="131-512" transform="translate(4.137931, 6.620690)" fill="#000000">
                    <g id="Group" transform="translate(7.880888, 5.364993) scale(-1, 1) rotate(-180.000000) translate(-7.880888, -5.364993) translate(0.037638, -0.000000)">
                        <path d="M2.50917095,10.6686246 C1.95715334,10.5377213 1.56823184,10.3045496 1.04966985,9.78911761 C0.69002201,9.4373148 0.460014674,9.29413924 0.163096112,9.24095975 L0.00418195158,9.21232464 L0.00418195158,8.43917661 C0.00418195158,7.54330667 -0.0460014674,7.61693982 0.493470286,7.72738954 C1.12076302,7.85420218 1.51804842,8.08328307 2.1077036,8.66007605 C2.54262656,9.085512 2.72245048,9.17550806 3.15737344,9.17550806 C3.52956713,9.17141733 3.70939105,9.07323981 4.22377109,8.59053363 C4.92215701,7.93192605 5.46162876,7.68648223 6.2352898,7.68648223 C7.09677183,7.6823915 7.73661042,7.98510555 8.44754219,8.73370919 C8.75282465,9.05687688 9.01210565,9.17550806 9.39266324,9.17550806 C9.79413059,9.17550806 10.0115921,9.06505835 10.4381511,8.63962239 C10.8438004,8.23873082 11.0779897,8.06692015 11.4292737,7.9114724 C11.7303742,7.7764783 12.2405723,7.66193785 12.5291269,7.66193785 C12.8553191,7.66193785 13.3487894,7.78465976 13.7084373,7.9523797 C13.99281,8.08328307 14.1391783,8.19373279 14.5280998,8.55780779 C15.0424798,9.04051396 15.1804842,9.13051003 15.4732208,9.17141733 L15.6655906,9.19596171 L15.6781365,9.96501901 L15.6865004,10.7299856 L15.5066764,10.7299856 C15.2264857,10.7299856 14.7079237,10.5827193 14.3775495,10.4149993 C14.16427,10.3045496 13.9509905,10.1368297 13.641526,9.8422971 C13.4031548,9.60912548 13.127146,9.38413531 13.0309611,9.33913728 C12.7633162,9.21232464 12.4789435,9.19187098 12.1903888,9.28186705 C11.9812913,9.34731874 11.8809244,9.41686115 11.4543654,9.81366199 C11.0696258,10.1736463 10.8898019,10.3086404 10.6305209,10.4395437 C10.1705062,10.6645339 9.76067498,10.7463485 9.25047689,10.7177134 C8.4893617,10.6808968 7.99589142,10.4436345 7.35605282,9.82184345 C6.85421864,9.33913728 6.66184886,9.23686902 6.25619956,9.24095975 C5.85891416,9.24505048 5.68745415,9.33504655 5.14798239,9.84638783 C4.65033015,10.3168218 4.30322817,10.5213583 3.78466618,10.648171 C3.40829054,10.7422578 2.86045488,10.7504392 2.50917095,10.6686246 Z" id="Path"></path>
                        <path d="M2.61790169,6.88878983 C1.95715334,6.78243084 1.50550257,6.54925921 0.970212766,6.03382719 C0.568745415,5.64929854 0.334556126,5.4815786 0.121276596,5.43248984 L0.00418195158,5.40385473 L0.00418195158,4.62661597 L0.00418195158,3.84528648 L0.234189288,3.87392159 C0.815480558,3.93937328 1.3298606,4.21754294 1.89442406,4.76979153 C2.3753485,5.24431624 2.57190022,5.3465845 2.97336757,5.3465845 C3.37483492,5.3465845 3.57138665,5.24431624 4.05649303,4.76979153 C4.49559795,4.34026485 4.77160675,4.15618199 5.22325752,3.98846204 C5.47835657,3.89028452 5.55781365,3.88210305 6.10983125,3.88210305 C6.6325752,3.88210305 6.74966985,3.89437525 6.96713133,3.97209912 C7.40205429,4.1316376 7.77006603,4.37708142 8.17989729,4.78206372 C8.64409391,5.24022551 8.84482759,5.3465845 9.24629494,5.35067523 C9.62685253,5.35067523 9.91958914,5.20749967 10.2332355,4.85569687 C10.8354365,4.1848171 11.5463683,3.85346794 12.3827586,3.85346794 C13.2191489,3.85346794 13.8924431,4.17254491 14.5448276,4.87615052 C14.8082905,5.16250164 15.113573,5.32613085 15.4523111,5.35885669 L15.6865004,5.38340108 L15.6865004,6.12791399 L15.6865004,6.87651763 L15.5861335,6.90106202 C15.4230374,6.94196932 14.854292,6.84788252 14.5573734,6.73334207 C14.1475422,6.57380359 13.8673514,6.38153927 13.4282465,5.96019405 C12.9598679,5.51021371 12.7716801,5.41612692 12.3785767,5.41203619 C11.9896552,5.41203619 11.6760088,5.56748394 11.3581805,5.92746821 C10.7852531,6.56562213 10.0617755,6.89697129 9.24629494,6.89697129 C8.44754219,6.89697129 7.87043287,6.64334601 7.21804842,6.00928281 C6.71621423,5.52657664 6.51129861,5.41203619 6.10983125,5.41203619 C5.70418195,5.41203619 5.49090242,5.52657664 4.99743213,6.01337354 C4.39523111,6.59834797 3.86830521,6.84788252 3.11973588,6.90106202 C2.96082172,6.90924348 2.73499633,6.90515275 2.61790169,6.88878983 Z" id="Path"></path>
                        <path d="M2.58026412,3.01486823 C1.98224505,2.88396486 1.5807777,2.65079323 1.0705796,2.13945195 C0.719295671,1.78764914 0.460014674,1.62811066 0.175641966,1.58311263 L0.00418195158,1.55447751 L0.00418195158,0.777238757 L0.00418195158,0 L0.267644901,0.0245443818 C0.92839325,0.0859053363 1.42604549,0.343621345 2.04497432,0.940867969 C2.55935437,1.43584634 2.7809978,1.54629605 3.20337491,1.51357021 C3.56302274,1.48902583 3.77212032,1.36630392 4.20704329,0.932686508 C4.61269259,0.527704209 4.98906823,0.286351121 5.440719,0.126812639 C5.67072634,0.0490887636 5.79618489,0.0368165727 6.25619956,0.0327258424 C6.74130594,0.0327258424 6.83330888,0.0449980333 7.10513573,0.143175561 C7.57769626,0.310895503 7.84952311,0.486796906 8.30117388,0.924505048 C8.82809978,1.43584634 8.95355833,1.50538875 9.39266324,1.50538875 C9.83176816,1.50538875 9.97813646,1.42766487 10.4966985,0.920414318 C10.9316214,0.490887636 11.2034483,0.310895503 11.6801908,0.143175561 C11.9520176,0.0449980333 12.0440205,0.0327258424 12.5291269,0.0327258424 C13.0142333,0.0327258424 13.1062362,0.0449980333 13.3780631,0.143175561 C13.8464417,0.310895503 14.1182685,0.486796906 14.5615554,0.920414318 C14.9964784,1.34585027 15.1303008,1.43175561 15.456493,1.50538875 L15.6655906,1.55038678 L15.6781365,2.2948997 C15.6865004,2.92078143 15.6781365,3.04350334 15.627953,3.06395699 C15.5275862,3.10077357 14.9755686,3.00259604 14.7162876,2.90032778 C14.2939105,2.73260784 14.0095378,2.54034352 13.6122524,2.14763341 C13.1480558,1.69765307 12.9096845,1.5667497 12.524945,1.5667497 C12.1652971,1.5667497 11.830741,1.73446965 11.5421864,2.06172807 C10.5552458,3.17440671 9.03301541,3.39121542 7.83697726,2.58125082 C7.72406456,2.50761767 7.48569332,2.29899043 7.30168745,2.11490757 C6.89603815,1.70583454 6.69112252,1.59538482 6.31056493,1.57493117 C5.89655172,1.55038678 5.67072634,1.66492723 5.16052825,2.16808706 C4.72560528,2.59352301 4.33668379,2.8348761 3.8515774,2.97396093 C3.51283933,3.07213846 2.9273661,3.09259211 2.58026412,3.01486823 Z" id="Path"></path>
                    </g>
                </g>
            </g>
        </g>
    </g>
</svg>