<?xml version="1.0" encoding="UTF-8"?>
<svg width="30px" height="30px" viewBox="0 0 30 30" version="1.1" xmlns="http://www.w3.org/2000/svg" xmlns:xlink="http://www.w3.org/1999/xlink">
    <!-- Generator: Sketch 52.6 (67491) - http://www.bohemiancoding.com/sketch -->
    <title>Group 17 Copy</title>
    <desc>Created with Sketch.</desc>
    <defs>
        <filter x="-43.8%" y="-43.8%" width="187.5%" height="187.5%" filterUnits="objectBoundingBox" id="filter-1">
            <feOffset dx="0" dy="2" in="SourceAlpha" result="shadowOffsetOuter1"></feOffset>
            <feGaussianBlur stdDeviation="1.5" in="shadowOffsetOuter1" result="shadowBlurOuter1"></feGaussianBlur>
            <feColorMatrix values="0 0 0 0 0.801684736   0 0 0 0 0.801684736   0 0 0 0 0.801684736  0 0 0 0.5 0" type="matrix" in="shadowBlurOuter1" result="shadowMatrixOuter1"></feColorMatrix>
            <feMerge>
                <feMergeNode in="shadowMatrixOuter1"></feMergeNode>
                <feMergeNode in="SourceGraphic"></feMergeNode>
            </feMerge>
        </filter>
    </defs>
    <g id="Page-1" stroke="none" stroke-width="1" fill="none" fill-rule="evenodd">
        <g id="Group-17-Copy" filter="url(#filter-1)" transform="translate(3.000000, 1.000000)">
            <g id="Group-11-Copy-33" fill="#FFFFFF">
                <circle id="Oval-Copy-11" cx="12" cy="12" r="12"></circle>
            </g>
            <path d="M5.81856142,15.0173761 C4.03771552,15.0173761 2.96605603,13.887931 2.96605603,12.0020205 C2.96605603,10.1318696 4.05347522,8.98666487 5.81856142,8.98666487 C7.58364763,8.98666487 8.67106681,10.1266164 8.67106681,12.0020205 C8.67106681,13.8931843 7.59940733,15.0173761 5.81856142,15.0173761 Z M5.81856142,13.8091325 C6.6328125,13.8091325 7.10035022,13.1472252 7.10035022,12.0020205 C7.10035022,10.8673222 6.62755927,10.2001616 5.81856142,10.2001616 C5.00431034,10.2001616 4.53677263,10.8673222 4.53677263,12.0020205 C4.53677263,13.1472252 4.99905711,13.8091325 5.81856142,13.8091325 Z M9.91608297,14.8965517 L9.91608297,9.11274246 L11.3974946,9.11274246 L11.3974946,10.0320582 L11.4920528,10.0320582 C11.6443966,9.45420259 12.2432651,9.01818427 12.9787177,9.01818427 C13.188847,9.01818427 13.4462554,9.04445043 13.5775862,9.08647629 L13.5775862,10.4313039 C13.4567619,10.389278 13.099542,10.3472522 12.8526401,10.3472522 C12.0173761,10.3472522 11.4447737,10.8463093 11.4447737,11.6605603 L11.4447737,14.8965517 L9.91608297,14.8965517 Z M17.995555,9.01818427 C19.4612069,9.01818427 20.3595097,10.1371228 20.3595097,12.0020205 C20.3595097,13.8616649 19.4717134,14.9858567 18.0218211,14.9858567 C17.1918103,14.9858567 16.5561692,14.6233836 16.2724946,14.0140086 L16.1779364,14.0140086 L16.1779364,16.8139817 L14.6492457,16.8139817 L14.6492457,9.11274246 L16.1306573,9.11274246 L16.1306573,10.0635776 L16.2252155,10.0635776 C16.5404095,9.41217672 17.1970636,9.01818427 17.995555,9.01818427 Z M17.4754849,13.751347 C18.3002425,13.751347 18.7887931,13.0946929 18.7887931,12.0020205 C18.7887931,10.9146013 18.2949892,10.2579472 17.4807381,10.2579472 C16.6664871,10.2579472 16.1621767,10.9251078 16.1621767,12.0072737 C16.1621767,13.0894397 16.6664871,13.751347 17.4754849,13.751347 Z" id="orp" fill="#000000"></path>
        </g>
    </g>
</svg>