<?xml version="1.0" encoding="UTF-8"?>
<svg width="30px" height="30px" viewBox="0 0 30 30" version="1.1" xmlns="http://www.w3.org/2000/svg" xmlns:xlink="http://www.w3.org/1999/xlink">
    <!-- Generator: Sketch 52.6 (67491) - http://www.bohemiancoding.com/sketch -->
    <title>Group 19 Copy 2</title>
    <desc>Created with Sketch.</desc>
    <defs>
        <filter x="-43.8%" y="-43.8%" width="187.5%" height="187.5%" filterUnits="objectBoundingBox" id="filter-1">
            <feOffset dx="0" dy="2" in="SourceAlpha" result="shadowOffsetOuter1"></feOffset>
            <feGaussianBlur stdDeviation="1.5" in="shadowOffsetOuter1" result="shadowBlurOuter1"></feGaussianBlur>
            <feColorMatrix values="0 0 0 0 0.801684736   0 0 0 0 0.801684736   0 0 0 0 0.801684736  0 0 0 0.5 0" type="matrix" in="shadowBlurOuter1" result="shadowMatrixOuter1"></feColorMatrix>
            <feMerge>
                <feMergeNode in="shadowMatrixOuter1"></feMergeNode>
                <feMergeNode in="SourceGraphic"></feMergeNode>
            </feMerge>
        </filter>
    </defs>
    <g id="Page-1" stroke="none" stroke-width="1" fill="none" fill-rule="evenodd">
        <g id="Group-19-Copy-2" filter="url(#filter-1)" transform="translate(3.000000, 1.000000)">
            <g id="Group-11-Copy-35" fill="#FFFFFF">
                <circle id="Oval-Copy-11" cx="12" cy="12" r="12"></circle>
            </g>
            <g id="18-512" transform="translate(14.068966, 4.793103)" fill="#000000" fill-rule="nonzero">
                <g id="18-512-(1)">
                    <g id="Group" transform="translate(3.008544, 5.927372) scale(-1, 1) rotate(-180.000000) translate(-3.008544, -5.927372) translate(0.008544, 0.927372)">
                        <path d="M2.91364052,9.00440652 C2.83503204,8.97144347 2.75642356,8.8926984 2.72395484,8.81578462 C2.693195,8.74436468 2.69148612,8.66195705 2.69148612,7.02479223 C2.69148612,6.07985146 2.68635948,5.30705107 2.67952395,5.30705107 C2.67097955,5.30705107 2.19761977,5.70260767 1.62685383,6.18606574 C1.05608789,6.6695238 0.567348184,7.07606809 0.541714983,7.09071833 C0.46481538,7.13283779 0.391333537,7.14199419 0.312725053,7.12001882 C0.145254806,7.07240553 0.0427220018,6.93689077 0.0427220018,6.76291911 C0.0427220018,6.57246593 0.00854440037,6.60726026 1.26969789,5.51581705 C1.90711016,4.9646016 2.42831858,4.51044402 2.43002746,4.5031189 C2.43173634,4.49762506 1.91052792,4.0507926 1.27140677,3.51239612 C0.630576747,2.97399963 0.0905706439,2.50885437 0.0683552029,2.4777226 C-0.0341776015,2.33488272 -0.0170888007,2.12977929 0.109368325,1.99426453 C0.191394568,1.90636306 0.273420812,1.87706258 0.403295697,1.88621898 C0.481904181,1.89171282 0.516081782,1.90636306 0.567348184,1.9503138 C1.05267013,2.36601448 2.63338419,3.69552417 2.64363747,3.69552417 C2.65047299,3.69552417 2.65730851,2.92455506 2.65730851,1.98327685 C2.65730851,0.307655134 2.65730851,0.267366962 2.69148612,0.197778301 C2.75984132,0.0531071363 2.94440037,-0.0329630501 3.09307293,0.0128189639 C3.14263045,0.0274692084 3.49636863,0.316811537 4.38327739,1.06946785 C5.05486726,1.6389961 5.6341776,2.13344185 5.6683552,2.17006746 C5.71962161,2.22500588 5.73329265,2.25247509 5.74354593,2.33488272 C5.74867257,2.38798985 5.76063473,2.43194059 5.76917913,2.43194059 C5.79310345,2.43194059 5.78626793,2.55646766 5.76063473,2.61140608 C5.71962161,2.69381371 5.642722,2.76157109 4.59176076,3.64058576 C4.03466585,4.10573102 3.58181263,4.49579378 3.58523039,4.50678146 C3.58864815,4.51776914 4.05859017,4.92248215 4.63277388,5.4077715 C5.23259078,5.91686749 5.69740616,6.3215805 5.72987489,6.36736251 C5.77772353,6.43695117 5.78455905,6.45892654 5.78455905,6.55964697 C5.78455905,6.69149917 5.76063473,6.78123192 5.70936832,6.84349546 C5.66493744,6.89660259 3.26566982,8.93298658 3.18535246,8.98609371 C3.12212389,9.02821317 2.98883125,9.03736957 2.91364052,9.00440652 Z M4.45505035,6.92224052 C4.67720476,6.73361862 4.86005493,6.57429721 4.86176381,6.56697209 C4.86176381,6.55415313 3.38187366,5.28873826 3.36649374,5.28873826 C3.3613671,5.28873826 3.35794934,5.86559164 3.35794934,6.57063465 L3.35794934,7.85253105 L3.704852,7.55769488 C3.89453769,7.39654219 4.23289594,7.10903114 4.45505035,6.92224052 Z M4.11156546,3.08570775 C4.51827891,2.73959572 4.85321941,2.45025339 4.85492829,2.44109699 C4.85834605,2.4301093 4.673787,2.26712533 4.44821483,2.07484088 C4.22093378,1.8843877 3.88428441,1.59687665 3.6963076,1.43755524 L3.35794934,1.15004419 L3.35794934,2.43194059 C3.35794934,3.1369836 3.3613671,3.71383698 3.36649374,3.71383698 C3.3699115,3.71383698 3.70656088,3.43181977 4.11156546,3.08570775 Z" id="Shape"></path>
                    </g>
                </g>
            </g>
            <g id="Mens-icon-Copy" transform="translate(1.655172, 7.275862)" fill="#000000" fill-rule="nonzero">
                <g id="Group" transform="translate(6.500000, 5.931034) scale(-1, 1) rotate(-180.000000) translate(-6.500000, -5.931034) translate(0.000000, 0.931034)">
                    <path d="M4.60586757,9.54440392 C5.52489648,9.51577793 6.00403557,8.86280757 5.65326154,8.26374113 C5.52961472,8.05535494 5.51149919,7.96155777 5.51149919,7.61240005 L5.51149919,7.11106066 L5.66709527,6.99610266 L5.79425565,6.90216394 C5.91500234,6.81172016 5.89713857,6.87643375 5.88734916,6.32201744 L5.8804206,5.86428163 L5.86586579,5.84479354 C5.85063922,5.82369379 5.71257249,5.73907977 5.74522397,5.73907977 C5.42768914,5.73907977 5.33532673,5.55161643 5.2952024,5.26547997 C5.21761045,4.72574572 4.97351295,4.19416458 4.63501255,3.82329732 L4.33036142,3.49199189 C4.31791118,3.48920672 4.30617922,3.48573179 4.28566215,3.47965476 C4.23358159,3.46347271 4.17653718,3.439364 4.1111934,3.40625609 C3.7585493,3.21782244 3.34254199,3.20826959 2.99184997,3.38033189 C2.69520977,3.52172845 2.73554225,3.50385128 2.727387,3.49131634 C2.69315258,3.48493413 2.66200335,3.47912708 2.63365779,3.4738119 C2.63351069,3.5597091 2.62354967,3.56650405 2.5976318,3.58418402 C2.57006043,3.62770368 2.57006043,3.62770368 2.54199482,3.66614799 C2.50498584,3.71597754 2.45577989,3.77627409 2.39888214,3.84131704 C2.19256142,4.07136933 2.1089961,4.20130489 1.97270767,4.50637748 C1.86656175,4.74194084 1.75700268,5.11465281 1.75700268,5.19859959 C1.75700268,5.48798448 1.6045881,5.67635544 1.32255869,5.74206552 C1.27342139,5.75310722 1.18479317,5.82348911 1.16793871,5.85866686 C1.14355732,5.91249337 1.14044588,5.94583083 1.14044588,6.35931741 C1.14044588,6.85323058 1.11907775,6.78137125 1.25468393,6.90076845 L1.5221239,7.13244581 L1.5221239,7.69552838 C1.5221239,8.15002719 1.55441474,8.36465932 1.63637384,8.54119878 C1.76377959,8.8163838 2.11598311,8.99136387 2.73235267,9.02458286 C3.10032301,9.04663275 3.18446076,9.06929323 3.4259692,9.22043224 C3.67643911,9.37646542 3.98543465,9.4961407 4.25964944,9.54458905 C4.30195739,9.54784053 4.4679204,9.54922325 4.60586757,9.54440392 Z M6.27841919,7.61240005 C6.27841919,7.83628902 6.27215779,7.80386926 6.31394414,7.87430583 C6.98993835,9.02877223 6.08229492,10.265708 4.63120152,10.310904 C4.44890522,10.3172762 4.24045643,10.3151226 4.15981613,10.3051739 L4.14248279,10.3026323 C3.76602783,10.2386154 3.35805438,10.081685 3.0197907,9.87095872 C2.89837522,9.79497586 2.9358687,9.80507383 2.68878357,9.79026079 C1.81934255,9.74341243 1.20700057,9.43919162 0.94059339,8.86377541 C0.80255877,8.56645043 0.755203902,8.25169009 0.755203902,7.69552838 L0.755203902,7.48273094 L0.750227453,7.47841936 C0.411740167,7.18043206 0.373525885,7.05192051 0.373525885,6.35931741 C0.373525885,5.82894268 0.382362954,5.73425799 0.472512939,5.53541342 C0.572555491,5.32559372 0.78131633,5.13670539 1.00542951,5.04191052 C1.04502786,4.80160287 1.15577877,4.45255098 1.27298933,4.1924364 C1.43930343,3.82014739 1.56539234,3.62305079 1.81767648,3.3407742 C1.78222424,3.29060914 1.74292771,3.23212078 1.71570773,3.1910852 L1.63269005,3.06050018 L1.58493358,3.06050018 C1.12444149,3.06050018 0.709353939,2.90343244 0.457150663,2.66613538 C0.289913466,2.50878256 0.191851251,2.32571531 0.25713383,2.10381461 C0.349487114,1.78989843 0.62342411,1.73920794 0.905657911,1.81469897 C1.04275413,1.85240815 1.15794016,1.86254438 1.49685404,1.86254438 C1.85218111,1.86254438 2.08188133,1.87654878 2.20985016,1.94393698 C2.32451259,2.00952299 2.45174461,2.18322352 2.66212945,2.50534357 C2.69505536,2.55506364 2.72662353,2.60220251 2.75580132,2.64523715 C3.25111655,2.43541956 3.8146676,2.43958063 4.30911507,2.65104858 C4.34991468,2.58961739 4.39247941,2.52574757 4.4242955,2.4777034 C4.69459523,2.06934261 4.79080853,1.9468281 4.98856276,1.89177525 C5.0719744,1.87158991 5.30487255,1.86254438 5.57036626,1.86254787 C6.19644418,1.85987901 6.48025097,1.75941638 6.76127008,1.46232928 C7.0049108,1.20446918 7.09443972,0.941985253 7.09693095,0.438732864 C7.09693095,0.0570222865 7.11374655,-0.049546729 7.2616024,-0.204596102 C7.48902306,-0.443081299 7.85343685,-0.443081299 8.08085751,-0.204596102 C8.23549912,-0.0424308327 8.24552897,0.0354966934 8.24552897,0.515703542 C8.24552897,1.30442376 8.0738714,1.77849944 7.59735219,2.28182344 C7.10838053,2.79822129 6.56372404,3.01310348 5.68474779,3.05093559 L5.43441527,3.0612979 L5.3114381,3.24738951 L5.2426359,3.35241739 C5.64193307,3.80934296 5.92578194,4.41788279 6.03688517,5.04760926 C6.21487681,5.12865906 6.39181759,5.26308623 6.48396166,5.39083036 L6.6434928,5.60427277 L6.64537336,5.72851189 L6.65416546,6.30944323 C6.66755929,7.06789881 6.62829859,7.22951705 6.27841919,7.49749047 L6.27841919,7.61240005 Z M3.11650777,9.44348423 C3.03984829,9.3893446 3.08520327,9.40288404 2.9677824,9.40288404 C2.65145041,9.40288404 2.27103574,9.34660039 2.00633323,9.25872203 C1.6567305,9.14788593 1.40722398,8.94528426 1.2701677,8.64344959 C1.17246302,8.42516899 1.16624177,8.35784204 1.16624177,7.7324743 C1.16624177,7.5652286 1.15878537,7.35315669 1.16888179,7.28162579 C1.09389263,7.23567186 1.01180498,7.17155323 0.953354307,7.11434365 C0.930461387,7.09220656 0.930461387,7.09220656 0.895711072,7.0540772 C0.758037203,6.8930545 0.755203902,6.86335181 0.755203902,6.35315976 C0.755203902,6.06973094 0.763349329,5.86472964 0.801319455,5.74934654 C0.89114852,5.52954781 1.15974872,5.38339798 1.39925036,5.37300106 C1.38798777,5.40881875 1.3717607,5.40912207 1.3717607,5.37101391 C1.3717607,4.97344034 1.59133652,4.34906446 1.87068781,3.92201343 C2.0792607,3.59949348 2.45763013,3.24857963 2.78178052,3.08053803 C3.05799017,2.93962825 3.13159435,2.92473974 3.51974753,2.92473974 L3.86032176,2.92473974 L4.03838754,2.96859092 L4.28371316,3.09722471 C5.04102444,3.49062616 5.59085454,4.39769827 5.67488459,5.36002717 C5.68573278,5.47631497 5.59266507,5.36694051 5.65817194,5.37663906 C6.18486474,5.45554157 6.27841919,5.64309732 6.27841919,6.3470021 L6.27841919,7.01252112 L6.1056558,7.1261354 L5.92965718,7.24186014 C5.89296945,7.26553563 5.87452775,7.28130296 5.87437328,7.26716164 C5.8779694,7.2847228 5.86738132,7.45647347 5.86738132,7.60008474 C5.86738132,7.84630072 5.87337334,7.90285261 5.87907949,7.91372411 C5.91103376,7.97594154 5.91103376,7.97594154 5.96125432,8.07244507 C5.9873421,8.1227574 5.9873421,8.1227574 6.008835,8.16466208 C6.36942973,8.85558179 5.95404994,9.57306536 5.13672448,9.8258959 C4.49480273,10.0261115 3.7262228,9.87579248 3.11650777,9.44348423 Z M1.57216036,6.62931636 C1.6830819,6.68747543 1.79436495,6.7834683 1.86647054,6.91164914 C1.92309459,7.03040701 1.93316177,7.25738182 1.93316177,7.7324743 C1.93316177,8.24220854 1.93377327,8.24882633 1.96931341,8.32823968 C2.01017727,8.41822884 2.08527733,8.4792108 2.24299417,8.52924862 C2.43115423,8.59168991 2.73039796,8.63596404 2.9677824,8.63596404 C3.23926658,8.63596404 3.34885032,8.66867713 3.5595085,8.81745218 C3.98246151,9.11733937 4.50545579,9.21956732 4.90868217,9.09366425 C5.30924711,8.96987869 5.44324611,8.73851567 5.32740751,8.51653091 C5.30598241,8.47477669 5.30598241,8.47477669 5.28220641,8.42891726 L5.28061356,8.42584914 C5.23101065,8.33055315 5.23101065,8.33055315 5.20079753,8.2713764 C5.11370135,8.11306482 5.10046132,7.98810714 5.10046132,7.60008474 C5.10046132,7.33729594 5.11641227,7.10207255 5.14904433,7.0122967 C5.20023314,6.84231238 5.3262579,6.71850293 5.51103948,6.59927588 L5.51149919,6.3470021 C5.51149919,6.1022216 5.54767862,6.09141054 5.55812299,6.11029885 C5.11106161,6.06896181 4.95324416,5.8810982 4.91107612,5.42900377 C4.84864603,4.7140991 4.44238215,4.04387273 3.9288787,3.77711929 L3.76588939,3.69165974 L3.51974753,3.69165974 C3.244909,3.69165974 3.28896783,3.6827476 3.13252923,3.76254633 C2.93143679,3.86679966 2.65228289,4.12569734 2.5135857,4.34015766 C2.30907278,4.65280845 2.1386807,5.13732767 2.1386807,5.37101391 C2.1386807,5.80984566 1.923203,6.09487384 1.52504689,6.13455999 C1.52393099,6.20193301 1.5221239,6.28476436 1.5221239,6.35315976 C1.5221239,6.52824836 1.52413039,6.58695101 1.50238436,6.57766159 C1.52567097,6.59773505 1.55949227,6.62267415 1.57216036,6.62931636 Z" id="Shape"></path>
                    <path d="M10.2094769,7.36553065 C10.1724215,7.46144147 10.1100934,7.49196777 10.1329881,7.48784479 L10.2037207,7.47461529 C10.205318,7.40828446 10.2074202,7.37589495 10.2094769,7.36553065 Z M9.12555283,3.27298154 C9.07993997,3.35872503 9.06742682,3.4151002 9.06742682,3.48834143 C9.06742682,3.52595156 9.07085856,3.55915687 9.07876237,3.59178564 C9.20449037,3.62801948 9.2679067,3.62574686 9.37743401,3.49968778 C9.3023457,3.41841841 9.21876754,3.34336976 9.12555283,3.27298154 Z M7.47860897,9.66354272 C7.47860897,9.46332395 7.55812349,9.30223123 7.72837985,9.18553666 C7.89939201,9.07354873 8.02021041,9.0669472 8.30178811,9.11153189 C8.89188784,9.20149418 9.18427293,9.09452529 9.31338194,8.81148047 C9.39387077,8.63662244 9.43126878,8.3524282 9.4340771,7.792746 C9.4340771,7.09541548 9.48012426,6.87776309 9.821292,6.77372593 L9.82521105,6.54522741 C9.83189128,6.0846473 9.9122353,6.26054168 9.8475963,6.2514999 C9.40012029,6.18972849 9.22019777,5.9682094 9.22019777,5.50377118 C9.22019777,5.2734521 9.17427647,4.87780248 9.12423095,4.67988638 C9.02482954,4.27335085 8.89401234,4.05609062 8.65700548,3.8801844 C8.39087039,3.68658817 8.30357208,3.57236962 8.30357208,3.31541064 C8.30357208,2.93480637 8.6169585,2.68150138 8.97040522,2.74975412 C9.00378128,2.7026467 9.04272693,2.64574189 9.08720115,2.57897429 C9.28639546,2.28380015 9.42533046,2.0949694 9.51016752,2.0314808 C9.65940159,1.91886269 9.76876091,1.91008688 10.2758499,1.91008688 C10.7764494,1.91008688 10.9613895,1.87650212 11.2141475,1.74900759 C11.4289734,1.64211766 11.5838684,1.50458864 11.6990252,1.32209485 C11.8323402,1.11029501 11.8786583,0.928263954 11.9001141,0.495273985 C11.9221792,-0.0496753362 11.9352303,-0.123542001 12.1438268,-0.270409574 C12.386564,-0.442678618 12.6823964,-0.415974415 12.8811712,-0.218300879 C13.0792928,-0.0410155482 13.0834151,-0.00261314041 13.0667918,0.604551259 C13.053654,1.02365721 13.0344211,1.16549821 12.952392,1.41867249 C12.6988212,2.1753941 12.1185774,2.73772419 11.3518344,2.97109143 C11.0588702,3.06189759 10.6157886,3.11719434 10.2086307,3.11719434 L10.1490591,3.11719434 L10.0133865,3.31711562 C9.97208057,3.37662417 9.93198805,3.43606118 9.89669887,3.48988176 C10.1618016,3.88598548 10.3334759,4.48305202 10.3804821,5.13967907 L10.382524,5.17154775 C10.6668196,5.29538164 10.9075494,5.55775274 10.9823285,5.8415249 C11.0203564,5.98338161 11.0297999,6.24487918 11.0197865,6.63947994 C11.0091761,7.22545061 10.9994982,7.30690226 10.8846948,7.49816486 C10.8157376,7.61170213 10.7206692,7.70251065 10.5982016,7.77461596 L10.5982016,8.00969553 C10.5982016,8.87136267 10.4504984,9.38948867 10.0589292,9.79243509 C9.69489764,10.1670439 9.25939246,10.3216773 8.63156965,10.314203 C8.41826552,10.3105447 8.18748391,10.2964695 8.07576105,10.2773794 C7.7069262,10.2149329 7.47860897,10.0206911 7.47860897,9.66354272 Z" id="Path"></path>
                </g>
            </g>
        </g>
    </g>
</svg>