<?xml version="1.0" encoding="UTF-8"?>
<svg width="30px" height="30px" viewBox="0 0 30 30" version="1.1" xmlns="http://www.w3.org/2000/svg" xmlns:xlink="http://www.w3.org/1999/xlink">
    <!-- Generator: Sketch 52.6 (67491) - http://www.bohemiancoding.com/sketch -->
    <title>Group 5 Copy</title>
    <desc>Created with Sketch.</desc>
    <defs>
        <filter x="-43.8%" y="-43.8%" width="187.5%" height="187.5%" filterUnits="objectBoundingBox" id="filter-1">
            <feOffset dx="0" dy="2" in="SourceAlpha" result="shadowOffsetOuter1"></feOffset>
            <feGaussianBlur stdDeviation="1.5" in="shadowOffsetOuter1" result="shadowBlurOuter1"></feGaussianBlur>
            <feColorMatrix values="0 0 0 0 0.801684736   0 0 0 0 0.801684736   0 0 0 0 0.801684736  0 0 0 0.5 0" type="matrix" in="shadowBlurOuter1" result="shadowMatrixOuter1"></feColorMatrix>
            <feMerge>
                <feMergeNode in="shadowMatrixOuter1"></feMergeNode>
                <feMergeNode in="SourceGraphic"></feMergeNode>
            </feMerge>
        </filter>
    </defs>
    <g id="Page-1" stroke="none" stroke-width="1" fill="none" fill-rule="evenodd">
        <g id="Group-5-Copy" filter="url(#filter-1)" transform="translate(3.000000, 1.000000)">
            <g id="Group-11-Copy-15" fill="#FFFFFF">
                <circle id="Oval-Copy-11" cx="12" cy="12" r="12"></circle>
            </g>
            <path d="M3.21619073,10.1686422 C3.21619073,8.91998922 4.33149246,8.07745151 5.99838362,8.07745151 C7.6955819,8.07745151 8.69571659,8.78663793 8.79269935,10.0474138 L7.16217672,10.0474138 C7.07125539,9.60492996 6.66514009,9.33216595 6.01050647,9.33216595 C5.38011853,9.33216595 4.91338901,9.62917565 4.91338901,10.0655981 C4.91338901,10.4050377 5.19827586,10.6171875 5.81654095,10.7566002 L7.07125539,11.0293642 C8.36839978,11.3142511 8.95029634,11.8597791 8.95029634,12.8538524 C8.95029634,14.1752425 7.75619612,15.0359644 6.00444504,15.0359644 C4.24057112,15.0359644 3.17376078,14.3146552 3.05253233,13.0538793 L4.77397629,13.0538793 C4.90732759,13.5145474 5.33768858,13.7873114 6.04081358,13.7873114 C6.72575431,13.7873114 7.19854526,13.4842403 7.19854526,13.0417565 C7.19854526,12.7023168 6.94396552,12.4962284 6.35600754,12.3628772 L5.14372306,12.0901131 C3.84657866,11.8052263 3.21619073,11.1930226 3.21619073,10.1686422 Z M13.3630119,15.0359644 C11.3081897,15.0359644 10.0716595,13.7327586 10.0716595,11.556708 C10.0716595,9.39884159 11.3263739,8.07745151 13.3630119,8.07745151 C15.3996498,8.07745151 16.6543642,9.39278017 16.6543642,11.556708 C16.6543642,13.73882 15.4178341,15.0359644 13.3630119,15.0359644 Z M13.3630119,13.6418373 C14.3025323,13.6418373 14.8419989,12.8780981 14.8419989,11.556708 C14.8419989,10.2474407 14.2964709,9.47764009 13.3630119,9.47764009 C12.4234914,9.47764009 11.8840248,10.2474407 11.8840248,11.556708 C11.8840248,12.8780981 12.41743,13.6418373 13.3630119,13.6418373 Z M17.7090517,12.7265625 C17.7090517,11.629445 18.6061422,10.8899515 19.9032866,10.8899515 C21.1883082,10.8899515 21.9641703,11.556708 21.9641703,12.4780442 C21.9641703,13.1084321 21.6671606,13.5266703 20.7518858,14.2782866 L19.6183998,15.2056843 L19.6183998,15.2723599 L22.0308459,15.2723599 L22.0308459,16.3694774 L17.7878502,16.3694774 L17.7878502,15.4299569 L19.8063039,13.7145744 C20.5094289,13.1266164 20.6306573,12.9023438 20.6306573,12.5992726 C20.6306573,12.2477101 20.3457705,11.9507004 19.8305496,11.9507004 C19.291083,11.9507004 18.9637662,12.2780172 18.9637662,12.7265625 L17.7090517,12.7265625 Z" id="so₂" fill="#000000"></path>
        </g>
    </g>
</svg>