<?xml version="1.0" encoding="UTF-8"?>
<svg width="29px" height="29px" viewBox="0 0 29 29" version="1.1" xmlns="http://www.w3.org/2000/svg" xmlns:xlink="http://www.w3.org/1999/xlink">
    <!-- Generator: Sketch 52.6 (67491) - http://www.bohemiancoding.com/sketch -->
    <title>Group 20 Copy</title>
    <desc>Created with Sketch.</desc>
    <g id="Page-1" stroke="none" stroke-width="1" fill="none" fill-rule="evenodd">
        <g id="icons" transform="translate(-59.000000, -472.000000)">
            <g id="Group-20-Copy" transform="translate(59.000000, 472.000000)">
                <circle id="Oval-Copy-33" fill="#FFFFFF" transform="translate(14.500000, 14.500000) rotate(-360.000000) translate(-14.500000, -14.500000) " cx="14.5" cy="14.5" r="14.5"></circle>
                <g id="Group-10-Copy-2" transform="translate(14.197917, 14.802083) rotate(-180.000000) translate(-14.197917, -14.802083) translate(2.718750, 6.343750)" fill="#000000" fill-rule="nonzero">
                    <g id="24-env-pm10" transform="translate(0.717448, 0.000000)">
                        <path d="M12.4297852,0.433489583 C13.4996211,0.433489583 14.3668945,1.28554767 14.3668945,2.33661458 C14.3668945,3.3876815 13.4996211,4.23973958 12.4297852,4.23973958 C11.3599492,4.23973958 10.4926758,3.3876815 10.4926758,2.33661458 C10.4897926,1.83101141 10.6929544,1.3452966 11.0568597,0.987775555 C11.4207651,0.630254513 11.9151534,0.430657006 12.4297852,0.433489583 Z M17.21875,10.4989063 C17.21875,11.5499732 18.0860234,12.4020313 19.1558594,12.4020313 C20.2256953,12.4020313 21.0929687,11.5499732 21.0929687,10.4989063 C21.0929687,9.44783934 20.2256953,8.59578125 19.1558594,8.59578125 C18.0860234,8.59578125 17.21875,9.44783934 17.21875,10.4989063 Z M3.84193359,10.4989062 C3.84193359,11.5499732 4.709207,12.4020313 5.77904297,12.4020313 C6.84887894,12.4020313 7.71615234,11.5499732 7.71615234,10.4989062 C7.71615234,9.44783934 6.84887894,8.59578125 5.77904297,8.59578125 C5.25971876,8.58727651 4.75867252,8.78402293 4.3883812,9.14185406 C4.01808988,9.49968518 3.80957629,9.98862212 3.80964844,10.4989062 L3.84193359,10.4989062 Z M7.18882812,6.41776042 C7.18882813,7.46882733 8.05610153,8.32088542 9.1259375,8.32088542 C10.1957735,8.32088542 11.0630469,7.46882733 11.0630469,6.41776042 C11.0630469,5.3666935 10.1957735,4.51463542 9.1259375,4.51463542 C8.60661329,4.50613068 8.10556705,4.7028771 7.73527573,5.06070822 C7.36498441,5.41853935 7.15647083,5.90747628 7.15654297,6.41776042 L7.18882812,6.41776042 Z M10.5249609,10.4989062 C10.5249609,11.5499732 11.3922343,12.4020313 12.4620703,12.4020313 C13.5319063,12.4020313 14.3991797,11.5499732 14.3991797,10.4989062 C14.3991797,9.44783934 13.5319063,8.59578125 12.4620703,8.59578125 C11.9436039,8.5901449 11.4442456,8.78782414 11.0745947,9.14503646 C10.7049437,9.50224878 10.4955087,9.98951216 10.4926758,10.4989062 L10.5249609,10.4989062 Z M0.462753906,6.41776042 C0.462753906,7.46882733 1.33002731,8.32088542 2.39986328,8.32088542 C3.46969925,8.32088542 4.33697266,7.46882733 4.33697266,6.41776042 C4.33697266,5.3666935 3.46969925,4.51463542 2.39986328,4.51463542 C1.33247283,4.52041331 0.468634979,5.36909611 0.462753906,6.41776042 Z M13.8395703,6.41776042 C13.8395703,7.46882733 14.7068437,8.32088542 15.7766797,8.32088542 C16.8465157,8.32088542 17.7137891,7.46882733 17.7137891,6.41776042 C17.7137891,5.3666935 16.8465157,4.51463542 15.7766797,4.51463542 C14.7092892,4.52041331 13.8454514,5.36909611 13.8395703,6.41776042 Z M7.15654297,14.5800521 C7.15654297,15.631119 8.02381638,16.4831771 9.09365234,16.4831771 C10.1634883,16.4831771 11.0307617,15.631119 11.0307617,14.5800521 C11.0307617,13.5289852 10.1634883,12.6769271 9.09365234,12.6769271 C8.57902054,12.6740945 8.08463225,12.873692 7.7207269,13.2312131 C7.35682156,13.5887341 7.15365981,14.0744489 7.15654297,14.5800521 Z M13.8395703,14.5800521 C13.8395703,15.631119 14.7068437,16.4831771 15.7766797,16.4831771 C16.8465157,16.4831771 17.7137891,15.631119 17.7137891,14.5800521 C17.7137891,13.5289852 16.8465157,12.6769271 15.7766797,12.6769271 C15.2629263,12.6769271 14.770215,12.8774343 14.4069365,13.2343395 C14.043658,13.5912447 13.8395703,14.075312 13.8395703,14.5800521 Z M3.80964844,2.33661458 C3.80964844,3.3876815 4.67692185,4.23973958 5.74675781,4.23973958 C6.81659378,4.23973958 7.68386719,3.3876815 7.68386719,2.33661458 C7.68386719,1.28554767 6.81659378,0.433489583 5.74675781,0.433489583 C4.67692185,0.433489583 3.80964844,1.28554767 3.80964844,2.33661458 Z" id="Shape"></path>
                    </g>
                </g>
            </g>
        </g>
    </g>
</svg>