<?xml version="1.0" encoding="UTF-8"?>
<svg width="29px" height="29px" viewBox="0 0 29 29" version="1.1" xmlns="http://www.w3.org/2000/svg" xmlns:xlink="http://www.w3.org/1999/xlink">
    <!-- Generator: Sketch 52.6 (67491) - http://www.bohemiancoding.com/sketch -->
    <title>Group 10</title>
    <desc>Created with Sketch.</desc>
    <g id="Page-1" stroke="none" stroke-width="1" fill="none" fill-rule="evenodd">
        <g id="icons" transform="translate(-59.000000, -863.000000)">
            <g id="Group-10" transform="translate(59.000000, 863.000000)">
                <g id="Group-11-Copy-21" fill="#FFFFFF">
                    <circle id="Oval-Copy-11" cx="14.5" cy="14.5" r="14.5"></circle>
                </g>
                <path d="M3.06933594,18 L3.06933594,9.93603516 L5.13476562,9.93603516 L5.13476562,11.2324219 L5.26660156,11.2324219 C5.64013672,10.3242188 6.46044922,9.76025391 7.65429688,9.76025391 C9.44873047,9.76025391 10.4155273,10.8588867 10.4155273,12.7851562 L10.4155273,18 L8.28417969,18 L8.28417969,13.2685547 C8.28417969,12.1333008 7.80810547,11.5400391 6.79736328,11.5400391 C5.80859375,11.5400391 5.20068359,12.2431641 5.20068359,13.3344727 L5.20068359,18 L3.06933594,18 Z M16.0625,18.168457 C13.5795898,18.168457 12.0854492,16.59375 12.0854492,13.9643555 C12.0854492,11.3569336 13.6015625,9.76025391 16.0625,9.76025391 C18.5234375,9.76025391 20.0395508,11.3496094 20.0395508,13.9643555 C20.0395508,16.6010742 18.5454102,18.168457 16.0625,18.168457 Z M16.0625,16.4838867 C17.1977539,16.4838867 17.8496094,15.5610352 17.8496094,13.9643555 C17.8496094,12.3823242 17.1904297,11.4521484 16.0625,11.4521484 C14.9272461,11.4521484 14.2753906,12.3823242 14.2753906,13.9643555 C14.2753906,15.5610352 14.9199219,16.4838867 16.0625,16.4838867 Z M21.3139648,15.3779297 C21.3139648,14.0522461 22.3979492,13.1586914 23.965332,13.1586914 C25.5180664,13.1586914 26.4555664,13.9643555 26.4555664,15.0776367 C26.4555664,15.8393555 26.0966797,16.3447266 24.9907227,17.2529297 L23.6210938,18.3735352 L23.6210938,18.4541016 L26.5361328,18.4541016 L26.5361328,19.7797852 L21.4091797,19.7797852 L21.4091797,18.6445312 L23.8481445,16.5717773 C24.6977539,15.8613281 24.8442383,15.590332 24.8442383,15.2241211 C24.8442383,14.7993164 24.5,14.4404297 23.8774414,14.4404297 C23.2255859,14.4404297 22.8300781,14.8359375 22.8300781,15.3779297 L21.3139648,15.3779297 Z" id="no₂" fill="#000000"></path>
            </g>
        </g>
    </g>
</svg>