<?xml version="1.0" encoding="UTF-8"?>
<svg width="29px" height="29px" viewBox="0 0 29 29" version="1.1" xmlns="http://www.w3.org/2000/svg" xmlns:xlink="http://www.w3.org/1999/xlink">
    <!-- Generator: Sketch 52.6 (67491) - http://www.bohemiancoding.com/sketch -->
    <title>Group 11</title>
    <desc>Created with Sketch.</desc>
    <g id="Page-1" stroke="none" stroke-width="1" fill="none" fill-rule="evenodd">
        <g id="icons" transform="translate(-59.000000, -919.000000)">
            <g id="Group-11" transform="translate(59.000000, 919.000000)">
                <g id="Group-11-Copy-22" fill="#FFFFFF">
                    <circle id="Oval-Copy-11" cx="14.5" cy="14.5" r="14.5"></circle>
                </g>
                <path d="M6.06933594,19 L6.06933594,10.9360352 L8.13476562,10.9360352 L8.13476562,12.2324219 L8.26660156,12.2324219 C8.64013672,11.3242188 9.46044922,10.7602539 10.6542969,10.7602539 C12.4487305,10.7602539 13.4155273,11.8588867 13.4155273,13.7851562 L13.4155273,19 L11.2841797,19 L11.2841797,14.2685547 C11.2841797,13.1333008 10.8081055,12.5400391 9.79736328,12.5400391 C8.80859375,12.5400391 8.20068359,13.2431641 8.20068359,14.3344727 L8.20068359,19 L6.06933594,19 Z M19.0625,19.168457 C16.5795898,19.168457 15.0854492,17.59375 15.0854492,14.9643555 C15.0854492,12.3569336 16.6015625,10.7602539 19.0625,10.7602539 C21.5234375,10.7602539 23.0395508,12.3496094 23.0395508,14.9643555 C23.0395508,17.6010742 21.5454102,19.168457 19.0625,19.168457 Z M19.0625,17.4838867 C20.1977539,17.4838867 20.8496094,16.5610352 20.8496094,14.9643555 C20.8496094,13.3823242 20.1904297,12.4521484 19.0625,12.4521484 C17.9272461,12.4521484 17.2753906,13.3823242 17.2753906,14.9643555 C17.2753906,16.5610352 17.9199219,17.4838867 19.0625,17.4838867 Z" id="no" fill="#000000"></path>
            </g>
        </g>
    </g>
</svg>