<?xml version="1.0" encoding="UTF-8"?>
<svg width="29px" height="29px" viewBox="0 0 29 29" version="1.1" xmlns="http://www.w3.org/2000/svg" xmlns:xlink="http://www.w3.org/1999/xlink">
    <!-- Generator: Sketch 52.6 (67491) - http://www.bohemiancoding.com/sketch -->
    <title>Group 12</title>
    <desc>Created with Sketch.</desc>
    <g id="Page-1" stroke="none" stroke-width="1" fill="none" fill-rule="evenodd">
        <g id="icons" transform="translate(-59.000000, -975.000000)">
            <g id="Group-12" transform="translate(59.000000, 975.000000)">
                <g id="Group-2">
                    <g id="Group-11-Copy-23" fill="#FFFFFF">
                        <circle id="Oval-Copy-11" cx="14.5" cy="14.5" r="14.5"></circle>
                    </g>
                    <g id="131-512" transform="translate(5.000000, 8.000000)" fill="#000000">
                        <g id="Group" transform="translate(9.522739, 6.482700) scale(-1, 1) rotate(-180.000000) translate(-9.522739, -6.482700) translate(0.045479, -0.000000)">
                            <path d="M3.03191489,12.8912548 C2.36489362,12.7330798 1.89494681,12.4513308 1.26835106,11.8285171 C0.833776596,11.4034221 0.555851064,11.2304183 0.197074468,11.1661597 L0.00505319149,11.1315589 L0.00505319149,10.1973384 C0.00505319149,9.1148289 -0.0555851064,9.20380228 0.596276596,9.33726236 C1.35425532,9.4904943 1.83430851,9.76730038 2.54680851,10.4642586 C3.07234043,10.978327 3.28962766,11.0870722 3.81515957,11.0870722 C4.26489362,11.0821293 4.48218085,10.9634981 5.1037234,10.3802281 C5.94760638,9.58441065 6.59946809,9.2878327 7.53430851,9.2878327 C8.57526596,9.28288973 9.34840426,9.6486692 10.2074468,10.5532319 C10.5763298,10.9437262 10.8896277,11.0870722 11.3494681,11.0870722 C11.8345745,11.0870722 12.0973404,10.9536122 12.612766,10.4395437 C13.1029255,9.95513308 13.3859043,9.74752852 13.8103723,9.55969582 C14.1742021,9.39657795 14.7906915,9.2581749 15.1393617,9.2581749 C15.5335106,9.2581749 16.1297872,9.40646388 16.5643617,9.60912548 C16.9079787,9.76730038 17.0848404,9.90076046 17.5547872,10.3406844 C18.1763298,10.9239544 18.3430851,11.0326996 18.6968085,11.0821293 L18.9292553,11.1117871 L18.9444149,12.0410646 L18.9545213,12.9653992 L18.737234,12.9653992 C18.3986702,12.9653992 17.7720745,12.7874525 17.3728723,12.5847909 C17.1151596,12.4513308 16.8574468,12.2486692 16.4835106,11.8927757 C16.1954787,11.6110266 15.8619681,11.3391635 15.7457447,11.2847909 C15.4223404,11.1315589 15.0787234,11.1068441 14.7300532,11.2155894 C14.4773936,11.2946768 14.356117,11.3787072 13.8406915,11.8581749 C13.3757979,12.2931559 13.1585106,12.4562738 12.8452128,12.6144487 C12.2893617,12.8863118 11.7941489,12.9851711 11.1776596,12.9505703 C10.2579787,12.9060837 9.66170213,12.6193916 8.88856383,11.8680608 C8.28218085,11.2847909 8.04973404,11.1612167 7.55957447,11.1661597 C7.07952128,11.1711027 6.87234043,11.2798479 6.22047872,11.8977186 C5.61914894,12.4661597 5.19973404,12.713308 4.5731383,12.8665399 C4.11835106,12.9802281 3.45638298,12.9901141 3.03191489,12.8912548 Z" id="Path"></path>
                            <path d="M3.16329787,8.32395437 C2.36489362,8.19543726 1.81914894,7.91368821 1.17234043,7.29087452 C0.687234043,6.82623574 0.404255319,6.62357414 0.146542553,6.56425856 L0.00505319149,6.52965779 L0.00505319149,5.5904943 L0.00505319149,4.64638783 L0.282978723,4.68098859 C0.98537234,4.76007605 1.60691489,5.09619772 2.28909574,5.7634981 C2.87021277,6.33688213 3.10771277,6.46045627 3.59281915,6.46045627 C4.07792553,6.46045627 4.31542553,6.33688213 4.90159574,5.7634981 C5.43218085,5.24448669 5.76569149,5.02205323 6.31143617,4.81939163 C6.61968085,4.70076046 6.71569149,4.69087452 7.38271277,4.69087452 C8.0143617,4.69087452 8.15585106,4.70570342 8.41861702,4.79961977 C8.94414894,4.99239544 9.38882979,5.28897338 9.88404255,5.778327 C10.4449468,6.33193916 10.6875,6.46045627 11.1726064,6.46539924 C11.6324468,6.46539924 11.9861702,6.29239544 12.3651596,5.86730038 C13.0928191,5.05665399 13.9518617,4.65627376 14.9625,4.65627376 C15.9731383,4.65627376 16.7867021,5.0418251 17.575,5.89201521 C17.8933511,6.23802281 18.262234,6.43574144 18.6715426,6.47528517 L18.9545213,6.50494297 L18.9545213,7.40456274 L18.9545213,8.30912548 L18.8332447,8.33878327 C18.6361702,8.38821293 17.9489362,8.27452471 17.5901596,8.13612167 C17.0949468,7.94334601 16.756383,7.71102662 16.2257979,7.20190114 C15.6598404,6.6581749 15.4324468,6.54448669 14.9574468,6.53954373 C14.4875,6.53954373 14.1085106,6.72737643 13.7244681,7.16235741 C13.0321809,7.93346008 12.1579787,8.3338403 11.1726064,8.3338403 C10.2074468,8.3338403 9.51010638,8.02737643 8.72180851,7.26121673 C8.11542553,6.67794677 7.86781915,6.53954373 7.38271277,6.53954373 C6.89255319,6.53954373 6.63484043,6.67794677 6.03856383,7.2661597 C5.31090426,7.9730038 4.67420213,8.27452471 3.76968085,8.33878327 C3.57765957,8.3486692 3.30478723,8.34372624 3.16329787,8.32395437 Z" id="Path"></path>
                            <path d="M3.11781915,3.64296578 C2.39521277,3.48479087 1.91010638,3.20304183 1.29361702,2.5851711 C0.869148936,2.16007605 0.555851064,1.96730038 0.212234043,1.91292776 L0.00505319149,1.878327 L0.00505319149,0.939163498 L0.00505319149,0 L0.323404255,0.0296577947 C1.12180851,0.103802281 1.7231383,0.415209125 2.47101064,1.13688213 C3.09255319,1.73498099 3.36037234,1.86844106 3.87074468,1.82889734 C4.30531915,1.79923954 4.55797872,1.65095057 5.08351064,1.1269962 C5.57367021,0.637642586 6.02845745,0.346007605 6.57420213,0.153231939 C6.85212766,0.0593155894 7.0037234,0.044486692 7.55957447,0.0395437262 C8.14574468,0.0395437262 8.25691489,0.0543726236 8.58537234,0.173003802 C9.15638298,0.375665399 9.48484043,0.588212928 10.0305851,1.11711027 C10.6672872,1.73498099 10.818883,1.81901141 11.3494681,1.81901141 C11.8800532,1.81901141 12.0569149,1.72509506 12.6835106,1.1121673 C13.2090426,0.593155894 13.5375,0.375665399 14.1135638,0.173003802 C14.4420213,0.0543726236 14.5531915,0.0395437262 15.1393617,0.0395437262 C15.7255319,0.0395437262 15.8367021,0.0543726236 16.1651596,0.173003802 C16.731117,0.375665399 17.0595745,0.588212928 17.5952128,1.1121673 C18.1207447,1.62623574 18.2824468,1.73003802 18.6765957,1.81901141 L18.9292553,1.87338403 L18.9444149,2.7730038 C18.9545213,3.52927757 18.9444149,3.67756654 18.8837766,3.70228137 C18.7625,3.74676806 18.0954787,3.62813688 17.7821809,3.50456274 C17.2718085,3.30190114 16.9281915,3.06958175 16.4481383,2.59505703 C15.887234,2.0513308 15.5992021,1.89315589 15.1343085,1.89315589 C14.699734,1.89315589 14.2954787,2.09581749 13.9468085,2.49125475 C12.7542553,3.83574144 10.9148936,4.09771863 9.46968085,3.11901141 C9.33324468,3.03003802 9.04521277,2.77794677 8.82287234,2.55551331 C8.33271277,2.06121673 8.08510638,1.92775665 7.62526596,1.90304183 C7.125,1.87338403 6.85212766,2.01178707 6.2356383,2.61977186 C5.71010638,3.1338403 5.24015957,3.42547529 4.65398936,3.59353612 C4.24468085,3.7121673 3.53723404,3.73688213 3.11781915,3.64296578 Z" id="Path"></path>
                        </g>
                    </g>
                </g>
            </g>
        </g>
    </g>
</svg>