<?xml version="1.0" encoding="UTF-8"?>
<svg width="29px" height="29px" viewBox="0 0 29 29" version="1.1" xmlns="http://www.w3.org/2000/svg" xmlns:xlink="http://www.w3.org/1999/xlink">
    <!-- Generator: Sketch 52.6 (67491) - http://www.bohemiancoding.com/sketch -->
    <title>Group 14</title>
    <desc>Created with Sketch.</desc>
    <g id="Page-1" stroke="none" stroke-width="1" fill="none" fill-rule="evenodd">
        <g id="icons" transform="translate(-59.000000, -1087.000000)">
            <g id="Group-14" transform="translate(59.000000, 1087.000000)">
                <g id="Group-11-Copy-26" fill="#FFFFFF">
                    <circle id="Oval-Copy-11" cx="14.5" cy="14.5" r="14.5"></circle>
                </g>
                <path d="M7.97021484,10.8969727 C9.74121094,10.8969727 10.8266602,12.2490234 10.8266602,14.5024414 C10.8266602,16.7495117 9.75390625,18.1079102 8.00195312,18.1079102 C6.99902344,18.1079102 6.23095703,17.6699219 5.88818359,16.9335938 L5.77392578,16.9335938 L5.77392578,20.3168945 L3.92675781,20.3168945 L3.92675781,11.0112305 L5.71679688,11.0112305 L5.71679688,12.1601562 L5.83105469,12.1601562 C6.21191406,11.3730469 7.00537109,10.8969727 7.97021484,10.8969727 Z M7.34179688,16.6162109 C8.33837891,16.6162109 8.92871094,15.8227539 8.92871094,14.5024414 C8.92871094,13.1884766 8.33203125,12.3950195 7.34814453,12.3950195 C6.36425781,12.3950195 5.75488281,13.2011719 5.75488281,14.5087891 C5.75488281,15.8164062 6.36425781,16.6162109 7.34179688,16.6162109 Z M12.3945312,18 L12.3945312,8.33886719 L14.2099609,8.33886719 L14.2099609,12.1538086 L14.3242188,12.1538086 C14.6479492,11.3603516 15.409668,10.8779297 16.4379883,10.8779297 C17.9423828,10.8779297 18.8374023,11.8237305 18.8374023,13.4995117 L18.8374023,18 L16.9902344,18 L16.9902344,13.918457 C16.9902344,12.9282227 16.5395508,12.4204102 15.7016602,12.4204102 C14.7749023,12.4204102 14.2416992,13.0488281 14.2416992,13.9755859 L14.2416992,18 L12.3945312,18 Z M26.765625,11.0112305 L24.347168,18 L22.2651367,18 L19.8339844,11.0112305 L21.8208008,11.0112305 L23.2680664,16.2670898 L23.3823242,16.2670898 L24.8168945,11.0112305 L26.765625,11.0112305 Z" id="phv" fill="#000000"></path>
            </g>
        </g>
    </g>
</svg>