<?xml version="1.0" encoding="UTF-8"?>
<svg width="29px" height="29px" viewBox="0 0 29 29" version="1.1" xmlns="http://www.w3.org/2000/svg" xmlns:xlink="http://www.w3.org/1999/xlink">
    <!-- Generator: Sketch 52.6 (67491) - http://www.bohemiancoding.com/sketch -->
    <title>Group 15</title>
    <desc>Created with Sketch.</desc>
    <g id="Page-1" stroke="none" stroke-width="1" fill="none" fill-rule="evenodd">
        <g id="icons" transform="translate(-59.000000, -1143.000000)">
            <g id="Group-15" transform="translate(59.000000, 1143.000000)">
                <g id="Group-11-Copy-27" fill="#FFFFFF">
                    <circle id="Oval-Copy-11" cx="14.5" cy="14.5" r="14.5"></circle>
                </g>
                <g id="water-temperature" transform="translate(4.000000, 6.000000)" fill="#000000" fill-rule="nonzero">
                    <path d="M10.78125,5.515625 L10.78125,10.9595703 C11.2481641,11.2297656 11.5625,11.7342578 11.5625,12.3125 C11.5625,13.1754297 10.8629297,13.875 10,13.875 C9.13707031,13.875 8.4375,13.1754297 8.4375,12.3125 C8.4375,11.7342578 8.75183594,11.2297656 9.21875,10.9595703 L9.21875,5.515625 C9.21875,5.08414063 9.56851563,4.734375 10,4.734375 C10.4314844,4.734375 10.78125,5.08414063 10.78125,5.515625 Z M17.5,4.9296875 C16.9588672,4.9296875 16.4564453,5.1596875 16.1215625,5.560625 C15.71,6.05335937 15.3012109,6.3359375 15,6.3359375 C14.7003906,6.3359375 14.2943359,6.05632812 13.8849609,5.5684375 L13.515625,5.10097656 L13.515625,3.515625 C13.515625,1.57710937 11.9385156,-1.17961196e-16 10,-1.17961196e-16 C8.06148438,-1.17961196e-16 6.484375,1.57710937 6.484375,3.515625 L6.484375,5.11707031 C6.36503906,5.26371094 6.18195313,5.48835937 6.1215625,5.56066406 C5.71,6.05335937 5.30121094,6.3359375 5,6.3359375 C4.69878906,6.3359375 4.29,6.05335937 3.87847656,5.56066406 C3.54355469,5.1596875 3.04113281,4.9296875 2.5,4.9296875 C1.95886719,4.9296875 1.45644531,5.1596875 1.1215625,5.560625 C0.71,6.05335937 0.301210938,6.3359375 0,6.3359375 L0,7.8984375 C0.799375,7.8984375 1.58015625,7.44890625 2.32078125,6.56226562 C2.35746094,6.51839844 2.42441406,6.4921875 2.5,6.4921875 C2.57558594,6.4921875 2.64253906,6.51839844 2.67925781,6.56230469 C3.41984375,7.44890625 4.200625,7.8984375 5,7.8984375 C5.50398438,7.8984375 6.00058594,7.71957031 6.484375,7.3653125 L6.484375,9.21195312 C5.72625,10.0685547 5.3125,11.1571094 5.3125,12.3125 C5.3125,14.8971875 7.4153125,17 10,17 C12.5846875,17 14.6875,14.8971875 14.6875,12.3125 C14.6875,11.3307031 14.3869141,10.3903906 13.8181641,9.59316406 C13.5676563,9.24195312 13.0798047,9.16035156 12.7284766,9.41089844 C12.3772266,9.66144531 12.295625,10.1493359 12.5462109,10.5005859 C12.9248438,11.0314062 13.125,11.6579297 13.125,12.3125 C13.125,14.035625 11.723125,15.4375 10,15.4375 C8.276875,15.4375 6.875,14.035625 6.875,12.3125 C6.875,11.4663672 7.20796875,10.6739062 7.81257813,10.0811328 C7.96242188,9.93417969 8.046875,9.73316406 8.046875,9.52328125 L8.046875,3.515625 C8.046875,2.43867187 8.92304688,1.5625 10,1.5625 C11.0769531,1.5625 11.953125,2.43867187 11.953125,3.515625 L11.953125,5.37238281 C11.953125,5.55535156 12.0164844,5.72324219 12.1218359,5.85636719 L12.6658594,6.54582031 C12.6702344,6.55140625 12.6747266,6.556875 12.6792578,6.56230469 C13.4198438,7.44890625 14.200625,7.8984375 15,7.8984375 C15.799375,7.8984375 16.5801563,7.44890625 17.3207813,6.56226562 C17.3574219,6.51839844 17.4244141,6.4921875 17.5,6.4921875 C17.5755859,6.4921875 17.6425391,6.51839844 17.6792578,6.56230469 C18.4198438,7.44890625 19.200625,7.8984375 20,7.8984375 L20,6.3359375 C19.6987891,6.3359375 19.29,6.05335937 18.8784766,5.56066406 C18.5435547,5.1596875 18.0411328,4.9296875 17.5,4.9296875 Z" id="Shape"></path>
                </g>
            </g>
        </g>
    </g>
</svg>