<?xml version="1.0" encoding="UTF-8"?>
<svg width="29px" height="29px" viewBox="0 0 29 29" version="1.1" xmlns="http://www.w3.org/2000/svg" xmlns:xlink="http://www.w3.org/1999/xlink">
    <!-- Generator: Sketch 52.6 (67491) - http://www.bohemiancoding.com/sketch -->
    <title>Group 16</title>
    <desc>Created with Sketch.</desc>
    <g id="Page-1" stroke="none" stroke-width="1" fill="none" fill-rule="evenodd">
        <g id="icons" transform="translate(-59.000000, -1199.000000)">
            <g id="Group-16" transform="translate(59.000000, 1199.000000)">
                <g id="Group-11-Copy-24" fill="#FFFFFF">
                    <circle id="Oval-Copy-11" cx="14.5" cy="14.5" r="14.5"></circle>
                </g>
                <g id="meters-(1)" transform="translate(4.000000, 4.000000)" fill="#000000">
                    <path d="M14.7133152,16.8913043 L12.5258152,16.8913043 C12.1635652,16.8913043 11.8695652,16.5845217 11.8695652,16.2065217 C11.8695652,15.8285217 12.1635652,15.5217391 12.5258152,15.5217391 L14.7133152,15.5217391 C15.0755652,15.5217391 15.3695652,15.8285217 15.3695652,16.2065217 C15.3695652,16.5845217 15.0755652,16.8913043 14.7133152,16.8913043 Z" id="Path"></path>
                    <path d="M15.2649457,19.173913 C14.9026957,19.173913 14.6086957,18.8671304 14.6086957,18.4891304 L14.6086957,14.3804348 C14.6086957,14.0024348 14.9026957,13.6956522 15.2649457,13.6956522 C15.6271957,13.6956522 15.9211957,14.0024348 15.9211957,14.3804348 L15.9211957,18.4891304 C15.9211957,18.8671304 15.6271957,19.173913 15.2649457,19.173913 Z" id="Path"></path>
                    <path d="M12.03125,19.173913 C11.669,19.173913 11.375,18.8671304 11.375,18.4891304 L11.375,14.3804348 C11.375,14.0024348 11.669,13.6956522 12.03125,13.6956522 C12.3935,13.6956522 12.6875,14.0024348 12.6875,14.3804348 L12.6875,18.4891304 C12.6875,18.8671304 12.3935,19.173913 12.03125,19.173913 Z" id="Path"></path>
                    <path d="M20.34375,11.4130435 L11.783625,11.4130435 C11.421375,11.4130435 11.127375,11.1062609 11.127375,10.7282609 C11.127375,10.3502609 11.421375,10.0434783 11.783625,10.0434783 L19.663,10.0434783 C19.31825,5.2016087 15.339625,1.36956522 10.5,1.36956522 C5.660375,1.36956522 1.68175,5.2016087 1.337,10.0434783 L9.216375,10.0434783 C9.578625,10.0434783 9.872625,10.3502609 9.872625,10.7282609 C9.872625,11.1062609 9.578625,11.4130435 9.216375,11.4130435 L0.65625,11.4130435 C0.294,11.4130435 0,11.1062609 0,10.7282609 C0,4.81265217 4.710125,0 10.5,0 C16.289875,0 21,4.81265217 21,10.7282609 C21,11.1062609 20.706,11.4130435 20.34375,11.4130435 Z" id="Path"></path>
                    <path d="M10.5,12.7826087 C9.534875,12.7826087 8.75,11.9636087 8.75,10.9565217 C8.75,9.94943478 9.534875,9.13043478 10.5,9.13043478 C11.465125,9.13043478 12.25,9.94943478 12.25,10.9565217 C12.25,11.9636087 11.465125,12.7826087 10.5,12.7826087 Z M10.5,10.5 C10.2585,10.5 10.0625,10.7045217 10.0625,10.9565217 C10.0625,11.2085217 10.2585,11.4130435 10.5,11.4130435 C10.7415,11.4130435 10.9375,11.2085217 10.9375,10.9565217 C10.9375,10.7045217 10.7415,10.5 10.5,10.5 Z" id="Shape" fill-rule="nonzero"></path>
                    <path d="M5.04,11.4130435 C5.03125,11.4130435 5.0225,11.4130435 5.01375,11.4130435 C4.6515,11.3984348 4.36975,11.0797826 4.38375,10.7017826 C4.512375,7.26052174 7.1995,4.56521739 10.5,4.56521739 C11.47825,4.56521739 12.45475,4.81630435 13.3245,5.29108696 C13.645625,5.4663913 13.769875,5.88091304 13.601875,6.21508696 C13.433875,6.55108696 13.036625,6.68073913 12.716375,6.50452174 C12.033,6.132 11.2665,5.93478261 10.5,5.93478261 C7.907375,5.93478261 5.796875,8.05213043 5.695375,10.7547391 C5.68225,11.1236087 5.390875,11.4130435 5.04,11.4130435 Z" id="Path"></path>
                    <path d="M15.96,11.4130435 C15.609125,11.4130435 15.31775,11.1226957 15.304625,10.752913 C15.274875,9.90469565 15.038625,9.0783913 14.62125,8.36347826 C14.433125,8.04026087 14.531125,7.61934783 14.84,7.42213043 C15.14975,7.22582609 15.553125,7.32717391 15.742125,7.6503913 C16.275875,8.56526087 16.578625,9.62073913 16.61625,10.7026957 C16.629375,11.0806957 16.34675,11.3984348 15.9845,11.4121304 C15.97575,11.4130435 15.967875,11.4130435 15.96,11.4130435 Z" id="Path"></path>
                    <path d="M11.102875,10.436087 C11.0005,10.436087 10.89725,10.4114348 10.801,10.3593913 C10.479,10.185 10.353875,9.7713913 10.521,9.43630435 L12.761,4.935 C12.928125,4.59991304 13.32625,4.46843478 13.645625,4.64282609 C13.967625,4.81721739 14.09275,5.23082609 13.925625,5.56591304 L11.685625,10.0672174 C11.56925,10.3018696 11.34,10.436087 11.102875,10.436087 Z" id="Path"></path>
                    <path d="M10.5,2.73913043 C10.13775,2.73913043 9.84375,2.43234783 9.84375,2.05434783 L9.84375,0.913043478 C9.84375,0.535043478 10.13775,0.22826087 10.5,0.22826087 C10.86225,0.22826087 11.15625,0.535043478 11.15625,0.913043478 L11.15625,2.05434783 C11.15625,2.43234783 10.86225,2.73913043 10.5,2.73913043 Z" id="Path"></path>
                    <path d="M16.59875,5.2773913 C16.43075,5.2773913 16.26275,5.21073913 16.135,5.07652174 C15.878625,4.809 15.878625,4.37530435 16.135,4.10778261 L17.0275,3.17647826 C17.283875,2.90895652 17.6995,2.90895652 17.955875,3.17647826 C18.21225,3.444 18.21225,3.87769565 17.955875,4.14521739 L17.0625,5.07652174 C16.93475,5.21073913 16.76675,5.2773913 16.59875,5.2773913 Z" id="Path"></path>
                    <path d="M4.40125,5.2773913 C4.23325,5.2773913 4.06525,5.21073913 3.9375,5.07652174 L3.045,4.14521739 C2.788625,3.87769565 2.788625,3.444 3.045,3.17647826 C3.301375,2.90895652 3.717,2.90895652 3.973375,3.17647826 L4.865,4.10869565 C5.121375,4.37621739 5.121375,4.80991304 4.865,5.07743478 C4.73725,5.21073913 4.56925,5.2773913 4.40125,5.2773913 Z" id="Path"></path>
                    <path d="M6.74320652,21 C6.38095652,21 6.08695652,20.6932174 6.08695652,20.3152174 L6.08695652,16.2065217 C6.08695652,15.8285217 6.38095652,15.5217391 6.74320652,15.5217391 L8.75,15.5217391 C9.715125,15.5217391 10.5,16.3407391 10.5,17.3478261 C10.5,18.354913 9.715125,19.173913 8.75,19.173913 L7.39945652,19.173913 L7.39945652,20.3152174 C7.39945652,20.6932174 7.10545652,21 6.74320652,21 Z M7.39945652,17.8043478 L8.75,17.8043478 C8.9915,17.8043478 9.1875,17.5998261 9.1875,17.3478261 C9.1875,17.0958261 8.9915,16.8913043 8.75,16.8913043 L7.39945652,16.8913043 L7.39945652,17.8043478 Z" id="Shape" fill-rule="nonzero"></path>
                </g>
            </g>
        </g>
    </g>
</svg>