<?xml version="1.0" encoding="UTF-8"?>
<svg width="29px" height="29px" viewBox="0 0 29 29" version="1.1" xmlns="http://www.w3.org/2000/svg" xmlns:xlink="http://www.w3.org/1999/xlink">
    <!-- Generator: Sketch 52.6 (67491) - http://www.bohemiancoding.com/sketch -->
    <title>Group 27</title>
    <desc>Created with Sketch.</desc>
    <g id="Page-1" stroke="none" stroke-width="1" fill="none" fill-rule="evenodd">
        <g id="icons" transform="translate(-59.000000, -1311.000000)">
            <g id="Group-27" transform="translate(59.000000, 1311.000000)">
                <g id="Group-12-Copy-15">
                    <g id="Group-26">
                        <circle id="Oval-Copy-28" fill="#FFFFFF" cx="14.5" cy="14.5" r="14.5"></circle>
                        <g id="Group-25" transform="translate(4.000000, 5.000000)" fill="#000000">
                            <g id="Group-5-Copy-2" fill-rule="nonzero">
                                <path d="M10.3692276,6.34212616 C9.76519185,6.37333895 9.20697615,6.4937551 8.70225566,6.69403005 C8.48578649,6.28511376 8.2357687,5.83646996 7.9494453,5.33815403 C7.94644932,5.33293984 7.62661737,4.77730021 7.53395619,4.61549489 C7.37341683,4.33516046 7.24064856,4.10052697 7.11452498,3.87338098 C6.72544437,3.17265476 6.41438536,2.56789044 6.14765042,1.97848916 C5.87294624,2.59414507 5.55627717,3.23156814 5.14767986,4.00610534 C5.03286939,4.22374012 4.91402243,4.44631544 4.76004229,4.73271426 C4.73295314,4.78309933 4.45713906,5.29525807 4.37724421,5.44415461 C2.98211625,8.04419356 2.47168845,9.34320929 2.53106874,10.4975997 C2.63103193,12.4409474 4.04242421,13.7538359 5.98290403,13.8285792 C6.17390804,14.4371143 6.45358527,14.9782212 6.81218429,15.4395192 C6.59468537,15.4604657 6.37176402,15.4714142 6.14389112,15.472164 C3.26613947,15.4629258 1.04163426,13.4717072 0.892984441,10.5818605 C0.812116674,9.00973991 1.38534222,7.55090673 2.93191763,4.66862179 C3.01251818,4.51841009 3.28879467,4.00539268 3.31535586,3.95598961 C3.46747167,3.6730584 3.58445547,3.45397239 3.69692382,3.24077735 C4.11624212,2.44591741 4.43152151,1.80802123 4.70064356,1.19515188 C5.20623183,0.0437800351 7.05678462,-0.0259271792 7.57086707,1.14281125 C7.8316374,1.73565839 8.14338341,2.3474479 8.54854537,3.07713629 C8.67070442,3.29714224 8.80009677,3.52580969 8.95732968,3.80037039 C9.04892131,3.96030804 9.3678501,4.51437862 9.37164515,4.5209835 C9.76211102,5.20054851 10.0930273,5.7999414 10.3692276,6.34212616 Z" id="Combined-Shape"></path>
                            </g>
                            <path d="M10.6875,7.33398438 C13.1484375,7.33398438 14.6835938,9.0390625 14.6835938,11.7695312 C14.6835938,14.4941406 13.1542969,16.2109375 10.6875,16.2109375 C8.20898438,16.2109375 6.68554688,14.4941406 6.68554688,11.7695312 C6.68554688,9.0390625 8.23242188,7.33398438 10.6875,7.33398438 Z M10.6875,8.640625 C9.1875,8.640625 8.23242188,9.85351562 8.23242188,11.7695312 C8.23242188,13.6738281 9.1640625,14.9042969 10.6875,14.9042969 C12.1933594,14.9042969 13.1425781,13.6738281 13.1425781,11.7695312 C13.1425781,9.85351562 12.1875,8.640625 10.6875,8.640625 Z M15.7265625,13.8847656 C15.7265625,12.859375 16.5585938,12.15625 17.7539062,12.15625 C18.9199219,12.15625 19.6523438,12.7949219 19.6523438,13.6679688 C19.6523438,14.2714844 19.3769531,14.6757812 18.4804688,15.4375 L17.3613281,16.3867188 L17.3613281,16.4511719 L19.7226562,16.4511719 L19.7226562,17.40625 L15.796875,17.40625 L15.796875,16.5917969 L17.7011719,14.9101562 C18.375,14.3183594 18.5097656,14.0957031 18.5097656,13.7734375 C18.5097656,13.3984375 18.2109375,13.0878906 17.6894531,13.0878906 C17.1445312,13.0878906 16.8046875,13.421875 16.8046875,13.8847656 L15.7265625,13.8847656 Z" id="O₂"></path>
                        </g>
                    </g>
                </g>
                <path d="M17.2851562,10.4472656 C16.0664062,10.4472656 15.3398438,9.69140625 15.3398438,8.4140625 C15.3398438,7.16015625 16.0839844,6.38671875 17.2851562,6.38671875 C18.4921875,6.38671875 19.2304688,7.15429688 19.2304688,8.4140625 C19.2304688,9.69140625 18.5097656,10.4472656 17.2851562,10.4472656 Z M17.9824219,15 L16.7695312,15 L22.4707031,6.54492188 L23.6777344,6.54492188 L17.9824219,15 Z M17.2851562,9.515625 C17.7773438,9.515625 18.0527344,9.11132812 18.0527344,8.41992188 C18.0527344,7.734375 17.765625,7.31835938 17.2851562,7.31835938 C16.8046875,7.31835938 16.5175781,7.734375 16.5175781,8.41992188 C16.5175781,9.1171875 16.8046875,9.515625 17.2851562,9.515625 Z M23.1621094,15.09375 C21.9433594,15.09375 21.2167969,14.3320312 21.2167969,13.0546875 C21.2167969,11.8007812 21.9609375,11.0332031 23.1621094,11.0332031 C24.3691406,11.0332031 25.1074219,11.8007812 25.1074219,13.0546875 C25.1074219,14.3378906 24.3867188,15.09375 23.1621094,15.09375 Z M23.1621094,14.1621094 C23.6484375,14.1621094 23.9296875,13.7578125 23.9296875,13.0605469 C23.9296875,12.375 23.6484375,11.9648438 23.1621094,11.9648438 C22.6816406,11.9648438 22.4003906,12.375 22.4003906,13.0605469 C22.4003906,13.7636719 22.6757812,14.1621094 23.1621094,14.1621094 Z" id="%" fill="#000000"></path>
            </g>
        </g>
    </g>
</svg>