<?xml version="1.0" encoding="UTF-8"?>
<svg width="29px" height="29px" viewBox="0 0 29 29" version="1.1" xmlns="http://www.w3.org/2000/svg" xmlns:xlink="http://www.w3.org/1999/xlink">
    <!-- Generator: Sketch 52.6 (67491) - http://www.bohemiancoding.com/sketch -->
    <title>Group 28</title>
    <desc>Created with Sketch.</desc>
    <g id="Page-1" stroke="none" stroke-width="1" fill="none" fill-rule="evenodd">
        <g id="icons" transform="translate(-59.000000, -1367.000000)">
            <g id="Group-28" transform="translate(59.000000, 1367.000000)">
                <g id="Group-11-Copy-31" fill="#FFFFFF">
                    <circle id="Oval-Copy-11" cx="14.5" cy="14.5" r="14.5"></circle>
                </g>
                <path d="M14.38157,26.5446667 C14.38157,24.45425 14.3841262,24.0784583 14.4007412,24.022875 C14.44803,23.8525 14.563057,23.718375 14.726651,23.6434583 C14.8046138,23.6072083 14.8646834,23.5927083 15.0448924,23.5612917 C16.2769594,23.355875 17.4080582,22.9909583 18.0752148,22.5861667 C18.3116592,22.442375 18.5455475,22.2405833 18.6452375,22.094375 C18.7986069,21.8672083 18.7973288,21.6485 18.6426814,21.391125 C18.439467,21.0515833 17.9729686,20.6625 17.3467105,20.30725 C17.1141003,20.1755417 16.7396235,19.9858333 16.7115058,19.9858333 C16.7025593,19.9858333 16.6386554,20.0075833 16.5696392,20.035375 C15.7031024,20.3785417 14.6895868,20.6576667 13.7962104,20.8014583 C13.247915,20.8884583 12.804422,20.9222917 12.3136401,20.912625 C11.9557783,20.9065833 11.785794,20.8896667 11.505895,20.8365 C10.5332778,20.648 9.96581121,20.0595417 10.0015974,19.2729167 C10.0220466,18.821 10.2239829,18.4572917 10.6010159,18.1914583 C10.8873053,17.9896667 11.2553917,17.85675 11.7065532,17.7927083 C12.1385435,17.7322917 12.7034539,17.7322917 13.2824231,17.7939167 C14.2857142,17.90025 15.4717704,18.201125 16.5530242,18.6228333 L16.7127839,18.6844583 L16.8661532,18.61075 C17.3032558,18.4005 17.7480269,18.1310417 18.0598779,17.88575 C18.2490334,17.7383333 18.4803655,17.5063333 18.5800556,17.3649583 C18.6810237,17.2211667 18.7334249,17.1087917 18.7551522,16.9915833 C18.8280027,16.5904167 18.2860977,16.0067917 17.3479886,15.4739167 C17.1281592,15.3494583 16.7383455,15.1525 16.7115058,15.1525 C16.7025593,15.1525 16.6386554,15.17425 16.5696392,15.2020417 C15.7031024,15.5452083 14.6895868,15.8243333 13.7962104,15.968125 C13.247915,16.055125 12.804422,16.0889583 12.3136401,16.0792917 C11.9557783,16.07325 11.785794,16.0563333 11.505895,16.0031667 C10.5332778,15.8146667 9.96581121,15.2262083 10.0015974,14.4395833 C10.0220466,13.9876667 10.2239829,13.6239583 10.6010159,13.358125 C10.8873053,13.1563333 11.2553917,13.0234167 11.7065532,12.959375 C12.1385435,12.8989583 12.7034539,12.8989583 13.2824231,12.9605833 C14.2857142,13.0669167 15.4717704,13.3677917 16.5530242,13.7895 L16.7127839,13.851125 L16.8661532,13.7774167 C17.3032558,13.5671667 17.7480269,13.2977083 18.0598779,13.0524167 C18.2490334,12.905 18.4803655,12.673 18.5800556,12.531625 C18.6810237,12.3878333 18.7334249,12.2754583 18.7551522,12.15825 C18.8280027,11.7570833 18.2860977,11.1734583 17.3479886,10.6405833 C17.1281592,10.516125 16.7383455,10.3191667 16.7115058,10.3191667 C16.7025593,10.3191667 16.6386554,10.3409167 16.5696392,10.3687083 C15.7031024,10.711875 14.6895868,10.991 13.7962104,11.1347917 C13.247915,11.2217917 12.804422,11.255625 12.3136401,11.2459583 C11.9557783,11.2399167 11.785794,11.223 11.505895,11.1698333 C10.5332778,10.9813333 9.96581121,10.392875 10.0015974,9.60625 C10.0220466,9.15433333 10.2239829,8.790625 10.6010159,8.52479167 C10.8873053,8.323 11.2553917,8.19008333 11.7065532,8.12604167 C12.1385435,8.065625 12.7034539,8.065625 13.2824231,8.12725 C14.2857142,8.23358333 15.4717704,8.53445833 16.5530242,8.95616667 L16.7127839,9.01779167 L16.8661532,8.94408333 C17.3032558,8.73383333 17.7480269,8.464375 18.0598779,8.21908333 C18.341055,7.99916667 18.604339,7.70554167 18.6950826,7.511 C18.7986069,7.28866667 18.7794357,7.09654167 18.6337348,6.88991667 C18.2209157,6.3075 16.8239767,5.73958333 15.0589512,5.4375 C14.9362558,5.41575 14.8046138,5.38795833 14.7688276,5.37466667 C14.6192925,5.32270833 14.4735916,5.1765 14.4122439,5.020625 C14.3892385,4.962625 14.3879604,4.86354167 14.3841262,2.48070833 L14.38157,3.16191517e-13 L15.0014377,3.16191517e-13 L15.6213055,3.16191517e-13 L15.6238616,2.171375 L15.6276959,4.34395833 L15.7107709,4.35966667 C15.908873,4.39833333 16.5300188,4.54816667 16.7651851,4.614625 C17.9614659,4.95295833 18.8139438,5.37104167 19.3545707,5.883375 C19.7009298,6.21325 19.8951976,6.54795833 19.9808288,6.96604167 C20.0063904,7.0905 20.0038342,7.42158333 19.9744384,7.558125 C19.8389622,8.20458333 19.3379557,8.81841667 18.4765313,9.39479167 C18.3768412,9.46125 18.2400869,9.54945833 18.1723487,9.58933333 L18.0483752,9.66425 L18.2694827,9.80320833 C18.669521,10.0545417 18.9110777,10.2382083 19.1820302,10.4931667 C19.6191328,10.907625 19.868358,11.3051667 19.9693261,11.7498333 C20.0063904,11.9129583 20.0089465,12.2295417 19.9744384,12.3914583 C19.8555772,12.95575 19.4644854,13.488625 18.7871042,14.007 C18.636291,14.123 18.3512796,14.3163333 18.1723487,14.4226667 L18.0483752,14.4975833 L18.2694827,14.6365417 C18.669521,14.887875 18.9110777,15.0715417 19.1820302,15.3265 C19.6191328,15.7409583 19.868358,16.1385 19.9693261,16.5831667 C20.0063904,16.7462917 20.0089465,17.062875 19.9744384,17.2247917 C19.8555772,17.7890833 19.4644854,18.3219583 18.7871042,18.8403333 C18.636291,18.9563333 18.3512796,19.1496667 18.1723487,19.256 L18.0483752,19.3309167 L18.2694827,19.469875 C18.669521,19.7212083 18.9110777,19.904875 19.1820302,20.1598333 C19.6191328,20.5742917 19.868358,20.9718333 19.9693261,21.4165 C20.0102246,21.5953333 20.0102246,21.9107083 19.9693261,22.0859167 C19.8159568,22.7384167 19.3532926,23.2531667 18.504649,23.7135417 C17.8489951,24.0687917 16.8418698,24.4047083 15.7848994,24.621 L15.6213055,24.6548333 L15.6213055,26.8274167 L15.6213055,28 L15.0014377,28 L14.38157,28 L14.38157,26.5446667 Z M13.0459787,19.7139583 C13.4409047,19.6740833 13.8997347,19.59675 14.3112757,19.5025 C14.5272709,19.45175 14.9285873,19.3478333 14.9490365,19.33575 C14.9720419,19.3224583 14.3841262,19.172625 14.019874,19.0989167 C13.6517876,19.024 13.1904015,18.95875 12.8453205,18.933375 C12.5500845,18.9128333 12.0682492,18.9249167 11.8637567,18.95875 C11.5749112,19.0070833 11.3959803,19.07475 11.3026806,19.1702083 C11.2093809,19.2656667 11.2183275,19.4167083 11.3205737,19.50975 C11.4368788,19.6160833 11.7091093,19.6970417 12.0618588,19.730875 C12.229287,19.7477917 12.8223151,19.7369167 13.0459787,19.7139583 Z M13.0459787,14.880625 C13.4409047,14.84075 13.8997347,14.7634167 14.3112757,14.6691667 C14.5272709,14.6184167 14.9285873,14.5145 14.9490365,14.5024167 C14.9720419,14.489125 14.3841262,14.3392917 14.019874,14.2655833 C13.6517876,14.1906667 13.1904015,14.1254167 12.8453205,14.1000417 C12.5500845,14.0795 12.0682492,14.0915833 11.8637567,14.1254167 C11.5749112,14.17375 11.3959803,14.2414167 11.3026806,14.336875 C11.2093809,14.4323333 11.2183275,14.583375 11.3205737,14.6764167 C11.4368788,14.78275 11.7091093,14.8637083 12.0618588,14.8975417 C12.229287,14.9144583 12.8223151,14.9035833 13.0459787,14.880625 Z M13.0459787,10.0472917 C13.4409047,10.0074167 13.8997347,9.93008333 14.3112757,9.83583333 C14.5272709,9.78508333 14.9285873,9.68116667 14.9490365,9.66908333 C14.9720419,9.65579167 14.3841262,9.50595833 14.019874,9.43225 C13.6517876,9.35733333 13.1904015,9.29208333 12.8453205,9.26670833 C12.5500845,9.24616667 12.0682492,9.25825 11.8637567,9.29208333 C11.5749112,9.34041667 11.3959803,9.40808333 11.3026806,9.50354167 C11.2093809,9.599 11.2183275,9.75004167 11.3205737,9.84308333 C11.4368788,9.94941667 11.7091093,10.030375 12.0618588,10.0642083 C12.229287,10.081125 12.8223151,10.07025 13.0459787,10.0472917 Z" id="Shape" fill="#000000" fill-rule="nonzero" transform="translate(15.000000, 14.000000) rotate(-270.000000) translate(-15.000000, -14.000000) "></path>
            </g>
        </g>
    </g>
</svg>