<?xml version="1.0" encoding="UTF-8"?>
<svg width="29px" height="29px" viewBox="0 0 29 29" version="1.1" xmlns="http://www.w3.org/2000/svg" xmlns:xlink="http://www.w3.org/1999/xlink">
    <!-- Generator: Sketch 52.6 (67491) - http://www.bohemiancoding.com/sketch -->
    <title>Group 17</title>
    <desc>Created with Sketch.</desc>
    <g id="Page-1" stroke="none" stroke-width="1" fill="none" fill-rule="evenodd">
        <g id="icons" transform="translate(-59.000000, -1479.000000)">
            <g id="Group-17" transform="translate(59.000000, 1479.000000)">
                <g id="Group-11-Copy-33" fill="#FFFFFF">
                    <circle id="Oval-Copy-11" cx="14.5" cy="14.5" r="14.5"></circle>
                </g>
                <path d="M7.03076172,18.1459961 C4.87890625,18.1459961 3.58398438,16.78125 3.58398438,14.5024414 C3.58398438,12.2426758 4.89794922,10.8588867 7.03076172,10.8588867 C9.16357422,10.8588867 10.4775391,12.2363281 10.4775391,14.5024414 C10.4775391,16.7875977 9.18261719,18.1459961 7.03076172,18.1459961 Z M7.03076172,16.6860352 C8.01464844,16.6860352 8.57958984,15.8862305 8.57958984,14.5024414 C8.57958984,13.1313477 8.00830078,12.3251953 7.03076172,12.3251953 C6.046875,12.3251953 5.48193359,13.1313477 5.48193359,14.5024414 C5.48193359,15.8862305 6.04052734,16.6860352 7.03076172,16.6860352 Z M11.9819336,18 L11.9819336,11.0112305 L13.7719727,11.0112305 L13.7719727,12.1220703 L13.8862305,12.1220703 C14.0703125,11.4238281 14.7939453,10.8969727 15.6826172,10.8969727 C15.9365234,10.8969727 16.2475586,10.9287109 16.40625,10.9794922 L16.40625,12.6044922 C16.2602539,12.5537109 15.8286133,12.5029297 15.5302734,12.5029297 C14.5209961,12.5029297 13.8291016,13.105957 13.8291016,14.0898438 L13.8291016,18 L11.9819336,18 Z M21.7446289,10.8969727 C23.515625,10.8969727 24.6010742,12.2490234 24.6010742,14.5024414 C24.6010742,16.7495117 23.5283203,18.1079102 21.7763672,18.1079102 C20.7734375,18.1079102 20.0053711,17.6699219 19.6625977,16.9335938 L19.5483398,16.9335938 L19.5483398,20.3168945 L17.7011719,20.3168945 L17.7011719,11.0112305 L19.4912109,11.0112305 L19.4912109,12.1601562 L19.6054688,12.1601562 C19.9863281,11.3730469 20.7797852,10.8969727 21.7446289,10.8969727 Z M21.1162109,16.6162109 C22.112793,16.6162109 22.703125,15.8227539 22.703125,14.5024414 C22.703125,13.1884766 22.1064453,12.3950195 21.1225586,12.3950195 C20.1386719,12.3950195 19.5292969,13.2011719 19.5292969,14.5087891 C19.5292969,15.8164062 20.1386719,16.6162109 21.1162109,16.6162109 Z" id="orp" fill="#000000"></path>
            </g>
        </g>
    </g>
</svg>