<?xml version="1.0" encoding="UTF-8"?>
<svg width="29px" height="29px" viewBox="0 0 29 29" version="1.1" xmlns="http://www.w3.org/2000/svg" xmlns:xlink="http://www.w3.org/1999/xlink">
    <!-- Generator: Sketch 52.6 (67491) - http://www.bohemiancoding.com/sketch -->
    <title>Group 18</title>
    <desc>Created with Sketch.</desc>
    <g id="Page-1" stroke="none" stroke-width="1" fill="none" fill-rule="evenodd">
        <g id="icons" transform="translate(-59.000000, -1535.000000)">
            <g id="Group-18" transform="translate(59.000000, 1535.000000)">
                <g id="Group-11-Copy-34" fill="#FFFFFF">
                    <circle id="Oval-Copy-11" cx="14.5" cy="14.5" r="14.5"></circle>
                </g>
                <g id="Mens-icon" transform="translate(5.000000, 13.000000)" fill="#000000" stroke="#000000" stroke-width="0.924">
                    <g id="Group" transform="translate(9.500000, 6.000000) scale(-1, 1) rotate(-180.000000) translate(-9.500000, -6.000000) ">
                        <path d="M5.08317795,11.992224 C4.689389,11.9252596 4.25302826,11.7578483 3.89471579,11.5346334 C3.6747616,11.3969841 3.64638042,11.3895436 3.27387735,11.3672221 C2.37632235,11.3188589 1.79450804,11.0286794 1.55681561,10.515285 C1.42555262,10.2325461 1.37588555,9.91632486 1.37588555,9.29876346 L1.37588555,8.83001203 L1.21269373,8.68864255 C0.925334222,8.43566559 0.914691278,8.40218334 0.914691278,7.6841752 C0.914691278,7.11497704 0.921786574,7.0368518 0.989191891,6.88804182 C1.07433545,6.70946985 1.29783729,6.53089788 1.49650559,6.48625489 C1.62422092,6.45649289 1.65969741,6.41557015 1.65969741,6.28164117 C1.65969741,6.09934894 1.80869863,5.59339502 1.96124751,5.25485232 C2.14572521,4.84190464 2.27344055,4.64473142 2.55370476,4.33223046 C2.67077715,4.19830148 2.75946836,4.0792535 2.75237306,4.06437251 C2.74882541,4.04577126 2.62465773,3.85603854 2.4827518,3.63654382 L2.22732112,3.23475688 L1.91512808,3.23475688 C0.914691278,3.23475688 0.442854063,2.49814749 0.971453649,2.63951697 C1.18786019,2.69904096 1.3652426,2.71392196 1.80869863,2.71392196 C2.12089168,2.71392196 2.40470354,2.73252321 2.44018002,2.75112446 C2.47920415,2.77344595 2.65303891,3.01154192 2.83042132,3.28312012 C3.00780373,3.55097808 3.16390026,3.77419305 3.17809085,3.7704728 C3.19228144,3.7704728 3.29871089,3.72210956 3.41578328,3.66630582 C3.96921641,3.39472761 4.62907898,3.40960861 5.18605975,3.70722856 C5.28184625,3.7555918 5.37053746,3.7853538 5.38472805,3.76675255 C5.39891864,3.75187155 5.55501517,3.51749584 5.73239758,3.24963788 C5.94170882,2.93341668 6.08361475,2.75112446 6.13682948,2.73624346 C6.1829489,2.72508271 6.44902252,2.71392196 6.73283438,2.71392196 C7.60555584,2.71020171 8.07029776,2.54651074 8.50665849,2.08519981 C8.8898045,1.67969262 9.03525808,1.24814368 9.03880573,0.530135544 C9.03880573,0.195313095 9.04944867,0.135789104 9.10975869,0.0725448639 C9.20199755,-0.0241816213 9.33680818,-0.0241816213 9.42904704,0.0725448639 C9.4929047,0.139509354 9.5,0.195313095 9.5,0.62314178 C9.5,1.46391815 9.33326053,1.92150883 8.84368508,2.4386235 C8.34346668,2.96689892 7.8006765,3.18267339 6.84990677,3.22359613 L6.31066424,3.24591763 L6.03040003,3.67002607 L5.75013582,4.09785475 L5.94170882,4.30618872 C6.41709369,4.82702364 6.75057262,5.55619253 6.85700207,6.29652216 C6.87474031,6.42301065 6.89957385,6.47137389 6.94214562,6.47137389 C7.06631331,6.47137389 7.36431576,6.65366611 7.46364991,6.79131534 L7.56653171,6.92896457 L7.57717466,7.63209171 C7.59136525,8.43566559 7.57717466,8.48774908 7.27917221,8.71096405 L7.12307568,8.82629178 L7.12307568,9.19831672 C7.12307568,9.54429992 7.13017098,9.58150241 7.22950513,9.74891364 C7.85034357,10.8091847 7.01309859,11.9513013 5.5798487,11.9959443 C5.36698981,12.0033848 5.14348797,11.9996645 5.08317795,11.992224 Z M6.06942416,11.4304664 C6.80378734,11.2035312 7.13726628,10.6306128 6.84990677,10.0800158 C6.79669205,9.97584885 6.72219143,9.83447938 6.6902626,9.77123514 C6.63704788,9.67450865 6.62640493,9.55918092 6.62640493,9.18343572 C6.62640493,8.92673851 6.64414317,8.66632105 6.66542906,8.60679706 C6.68671495,8.53611232 6.77540616,8.45054659 6.91376444,8.3612606 L7.12307568,8.22361137 L7.12307568,7.66929421 C7.12307568,7.01825055 7.11598039,7.00708981 6.76831086,6.95500631 C6.46676076,6.91036332 6.42773663,6.86200008 6.3958078,6.51973713 C6.30711659,5.50410904 5.72884993,4.55172518 4.96255791,4.15365849 L4.66455546,3.99740802 L4.25302826,3.99740802 C3.85214401,3.99740802 3.83440577,4.00112826 3.5718798,4.13505724 C3.25613911,4.29874822 2.85880251,4.66705291 2.64949126,4.99071461 C2.35503646,5.4408648 2.12089168,6.11050969 2.12089168,6.48997514 C2.12089168,6.82107733 2.00736693,6.95500631 1.72355507,6.95500631 C1.59583974,6.95500631 1.42910027,7.0442923 1.39717144,7.12241754 C1.38652849,7.15589978 1.37588555,7.4051565 1.37588555,7.6767347 C1.37588555,8.16408738 1.37588555,8.16780763 1.4752197,8.26453411 C1.52843442,8.31661761 1.62067328,8.38730235 1.68453094,8.42078459 C1.74838861,8.45426684 1.81579393,8.51379083 1.83707982,8.55099332 C1.85836571,8.59563631 1.8725563,8.92301826 1.8725563,9.34340645 C1.8725563,10.0242121 1.87610395,10.0725753 1.95769986,10.2548676 C2.0641293,10.4892433 2.25924996,10.649214 2.56434771,10.7459405 C2.84461192,10.8389467 3.25613911,10.8984707 3.5860704,10.8984707 C3.82021518,10.8984707 3.85923931,10.9096315 4.03307407,11.0323997 C4.65746016,11.4751094 5.43794277,11.6276396 6.06942416,11.4304664 Z" id="Shape" fill-rule="nonzero"></path>
                        <path d="M9.83596878,11.9617236 C9.58860715,11.919932 9.5,11.8439472 9.5,11.6767808 C9.5,11.5817999 9.52584375,11.5324098 9.59229911,11.4868189 C9.67352233,11.4336296 9.72151787,11.4298304 9.96149557,11.4678228 C10.858643,11.6045953 11.4198216,11.3994365 11.6745671,10.8409486 C11.8074779,10.5522066 11.8591654,10.1532867 11.8628573,9.41623475 C11.8628573,8.65638734 11.8665493,8.64498963 12.1619065,8.59180031 L12.3243529,8.56140641 L12.3354288,7.91553611 C12.3465047,7.15188946 12.3428127,7.14809023 11.9625404,7.09490091 C11.6597993,7.0531093 11.6044198,6.98852227 11.6044198,6.65039017 C11.6044198,6.33885274 11.5453484,5.8221565 11.475201,5.54481219 C11.3312144,4.95593045 11.1170805,4.59880217 10.7331162,4.31385939 C10.5189822,4.15809067 10.4968304,4.12769677 10.4968304,4.00612119 C10.4968304,3.81995857 10.6371251,3.72497764 10.8069555,3.79336391 C10.8697189,3.81995857 10.9472501,3.85035247 10.9767858,3.85795094 C11.0137055,3.86934865 11.1392323,3.71357993 11.3644421,3.37544784 C11.5490403,3.10190277 11.7299466,2.85495236 11.7705582,2.82455846 C11.8259377,2.78276686 11.9846922,2.77136914 12.416652,2.77136914 C13.0885896,2.77136914 13.3802548,2.71817983 13.7568352,2.52821797 C14.0928039,2.36105154 14.3438575,2.13689656 14.5284557,1.8443553 C14.7388977,1.51002244 14.812737,1.21368195 14.8422727,0.617201737 C14.8607326,0.161293291 14.8718085,0.100505498 14.9419558,0.0511154161 C15.0490228,-0.024869325 15.1560897,-0.0172708509 15.2557728,0.0815093125 C15.340688,0.157494053 15.340688,0.176490239 15.3259201,0.7159819 C15.3111522,1.18708729 15.2926924,1.31626135 15.2114692,1.567011 C14.9530317,2.33825612 14.3660093,2.90814168 13.5796209,3.14749361 C13.2731878,3.24247454 12.7821565,3.30326233 12.3354288,3.30326233 L12.0179198,3.30326233 L11.7188707,3.74397383 C11.5527323,3.98332576 11.4198216,4.19608304 11.4198216,4.21507922 C11.4198216,4.23407541 11.4862769,4.34805252 11.5675002,4.46582887 C11.8407055,4.868548 12.0289957,5.51821753 12.0806832,6.24007257 L12.102835,6.58580314 L12.2874333,6.64659094 C12.5347949,6.72257568 12.7636967,6.95432914 12.8227681,7.17848412 C12.8523038,7.288662 12.8633797,7.57740401 12.8523038,8.01431627 C12.8412279,8.62599344 12.833844,8.69058047 12.7563128,8.81975453 C12.7009333,8.91093622 12.6160181,8.97932249 12.5089511,9.02871257 L12.3428127,9.09709883 L12.3428127,9.6783821 C12.3428127,10.6129944 12.1951341,11.1258914 11.8222457,11.5096144 C11.478893,11.8629434 11.0764689,12.0073144 10.437759,11.9997159 C10.2162411,11.9959167 9.94672771,11.9807198 9.83596878,11.9617236 Z" id="Path"></path>
                        <path d="M14.4822399,11.9596102 C14.3752425,11.9406094 14.2608659,11.8912074 14.2276598,11.8532058 C14.1427998,11.7544018 14.1464893,11.5985954 14.2387285,11.5035916 C14.3125199,11.4275885 14.3272781,11.4275885 14.6704079,11.4731903 C15.5927996,11.5985954 16.1499242,11.3591857 16.3860565,10.72836 C16.4635374,10.5269518 16.4746061,10.4205474 16.4967435,9.64911601 C16.5078122,9.17789681 16.5336392,8.76367994 16.5483974,8.72947854 C16.577914,8.66487591 16.7291862,8.60027328 16.9025959,8.57747235 L16.994835,8.56607188 L17.0059037,7.9086451 L17.0132829,7.25501846 L16.8952167,7.17901537 C16.825115,7.13341351 16.7070488,7.10301227 16.6184992,7.10301227 C16.5078122,7.10301227 16.4377104,7.07641119 16.3749878,7.01940886 C16.2901277,6.93960561 16.2827486,6.8902036 16.2421634,6.36198208 C16.1978886,5.72735622 16.1056494,5.30173887 15.9396189,4.96352509 C15.8067945,4.6937141 15.5522144,4.40490233 15.3345299,4.27569707 C15.1500516,4.16169242 15.0983976,4.028687 15.1869472,3.88808127 C15.2644281,3.76647632 15.393563,3.73987523 15.5337665,3.81587833 C15.5964892,3.85007972 15.6665909,3.86528034 15.6850388,3.85387988 C15.7034866,3.84247942 15.8584484,3.62207043 16.0318581,3.36746006 C16.2015781,3.10904953 16.3712982,2.87343993 16.4081939,2.84303869 C16.4561583,2.80503714 16.636947,2.78603637 17.157176,2.7670356 C17.7659545,2.74803482 17.8766415,2.7328342 18.1422904,2.64543064 C18.4817305,2.52762584 18.1459799,3.26865603 16.9210437,3.31425789 L16.662774,3.3218582 L16.3602295,3.77027647 L16.057685,4.21869474 L16.1831303,4.40110218 C16.4819852,4.83051967 16.6553949,5.38154213 16.7254966,6.13777294 L16.7697715,6.59759168 L16.9210437,6.63939338 C17.1018325,6.68879539 17.29369,6.81800066 17.3969978,6.96240654 C17.4707892,7.06121057 17.4744787,7.12961335 17.4855474,7.8744437 C17.4966161,8.66487591 17.4966161,8.68387668 17.4117561,8.81308195 C17.3637917,8.88528489 17.2567943,8.98028876 17.1756238,9.02209046 L17.0243516,9.09809356 L17.0022142,9.78212143 C16.9911455,10.2533406 16.9653185,10.5383522 16.9210437,10.6903584 C16.7328758,11.3743863 16.2827486,11.8266047 15.6555222,11.9634103 C15.4230795,12.0128123 14.7515783,12.0128123 14.4822399,11.9596102 Z" id="Path"></path>
                    </g>
                </g>
                <g id="152-1528392_png-file-svg-bluetooth-icon-svg-transparent-png" transform="translate(14.000000, 7.500000) rotate(-90.000000) translate(-14.000000, -7.500000) translate(10.000000, 0.000000)" fill="#000000">
                    <g id="Group" transform="translate(4.000000, 8.068004) scale(-1, 1) rotate(-180.000000) translate(-4.000000, -8.068004) translate(0.000000, 1.144928)">
                        <path d="M4.71452055,13.3110368 C4.33534247,12.9275362 4.23013699,12.8071349 4.23013699,12.7625418 C4.23013699,12.722408 4.29150685,12.6354515 4.44273973,12.4637681 C4.74082192,12.122631 4.9709589,11.8238573 5.15945205,11.5340022 C5.94630137,10.3166109 6.4109589,8.96544036 6.51178082,7.5942029 C6.54027397,7.19509476 6.52712329,6.33667781 6.48767123,5.95540691 C6.38684932,4.9877369 6.13479452,4.12931996 5.67890411,3.20178372 C5.31506849,2.46153846 5.17041096,2.24972129 4.3090411,1.19509476 L4.17972603,1.0367893 L4.68164384,0.523968785 C4.95780822,0.24303233 5.19013699,0.0133779264 5.19890411,0.0133779264 C5.24054795,0.0133779264 5.78410959,0.65328874 6.05150685,1.01672241 C6.69808219,1.8974359 7.16054795,2.787068 7.49589041,3.79487179 C8.23013699,6 8.15561644,8.44593088 7.28547945,10.6153846 C7.07726027,11.1326644 6.68273973,11.884058 6.37808219,12.3433668 C6.13041096,12.7179487 5.66136986,13.3110368 5.35671233,13.6365663 L5.19890411,13.8037904 L4.71452055,13.3110368 Z" id="Path"></path>
                        <path d="M2.59068493,11.154961 L2.08,10.6354515 L2.24657534,10.4347826 C2.85150685,9.71683389 3.23068493,8.98327759 3.43890411,8.1270903 C3.52657534,7.76811594 3.55068493,7.4960981 3.55068493,6.90301003 C3.55068493,6.30769231 3.52657534,6.03790412 3.43890411,5.67670011 C3.23287671,4.82943144 2.77917808,3.96209588 2.20054795,3.31772575 L2.07561644,3.17502787 L2.57753425,2.66443701 C2.85369863,2.38350056 3.09041096,2.15384615 3.10575342,2.15384615 C3.11890411,2.15384615 3.22191781,2.25641026 3.33369863,2.38350056 C4.19068493,3.35117057 4.76054795,4.59085842 4.96876712,5.94425864 C5.02356164,6.303233 5.02356164,7.45596433 4.96876712,7.85507246 C4.78246575,9.20847269 4.1709589,10.5039019 3.23945205,11.5250836 L3.10136986,11.6767001 L2.59068493,11.154961 Z" id="Path"></path>
                        <path d="M0.488767123,9.01672241 C0.221369863,8.74470457 0,8.51282051 0,8.50167224 C0,8.49052397 0.0591780822,8.40356745 0.129315068,8.30546265 C0.361643836,7.99331104 0.501917808,7.67892977 0.572054795,7.3154961 C0.611506849,7.1148272 0.611506849,6.69119287 0.572054795,6.49052397 C0.504109589,6.14269788 0.339726027,5.77926421 0.120547945,5.48717949 C0.0547945205,5.40022297 0,5.31772575 0,5.30657748 C0,5.27759197 0.970958904,4.29431438 1.00164384,4.29431438 C1.06520548,4.29431438 1.40931507,4.74693423 1.61972603,5.11036789 C1.74027397,5.31995541 1.87178082,5.65440357 1.93972603,5.91973244 C2.23123288,7.07023411 1.98136986,8.32998885 1.28657534,9.21070234 C1.16383562,9.36677815 1.02575342,9.51170569 0.999452055,9.51170569 C0.988493151,9.51170569 0.758356164,9.28874025 0.488767123,9.01672241 Z" id="Path"></path>
                    </g>
                </g>
            </g>
        </g>
    </g>
</svg>