<?xml version="1.0" encoding="UTF-8"?>
<svg width="29px" height="29px" viewBox="0 0 29 29" version="1.1" xmlns="http://www.w3.org/2000/svg" xmlns:xlink="http://www.w3.org/1999/xlink">
    <!-- Generator: Sketch 52.6 (67491) - http://www.bohemiancoding.com/sketch -->
    <title>Group 6</title>
    <desc>Created with Sketch.</desc>
    <g id="Page-1" stroke="none" stroke-width="1" fill="none" fill-rule="evenodd">
        <g id="icons" transform="translate(-59.000000, -583.000000)">
            <g id="Group-6" transform="translate(59.000000, 583.000000)">
                <g id="Group-11-Copy-16" fill="#FFFFFF">
                    <circle id="Oval-Copy-11" cx="14.5" cy="14.5" r="14.5"></circle>
                </g>
                <path d="M11.9033203,8.16015625 C15.0161133,8.16015625 16.9863281,10.2915039 16.9863281,13.7119141 C16.9863281,17.1323242 15.0234375,19.2709961 11.9033203,19.2709961 C8.76123047,19.2709961 6.81298828,17.1323242 6.81298828,13.7119141 C6.81298828,10.2841797 8.79052734,8.16015625 11.9033203,8.16015625 Z M11.9033203,10.0351562 C10.1821289,10.0351562 9.07617188,11.4633789 9.07617188,13.7119141 C9.07617188,15.953125 10.1601562,17.3959961 11.9033203,17.3959961 C13.6245117,17.3959961 14.7231445,15.953125 14.7231445,13.7119141 C14.7231445,11.4633789 13.6171875,10.0351562 11.9033203,10.0351562 Z M20.0039062,18.0478516 L20.0039062,16.9052734 L20.8754883,16.9052734 C21.4760742,16.9052734 21.871582,16.6049805 21.871582,16.1582031 C21.871582,15.7333984 21.5053711,15.4257812 20.8901367,15.4257812 C20.2456055,15.4257812 19.8574219,15.7260742 19.8208008,16.2314453 L18.3120117,16.2314453 C18.3486328,14.9716797 19.3666992,14.1586914 20.9707031,14.1586914 C22.5454102,14.1586914 23.4169922,14.9423828 23.4169922,15.9091797 C23.409668,16.6928711 22.8823242,17.1982422 22.1352539,17.3666992 L22.1352539,17.4545898 C23.1166992,17.5791016 23.6879883,18.1577148 23.6879883,19.0073242 C23.6879883,20.1572266 22.5307617,20.9555664 20.9121094,20.9555664 C19.3081055,20.9555664 18.2167969,20.1206055 18.1582031,18.831543 L19.7329102,18.831543 C19.762207,19.3149414 20.2089844,19.6152344 20.8901367,19.6152344 C21.5566406,19.6152344 22.0107422,19.3076172 22.0107422,18.831543 C22.0107422,18.3408203 21.5786133,18.0478516 20.8754883,18.0478516 L20.0039062,18.0478516 Z" id="O₃" fill="#000000"></path>
            </g>
        </g>
    </g>
</svg>