<?xml version="1.0" encoding="UTF-8"?>
<svg width="29px" height="29px" viewBox="0 0 29 29" version="1.1" xmlns="http://www.w3.org/2000/svg" xmlns:xlink="http://www.w3.org/1999/xlink">
    <!-- Generator: Sketch 52.6 (67491) - http://www.bohemiancoding.com/sketch -->
    <title>Group 7</title>
    <desc>Created with Sketch.</desc>
    <g id="Page-1" stroke="none" stroke-width="1" fill="none" fill-rule="evenodd">
        <g id="icons" transform="translate(-59.000000, -639.000000)">
            <g id="Group-7" transform="translate(59.000000, 639.000000)">
                <g id="Group-11-Copy-17" fill="#FFFFFF">
                    <circle id="Oval-Copy-11" cx="14.5" cy="14.5" r="14.5"></circle>
                </g>
                <path d="M13.2177734,13.7485352 L11.2255859,13.7485352 C11.0791016,12.972168 10.5297852,12.4594727 9.62158203,12.4594727 C8.47167969,12.4594727 7.82714844,13.3457031 7.82714844,14.949707 C7.82714844,16.5756836 8.47900391,17.4765625 9.62158203,17.4765625 C10.4931641,17.4765625 11.0644531,17.0444336 11.2255859,16.2387695 L13.2177734,16.2387695 C13.0419922,18.0112305 11.7236328,19.168457 9.62158203,19.168457 C7.10205078,19.168457 5.67382812,17.6376953 5.67382812,14.949707 C5.67382812,12.2910156 7.09472656,10.7602539 9.62158203,10.7602539 C11.7602539,10.7602539 13.0419922,11.9467773 13.2177734,13.7485352 Z M18.4619141,19.168457 C15.9790039,19.168457 14.4848633,17.59375 14.4848633,14.9643555 C14.4848633,12.3569336 16.0009766,10.7602539 18.4619141,10.7602539 C20.9228516,10.7602539 22.4389648,12.3496094 22.4389648,14.9643555 C22.4389648,17.6010742 20.9448242,19.168457 18.4619141,19.168457 Z M18.4619141,17.4838867 C19.597168,17.4838867 20.2490234,16.5610352 20.2490234,14.9643555 C20.2490234,13.3823242 19.5898438,12.4521484 18.4619141,12.4521484 C17.3266602,12.4521484 16.6748047,13.3823242 16.6748047,14.9643555 C16.6748047,16.5610352 17.3193359,17.4838867 18.4619141,17.4838867 Z" id="co" fill="#000000"></path>
            </g>
        </g>
    </g>
</svg>