<?xml version="1.0" encoding="UTF-8"?>
<svg width="30px" height="30px" viewBox="0 0 30 30" version="1.1" xmlns="http://www.w3.org/2000/svg" xmlns:xlink="http://www.w3.org/1999/xlink">
    <!-- Generator: Sketch 52.6 (67491) - http://www.bohemiancoding.com/sketch -->
    <title>Group 13 Copy</title>
    <desc>Created with Sketch.</desc>
    <defs>
        <filter x="-43.8%" y="-43.8%" width="187.5%" height="187.5%" filterUnits="objectBoundingBox" id="filter-1">
            <feOffset dx="0" dy="2" in="SourceAlpha" result="shadowOffsetOuter1"></feOffset>
            <feGaussianBlur stdDeviation="1.5" in="shadowOffsetOuter1" result="shadowBlurOuter1"></feGaussianBlur>
            <feColorMatrix values="0 0 0 0 0.801684736   0 0 0 0 0.801684736   0 0 0 0 0.801684736  0 0 0 0.5 0" type="matrix" in="shadowBlurOuter1" result="shadowMatrixOuter1"></feColorMatrix>
            <feMerge>
                <feMergeNode in="shadowMatrixOuter1"></feMergeNode>
                <feMergeNode in="SourceGraphic"></feMergeNode>
            </feMerge>
        </filter>
    </defs>
    <g id="Page-1" stroke="none" stroke-width="1" fill="none" fill-rule="evenodd">
        <g id="Group-13-Copy" filter="url(#filter-1)" transform="translate(3.000000, 1.000000)">
            <g id="Group-4">
                <g id="Group-11-Copy-6" fill="#FFFFFF">
                    <circle id="Oval-Copy-11" cx="12" cy="12" r="12"></circle>
                </g>
                <g id="82-512" transform="translate(4.965517, 2.482759)" fill="#000000">
                    <g id="Group" transform="translate(7.451226, 8.249261) scale(-1, 1) rotate(-180.000000) translate(-7.451226, -8.249261) translate(0.002950, 0.800985)">
                        <path d="M7.15624445,14.8315271 C7.00580403,14.7812808 6.85241379,14.6541872 6.7816183,14.5152709 C6.72557187,14.4029557 6.72262206,14.3408867 6.72262206,12.8157635 C6.72262206,11.946798 6.71377262,11.2344828 6.70197337,11.2344828 C6.69017412,11.2344828 6.50138614,11.4118227 6.28310003,11.6275862 C5.94092182,11.964532 5.86127689,12.026601 5.74033459,12.062069 C5.56924548,12.1093596 5.4306043,12.08867 5.25951519,11.9881773 C5.07072721,11.8758621 4.97338341,11.7133005 4.95863435,11.48867 C4.94978491,11.3408867 4.96158416,11.2847291 5.01763059,11.1842365 C5.10907477,11.0187192 6.95565722,9.20689655 7.09134858,9.15073892 C7.22703995,9.09162562 7.47187436,9.09458128 7.6016661,9.15665025 C7.75505633,9.23054187 9.60753841,11.0719212 9.67538409,11.2197044 C9.78452714,11.4591133 9.71963127,11.7221675 9.50134517,11.920197 C9.38630249,12.0236453 9.22701263,12.0916256 9.09722089,12.0916256 C8.89958348,12.0916256 8.80223967,12.026601 8.38336634,11.6098522 L7.964493,11.1931034 L7.95564356,12.8216749 L7.94679413,14.4502463 L7.85829976,14.5802956 C7.6990099,14.8049261 7.40107887,14.91133 7.15624445,14.8315271 Z" id="Path"></path>
                        <path d="M0.365776716,12.1891626 C0.235984978,12.1211823 0.147490611,12.0325123 0.0766951178,11.8995074 L0.0117992489,11.7812808 L0.00294981222,7.46600985 C-0.00294981222,2.57142857 0.00294981222,0.626600985 0.02654831,0.514285714 C0.0501468078,0.407881773 0.0943939911,0.322167488 0.176988733,0.227586207 C0.392325026,-0.0177339901 -0.247784227,0.00295566502 7.40107887,0.00295566502 C13.0824172,0.00295566502 14.2269443,0.00886699507 14.3390372,0.0443349754 C14.5396244,0.103448276 14.672366,0.221674877 14.7756094,0.425615764 L14.8641038,0.602955665 L14.8641038,7.3862069 C14.8641038,12.3812808 14.8552544,11.7162562 14.8316559,11.7990148 C14.6900649,12.2689655 14.0794537,12.3960591 13.7490748,12.0206897 C13.698928,11.9615764 13.6428815,11.8669951 13.6281325,11.8049261 C13.6074838,11.7310345 13.5956845,10.7793103 13.5956845,11.470936 L13.5927347,8.76650246 L12.8169341,8.00985222 C11.8818436,7.09655172 11.8582451,7.0817734 11.3833254,7.0817734 C11.1030932,7.0817734 11.058846,7.09064039 10.902506,7.16453202 C10.808112,7.21182266 10.6547217,7.3182266 10.5632776,7.40394089 C10.2387982,7.69655172 10.0264117,7.82660099 9.63703653,7.95960591 C9.38040287,8.04827586 9.33615568,8.05418719 8.93498122,8.05418719 C8.43351314,8.05714286 8.18277911,8.00098522 7.81405258,7.80295567 C7.53972004,7.65517241 7.41582793,7.5546798 6.9999044,7.14975369 C6.56628201,6.73004926 6.44238989,6.6679803 6.02941618,6.67093596 C5.63414135,6.67093596 5.5013998,6.73300493 5.12677364,7.08472906 C4.53091157,7.64630542 4.07664049,7.84137931 3.37458518,7.84137931 C2.65188119,7.84137931 2.19761011,7.64039409 1.58109935,7.04039409 L1.26546944,6.73300493 L1.26546944,10.4837438 C1.26546944,11.5655172 1.26251963,11.7576355 1.20942301,11.8699507 C1.15337658,11.9970443 0.979337658,12.1655172 0.861345169,12.2128079 C0.749252305,12.2541872 0.463120519,12.2423645 0.365776716,12.1891626 Z M13.5956845,4.12610837 L13.5956845,1.24433498 L7.43057699,1.24433498 L1.26546944,1.24433498 L1.26546944,3.1182266 L1.26546944,4.99211823 L1.98227381,5.69261084 C2.37459884,6.07684729 2.74922499,6.4226601 2.81412086,6.46403941 C2.99405941,6.56748768 3.283141,6.63251232 3.48077842,6.61182266 C3.77575964,6.58226601 3.96454763,6.49064039 4.21233185,6.25418719 C4.68725162,5.80197044 5.0205804,5.59802956 5.46895186,5.48275862 C5.77868214,5.4 6.36569478,5.40591133 6.67247525,5.49458128 C7.14149539,5.62758621 7.39517924,5.79310345 7.90844657,6.28965517 C8.38926596,6.75960591 8.49840901,6.81576355 8.92023216,6.81576355 C9.28895869,6.81576355 9.44234892,6.75369458 9.76977808,6.46995074 C10.1591533,6.13300493 10.4895323,5.96157635 10.917255,5.8729064 C11.3656265,5.78128079 11.8906931,5.82857143 12.3036668,6 C12.5956982,6.12413793 12.8641311,6.31921182 13.2417071,6.67980296 C13.4275452,6.86009852 13.5838853,7.00492611 13.5897849,7.00492611 C13.5927347,7.00788177 13.5956845,5.71034483 13.5956845,4.12610837 Z" id="Shape" fill-rule="nonzero"></path>
                    </g>
                </g>
            </g>
        </g>
    </g>
</svg>