<?xml version="1.0" encoding="UTF-8"?>
<svg width="30px" height="30px" viewBox="0 0 30 30" version="1.1" xmlns="http://www.w3.org/2000/svg" xmlns:xlink="http://www.w3.org/1999/xlink">
    <!-- Generator: Sketch 52.6 (67491) - http://www.bohemiancoding.com/sketch -->
    <title>Group 28 Copy</title>
    <desc>Created with Sketch.</desc>
    <defs>
        <filter x="-43.8%" y="-43.8%" width="187.5%" height="187.5%" filterUnits="objectBoundingBox" id="filter-1">
            <feOffset dx="0" dy="2" in="SourceAlpha" result="shadowOffsetOuter1"></feOffset>
            <feGaussianBlur stdDeviation="1.5" in="shadowOffsetOuter1" result="shadowBlurOuter1"></feGaussianBlur>
            <feColorMatrix values="0 0 0 0 0.801684736   0 0 0 0 0.801684736   0 0 0 0 0.801684736  0 0 0 0.5 0" type="matrix" in="shadowBlurOuter1" result="shadowMatrixOuter1"></feColorMatrix>
            <feMerge>
                <feMergeNode in="shadowMatrixOuter1"></feMergeNode>
                <feMergeNode in="SourceGraphic"></feMergeNode>
            </feMerge>
        </filter>
    </defs>
    <g id="Page-1" stroke="none" stroke-width="1" fill="none" fill-rule="evenodd">
        <g id="Group-28-Copy" filter="url(#filter-1)" transform="translate(3.000000, 1.000000)">
            <g id="Group-11-Copy-31" fill="#FFFFFF">
                <circle id="Oval-Copy-11" cx="12" cy="12" r="12"></circle>
            </g>
            <path d="M11.901989,21.968 C11.901989,20.238 11.9041044,19.927 11.9178548,19.881 C11.9569904,19.74 12.0521851,19.629 12.1875732,19.567 C12.2520941,19.537 12.301807,19.525 12.4509454,19.499 C13.4705871,19.329 14.4066689,19.027 14.9587985,18.692 C15.1544766,18.573 15.3480393,18.406 15.4305414,18.285 C15.5574678,18.097 15.55641,17.916 15.428426,17.703 C15.2602486,17.422 14.8741809,17.1 14.3558983,16.806 C14.1633934,16.697 13.8534815,16.54 13.8302117,16.54 C13.8228077,16.54 13.7699217,16.558 13.7128048,16.581 C12.995671,16.865 12.1568994,17.096 11.4175534,17.215 C10.9637917,17.287 10.596763,17.315 10.1905987,17.307 C9.89443725,17.302 9.75376055,17.288 9.52211996,17.244 C8.71719538,17.088 8.2475679,16.601 8.27718405,15.95 C8.29410756,15.576 8.46122725,15.275 8.77325452,15.055 C9.0101837,14.888 9.31480693,14.778 9.68818193,14.725 C10.0456911,14.675 10.5132032,14.675 10.9923501,14.726 C11.82266,14.814 12.8042237,15.063 13.6990545,15.412 L13.8312694,15.463 L13.9581958,15.402 C14.3199359,15.228 14.6880223,15.005 14.9461059,14.802 C15.1026483,14.68 15.2940956,14.488 15.3765977,14.371 C15.4601576,14.252 15.5035241,14.159 15.5215053,14.062 C15.5817953,13.73 15.1333222,13.247 14.3569561,12.806 C14.1750283,12.703 13.8524238,12.54 13.8302117,12.54 C13.8228077,12.54 13.7699217,12.558 13.7128048,12.581 C12.995671,12.865 12.1568994,13.096 11.4175534,13.215 C10.9637917,13.287 10.596763,13.315 10.1905987,13.307 C9.89443725,13.302 9.75376055,13.288 9.52211996,13.244 C8.71719538,13.088 8.2475679,12.601 8.27718405,11.95 C8.29410756,11.576 8.46122725,11.275 8.77325452,11.055 C9.0101837,10.888 9.31480693,10.778 9.68818193,10.725 C10.0456911,10.675 10.5132032,10.675 10.9923501,10.726 C11.82266,10.814 12.8042237,11.063 13.6990545,11.412 L13.8312694,11.463 L13.9581958,11.402 C14.3199359,11.228 14.6880223,11.005 14.9461059,10.802 C15.1026483,10.68 15.2940956,10.488 15.3765977,10.371 C15.4601576,10.252 15.5035241,10.159 15.5215053,10.062 C15.5817953,9.73 15.1333222,9.247 14.3569561,8.806 C14.1750283,8.703 13.8524238,8.54 13.8302117,8.54 C13.8228077,8.54 13.7699217,8.558 13.7128048,8.581 C12.995671,8.865 12.1568994,9.096 11.4175534,9.215 C10.9637917,9.287 10.596763,9.315 10.1905987,9.307 C9.89443725,9.302 9.75376055,9.288 9.52211996,9.244 C8.71719538,9.088 8.2475679,8.601 8.27718405,7.95 C8.29410756,7.576 8.46122725,7.275 8.77325452,7.055 C9.0101837,6.888 9.31480693,6.778 9.68818193,6.725 C10.0456911,6.675 10.5132032,6.675 10.9923501,6.726 C11.82266,6.814 12.8042237,7.063 13.6990545,7.412 L13.8312694,7.463 L13.9581958,7.402 C14.3199359,7.228 14.6880223,7.005 14.9461059,6.802 C15.1788042,6.62 15.3966944,6.377 15.4717925,6.216 C15.5574678,6.032 15.541602,5.873 15.4210219,5.702 C15.0793785,5.22 13.923291,4.75 12.4625803,4.5 C12.3610393,4.482 12.2520941,4.459 12.222478,4.448 C12.0987248,4.405 11.9781448,4.284 11.9273742,4.155 C11.9083353,4.107 11.9072776,4.025 11.9041044,2.053 L11.901989,2.80664381e-13 L12.414983,2.80664381e-13 L12.9279769,2.80664381e-13 L12.9300924,1.797 L12.9332655,3.595 L13.0020173,3.608 C13.1659638,3.64 13.6800155,3.764 13.8746359,3.819 C14.8646614,4.099 15.5701604,4.445 16.0175758,4.869 C16.3042178,5.142 16.4649911,5.419 16.5358583,5.765 C16.5570127,5.868 16.5548973,6.142 16.5305697,6.255 C16.4184515,6.79 16.0038254,7.298 15.2909224,7.775 C15.2084203,7.83 15.0952443,7.903 15.0391852,7.936 L14.9365864,7.998 L15.1195719,8.113 C15.4506381,8.321 15.6505471,8.473 15.8747836,8.684 C16.2365237,9.027 16.442779,9.356 16.5263389,9.724 C16.5570127,9.859 16.5591282,10.121 16.5305697,10.255 C16.4322018,10.722 16.1085396,11.163 15.5479483,11.592 C15.4231374,11.688 15.1872659,11.848 15.0391852,11.936 L14.9365864,11.998 L15.1195719,12.113 C15.4506381,12.321 15.6505471,12.473 15.8747836,12.684 C16.2365237,13.027 16.442779,13.356 16.5263389,13.724 C16.5570127,13.859 16.5591282,14.121 16.5305697,14.255 C16.4322018,14.722 16.1085396,15.163 15.5479483,15.592 C15.4231374,15.688 15.1872659,15.848 15.0391852,15.936 L14.9365864,15.998 L15.1195719,16.113 C15.4506381,16.321 15.6505471,16.473 15.8747836,16.684 C16.2365237,17.027 16.442779,17.356 16.5263389,17.724 C16.5601859,17.872 16.5601859,18.133 16.5263389,18.278 C16.3994125,18.818 16.016518,19.244 15.3141923,19.625 C14.7715821,19.919 13.9380991,20.197 13.063365,20.376 L12.9279769,20.404 L12.9279769,22.202 L12.9279769,23.1724138 L12.414983,23.1724138 L11.901989,23.1724138 L11.901989,21.968 Z M10.796672,16.315 C11.1235074,16.282 11.5032287,16.218 11.8438144,16.14 C12.022569,16.098 12.3546929,16.012 12.3716165,16.002 C12.3906554,15.991 11.9041044,15.867 11.6026543,15.806 C11.2980311,15.744 10.9161943,15.69 10.6306101,15.669 C10.3862768,15.652 9.98751657,15.662 9.81828144,15.69 C9.57923682,15.73 9.43115608,15.786 9.35394255,15.865 C9.27672903,15.944 9.28413306,16.069 9.36875063,16.146 C9.46500311,16.234 9.69029737,16.301 9.98222797,16.329 C10.1207892,16.343 10.6115711,16.334 10.796672,16.315 Z M10.796672,12.315 C11.1235074,12.282 11.5032287,12.218 11.8438144,12.14 C12.022569,12.098 12.3546929,12.012 12.3716165,12.002 C12.3906554,11.991 11.9041044,11.867 11.6026543,11.806 C11.2980311,11.744 10.9161943,11.69 10.6306101,11.669 C10.3862768,11.652 9.98751657,11.662 9.81828144,11.69 C9.57923682,11.73 9.43115608,11.786 9.35394255,11.865 C9.27672903,11.944 9.28413306,12.069 9.36875063,12.146 C9.46500311,12.234 9.69029737,12.301 9.98222797,12.329 C10.1207892,12.343 10.6115711,12.334 10.796672,12.315 Z M10.796672,8.315 C11.1235074,8.282 11.5032287,8.218 11.8438144,8.14 C12.022569,8.098 12.3546929,8.012 12.3716165,8.002 C12.3906554,7.991 11.9041044,7.867 11.6026543,7.806 C11.2980311,7.744 10.9161943,7.69 10.6306101,7.669 C10.3862768,7.652 9.98751657,7.662 9.81828144,7.69 C9.57923682,7.73 9.43115608,7.786 9.35394255,7.865 C9.27672903,7.944 9.28413306,8.069 9.36875063,8.146 C9.46500311,8.234 9.69029737,8.301 9.98222797,8.329 C10.1207892,8.343 10.6115711,8.334 10.796672,8.315 Z" id="Shape" fill="#000000" fill-rule="nonzero" transform="translate(12.413793, 11.586207) rotate(-270.000000) translate(-12.413793, -11.586207) "></path>
        </g>
    </g>
</svg>