<?xml version="1.0" encoding="UTF-8"?>
<svg width="32px" height="32px" viewBox="0 0 32 32" version="1.1" xmlns="http://www.w3.org/2000/svg" xmlns:xlink="http://www.w3.org/1999/xlink">
    <!-- Generator: Sketch 52.6 (67491) - http://www.bohemiancoding.com/sketch -->
    <title>Group 11 Copy 28</title>
    <desc>Created with Sketch.</desc>
    <defs>
        <circle id="path-1" cx="12" cy="12" r="12"></circle>
        <filter x="-31.2%" y="-18.8%" width="162.5%" height="162.5%" filterUnits="objectBoundingBox" id="filter-2">
            <feOffset dx="0" dy="3" in="SourceAlpha" result="shadowOffsetOuter1"></feOffset>
            <feGaussianBlur stdDeviation="2" in="shadowOffsetOuter1" result="shadowBlurOuter1"></feGaussianBlur>
            <feColorMatrix values="0 0 0 0 0.801684736   0 0 0 0 0.801684736   0 0 0 0 0.801684736  0 0 0 0.5 0" type="matrix" in="shadowBlurOuter1"></feColorMatrix>
        </filter>
    </defs>
    <g id="Mockups" stroke="none" stroke-width="1" fill="none" fill-rule="evenodd">
        <g id="Group-11-Copy-28" transform="translate(4.000000, 1.000000)">
            <g id="Oval-Copy-11">
                <use fill="black" fill-opacity="1" filter="url(#filter-2)" xlink:href="#path-1"></use>
                <use fill="#FFFFFF" fill-rule="evenodd" xlink:href="#path-1"></use>
            </g>
            <g id="Icons-/-Chat" transform="translate(3.000000, 5.000000)" fill="#000000">
                <path d="M2.8593541,4.18732176 C2.53554701,3.53774749 2.59356323,3.09353008 3.03340276,2.85466953 C3.47324229,2.61580898 3.87623961,2.83249168 4.24239472,3.50471762 L4.24239472,3.51648666 C4.85392501,4.70296262 4.85392501,6.08433346 4.24239472,7.27080942 L3.53874248,8.62424866 C3.14089591,9.39614044 3.14089591,10.2767785 3.53874248,11.0486703 L4.24239472,12.4021095 C4.53226822,12.9642982 4.43343148,13.3519695 4.03586808,13.5461852 C3.63830468,13.740401 3.21675546,13.7037935 2.8593541,13.0729446 L2.22849347,11.8607338 L2.15570186,11.7195054 C1.54417142,10.5330294 1.54417142,9.13988952 2.15570186,7.95341356 L2.8593541,6.59997432 C3.25720083,5.82808255 3.25720083,4.95921353 2.8593541,4.18732176 Z M2.08291025,0.350615738 C2.18623238,0.346560741 2.28934877,0.362565847 2.38620863,0.397691886 L4.52142923,1.15091025 C4.79675861,1.23221028 5.00315439,1.45456763 5.05773716,1.72869343 C5.11231992,2.00281922 5.00613638,2.28374824 4.78182516,2.4586718 C4.55751394,2.63359537 4.25186909,2.67382054 3.98762408,2.56319467 C3.08065305,2.21205047 2.62716753,2.03647837 2.62716753,2.03647837 C2.62716753,2.03647837 2.51449607,2.53766049 2.28915315,3.54002473 C2.23494272,3.81411924 2.02895762,4.03667442 1.75386156,4.11837683 C1.47876551,4.20007925 1.17964943,4.12753707 0.97655136,3.92986214 C0.77345329,3.73218721 0.699662988,3.44178038 0.78479318,3.17518459 L1.36712607,0.915529508 C1.45201255,0.595210109 1.74234947,0.366069358 2.08291025,0.350615738 Z M8.94842814,4.18732176 C8.62462105,3.53774749 8.68263727,3.09353008 9.1224768,2.85466953 C9.56231633,2.61580898 9.96531365,2.83249168 10.3314688,3.50471762 L10.3314688,3.51648666 C10.942999,4.70296262 10.942999,6.08433346 10.3314688,7.27080942 L9.62781651,8.62424866 C9.22996994,9.39614044 9.22996994,10.2767785 9.62781651,11.0486703 L10.3314688,12.4021095 C10.6213423,12.9642982 10.5225055,13.3519695 10.1249421,13.5461852 C9.72737871,13.740401 9.3058295,13.7037935 8.94842814,13.0729446 L8.31756751,11.8607338 L8.2447759,11.7195054 C7.63324546,10.5330294 7.63324546,9.13988952 8.2447759,7.95341356 L8.94842814,6.59997432 C9.34627487,5.82808255 9.34627487,4.95921353 8.94842814,4.18732176 Z M8.17198429,0.350615738 C8.27530642,0.346560741 8.37842281,0.362565847 8.47528267,0.397691886 L10.6105033,1.15091025 C10.8858326,1.23221028 11.0922284,1.45456763 11.1468112,1.72869343 C11.201394,2.00281922 11.0952104,2.28374824 10.8708992,2.4586718 C10.646588,2.63359537 10.3409431,2.67382054 10.0766981,2.56319467 C9.16972708,2.21205047 8.71624157,2.03647837 8.71624157,2.03647837 C8.71624157,2.03647837 8.60357011,2.53766049 8.37822719,3.54002473 C8.32401675,3.81411924 8.11803165,4.03667442 7.8429356,4.11837683 C7.56783954,4.20007925 7.26872347,4.12753707 7.0656254,3.92986214 C6.86252733,3.73218721 6.78873703,3.44178038 6.87386722,3.17518459 L7.45620011,0.915529508 C7.54108659,0.595210109 7.83142351,0.366069358 8.17198429,0.350615738 Z M15.0375022,4.18732176 C14.7136951,3.53774749 14.7717113,3.09353008 15.2115508,2.85466953 C15.6513904,2.61580898 16.0543877,2.83249168 16.4205428,3.50471762 L16.4205428,3.51648666 C17.0320731,4.70296262 17.0320731,6.08433346 16.4205428,7.27080942 L15.7168906,8.62424866 C15.319044,9.39614044 15.319044,10.2767785 15.7168906,11.0486703 L16.4205428,12.4021095 C16.7104163,12.9642982 16.6115796,13.3519695 16.2140162,13.5461852 C15.8164528,13.740401 15.3949035,13.7037935 15.0375022,13.0729446 L14.4066415,11.8607338 L14.3338499,11.7195054 C13.7223195,10.5330294 13.7223195,9.13988952 14.3338499,7.95341356 L15.0375022,6.59997432 C15.4353489,5.82808255 15.4353489,4.95921353 15.0375022,4.18732176 Z M14.2610583,0.350615738 C14.3643805,0.346560741 14.4674968,0.362565847 14.5643567,0.397691886 L16.6995773,1.15091025 C16.9749067,1.23221028 17.1813025,1.45456763 17.2358852,1.72869343 C17.290468,2.00281922 17.1842845,2.28374824 16.9599732,2.4586718 C16.735662,2.63359537 16.4300172,2.67382054 16.1657722,2.56319467 C15.2588011,2.21205047 14.8053156,2.03647837 14.8053156,2.03647837 C14.8053156,2.03647837 14.6926441,2.53766049 14.4673012,3.54002473 C14.4130908,3.81411924 14.2071057,4.03667442 13.9320096,4.11837683 C13.6569136,4.20007925 13.3577975,4.12753707 13.1546994,3.92986214 C12.9516014,3.73218721 12.8778111,3.44178038 12.9629413,3.17518459 L13.5452741,0.915529508 C13.6301606,0.595210109 13.9204975,0.366069358 14.2610583,0.350615738 Z" id="Shape"></path>
            </g>
        </g>
    </g>
</svg>