<?xml version="1.0" encoding="UTF-8"?>
<svg width="32px" height="32px" viewBox="0 0 32 32" version="1.1" xmlns="http://www.w3.org/2000/svg" xmlns:xlink="http://www.w3.org/1999/xlink">
    <!-- Generator: Sketch 52.6 (67491) - http://www.bohemiancoding.com/sketch -->
    <title>Group 11 Copy 30</title>
    <desc>Created with Sketch.</desc>
    <defs>
        <circle id="path-1" cx="12" cy="12" r="12"></circle>
        <filter x="-31.2%" y="-18.8%" width="162.5%" height="162.5%" filterUnits="objectBoundingBox" id="filter-2">
            <feOffset dx="0" dy="3" in="SourceAlpha" result="shadowOffsetOuter1"></feOffset>
            <feGaussianBlur stdDeviation="2" in="shadowOffsetOuter1" result="shadowBlurOuter1"></feGaussianBlur>
            <feColorMatrix values="0 0 0 0 0.801684736   0 0 0 0 0.801684736   0 0 0 0 0.801684736  0 0 0 0.5 0" type="matrix" in="shadowBlurOuter1"></feColorMatrix>
        </filter>
    </defs>
    <g id="Mockups" stroke="none" stroke-width="1" fill="none" fill-rule="evenodd">
        <g id="Group-11-Copy-30" transform="translate(4.000000, 1.000000)">
            <g id="Oval-Copy-11">
                <use fill="black" fill-opacity="1" filter="url(#filter-2)" xlink:href="#path-1"></use>
                <use fill="#FFFFFF" fill-rule="evenodd" xlink:href="#path-1"></use>
            </g>
            <g id="Icons-/-Chat" transform="translate(3.000000, 4.000000)" fill="#000000">
                <path d="M14.25,13.9607843 C14.25,14.7837969 13.5784271,15.4509804 12.75,15.4509804 L5.25,15.4509804 C4.42157288,15.4509804 3.75,14.7837969 3.75,13.9607843 L3.75,11.2039216 C3.405,11.0698039 2.01513158,10.7108865 1.30263158,10.7108865 C0.888418017,10.7108865 0.552631579,10.3772947 0.552631579,9.96578845 C0.552631579,9.55428217 0.888418017,9.22069041 1.30263158,9.22069041 C1.91763158,9.22069041 3.3525,9.54980392 3.75,9.64666667 L3.75,8.22352941 C3.405,8.08941176 2.01513158,7.73049434 1.30263158,7.73049434 C0.888418017,7.73049434 0.552631579,7.39690258 0.552631579,6.9853963 C0.552631579,6.57389001 0.888418017,6.24029826 1.30263158,6.24029826 C1.91763158,6.24029826 3.3525,6.56941176 3.75,6.66627451 L3.75,5.24313725 C3.405,5.10901961 2.01513158,4.75010218 1.30263158,4.75010218 C0.888418017,4.75010218 0.552631579,4.41651042 0.552631579,4.00500414 C0.552631579,3.59349786 0.888418017,3.2599061 1.30263158,3.2599061 C1.91763158,3.2599061 3.3525,3.58901961 3.75,3.68588235 L3.75,2.03921569 C3.75,1.21620312 4.42157288,0.549019608 5.25,0.549019608 L12.75,0.549019608 C13.5784271,0.549019608 14.25,1.21620312 14.25,2.03921569 L14.25,3.64862745 C15.585,3.87960784 17.1225,4.974306 17.25,5.09352168 C17.5425,5.38410992 17.5425,5.86097266 17.25,6.1515609 C16.9575,6.44214913 16.5675,6.43469815 16.185,6.1515609 L15.2175,5.54862745 C15.2175,5.54862745 14.4375,5.01960784 12.75,5.01960784 C11.805,5.01960784 11.1825,5.32509804 10.4625,5.69019608 C9.6825,6.07019608 8.805,6.50980392 7.5,6.50980392 C7.23,6.50980392 6.9825,6.50980392 6.75,6.48 L6.75,4.98235294 C6.975,5.01960784 7.2225,5.01960784 7.5,5.01960784 C8.445,5.01960784 9.0675,4.71411765 9.7875,4.35647059 C10.5675,3.96901961 11.4525,3.52941176 12.75,3.52941176 L12.75,2.03921569 L5.25,2.03921569 L5.25,13.9607843 L12.75,13.9607843 L12.75,12.4705882 C13.875,12.4705882 14.2275,12.6866667 14.25,12.7015686 L14.25,13.9607843 Z M9.7875,7.33686275 C9.0675,7.6945098 8.445,8 7.5,8 C7.2225,8 6.975,8 6.75,7.9627451 L6.75,9.46039216 C6.9825,9.49019608 7.23,9.49019608 7.5,9.49019608 C8.805,9.49019608 9.6825,9.05058824 10.4625,8.67058824 C11.1825,8.31294118 11.805,8 12.75,8 C14.4375,8 16.1648684,9.47019608 16.1648684,9.47019608 C16.5473684,9.76078431 16.9373684,9.76078431 17.2298684,9.47019608 C17.5223684,9.17960784 17.5223684,8.71019608 17.2298684,8.41215686 C17.0723684,8.25568627 15.1875,6.50980392 12.75,6.50980392 C11.4525,6.50980392 10.5675,6.94941176 9.7875,7.33686275 Z M12.75,9.49019608 C11.4525,9.49019608 10.5675,9.92980392 9.7875,10.3172549 C9.0675,10.674902 8.445,10.9803922 7.5,10.9803922 C7.2225,10.9803922 6.975,10.9803922 6.75,10.9431373 L6.75,12.4407843 C6.9825,12.4705882 7.23,12.4705882 7.5,12.4705882 C8.805,12.4705882 9.6825,12.0309804 10.4625,11.6509804 C11.1825,11.2933333 11.805,10.9803922 12.75,10.9803922 C14.4375,10.9803922 16.1648684,12.4505882 16.1648684,12.4505882 C16.5473684,12.7411765 16.9373684,12.7411765 17.2298684,12.4505882 C17.5223684,12.16 17.5223684,11.6905882 17.2298684,11.392549 C17.0723684,11.2360784 15.1875,9.49019608 12.75,9.49019608 Z" id="Shape"></path>
            </g>
        </g>
    </g>
</svg>