<?xml version="1.0" encoding="UTF-8"?>
<svg width="32px" height="32px" viewBox="0 0 32 32" version="1.1" xmlns="http://www.w3.org/2000/svg" xmlns:xlink="http://www.w3.org/1999/xlink">
    <!-- Generator: Sketch 52.6 (67491) - http://www.bohemiancoding.com/sketch -->
    <title>Group 6 Copy 10</title>
    <desc>Created with Sketch.</desc>
    <defs>
        <circle id="path-1" cx="12" cy="12" r="12"></circle>
        <filter x="-31.2%" y="-18.8%" width="162.5%" height="162.5%" filterUnits="objectBoundingBox" id="filter-2">
            <feOffset dx="0" dy="3" in="SourceAlpha" result="shadowOffsetOuter1"></feOffset>
            <feGaussianBlur stdDeviation="2" in="shadowOffsetOuter1" result="shadowBlurOuter1"></feGaussianBlur>
            <feColorMatrix values="0 0 0 0 0.801684736   0 0 0 0 0.801684736   0 0 0 0 0.801684736  0 0 0 0.5 0" type="matrix" in="shadowBlurOuter1"></feColorMatrix>
        </filter>
    </defs>
    <g id="Mockups" stroke="none" stroke-width="1" fill="none" fill-rule="evenodd">
        <g id="Group-6-Copy-10" transform="translate(4.000000, 1.000000)">
            <g id="Play">
                <g id="Oval">
                    <use fill="black" fill-opacity="1" filter="url(#filter-2)" xlink:href="#path-1"></use>
                    <use fill="#FFFFFF" fill-rule="evenodd" xlink:href="#path-1"></use>
                </g>
            </g>
            <g id="Group-40" transform="translate(3.310345, 3.310345)" fill="#000000">
                <g id="luminus">
                    <path d="M8.68931527,3.23522257 C9.05402956,3.23522257 9.34974384,2.94067712 9.34974384,2.57740439 L9.34974384,0.757467085 C9.34974384,0.393855799 9.05402956,0.0993103448 8.68931527,0.0993103448 C8.32460099,0.0993103448 8.0288867,0.393855799 8.0288867,0.757467085 L8.0288867,2.57706583 C8.0288867,2.94033856 8.32460099,3.23522257 8.68931527,3.23522257 Z" id="Path"></path>
                    <path d="M3.85319704,4.84472727 C3.9820197,4.97304075 4.15129064,5.03736677 4.32056158,5.03736677 C4.48949261,5.03736677 4.65876355,4.97304075 4.78758621,4.84472727 C5.04557143,4.58810031 5.04557143,4.17133542 4.78792611,3.91436991 L3.43732923,2.64821086 C3.17934401,2.39124535 2.76058539,2.39124535 2.50294007,2.64821086 C2.24461494,2.90483782 2.24461494,3.32160271 2.50294007,3.57856823 L3.85319704,4.84472727 Z" id="Path"></path>
                    <path d="M3.17135468,8.73137304 C3.17135468,8.36810031 2.87564039,8.07355486 2.51092611,8.07355486 L0.681162562,8.07355486 C0.316448276,8.07355486 0.0210738916,8.36810031 0.0207339901,8.73137304 C0.0207339901,9.09464577 0.316448276,9.38919122 0.681162562,9.38919122 L2.51092611,9.38952978 C2.87564039,9.38952978 3.17135468,9.09498433 3.17135468,8.73137304 Z" id="Path"></path>
                    <path d="M16.6984877,8.0732163 L14.8683842,8.0732163 C14.5040099,8.0732163 14.2076158,8.36776176 14.2076158,8.73103448 C14.2076158,9.09430721 14.5040099,9.38885266 14.8683842,9.38885266 L16.6984877,9.38885266 C17.063202,9.38885266 17.3589163,9.09430721 17.3589163,8.73103448 C17.3589163,8.36776176 17.063202,8.0732163 16.6984877,8.0732163 Z" id="Path"></path>
                    <path d="M13.0587488,5.03736677 C13.2276798,5.03736677 13.3969507,4.97304075 13.5257734,4.84438871 L14.8275862,3.55513886 C15.0855714,3.29851191 15.0855714,2.88174702 14.8275862,2.6247815 C14.5699409,2.36781598 14.1515222,2.36781598 13.893197,2.6247815 L12.5917241,3.91403135 C12.3337389,4.17065831 12.3337389,4.5874232 12.5917241,4.84438871 C12.7205468,4.97304075 12.8891379,5.03736677 13.0587488,5.03736677 Z" id="Path"></path>
                </g>
                <path d="M8.68965517,13.0758621 C6.26721999,13.0758621 4.30344828,11.1120904 4.30344828,8.68965517 C4.30344828,6.26721999 6.26721999,4.30344828 8.68965517,4.30344828 C11.1120904,4.30344828 13.0758621,6.26721999 13.0758621,8.68965517 C13.0758621,11.1120904 11.1120904,13.0758621 8.68965517,13.0758621 Z M8.68965517,11.7517241 C10.3807892,11.7517241 11.7517241,10.3807892 11.7517241,8.68965517 C11.7517241,6.99852118 10.3807892,5.62758621 8.68965517,5.62758621 C6.99852118,5.62758621 5.62758621,6.99852118 5.62758621,8.68965517 C5.62758621,10.3807892 6.99852118,11.7517241 8.68965517,11.7517241 Z" id="Oval" fill-rule="nonzero"></path>
                <g id="luminus-copy" transform="translate(8.689655, 14.482759) rotate(-180.000000) translate(-8.689655, -14.482759) translate(1.655172, 11.586207)">
                    <path d="M7.03414286,3.23522257 C7.39885714,3.23522257 7.69457143,2.94067712 7.69457143,2.57740439 L7.69457143,0.757467085 C7.69457143,0.393855799 7.39885714,0.0993103448 7.03414286,0.0993103448 C6.66942857,0.0993103448 6.37371429,0.393855799 6.37371429,0.757467085 L6.37371429,2.57706583 C6.37371429,2.94033856 6.66942857,3.23522257 7.03414286,3.23522257 Z" id="Path"></path>
                    <path d="M2.19802463,4.84472727 C2.32684729,4.97304075 2.49611823,5.03736677 2.66538916,5.03736677 C2.8343202,5.03736677 3.00359113,4.97304075 3.13241379,4.84472727 C3.39039901,4.58810031 3.39039901,4.17133542 3.13275369,3.91436991 L1.78215681,2.64821086 C1.52417159,2.39124535 1.10541297,2.39124535 0.847767652,2.64821086 C0.589442529,2.90483782 0.589442529,3.32160271 0.847767652,3.57856823 L2.19802463,4.84472727 Z" id="Path"></path>
                    <path d="M11.4035764,5.03736677 C11.5725074,5.03736677 11.7417783,4.97304075 11.870601,4.84438871 L13.1724138,3.55513886 C13.430399,3.29851191 13.430399,2.88174702 13.1724138,2.6247815 C12.9147685,2.36781598 12.4963498,2.36781598 12.2380246,2.6247815 L10.9365517,3.91403135 C10.6785665,4.17065831 10.6785665,4.5874232 10.9365517,4.84438871 C11.0653744,4.97304075 11.2339655,5.03736677 11.4035764,5.03736677 Z" id="Path"></path>
                </g>
            </g>
        </g>
    </g>
</svg>