<?xml version="1.0" encoding="UTF-8"?>
<svg width="30px" height="30px" viewBox="0 0 30 30" version="1.1" xmlns="http://www.w3.org/2000/svg" xmlns:xlink="http://www.w3.org/1999/xlink">
    <!-- Generator: Sketch 52.6 (67491) - http://www.bohemiancoding.com/sketch -->
    <title>Group 7 Copy</title>
    <desc>Created with Sketch.</desc>
    <defs>
        <filter x="-43.8%" y="-43.8%" width="187.5%" height="187.5%" filterUnits="objectBoundingBox" id="filter-1">
            <feOffset dx="0" dy="2" in="SourceAlpha" result="shadowOffsetOuter1"></feOffset>
            <feGaussianBlur stdDeviation="1.5" in="shadowOffsetOuter1" result="shadowBlurOuter1"></feGaussianBlur>
            <feColorMatrix values="0 0 0 0 0.801684736   0 0 0 0 0.801684736   0 0 0 0 0.801684736  0 0 0 0.5 0" type="matrix" in="shadowBlurOuter1" result="shadowMatrixOuter1"></feColorMatrix>
            <feMerge>
                <feMergeNode in="shadowMatrixOuter1"></feMergeNode>
                <feMergeNode in="SourceGraphic"></feMergeNode>
            </feMerge>
        </filter>
    </defs>
    <g id="Page-1" stroke="none" stroke-width="1" fill="none" fill-rule="evenodd">
        <g id="Group-7-Copy" filter="url(#filter-1)" transform="translate(3.000000, 1.000000)">
            <g id="Group-11-Copy-17" fill="#FFFFFF">
                <circle id="Oval-Copy-11" cx="12" cy="12" r="12"></circle>
            </g>
            <path d="M10.938847,11.3780981 L9.29014009,11.3780981 C9.16891164,10.7355873 8.71430496,10.3112877 7.96268858,10.3112877 C7.01104526,10.3112877 6.47764009,11.0447198 6.47764009,12.3721713 C6.47764009,13.7178071 7.01710668,14.4633621 7.96268858,14.4633621 C8.68399784,14.4633621 9.15678879,14.1057381 9.29014009,13.4389817 L10.938847,13.4389817 C10.7933728,14.9058459 9.70231681,15.8635506 7.96268858,15.8635506 C5.87755927,15.8635506 4.6955819,14.5967134 4.6955819,12.3721713 C4.6955819,10.171875 5.87149784,8.90503772 7.96268858,8.90503772 C9.73262392,8.90503772 10.7933728,9.88698815 10.938847,11.3780981 Z M15.2788254,15.8635506 C13.2240032,15.8635506 11.9874731,14.5603448 11.9874731,12.3842942 C11.9874731,10.2264278 13.2421875,8.90503772 15.2788254,8.90503772 C17.3154634,8.90503772 18.5701778,10.2203664 18.5701778,12.3842942 C18.5701778,14.5664062 17.3336476,15.8635506 15.2788254,15.8635506 Z M15.2788254,14.4694235 C16.2183459,14.4694235 16.7578125,13.7056843 16.7578125,12.3842942 C16.7578125,11.0750269 16.2122845,10.3052263 15.2788254,10.3052263 C14.339305,10.3052263 13.7998384,11.0750269 13.7998384,12.3842942 C13.7998384,13.7056843 14.3332435,14.4694235 15.2788254,14.4694235 Z" id="co" fill="#000000"></path>
        </g>
    </g>
</svg>