<?xml version="1.0" encoding="UTF-8"?>
<svg width="30px" height="30px" viewBox="0 0 30 30" version="1.1" xmlns="http://www.w3.org/2000/svg" xmlns:xlink="http://www.w3.org/1999/xlink">
    <!-- Generator: Sketch 52.6 (67491) - http://www.bohemiancoding.com/sketch -->
    <title>Group 9 Copy</title>
    <desc>Created with Sketch.</desc>
    <defs>
        <filter x="-43.8%" y="-43.8%" width="187.5%" height="187.5%" filterUnits="objectBoundingBox" id="filter-1">
            <feOffset dx="0" dy="2" in="SourceAlpha" result="shadowOffsetOuter1"></feOffset>
            <feGaussianBlur stdDeviation="1.5" in="shadowOffsetOuter1" result="shadowBlurOuter1"></feGaussianBlur>
            <feColorMatrix values="0 0 0 0 0.801684736   0 0 0 0 0.801684736   0 0 0 0 0.801684736  0 0 0 0.5 0" type="matrix" in="shadowBlurOuter1" result="shadowMatrixOuter1"></feColorMatrix>
            <feMerge>
                <feMergeNode in="shadowMatrixOuter1"></feMergeNode>
                <feMergeNode in="SourceGraphic"></feMergeNode>
            </feMerge>
        </filter>
    </defs>
    <g id="Page-1" stroke="none" stroke-width="1" fill="none" fill-rule="evenodd">
        <g id="Group-9-Copy" filter="url(#filter-1)" transform="translate(3.000000, 1.000000)">
            <g id="Group-11-Copy-19" fill="#FFFFFF">
                <circle id="Oval-Copy-11" cx="12" cy="12" r="12"></circle>
            </g>
            <path d="M9.28367457,10.5505119 L7.63496767,10.5505119 C7.51373922,9.90800108 7.05913254,9.48370151 6.30751616,9.48370151 C5.35587284,9.48370151 4.82246767,10.2171336 4.82246767,11.5445851 C4.82246767,12.8902209 5.36193427,13.6357759 6.30751616,13.6357759 C7.02882543,13.6357759 7.50161638,13.2781519 7.63496767,12.6113955 L9.28367457,12.6113955 C9.13820043,14.0782597 8.0471444,15.0359644 6.30751616,15.0359644 C4.22238685,15.0359644 3.04040948,13.7691272 3.04040948,11.5445851 C3.04040948,9.34428879 4.21632543,8.07745151 6.30751616,8.07745151 C8.07745151,8.07745151 9.13820043,9.05940194 9.28367457,10.5505119 Z M13.623653,15.0359644 C11.5688308,15.0359644 10.3323006,13.7327586 10.3323006,11.556708 C10.3323006,9.39884159 11.5870151,8.07745151 13.623653,8.07745151 C15.6602909,8.07745151 16.9150054,9.39278017 16.9150054,11.556708 C16.9150054,13.73882 15.6784752,15.0359644 13.623653,15.0359644 Z M13.623653,13.6418373 C14.5631735,13.6418373 15.1026401,12.8780981 15.1026401,11.556708 C15.1026401,10.2474407 14.5571121,9.47764009 13.623653,9.47764009 C12.6841325,9.47764009 12.1446659,10.2474407 12.1446659,11.556708 C12.1446659,12.8780981 12.6780711,13.6418373 13.623653,13.6418373 Z M17.9696929,12.7265625 C17.9696929,11.629445 18.8667834,10.8899515 20.1639278,10.8899515 C21.4489494,10.8899515 22.2248114,11.556708 22.2248114,12.4780442 C22.2248114,13.1084321 21.9278017,13.5266703 21.0125269,14.2782866 L19.8790409,15.2056843 L19.8790409,15.2723599 L22.2914871,15.2723599 L22.2914871,16.3694774 L18.0484914,16.3694774 L18.0484914,15.4299569 L20.066945,13.7145744 C20.77007,13.1266164 20.8912985,12.9023438 20.8912985,12.5992726 C20.8912985,12.2477101 20.6064116,11.9507004 20.0911907,11.9507004 C19.5517241,11.9507004 19.2244073,12.2780172 19.2244073,12.7265625 L17.9696929,12.7265625 Z" id="co₂" fill="#000000"></path>
        </g>
    </g>
</svg>