<?xml version="1.0" encoding="UTF-8"?>
<svg width="30px" height="30px" viewBox="0 0 30 30" version="1.1" xmlns="http://www.w3.org/2000/svg" xmlns:xlink="http://www.w3.org/1999/xlink">
    <!-- Generator: Sketch 52.6 (67491) - http://www.bohemiancoding.com/sketch -->
    <title>Group 15 Copy</title>
    <desc>Created with Sketch.</desc>
    <defs>
        <filter x="-43.8%" y="-43.8%" width="187.5%" height="187.5%" filterUnits="objectBoundingBox" id="filter-1">
            <feOffset dx="0" dy="2" in="SourceAlpha" result="shadowOffsetOuter1"></feOffset>
            <feGaussianBlur stdDeviation="1.5" in="shadowOffsetOuter1" result="shadowBlurOuter1"></feGaussianBlur>
            <feColorMatrix values="0 0 0 0 0.801684736   0 0 0 0 0.801684736   0 0 0 0 0.801684736  0 0 0 0.5 0" type="matrix" in="shadowBlurOuter1" result="shadowMatrixOuter1"></feColorMatrix>
            <feMerge>
                <feMergeNode in="shadowMatrixOuter1"></feMergeNode>
                <feMergeNode in="SourceGraphic"></feMergeNode>
            </feMerge>
        </filter>
    </defs>
    <g id="Page-1" stroke="none" stroke-width="1" fill="none" fill-rule="evenodd">
        <g id="Group-15-Copy" filter="url(#filter-1)" transform="translate(3.000000, 1.000000)">
            <g id="Group-11-Copy-27" fill="#FFFFFF">
                <circle id="Oval-Copy-11" cx="12" cy="12" r="12"></circle>
            </g>
            <g id="water-temperature" transform="translate(3.310345, 4.965517)" fill="#000000" fill-rule="nonzero">
                <path d="M8.92241379,4.56465517 L8.92241379,9.06998922 C9.30882543,9.29359914 9.56896552,9.71110991 9.56896552,10.1896552 C9.56896552,10.9038039 8.99001078,11.4827586 8.27586207,11.4827586 C7.56171336,11.4827586 6.98275862,10.9038039 6.98275862,10.1896552 C6.98275862,9.71110991 7.24289871,9.29359914 7.62931034,9.06998922 L7.62931034,4.56465517 C7.62931034,4.20756466 7.91877155,3.91810345 8.27586207,3.91810345 C8.63295259,3.91810345 8.92241379,4.20756466 8.92241379,4.56465517 Z M14.4827586,4.07974138 C14.0349246,4.07974138 13.6191272,4.27008621 13.3419828,4.60189655 C13.0013793,5.00967672 12.6630711,5.24353448 12.4137931,5.24353448 C12.1658405,5.24353448 11.8297953,5.01213362 11.4910022,4.60836207 L11.1853448,4.22149784 L11.1853448,2.90948276 C11.1853448,1.30519397 9.88015086,-9.76230591e-17 8.27586207,-9.76230591e-17 C6.67157328,-9.76230591e-17 5.36637931,1.30519397 5.36637931,2.90948276 L5.36637931,4.23481681 C5.26761853,4.35617457 5.11609914,4.54209052 5.06612069,4.60192888 C4.72551724,5.00967672 4.38720905,5.24353448 4.13793103,5.24353448 C3.88865302,5.24353448 3.55034483,5.00967672 3.20977371,4.60192888 C2.93259698,4.27008621 2.51679957,4.07974138 2.06896552,4.07974138 C1.62113147,4.07974138 1.20533405,4.27008621 0.928189655,4.60189655 C0.587586207,5.00967672 0.249278017,5.24353448 0,5.24353448 L0,6.53663793 C0.661551724,6.53663793 1.30771552,6.16461207 1.92064655,5.43084052 C1.95100216,5.39453664 2.00641164,5.37284483 2.06896552,5.37284483 C2.1315194,5.37284483 2.18692888,5.39453664 2.21731681,5.43087284 C2.83021552,6.16461207 3.47637931,6.53663793 4.13793103,6.53663793 C4.55502155,6.53663793 4.96600216,6.38860991 5.36637931,6.09543103 L5.36637931,7.62368534 C4.73896552,8.33259698 4.39655172,9.23346983 4.39655172,10.1896552 C4.39655172,12.3287069 6.13681034,14.0689655 8.27586207,14.0689655 C10.4149138,14.0689655 12.1551724,12.3287069 12.1551724,10.1896552 C12.1551724,9.37713362 11.9064116,8.59894397 11.435722,7.93917026 C11.2284052,7.64851293 10.8246659,7.5809806 10.5339116,7.78832974 C10.243222,7.99567888 10.1756897,8.39945043 10.3830711,8.69014009 C10.6964224,9.12943966 10.862069,9.64794181 10.862069,10.1896552 C10.862069,11.6156897 9.70189655,12.7758621 8.27586207,12.7758621 C6.84982759,12.7758621 5.68965517,11.6156897 5.68965517,10.1896552 C5.68965517,9.48940733 5.96521552,8.83357759 6.4655819,8.34300647 C6.58959052,8.22139009 6.65948276,8.05503233 6.65948276,7.88133621 L6.65948276,2.90948276 C6.65948276,2.01821121 7.38459052,1.29310345 8.27586207,1.29310345 C9.16713362,1.29310345 9.89224138,2.01821121 9.89224138,2.90948276 L9.89224138,4.44610991 C9.89224138,4.59753233 9.94467672,4.73647629 10.0318642,4.84664871 L10.4820905,5.4172306 C10.4857112,5.42185345 10.4894289,5.42637931 10.4931789,5.43087284 C11.1060776,6.16461207 11.7522414,6.53663793 12.4137931,6.53663793 C13.0753448,6.53663793 13.7215086,6.16461207 14.3344397,5.43084052 C14.3647629,5.39453664 14.4202047,5.37284483 14.4827586,5.37284483 C14.5453125,5.37284483 14.600722,5.39453664 14.6311099,5.43087284 C15.2440086,6.16461207 15.8901724,6.53663793 16.5517241,6.53663793 L16.5517241,5.24353448 C16.3024461,5.24353448 15.9641379,5.00967672 15.6235668,4.60192888 C15.3463901,4.27008621 14.9305927,4.07974138 14.4827586,4.07974138 Z" id="Shape"></path>
            </g>
        </g>
    </g>
</svg>