<?xml version="1.0" encoding="UTF-8"?>
<svg width="30px" height="30px" viewBox="0 0 30 30" version="1.1" xmlns="http://www.w3.org/2000/svg" xmlns:xlink="http://www.w3.org/1999/xlink">
    <!-- Generator: Sketch 52.6 (67491) - http://www.bohemiancoding.com/sketch -->
    <title>Group 16 Copy</title>
    <desc>Created with Sketch.</desc>
    <defs>
        <filter x="-43.8%" y="-43.8%" width="187.5%" height="187.5%" filterUnits="objectBoundingBox" id="filter-1">
            <feOffset dx="0" dy="2" in="SourceAlpha" result="shadowOffsetOuter1"></feOffset>
            <feGaussianBlur stdDeviation="1.5" in="shadowOffsetOuter1" result="shadowBlurOuter1"></feGaussianBlur>
            <feColorMatrix values="0 0 0 0 0.801684736   0 0 0 0 0.801684736   0 0 0 0 0.801684736  0 0 0 0.5 0" type="matrix" in="shadowBlurOuter1" result="shadowMatrixOuter1"></feColorMatrix>
            <feMerge>
                <feMergeNode in="shadowMatrixOuter1"></feMergeNode>
                <feMergeNode in="SourceGraphic"></feMergeNode>
            </feMerge>
        </filter>
    </defs>
    <g id="Page-1" stroke="none" stroke-width="1" fill="none" fill-rule="evenodd">
        <g id="Group-16-Copy" filter="url(#filter-1)" transform="translate(3.000000, 1.000000)">
            <g id="Group-11-Copy-24" fill="#FFFFFF">
                <circle id="Oval-Copy-11" cx="12" cy="12" r="12"></circle>
            </g>
            <g id="meters-(1)" transform="translate(3.310345, 3.310345)" fill="#000000">
                <path d="M12.1765367,13.9790105 L10.3661919,13.9790105 C10.0663988,13.9790105 9.82308846,13.7251214 9.82308846,13.4122939 C9.82308846,13.0994663 10.0663988,12.8455772 10.3661919,12.8455772 L12.1765367,12.8455772 C12.4763298,12.8455772 12.7196402,13.0994663 12.7196402,13.4122939 C12.7196402,13.7251214 12.4763298,13.9790105 12.1765367,13.9790105 Z" id="Path"></path>
                <path d="M12.6330585,15.868066 C12.3332654,15.868066 12.089955,15.6141769 12.089955,15.3013493 L12.089955,11.9010495 C12.089955,11.5882219 12.3332654,11.3343328 12.6330585,11.3343328 C12.9328516,11.3343328 13.1761619,11.5882219 13.1761619,11.9010495 L13.1761619,15.3013493 C13.1761619,15.6141769 12.9328516,15.868066 12.6330585,15.868066 Z" id="Path"></path>
                <path d="M9.95689655,15.868066 C9.65710345,15.868066 9.4137931,15.6141769 9.4137931,15.3013493 L9.4137931,11.9010495 C9.4137931,11.5882219 9.65710345,11.3343328 9.95689655,11.3343328 C10.2566897,11.3343328 10.5,11.5882219 10.5,11.9010495 L10.5,15.3013493 C10.5,15.6141769 10.2566897,15.868066 9.95689655,15.868066 Z" id="Path"></path>
                <path d="M16.8362069,9.44527736 L9.75196552,9.44527736 C9.45217241,9.44527736 9.20886207,9.19138831 9.20886207,8.87856072 C9.20886207,8.56573313 9.45217241,8.31184408 9.75196552,8.31184408 L16.2728276,8.31184408 C15.9875172,4.30477961 12.6948621,1.13343328 8.68965517,1.13343328 C4.68444828,1.13343328 1.3917931,4.30477961 1.10648276,8.31184408 L7.62734483,8.31184408 C7.92713793,8.31184408 8.17044828,8.56573313 8.17044828,8.87856072 C8.17044828,9.19138831 7.92713793,9.44527736 7.62734483,9.44527736 L0.543103448,9.44527736 C0.243310345,9.44527736 0,9.19138831 0,8.87856072 C0,3.98288456 3.89803448,0 8.68965517,0 C13.4812759,0 17.3793103,3.98288456 17.3793103,8.87856072 C17.3793103,9.19138831 17.136,9.44527736 16.8362069,9.44527736 Z" id="Path"></path>
                <path d="M8.68965517,10.5787106 C7.89093103,10.5787106 7.24137931,9.90091754 7.24137931,9.06746627 C7.24137931,8.23401499 7.89093103,7.55622189 8.68965517,7.55622189 C9.48837931,7.55622189 10.137931,8.23401499 10.137931,9.06746627 C10.137931,9.90091754 9.48837931,10.5787106 8.68965517,10.5787106 Z M8.68965517,8.68965517 C8.4897931,8.68965517 8.32758621,8.85891454 8.32758621,9.06746627 C8.32758621,9.27601799 8.4897931,9.44527736 8.68965517,9.44527736 C8.88951724,9.44527736 9.05172414,9.27601799 9.05172414,9.06746627 C9.05172414,8.85891454 8.88951724,8.68965517 8.68965517,8.68965517 Z" id="Shape" fill-rule="nonzero"></path>
                <path d="M4.17103448,9.44527736 C4.1637931,9.44527736 4.15655172,9.44527736 4.14931034,9.44527736 C3.84951724,9.43318741 3.61634483,9.16947526 3.62793103,8.85664768 C3.73437931,6.00870765 5.9582069,3.77811094 8.68965517,3.77811094 C9.49924138,3.77811094 10.3073793,3.98590705 11.0271724,4.37883058 C11.292931,4.52391004 11.3957586,4.86696252 11.2567241,5.14352024 C11.1176897,5.42158921 10.788931,5.52888756 10.5238966,5.38305247 C9.95834483,5.07475862 9.324,4.91154423 8.68965517,4.91154423 C6.54403448,4.91154423 4.79741379,6.66383208 4.71341379,8.90047376 C4.70255172,9.20574513 4.46141379,9.44527736 4.17103448,9.44527736 Z" id="Path"></path>
                <path d="M13.2082759,9.44527736 C12.9178966,9.44527736 12.6767586,9.20498951 12.6658966,8.89896252 C12.6412759,8.19698951 12.4457586,7.51315142 12.1003448,6.92149925 C11.9446552,6.654009 12.0257586,6.30566717 12.2813793,6.14245277 C12.5377241,5.979994 12.8715517,6.06386807 13.0279655,6.33135832 C13.4696897,7.08849175 13.7202414,7.961991 13.7513793,8.8574033 C13.7622414,9.17023088 13.5283448,9.43318741 13.2285517,9.44452174 C13.2213103,9.44527736 13.2147931,9.44527736 13.2082759,9.44527736 Z" id="Path"></path>
                <path d="M9.18858621,8.63676162 C9.10386207,8.63676162 9.01841379,8.61635982 8.93875862,8.57328936 C8.67227586,8.42896552 8.56872414,8.08666867 8.70703448,7.80935532 L10.5608276,4.08413793 C10.6991379,3.80682459 11.0286207,3.69801499 11.292931,3.84233883 C11.5594138,3.98666267 11.6629655,4.32895952 11.5246552,4.60627286 L9.67086207,8.33149025 C9.57455172,8.52568516 9.38482759,8.63676162 9.18858621,8.63676162 Z" id="Path"></path>
                <path d="M8.68965517,2.26686657 C8.38986207,2.26686657 8.14655172,2.01297751 8.14655172,1.70014993 L8.14655172,0.755622189 C8.14655172,0.442794603 8.38986207,0.188905547 8.68965517,0.188905547 C8.98944828,0.188905547 9.23275862,0.442794603 9.23275862,0.755622189 L9.23275862,1.70014993 C9.23275862,2.01297751 8.98944828,2.26686657 8.68965517,2.26686657 Z" id="Path"></path>
                <path d="M13.7368966,4.36749625 C13.5978621,4.36749625 13.4588276,4.31233583 13.3531034,4.20125937 C13.140931,3.97986207 13.140931,3.62094153 13.3531034,3.39954423 L14.0917241,2.6288096 C14.3038966,2.40741229 14.6478621,2.40741229 14.8600345,2.6288096 C15.0722069,2.8502069 15.0722069,3.20912744 14.8600345,3.43052474 L14.1206897,4.20125937 C14.0149655,4.31233583 13.875931,4.36749625 13.7368966,4.36749625 Z" id="Path"></path>
                <path d="M3.64241379,4.36749625 C3.50337931,4.36749625 3.36434483,4.31233583 3.25862069,4.20125937 L2.52,3.43052474 C2.30782759,3.20912744 2.30782759,2.8502069 2.52,2.6288096 C2.73217241,2.40741229 3.07613793,2.40741229 3.28831034,2.6288096 L4.0262069,3.40029985 C4.23837931,3.62169715 4.23837931,3.98061769 4.0262069,4.20201499 C3.92048276,4.31233583 3.78144828,4.36749625 3.64241379,4.36749625 Z" id="Path"></path>
                <path d="M5.58058471,17.3793103 C5.2807916,17.3793103 5.03748126,17.1254213 5.03748126,16.8125937 L5.03748126,13.4122939 C5.03748126,13.0994663 5.2807916,12.8455772 5.58058471,12.8455772 L7.24137931,12.8455772 C8.04010345,12.8455772 8.68965517,13.5233703 8.68965517,14.3568216 C8.68965517,15.1902729 8.04010345,15.868066 7.24137931,15.868066 L6.12368816,15.868066 L6.12368816,16.8125937 C6.12368816,17.1254213 5.88037781,17.3793103 5.58058471,17.3793103 Z M6.12368816,14.7346327 L7.24137931,14.7346327 C7.44124138,14.7346327 7.60344828,14.5653733 7.60344828,14.3568216 C7.60344828,14.1482699 7.44124138,13.9790105 7.24137931,13.9790105 L6.12368816,13.9790105 L6.12368816,14.7346327 Z" id="Shape" fill-rule="nonzero"></path>
            </g>
        </g>
    </g>
</svg>