<?xml version="1.0" encoding="UTF-8"?>
<svg width="30px" height="30px" viewBox="0 0 30 30" version="1.1" xmlns="http://www.w3.org/2000/svg" xmlns:xlink="http://www.w3.org/1999/xlink">
    <!-- Generator: Sketch 52.6 (67491) - http://www.bohemiancoding.com/sketch -->
    <title>Group 12 Copy 7</title>
    <desc>Created with Sketch.</desc>
    <defs>
        <filter x="-43.8%" y="-43.8%" width="187.5%" height="187.5%" filterUnits="objectBoundingBox" id="filter-1">
            <feOffset dx="0" dy="2" in="SourceAlpha" result="shadowOffsetOuter1"></feOffset>
            <feGaussianBlur stdDeviation="1.5" in="shadowOffsetOuter1" result="shadowBlurOuter1"></feGaussianBlur>
            <feColorMatrix values="0 0 0 0 0.801684736   0 0 0 0 0.801684736   0 0 0 0 0.801684736  0 0 0 0.5 0" type="matrix" in="shadowBlurOuter1" result="shadowMatrixOuter1"></feColorMatrix>
            <feMerge>
                <feMergeNode in="shadowMatrixOuter1"></feMergeNode>
                <feMergeNode in="SourceGraphic"></feMergeNode>
            </feMerge>
        </filter>
    </defs>
    <g id="Page-1" stroke="none" stroke-width="1" fill="none" fill-rule="evenodd">
        <g id="Group-12-Copy-7" filter="url(#filter-1)" transform="translate(3.000000, 1.000000)">
            <g id="Group-26">
                <circle id="Oval-Copy-28" fill="#FFFFFF" cx="12" cy="12" r="12"></circle>
                <g id="Group-25" transform="translate(3.310345, 4.137931)" fill="#000000">
                    <g id="Group-5-Copy-2" fill-rule="nonzero">
                        <path d="M8.58142971,5.24865614 C8.08153808,5.27448741 7.61956647,5.37414215 7.20186675,5.53988694 C7.02271985,5.20147346 6.81580858,4.83018204 6.57885128,4.41778264 C6.57637185,4.41346745 6.31168334,3.95362776 6.23499822,3.81971991 C6.10213807,3.587719 5.99226088,3.39353956 5.88788274,3.20555667 C5.565885,2.62564532 5.30845685,2.12515071 5.0877107,1.63737034 C4.8603693,2.14687868 4.59829834,2.67440122 4.26014885,3.31539753 C4.16513329,3.49550906 4.06677719,3.67970933 3.93934534,3.91672905 C3.91692674,3.95842703 3.68866681,4.38228254 3.62254693,4.50550726 C2.46795827,6.65726364 2.04553527,7.73231113 2.09467758,8.6876687 C2.17740574,10.2959565 3.34545452,11.3824849 4.95136885,11.4443414 C5.10944114,11.9479566 5.34089815,12.3957693 5.63766976,12.7775331 C5.45767065,12.7948682 5.27318402,12.803929 5.08459955,12.8045495 C2.70301197,12.7969041 0.86204215,11.1489991 0.739021606,8.75740181 C0.672096558,7.45633648 1.14649011,6.24902626 2.42641459,3.863687 C2.49311849,3.73937387 2.72176111,3.31480773 2.74374278,3.27392244 C2.86963172,3.03977247 2.9664459,2.85845991 3.05952316,2.68202263 C3.4065452,2.02420751 3.66746608,1.49629344 3.89018778,0.989091209 C4.30860565,0.0362317532 5.84009761,-0.0214569759 6.26554516,0.945774828 C6.48135509,1.43640694 6.73935179,1.9427155 7.07465824,2.54659555 C7.17575538,2.72866944 7.28283871,2.91791147 7.41296249,3.14513412 C7.48876246,3.27749631 7.75270353,3.73603748 7.75584426,3.74150359 C8.07898843,4.30390222 8.35285016,4.7999515 8.58142971,5.24865614 Z" id="Combined-Shape"></path>
                    </g>
                    <path d="M8.84482759,6.06950431 C10.8814655,6.06950431 12.1519397,7.48060345 12.1519397,9.74030172 C12.1519397,11.9951509 10.8863147,13.4159483 8.84482759,13.4159483 C6.79364224,13.4159483 5.53286638,11.9951509 5.53286638,9.74030172 C5.53286638,7.48060345 6.81303879,6.06950431 8.84482759,6.06950431 Z M8.84482759,7.15086207 C7.60344828,7.15086207 6.81303879,8.15463362 6.81303879,9.74030172 C6.81303879,11.3162716 7.58405172,12.3345905 8.84482759,12.3345905 C10.091056,12.3345905 10.8766164,11.3162716 10.8766164,9.74030172 C10.8766164,8.15463362 10.0862069,7.15086207 8.84482759,7.15086207 Z M13.0150862,11.4908405 C13.0150862,10.6422414 13.7036638,10.0603448 14.6928879,10.0603448 C15.6578664,10.0603448 16.2640086,10.5889009 16.2640086,11.3114224 C16.2640086,11.8108836 16.0360991,12.1454741 15.294181,12.7758621 L14.3679957,13.5614224 L14.3679957,13.6147629 L16.3221983,13.6147629 L16.3221983,14.4051724 L13.0732759,14.4051724 L13.0732759,13.7311422 L14.6492457,12.3394397 C15.2068966,11.8496767 15.3184267,11.6654095 15.3184267,11.3987069 C15.3184267,11.0883621 15.0711207,10.8313578 14.6395474,10.8313578 C14.1885776,10.8313578 13.9073276,11.1077586 13.9073276,11.4908405 L13.0150862,11.4908405 Z" id="O₂"></path>
                </g>
            </g>
        </g>
    </g>
</svg>