<?xml version="1.0" encoding="UTF-8"?>
<svg width="30px" height="30px" viewBox="0 0 30 30" version="1.1" xmlns="http://www.w3.org/2000/svg" xmlns:xlink="http://www.w3.org/1999/xlink">
    <!-- Generator: Sketch 52.6 (67491) - http://www.bohemiancoding.com/sketch -->
    <title>Group 8 Copy</title>
    <desc>Created with Sketch.</desc>
    <defs>
        <filter x="-43.8%" y="-43.8%" width="187.5%" height="187.5%" filterUnits="objectBoundingBox" id="filter-1">
            <feOffset dx="0" dy="2" in="SourceAlpha" result="shadowOffsetOuter1"></feOffset>
            <feGaussianBlur stdDeviation="1.5" in="shadowOffsetOuter1" result="shadowBlurOuter1"></feGaussianBlur>
            <feColorMatrix values="0 0 0 0 0.801684736   0 0 0 0 0.801684736   0 0 0 0 0.801684736  0 0 0 0.5 0" type="matrix" in="shadowBlurOuter1" result="shadowMatrixOuter1"></feColorMatrix>
            <feMerge>
                <feMergeNode in="shadowMatrixOuter1"></feMergeNode>
                <feMergeNode in="SourceGraphic"></feMergeNode>
            </feMerge>
        </filter>
    </defs>
    <g id="Page-1" stroke="none" stroke-width="1" fill="none" fill-rule="evenodd">
        <g id="Group-8-Copy" filter="url(#filter-1)" transform="translate(3.000000, 1.000000)">
            <g id="Group-11-Copy-32" fill="#FFFFFF">
                <circle id="Oval-Copy-11" cx="12" cy="12" r="12"></circle>
            </g>
            <g id="icon-audio-waveform-512-copy-2" transform="translate(3.310345, 5.793103)" fill="#000000">
                <g id="Group" transform="translate(8.689655, 6.206897) scale(-1, 1) rotate(-180.000000) translate(-8.689655, -6.206897) ">
                    <path d="M7.02322401,12.405413 C6.980495,12.3998262 6.90500709,12.391446 6.85515659,12.3858593 C6.80673038,12.3802725 6.76257708,12.3704957 6.75830418,12.3649089 C6.75403128,12.3579254 6.72839388,12.3523387 6.70133217,12.3523387 C6.67427047,12.3523387 6.65290597,12.3467519 6.65290597,12.3383718 C6.65290597,12.3313883 6.63581437,12.3202148 6.61444986,12.3160247 C6.59166106,12.3104379 6.55035636,12.2908843 6.52187035,12.2727273 C6.49196005,12.255967 6.45920115,12.2406034 6.44638245,12.2406034 C6.43498805,12.2406034 6.42501795,12.2308265 6.42501795,12.219653 C6.42501795,12.2084795 6.41647214,12.1987026 6.40650204,12.1987026 C6.39653194,12.1987026 6.37231884,12.183339 6.35095434,12.1637853 C6.32958984,12.1442317 6.30964963,12.1288681 6.30537673,12.1288681 C6.29113373,12.1288681 6.21137292,12.0464633 6.21137292,12.0310997 C6.21137292,12.0241162 6.20140282,12.0171327 6.19000842,12.0171327 C6.17861402,12.0171327 6.16864392,12.0101493 6.16864392,12.0031658 C6.16864392,11.9947857 6.15297662,11.9710419 6.13303642,11.9500916 C6.11309621,11.9291412 6.09742891,11.9053974 6.09742891,11.8956206 C6.09742891,11.8858438 6.08745881,11.8774636 6.07606441,11.8774636 C6.06467001,11.8774636 6.05469991,11.8676868 6.05469991,11.8565132 C6.05469991,11.8453397 6.04900271,11.8355629 6.04045691,11.8355629 C6.03333541,11.8355629 6.02621391,11.8229926 6.02621391,11.807629 C6.02621391,11.7936621 6.0176681,11.7755051 6.007698,11.7699184 C5.9977279,11.7643316 5.9777877,11.7350011 5.9621204,11.7070673 C5.9464531,11.6777367 5.9293615,11.653993 5.92366429,11.653993 C5.91654279,11.653993 5.91226989,11.6386294 5.91226989,11.6204724 C5.91226989,11.6023154 5.90229979,11.5841584 5.89090539,11.5785717 C5.87951099,11.5743816 5.86954089,11.5576213 5.86954089,11.5422577 C5.86954089,11.5268941 5.86384369,11.5143238 5.85529789,11.5143238 C5.84817639,11.5143238 5.84105489,11.5017536 5.84105489,11.4877867 C5.84105489,11.4724231 5.83250909,11.4430926 5.82111468,11.4207455 C5.78693148,11.3564977 5.75559688,11.2810764 5.75559688,11.2643161 C5.75559688,11.2559359 5.74989968,11.2489525 5.74135388,11.2489525 C5.73423238,11.2489525 5.72711087,11.2335889 5.72711087,11.2154319 C5.72711087,11.1958782 5.71714077,11.1721345 5.70574637,11.1595642 C5.69435197,11.1483907 5.68438187,11.128837 5.68438187,11.1148701 C5.68438187,11.0841429 5.65874447,11.0017381 5.63310707,10.9514572 C5.62171266,10.9291102 5.61316686,10.8969863 5.61316686,10.8788293 C5.61316686,10.8606723 5.60746966,10.8411186 5.59892386,10.8369285 C5.59180236,10.8327384 5.58468086,10.8145815 5.58468086,10.7978212 C5.58468086,10.7810609 5.57471076,10.748937 5.56331636,10.7265899 C5.55192196,10.7056395 5.54195186,10.6707222 5.54195186,10.6497719 C5.54195186,10.6288215 5.53198176,10.599491 5.52058735,10.5841274 C5.50919295,10.5701605 5.49922285,10.5338465 5.49922285,10.5059127 C5.49922285,10.4779788 5.49352565,10.450045 5.48497985,10.4458549 C5.47785835,10.4416649 5.47073685,10.413731 5.47073685,10.3857972 C5.47073685,10.3578634 5.46076675,10.3215494 5.44937235,10.3075825 C5.43797795,10.2922189 5.42800784,10.2531115 5.42800784,10.2209876 C5.42800784,10.187467 5.42231064,10.1581365 5.41518914,10.1525497 C5.40806764,10.1483597 5.39667324,10.110649 5.39240034,10.0687483 C5.38670314,10.0254508 5.37673304,9.98774015 5.36961154,9.98355008 C5.36249004,9.97936 5.35679284,9.95002949 5.35679284,9.91790558 C5.35536854,9.88578168 5.34682274,9.84388094 5.33542834,9.82432726 C5.32403393,9.80477358 5.31548813,9.76287284 5.31406383,9.73074894 C5.31406383,9.69862503 5.30836663,9.66929452 5.30124513,9.66370775 C5.29412363,9.65951768 5.28272923,9.62041032 5.27703203,9.57571619 C5.27275913,9.53241876 5.26278903,9.49051802 5.25709183,9.48213787 C5.24997033,9.47515441 5.24284883,9.43325367 5.23857593,9.39135293 C5.23430303,9.34945219 5.22006002,9.26425401 5.20724132,9.20279959 C5.19442262,9.14134517 5.17875532,9.05335361 5.17305812,9.0072628 C5.16736092,8.96117198 5.15454222,8.90530432 5.14599642,8.88435395 C5.13602632,8.86200689 5.12890481,8.82010615 5.12890481,8.78937894 C5.12890481,8.75865173 5.12320761,8.72233775 5.11608611,8.70976753 C5.10469171,8.68742047 5.09044871,8.60641237 5.05768981,8.3578013 C5.0277795,8.14410751 5.0078393,8.02399205 4.9978692,8.01421521 C4.9907477,8.00862845 4.9864748,7.96672771 4.9864748,7.92203358 C4.9864748,7.87594277 4.9793533,7.82566188 4.9693832,7.80890158 C4.9608374,7.79214128 4.9480187,7.73068686 4.9408972,7.67342251 C4.9352,7.61615817 4.91953269,7.50302616 4.90813829,7.42201806 C4.89531959,7.34100996 4.87965229,7.22787796 4.87253079,7.17061361 C4.86540929,7.11334927 4.84974199,7.00580403 4.83692329,6.93317608 C4.82552888,6.86054812 4.80986158,6.7502095 4.80274008,6.68875508 C4.79561858,6.62730066 4.78422418,6.55886278 4.77425408,6.53791241 C4.76570828,6.51556535 4.75858678,6.458301 4.75858678,6.4108135 C4.75858678,6.36332599 4.75431388,6.31863186 4.74861668,6.3130451 C4.73722228,6.30326826 4.71585777,6.16499581 4.68737177,5.93454173 C4.65603717,5.66637698 4.64321847,5.58397219 4.63039976,5.56162513 C4.62185396,5.54765821 4.61615676,5.49598063 4.61615676,5.44709643 C4.61615676,5.39681554 4.60903526,5.3395512 4.59906516,5.31720413 C4.59051936,5.29625376 4.57770066,5.23060927 4.57200346,5.17334492 C4.56630626,5.11608057 4.55063896,5.00574195 4.53782026,4.92892393 C4.52500155,4.8521059 4.50790995,4.74875074 4.50078845,4.69846985 C4.47230245,4.48477606 4.45236225,4.3646606 4.44239215,4.35488376 C4.43527065,4.349297 4.43099774,4.30879295 4.43099774,4.26549552 C4.43099774,4.22080139 4.42102764,4.16214035 4.40963324,4.13560322 C4.39823884,4.10766939 4.38826874,4.05319842 4.38826874,4.01409106 C4.38826874,3.97498371 4.38257154,3.93308296 4.37545004,3.91911605 C4.35978274,3.88978553 4.32987243,3.72497595 4.32132663,3.62301747 C4.31847803,3.58111673 4.31135653,3.53642261 4.30708363,3.52524908 C4.29568923,3.49871194 4.26293033,3.33390236 4.24868733,3.23194388 C4.24299013,3.19004314 4.23017142,3.14115894 4.22020132,3.12439865 C4.21023122,3.10763835 4.20310972,3.06573761 4.20310972,3.03082032 C4.20310972,2.99590304 4.19741252,2.96657252 4.19029102,2.96657252 C4.18459382,2.96657252 4.17462372,2.92886185 4.16892652,2.88277104 C4.16322932,2.83668022 4.15325922,2.79617617 4.14613772,2.7919861 C4.13759192,2.78639933 4.13189471,2.75567212 4.13189471,2.72215153 C4.13189471,2.68863093 4.12619751,2.65790372 4.11907601,2.65371365 C4.11195451,2.64812688 4.10198441,2.6132096 4.09628721,2.57549893 C4.09059001,2.53778826 4.08061991,2.50287098 4.07349841,2.49728421 C4.06637691,2.49309414 4.06067971,2.466557 4.06067971,2.43722648 C4.06067971,2.40929265 4.05070961,2.37297868 4.03931521,2.35761507 C4.0279208,2.34364816 4.0179507,2.31152426 4.0179507,2.28638381 C4.0179507,2.26264006 4.0122535,2.2388963 4.005132,2.23330954 C3.9965862,2.22911946 3.9866161,2.19699556 3.9809189,2.16347497 C3.976646,2.12855768 3.9666759,2.10062386 3.9595544,2.10062386 C3.9524329,2.10062386 3.9467357,2.07548341 3.9467357,2.0447562 C3.9467357,2.01402899 3.9410385,1.98888854 3.93249269,1.98888854 C3.92537119,1.98888854 3.91824969,1.97771501 3.91824969,1.96514479 C3.91824969,1.95117788 3.90827959,1.92184736 3.89688519,1.89950029 C3.88549079,1.87854992 3.87552069,1.8492194 3.87552069,1.83525249 C3.87552069,1.82128558 3.86555059,1.80312859 3.85415619,1.79335175 C3.84276179,1.78357491 3.83279168,1.76681461 3.83279168,1.75703777 C3.83279168,1.74586424 3.82851878,1.73748409 3.82282158,1.73748409 C3.80857858,1.73888078 3.76157668,1.83804587 3.76157668,1.86737639 C3.76157668,1.87994662 3.75587948,1.89251684 3.74875798,1.8981036 C3.74163648,1.90229368 3.73166637,1.92464074 3.72596917,1.9469878 C3.72027197,1.97073156 3.71030187,1.98888854 3.70318037,1.98888854 C3.69605887,1.98888854 3.69036167,2.00285546 3.69036167,2.02101245 C3.69036167,2.03777274 3.68039157,2.06430988 3.66899717,2.07827679 C3.65760277,2.0936404 3.64763267,2.12017753 3.64763267,2.13833452 C3.64763267,2.15649151 3.64193547,2.17045843 3.63623827,2.17045843 C3.63054106,2.17045843 3.61344946,2.2067724 3.59920646,2.25146653 C3.58496346,2.29476396 3.56929616,2.34085478 3.56217466,2.35202831 C3.55647746,2.36459853 3.54650736,2.39392905 3.54223446,2.41906949 C3.53653726,2.44281325 3.52514285,2.466557 3.51802135,2.47074707 C3.51089985,2.47633384 3.50520265,2.49728421 3.50520265,2.51823458 C3.50520265,2.54058164 3.49523255,2.56572209 3.48383815,2.57549893 C3.47244375,2.58527577 3.46247365,2.61041621 3.46247365,2.63276328 C3.46247365,2.65371365 3.45677645,2.67606071 3.44823065,2.68025078 C3.43968485,2.68444086 3.43398764,2.69980446 3.43398764,2.71237469 C3.43398764,2.72494491 3.42401754,2.75427543 3.41262314,2.77662249 C3.40122874,2.79757286 3.39125864,2.82830007 3.39125864,2.84226699 C3.39125864,2.85763059 3.38556144,2.87997765 3.37843994,2.89394457 C3.35707544,2.93584531 3.32004363,3.06015084 3.32004363,3.08808467 C3.32004363,3.10344828 3.31007353,3.12719203 3.29867913,3.14255563 C3.28728473,3.15652255 3.27731463,3.19004314 3.27731463,3.21518359 C3.27731463,3.23892734 3.27304173,3.25987771 3.26592023,3.25987771 C3.26022303,3.25987771 3.24740433,3.28920823 3.23743423,3.32552221 C3.20609962,3.44424098 3.19328092,3.4889351 3.17618932,3.55737298 C3.16621922,3.59368695 3.15340052,3.62301747 3.14627902,3.62301747 C3.14058182,3.62301747 3.13488461,3.64676123 3.13488461,3.67609175 C3.13488461,3.70402557 3.12491451,3.74033955 3.11352011,3.75430647 C3.10212571,3.76967007 3.09215561,3.79900059 3.09215561,3.81995096 C3.09215561,3.84090133 3.08645841,3.8618517 3.07933691,3.86604178 C3.07221541,3.87162854 3.06224531,3.89956237 3.05654811,3.93028958 C3.05085091,3.96101679 3.04088081,3.98895062 3.0337593,3.99453738 C3.0266378,3.99872746 3.0209406,4.01828114 3.0209406,4.03783482 C3.0209406,4.0727521 2.9853331,4.19286756 2.9625443,4.24035507 C2.9554228,4.25432198 2.9497256,4.28225581 2.9497256,4.30320618 C2.9497256,4.32555324 2.9397555,4.35488376 2.92836109,4.36885068 C2.91696669,4.38421428 2.90699659,4.40935473 2.90699659,4.42471833 C2.90557229,4.45684224 2.85999469,4.59511468 2.84432739,4.61047829 C2.84005449,4.61466836 2.83578158,4.63980881 2.83578158,4.66634594 C2.83578158,4.69148639 2.83150868,4.71243676 2.82438718,4.71243676 C2.81299278,4.71243676 2.78308248,4.80880847 2.76883948,4.88981657 C2.76456658,4.91495701 2.75317218,4.94289084 2.74177778,4.95127099 C2.73038337,4.95965114 2.72183757,4.98479158 2.72183757,5.00713864 C2.72183757,5.02808902 2.71614037,5.05043608 2.70759457,5.05462615 C2.70047307,5.05881623 2.69335157,5.07417983 2.69335157,5.08675005 C2.69335157,5.09932028 2.68338147,5.1286508 2.67198707,5.15099786 C2.66059267,5.17194823 2.65062257,5.20127875 2.65062257,5.21524566 C2.65062257,5.22921258 2.64065247,5.2585431 2.62925806,5.27949347 C2.61786366,5.30184053 2.60789356,5.33117105 2.60789356,5.34513796 C2.60789356,5.35770818 2.60219636,5.36888172 2.59365056,5.36888172 C2.58652906,5.36888172 2.57940756,5.3870387 2.57940756,5.40938577 C2.57940756,5.43173283 2.56943746,5.45687327 2.55804306,5.46665011 C2.54664866,5.47642695 2.53667855,5.49877402 2.53667855,5.516931 C2.53667855,5.53508799 2.53098135,5.5504516 2.52243555,5.5504516 C2.51531405,5.5504516 2.50534395,5.57279866 2.49964675,5.5993358 C2.49537385,5.62587293 2.48540375,5.64821999 2.47828225,5.64821999 C2.47116075,5.64821999 2.46546355,5.6635836 2.46546355,5.68174059 C2.46546355,5.69989758 2.45549345,5.72224464 2.44409905,5.73202148 C2.43270464,5.74179832 2.42273454,5.76414538 2.42273454,5.78230237 C2.42273454,5.80045936 2.41703734,5.81582296 2.40849154,5.81582296 C2.40137004,5.81582296 2.39424854,5.82420311 2.39424854,5.83537664 C2.39424854,5.85493032 2.31448773,6.00856637 2.29312323,6.03231013 C2.28600173,6.03929358 2.28030453,6.05605388 2.28030453,6.0700208 C2.28030453,6.08398771 2.27603163,6.09516124 2.26891013,6.09516124 C2.26321293,6.09516124 2.24327273,6.12728514 2.22475682,6.16499581 C2.20624092,6.20410317 2.18487642,6.23483038 2.17917922,6.23483038 C2.17205772,6.23483038 2.16636052,6.24460722 2.16636052,6.25578075 C2.16636052,6.26695428 2.16066332,6.27673112 2.15354182,6.27673112 C2.14642032,6.27673112 2.13645021,6.29209473 2.13217731,6.31164841 C2.12648011,6.33120209 2.11651001,6.34656569 2.10938851,6.34656569 C2.10084271,6.34656569 2.09514551,6.35634253 2.09514551,6.36751606 C2.09514551,6.37868959 2.08659971,6.38846643 2.07662961,6.38846643 C2.06808381,6.38846643 2.05099221,6.40522673 2.04244641,6.42757379 C2.0225062,6.46807784 1.82167988,6.68177163 1.80031538,6.68177163 C1.79461818,6.68177163 1.77182938,6.69573854 1.75188918,6.71389553 C1.70631157,6.75300289 1.66785547,6.77814333 1.63652086,6.78792017 C1.62227786,6.79350694 1.61088346,6.80188709 1.61088346,6.80887054 C1.61088346,6.815854 1.59521616,6.82144076 1.57670026,6.82144076 C1.55818436,6.82144076 1.53966845,6.8312176 1.53397125,6.84239114 C1.52969835,6.85356467 1.51403105,6.86334151 1.49836375,6.86334151 C1.48269645,6.86334151 1.46702915,6.86892827 1.46275625,6.87591173 C1.45848335,6.88289519 1.42999734,6.89267203 1.40151134,6.89825879 C1.37160104,6.90384556 1.34169073,6.91222571 1.33314493,6.91920916 C1.32602343,6.92479593 1.29326453,6.93317608 1.26192993,6.93736615 C1.23059532,6.94155622 1.15368312,6.95133306 1.09101391,6.9611099 C0.952856796,6.98066358 0.612449061,6.97228344 0.542658354,6.94714299 C0.462897546,6.91781247 0.393106839,6.88568857 0.388833939,6.87451504 C0.385985339,6.86753158 0.376015238,6.86334151 0.366045137,6.86334151 C0.357499336,6.86334151 0.321891832,6.83820106 0.287708629,6.80747385 C0.254949726,6.77674664 0.222190822,6.7516062 0.217917922,6.7516062 C0.205099221,6.7502095 0.129611313,6.64266427 0.129611313,6.62590397 C0.129611313,6.61752382 0.125338413,6.61193706 0.119641212,6.61193706 C0.10254961,6.61193706 0.0583963059,6.52953226 0.0583963059,6.50020174 C0.0583963059,6.48763152 0.049850505,6.46807784 0.0384561039,6.45969769 C-0.0128187013,6.41779695 -0.0128187013,5.99599615 0.0384561039,5.95409541 C0.049850505,5.94571526 0.0583963059,5.92616158 0.0583963059,5.91359136 C0.0583963059,5.88426084 0.10254961,5.80185605 0.119641212,5.80185605 C0.125338413,5.80185605 0.129611313,5.79626928 0.129611313,5.78788913 C0.129611313,5.76973215 0.205099221,5.6635836 0.219342222,5.66218691 C0.225039423,5.66218691 0.257798326,5.63704646 0.289132929,5.60631925 C0.321891832,5.57559204 0.356075036,5.5504516 0.366045137,5.5504516 C0.376015238,5.5504516 0.385985339,5.54626152 0.388833939,5.54067476 C0.393106839,5.52810453 0.468594747,5.49318725 0.542658354,5.4680468 C0.569720057,5.45826996 0.638086464,5.44709643 0.692209869,5.44290636 C0.780516478,5.43452621 0.79618378,5.42893945 0.830366983,5.39122878 C0.851731486,5.36748502 0.870247387,5.33815451 0.870247387,5.32558428 C0.870247387,5.31301406 0.880217488,5.29904715 0.89161189,5.29346038 C0.903006291,5.28927031 0.912976392,5.27251001 0.912976392,5.2571464 C0.912976392,5.2417828 0.920097892,5.22921258 0.927219393,5.22921258 C0.935765194,5.22921258 0.941462395,5.21384897 0.941462395,5.19569198 C0.941462395,5.17753499 0.951432496,5.15518793 0.962826897,5.14541109 C0.974221298,5.13563425 0.984191399,5.12027065 0.984191399,5.11049381 C0.984191399,5.0951302 1.0126774,5.02948571 1.0425877,4.97501474 C1.04970921,4.96104783 1.05540641,4.93870077 1.05540641,4.92333716 C1.05540641,4.90937025 1.06537651,4.88981657 1.07677091,4.88003973 C1.08816531,4.87026289 1.09813541,4.84791583 1.09813541,4.82975884 C1.09813541,4.81299854 1.10525691,4.79344486 1.11237841,4.78925479 C1.12092421,4.78506471 1.12662141,4.76551103 1.12662141,4.74735405 C1.12662141,4.72919706 1.13659151,4.7054533 1.14798592,4.69288308 C1.15938032,4.68170955 1.16935042,4.66075918 1.16935042,4.64679227 C1.16935042,4.61885844 1.21492802,4.49594959 1.23059532,4.48058599 C1.23629252,4.47499922 1.24056542,4.45404885 1.24056542,4.43449517 C1.24056542,4.41494149 1.25053553,4.38561097 1.26192993,4.37164406 C1.27332433,4.35628046 1.28329443,4.32974332 1.28329443,4.31298302 C1.28329443,4.29482603 1.29041593,4.27666905 1.29753743,4.27247897 C1.30608323,4.2682889 1.31178043,4.24314845 1.31178043,4.21800801 C1.31178043,4.19147087 1.32175053,4.16353704 1.33314493,4.1537602 C1.34453933,4.14398336 1.35450944,4.11884292 1.35450944,4.09649586 C1.35450944,4.07554549 1.36020664,4.05459511 1.36732814,4.05040504 C1.37444964,4.04481827 1.38441974,4.01688445 1.39011694,3.98615724 C1.39581414,3.95543003 1.40578424,3.9274962 1.41290574,3.92190943 C1.42002724,3.91771936 1.42572444,3.89816568 1.42572444,3.87721531 C1.42572444,3.85626494 1.43427024,3.82693442 1.44566465,3.81157081 C1.45563475,3.79620721 1.46845345,3.76548 1.47272635,3.74173624 C1.49551515,3.62581086 1.50975815,3.57692666 1.52400115,3.56295974 C1.53254695,3.5545796 1.53966845,3.52943915 1.53966845,3.50848878 C1.53966845,3.48614172 1.54536566,3.45820789 1.55248716,3.44424098 C1.57242736,3.40932369 1.61088346,3.27943139 1.61088346,3.25010087 C1.61088346,3.23473727 1.62085356,3.21099351 1.63224796,3.19562991 C1.64364237,3.18166299 1.65361247,3.14953909 1.65361247,3.12439865 C1.65361247,3.10065489 1.66073397,3.07551445 1.66785547,3.07132437 C1.67640127,3.0671343 1.68209847,3.04199385 1.68209847,3.01685341 C1.68209847,2.99031627 1.69206857,2.96238245 1.70346297,2.95260561 C1.71485737,2.94282877 1.72482747,2.91768832 1.72482747,2.89534126 C1.72482747,2.8729942 1.73052467,2.84366368 1.73764617,2.82969676 C1.75758638,2.79477948 1.79604248,2.66488718 1.79604248,2.63555666 C1.79604248,2.62019305 1.80601258,2.5964493 1.81740698,2.58108569 C1.82880138,2.56711878 1.83877148,2.53359819 1.83877148,2.50985443 C1.83877148,2.48471399 1.84589299,2.46376362 1.85301449,2.46376362 C1.86156029,2.46376362 1.86725749,2.44001986 1.86725749,2.40929265 C1.86725749,2.37856544 1.87580329,2.34783823 1.88862199,2.33806139 C1.90001639,2.32828455 1.90998649,2.30733418 1.90998649,2.29057388 C1.91141079,2.25844998 1.9569884,2.12017753 1.9726557,2.10481393 C1.9769286,2.10062386 1.9812015,2.08246687 1.9812015,2.06570657 C1.9812015,2.04894627 1.9911716,2.02380583 2.002566,2.00844222 C2.0139604,1.99447531 2.0239305,1.96514479 2.0239305,1.94419442 C2.0239305,1.92324405 2.031052,1.90229368 2.0381735,1.8981036 C2.04529501,1.89391353 2.05241651,1.87156647 2.05241651,1.8506161 C2.05241651,1.82966573 2.06238661,1.80033521 2.07378101,1.7849716 C2.08517541,1.77100469 2.09514551,1.74865762 2.09514551,1.7360874 C2.09514551,1.72351718 2.10511561,1.69418666 2.11651001,1.67323629 C2.12790441,1.65088923 2.13787451,1.62155871 2.13787451,1.60898849 C2.13787451,1.59502157 2.14499602,1.58384804 2.15211752,1.58384804 C2.16066332,1.58384804 2.16636052,1.56848443 2.16636052,1.55032745 C2.16636052,1.53077377 2.17633062,1.50703001 2.18772502,1.49445979 C2.19911942,1.48328626 2.20908952,1.45814581 2.20908952,1.43859214 C2.20908952,1.41903846 2.21621102,1.40227816 2.22333252,1.40227816 C2.23187832,1.40227816 2.23757552,1.38691455 2.23757552,1.36875757 C2.23757552,1.34920389 2.24754563,1.32546013 2.25894003,1.31288991 C2.27033443,1.30171638 2.28030453,1.28355939 2.28030453,1.27238586 C2.28030453,1.24724541 2.32445783,1.16065055 2.34154944,1.15366709 C2.34724664,1.15087371 2.35151954,1.13271672 2.35151954,1.11455973 C2.35151954,1.09640274 2.35721674,1.08103914 2.36291394,1.08103914 C2.37573264,1.08103914 2.42273454,0.984667432 2.42273454,0.959526987 C2.42273454,0.951146839 2.43270464,0.937179925 2.44409905,0.927403085 C2.45549345,0.917626245 2.46546355,0.898072566 2.46546355,0.885502343 C2.46546355,0.871535429 2.46973645,0.857568515 2.47685795,0.854775133 C2.48255515,0.853378441 2.51958695,0.800304168 2.55804306,0.738849747 C2.59649916,0.677395326 2.63353096,0.625717744 2.63922816,0.622924361 C2.64492537,0.620130979 2.65062257,0.61175083 2.65062257,0.603370682 C2.65062257,0.594990534 2.66628987,0.574040163 2.68623007,0.555883175 C2.70617027,0.537726186 2.72183757,0.519569198 2.72183757,0.513982433 C2.72183757,0.500015519 2.91696669,0.312858872 2.93263399,0.312858872 C2.9411798,0.312858872 2.9497256,0.308668798 2.9525742,0.303082032 C2.9596957,0.286321736 3.05939671,0.215090475 3.07506401,0.215090475 C3.08360981,0.215090475 3.09215561,0.205313635 3.09785281,0.194140104 C3.10212571,0.182966573 3.11494441,0.173189733 3.12633881,0.173189733 C3.15055192,0.173189733 3.23885853,0.128495608 3.24598003,0.114528694 C3.24882863,0.107545237 3.26876883,0.103355163 3.28870903,0.103355163 C3.31007353,0.103355163 3.33998384,0.0935783233 3.35422684,0.0824047922 C3.36989414,0.0712312611 3.40692594,0.0614544213 3.43541194,0.0614544213 C3.46532225,0.0614544213 3.49238395,0.0558676557 3.49665685,0.0488841988 C3.50092975,0.0432974332 3.55505316,0.0335205934 3.61487376,0.0293305193 C3.67611867,0.0251404451 3.77439538,0.0153636053 3.83421598,0.00698345697 C3.90400669,-0.00139669139 3.9723731,-0.00139669139 4.0264965,0.00698345697 C4.07207411,0.0139669139 4.14898632,0.0237437537 4.19598822,0.0279338279 C4.24299013,0.0335205934 4.28714343,0.0419007418 4.29568923,0.0488841988 C4.30281073,0.0558676557 4.32559953,0.0614544213 4.34553974,0.0614544213 C4.36547994,0.0614544213 4.39539024,0.0712312611 4.41105754,0.0824047922 C4.42530054,0.0935783233 4.45236225,0.103355163 4.47087815,0.103355163 C4.48796975,0.103355163 4.50221275,0.108941929 4.50221275,0.117322077 C4.50221275,0.124305534 4.51788005,0.134082374 4.53782026,0.139669139 C4.55776046,0.143859214 4.57342776,0.153636053 4.57342776,0.16061951 C4.57342776,0.167602967 4.58339786,0.173189733 4.59479226,0.173189733 C4.60618666,0.173189733 4.61615676,0.178776498 4.61615676,0.185759955 C4.61615676,0.192743412 4.63039976,0.203916943 4.64606707,0.208107018 C4.66315867,0.213693783 4.69734187,0.238834228 4.72297927,0.265371365 C4.74861668,0.291908501 4.77710268,0.312858872 4.78564848,0.312858872 C4.79419428,0.312858872 4.80131578,0.322635712 4.80131578,0.333809243 C4.80131578,0.344982774 4.81128588,0.354759614 4.82268028,0.354759614 C4.83407469,0.354759614 4.84404479,0.361743071 4.84404479,0.370123219 C4.84404479,0.378503368 4.86683359,0.405040504 4.89389529,0.430180949 C4.92095699,0.456718086 4.9437458,0.483255222 4.9437458,0.493032062 C4.9437458,0.50141221 4.9480187,0.508395667 4.9551402,0.508395667 C4.9608374,0.508395667 4.9807776,0.533536112 5.0007178,0.564263323 C5.0192337,0.594990534 5.04059821,0.620130979 5.04629541,0.620130979 C5.05199261,0.620130979 5.05768981,0.632701201 5.05768981,0.646668115 C5.05768981,0.66203172 5.06196271,0.675998634 5.06908421,0.678792017 C5.08475151,0.685775474 5.20724132,0.917626245 5.26278903,1.04612185 C5.27560773,1.07684906 5.29269933,1.11316304 5.29982083,1.12573326 C5.30836663,1.13970018 5.31406383,1.16204724 5.31406383,1.17741084 C5.31406383,1.19137776 5.32403393,1.21093144 5.33542834,1.22070828 C5.34682274,1.23048512 5.35679284,1.25283218 5.35679284,1.26959248 C5.35679284,1.28774946 5.36676294,1.31987337 5.37815734,1.34082374 C5.38955174,1.3631708 5.39952184,1.39250132 5.39952184,1.40507154 C5.39952184,1.41764176 5.40664334,1.43300537 5.41376484,1.43719544 C5.42231064,1.44138552 5.42800784,1.46373258 5.42800784,1.48607964 C5.42800784,1.5084267 5.43797795,1.53496384 5.44937235,1.54753406 C5.46076675,1.55870759 5.47073685,1.5908315 5.47073685,1.61736863 C5.47073685,1.64530246 5.47785835,1.66764952 5.48497985,1.66764952 C5.49352565,1.66764952 5.49922285,1.68859989 5.49922285,1.71374034 C5.49922285,1.73888078 5.50919295,1.77240138 5.52058735,1.78776498 C5.53198176,1.8017319 5.54195186,1.83804587 5.54195186,1.86737639 C5.54195186,1.89531022 5.54764906,1.91905397 5.55477056,1.91905397 C5.56189206,1.91905397 5.57186216,1.94978119 5.57755936,1.98888854 C5.58325656,2.02659921 5.59322666,2.0615165 5.60034816,2.06710326 C5.60746966,2.07129334 5.61316686,2.09643378 5.61316686,2.12297092 C5.61316686,2.15090475 5.62028836,2.18582203 5.63025847,2.20258233 C5.64592577,2.23191285 5.65732017,2.28219374 5.68153327,2.44281325 C5.68865477,2.48192061 5.70004917,2.52661473 5.71001927,2.54337503 C5.71998937,2.56013532 5.72711087,2.59924268 5.72711087,2.62996989 C5.72711087,2.6606971 5.73280808,2.68863093 5.73992958,2.69282101 C5.74705108,2.69701108 5.75702118,2.73472175 5.76271838,2.77801918 C5.76699128,2.81991992 5.77838568,2.85763059 5.78550718,2.86182066 C5.79262868,2.86740743 5.79832588,2.89813464 5.79832588,2.93165523 C5.79832588,2.96517583 5.80544738,3.00986995 5.81541748,3.03221701 C5.83108479,3.06992768 5.84105489,3.1313821 5.86526799,3.32971228 C5.87238949,3.37999317 5.88235959,3.42887737 5.88948109,3.4400509 C5.89660259,3.44982774 5.90799699,3.49731525 5.91369419,3.54480276 C5.92081569,3.59089357 5.936483,3.6830752 5.9478774,3.7487197 C5.9606961,3.8143642 5.9763634,3.91492598 5.9820606,3.97219032 C5.9877578,4.03085136 5.9977279,4.08671902 6.0062737,4.09789255 C6.0133952,4.10906608 6.0233653,4.16353704 6.02906251,4.21661132 C6.05469991,4.45265216 6.06467001,4.52667681 6.07606441,4.54483379 C6.08318591,4.55600732 6.09315601,4.6090816 6.09885321,4.66215587 C6.12591492,4.89819672 6.14158222,5.00015519 6.15440092,5.0308824 C6.16294672,5.04903939 6.16864392,5.09652689 6.16864392,5.13842764 C6.16864392,5.17893169 6.17576542,5.23060927 6.18431122,5.25295633 C6.19285702,5.2739067 6.20567572,5.34932804 6.21422152,5.41776591 C6.22134302,5.48760048 6.23273743,5.59095565 6.23843463,5.64821999 C6.24555613,5.70548434 6.25695053,5.77112884 6.26692063,5.79207921 C6.27546643,5.81442627 6.28258793,5.87169062 6.28258793,5.92057482 C6.28258793,5.96945901 6.28828513,6.01275645 6.29540663,6.01694652 C6.30252813,6.0211366 6.31249823,6.08119433 6.31819543,6.1510289 C6.32389263,6.22086347 6.33386274,6.2809212 6.34098424,6.28511127 C6.34810574,6.28930134 6.35380294,6.33259878 6.35380294,6.38148298 C6.35380294,6.43036717 6.36092444,6.48763152 6.36947024,6.50997858 C6.38513754,6.54629256 6.39653194,6.62730066 6.42359364,6.89127533 C6.42929085,6.94993637 6.43926095,7.00580403 6.44495815,7.01558087 C6.45207965,7.02535771 6.46204975,7.08541544 6.46917125,7.14826655 C6.49053575,7.35358019 6.51047595,7.48486918 6.52471896,7.50861293 C6.53326476,7.52257984 6.53896196,7.56727397 6.53896196,7.60917471 C6.53896196,7.65107545 6.54608346,7.70275303 6.55462926,7.7251001 C6.57029656,7.76141407 6.58169096,7.84521556 6.60875266,8.08544648 C6.61444986,8.13991744 6.62726857,8.20137186 6.63581437,8.22232223 C6.64578447,8.24466929 6.65290597,8.29914026 6.65290597,8.34383438 C6.65290597,8.38852851 6.65860317,8.42903256 6.66572467,8.43461932 C6.67284617,8.4388094 6.68424057,8.48210683 6.68851347,8.53238772 C6.69421067,8.58266861 6.70418077,8.62736274 6.71130227,8.63155281 C6.71842377,8.63574288 6.72412098,8.67066017 6.72412098,8.70837084 C6.72412098,8.7474782 6.73124248,8.79217232 6.74121258,8.80893262 C6.74975838,8.82569291 6.76257708,8.88016388 6.76827428,8.93044477 C6.79533598,9.14134517 6.80673038,9.20698966 6.81812478,9.22514665 C6.82524629,9.23632018 6.83521639,9.27682423 6.84091359,9.3145349 C6.85658089,9.42487352 6.88649119,9.55616251 6.89930989,9.56733604 C6.90500709,9.57292281 6.90927999,9.60365002 6.90927999,9.63437723 C6.90927999,9.66650113 6.91782579,9.7042118 6.9292202,9.71957541 C6.9391903,9.73493901 6.952009,9.77264968 6.9562819,9.80337689 C6.9776464,9.95142618 6.9904651,10.0072938 7.0061324,10.0226574 C7.0161025,10.0324343 7.02322401,10.0603681 7.02322401,10.0841119 C7.02322401,10.1092523 7.02892121,10.1329961 7.03604271,10.1385828 C7.04458851,10.1427729 7.05455861,10.1748968 7.06025581,10.2084174 C7.06452871,10.2433347 7.07449881,10.2754586 7.08162031,10.2796487 C7.08874181,10.2838387 7.09443901,10.3047891 7.09443901,10.3257395 C7.09443901,10.3480865 7.10440911,10.373227 7.11580351,10.3830038 C7.12719792,10.3927807 7.13716802,10.4179211 7.13716802,10.4388715 C7.13716802,10.4584252 7.14144092,10.4793755 7.14571382,10.4849623 C7.15853252,10.4975325 7.20838302,10.4486483 7.20838302,10.4235079 C7.20838302,10.4025575 7.23402043,10.3411031 7.26677933,10.282442 C7.27390083,10.2684751 7.27959803,10.2433347 7.27959803,10.2265744 C7.27959803,10.2084174 7.28956813,10.1818803 7.30096253,10.1679133 C7.31235693,10.1525497 7.32232704,10.1232192 7.32232704,10.1008722 C7.32232704,10.0799218 7.32802424,10.0617648 7.33514574,10.0617648 C7.34226724,10.0617648 7.35223734,10.033831 7.35651024,9.99891368 C7.36220744,9.96539309 7.37217754,9.93326919 7.38072334,9.92907911 C7.38784484,9.92349235 7.39354204,9.90254198 7.39354204,9.87879822 C7.39354204,9.85645116 7.39923924,9.82712064 7.40636074,9.81315373 C7.42772525,9.77544306 7.46475705,9.64834414 7.46475705,9.61203017 C7.46618135,9.59387318 7.47472715,9.56454266 7.48612155,9.54498898 C7.49751595,9.5254353 7.50606175,9.48632794 7.50748605,9.45839412 C7.50748605,9.4290636 7.51318325,9.40531984 7.52030476,9.40531984 C7.52600196,9.40531984 7.54024496,9.36621248 7.54879076,9.31872498 C7.55876086,9.26984078 7.57157956,9.20279959 7.57870106,9.16788231 C7.58582256,9.13296502 7.59864126,9.06732053 7.60861136,9.02122971 C7.61715716,8.97513889 7.62997587,8.93184146 7.63709737,8.924858 C7.64421887,8.91647785 7.64991607,8.88575064 7.64991607,8.85502343 C7.64991607,8.82289953 7.65988617,8.7796021 7.67128057,8.75725504 C7.68267497,8.73630466 7.69264507,8.69580061 7.69264507,8.67066017 C7.69264507,8.64412303 7.69834227,8.61199913 7.70546377,8.59803222 C7.72255538,8.5687017 7.75104138,8.42065241 7.75958718,8.32009063 C7.76386008,8.27958658 7.77098158,8.24606599 7.77810308,8.24606599 C7.78380028,8.24606599 7.79377038,8.20556194 7.79946758,8.15528105 C7.80374048,8.10500016 7.81513488,8.0644961 7.82225639,8.0644961 C7.82937789,8.0644961 7.83507509,8.0323722 7.83507509,7.99326484 C7.83507509,7.95415748 7.84219659,7.90946336 7.85216669,7.89270306 C7.86213679,7.87594277 7.87353119,7.83124864 7.87922839,7.79214128 C7.88492559,7.75443062 7.90059289,7.67481921 7.91341159,7.61755486 C7.9262303,7.56029051 7.9418976,7.47788572 7.9490191,7.43598498 C7.9561406,7.39408424 7.9718079,7.31586952 7.9846266,7.26139855 C7.9974453,7.20832428 8.0131126,7.13290295 8.01880981,7.09379559 C8.02450701,7.05608492 8.03590141,7.0099941 8.04587151,6.99323381 C8.05584161,6.97647351 8.06296311,6.93596946 8.06296311,6.90244887 C8.06296311,6.86892827 8.06866031,6.83540768 8.07578181,6.82842422 C8.08717621,6.815854 8.09572201,6.77814333 8.13417812,6.54908594 C8.14129962,6.51137528 8.15696692,6.43595394 8.16978562,6.38148298 C8.18260432,6.3284087 8.19827162,6.25578075 8.20396882,6.22086347 C8.20966602,6.18594618 8.21821183,6.1496322 8.22533333,6.13985536 C8.23103053,6.13007853 8.24242493,6.08817778 8.24812213,6.04907042 C8.25524363,6.00856637 8.27091093,5.93593842 8.28372963,5.88565753 C8.29512403,5.83537664 8.30936703,5.76973215 8.31363993,5.73900493 C8.31791284,5.70827772 8.32645864,5.67056706 8.33358014,5.65520345 C8.34924744,5.62028617 8.37630914,5.50436078 8.38627924,5.43173283 C8.39055214,5.40100562 8.40337084,5.36329495 8.41334094,5.34793134 C8.42473535,5.33256774 8.43328115,5.30044384 8.43328115,5.27530339 C8.43328115,5.25155964 8.43897835,5.22781589 8.44609985,5.22362581 C8.45322135,5.21943574 8.46319145,5.18731183 8.46746435,5.15239455 C8.47316155,5.11887396 8.48313165,5.08675005 8.49167745,5.08255998 C8.49879895,5.07697321 8.50449615,5.046246 8.50449615,5.01272541 C8.50449615,4.97920482 8.51019335,4.94847761 8.51731486,4.94428753 C8.52443636,4.93870077 8.53440646,4.91076694 8.54010366,4.88003973 C8.54580086,4.84931252 8.55577096,4.82137869 8.56289246,4.81579192 C8.57001396,4.81160185 8.57571116,4.7878581 8.57571116,4.76271765 C8.57571116,4.73618051 8.58568126,4.70824669 8.59707566,4.69846985 C8.60847006,4.68869301 8.61844017,4.66774264 8.61844017,4.65098234 C8.61844017,4.62025513 8.66259347,4.49734629 8.67968507,4.48058599 C8.68538227,4.47499922 8.68965517,4.45265216 8.68965517,4.43170179 C8.68965517,4.41075142 8.69535237,4.38980105 8.70247387,4.38561097 C8.70959537,4.3814209 8.71956548,4.35488376 8.72383838,4.32834663 C8.72953558,4.30180949 8.73950568,4.27946243 8.74662718,4.27946243 C8.75517298,4.27946243 8.76087018,4.26689221 8.76087018,4.25013191 C8.76087018,4.2347683 8.76941598,4.20404109 8.78081038,4.18448741 C8.79220478,4.16353704 8.81356928,4.12023961 8.82638799,4.08811571 C8.84063099,4.05459511 8.85629829,4.02805798 8.86341979,4.02805798 C8.86911699,4.02805798 8.87481419,4.01269437 8.87481419,3.99314069 C8.87481419,3.97358701 8.88051139,3.95822341 8.88763289,3.95822341 C8.89475439,3.95822341 8.90472449,3.94006642 8.91042169,3.91632267 C8.9161189,3.8939756 8.926089,3.87442192 8.9332105,3.87442192 C8.940332,3.87442192 8.9460292,3.8618517 8.9460292,3.8464881 C8.9460292,3.83252118 8.954575,3.8143642 8.9645451,3.80877743 C8.9844853,3.79620721 9.01439561,3.75151308 9.02579001,3.71799249 C9.03148721,3.70402557 9.04003301,3.69285204 9.04715451,3.69285204 C9.05427601,3.69285204 9.05997321,3.6844719 9.05997321,3.67469506 C9.05997321,3.66491822 9.07564051,3.64117446 9.09558071,3.62022409 C9.11552092,3.59927372 9.13118822,3.57552997 9.13118822,3.56714982 C9.13118822,3.56016636 9.14115832,3.5531829 9.15255272,3.5531829 C9.16394712,3.5531829 9.17391722,3.54759614 9.17391722,3.53921599 C9.17391722,3.53223253 9.19955462,3.50010863 9.23088923,3.46938142 C9.26222383,3.43865421 9.29498273,3.41351377 9.30210423,3.41351377 C9.31065003,3.41351377 9.31634724,3.40373693 9.31634724,3.39256339 C9.31634724,3.38138986 9.32346874,3.37161302 9.33059024,3.37161302 C9.33913604,3.37161302 9.36334914,3.35624942 9.38471364,3.33669574 C9.40607814,3.31714206 9.43171555,3.30177845 9.44168565,3.30177845 C9.45165575,3.30177845 9.46305015,3.29200161 9.46732305,3.28082808 C9.47302025,3.26965455 9.49153615,3.25987771 9.51005205,3.25987771 C9.52856796,3.25987771 9.54423526,3.25429095 9.54423526,3.2459108 C9.54423526,3.23892734 9.55705396,3.23194388 9.57414556,3.23194388 C9.58981286,3.23194388 9.61260167,3.22216704 9.62399607,3.21099351 C9.63681477,3.19981998 9.66530077,3.19004314 9.68808957,3.19004314 C9.71087837,3.19004314 9.72939428,3.18445638 9.72939428,3.17886961 C9.72939428,3.17188615 9.76642608,3.15791924 9.81200369,3.1481424 C9.9117047,3.12579534 10.6195819,3.11322512 10.6623109,3.1327788 C10.6779782,3.13976225 10.7207072,3.14953909 10.757739,3.15512586 C10.7947708,3.15931593 10.828954,3.16909277 10.8332269,3.17747292 C10.8389241,3.18445638 10.8602886,3.19004314 10.8830774,3.19004314 C10.9058662,3.19004314 10.9329279,3.19981998 10.9457466,3.21099351 C10.957141,3.22216704 10.9770812,3.23194388 10.9884756,3.23194388 C11.0098401,3.23194388 11.0383261,3.24451411 11.0967224,3.27663801 C11.1081168,3.28222477 11.128057,3.29200161 11.1394514,3.29758838 C11.1508458,3.30317515 11.1636645,3.3101586 11.1679374,3.31434868 C11.1807561,3.32831559 11.2306066,3.35764611 11.2576683,3.36602626 C11.270487,3.37161302 11.2818814,3.38418325 11.2818814,3.39396009 C11.2818814,3.40513362 11.2904272,3.41351377 11.3003973,3.41351377 C11.3174889,3.41351377 11.5809845,3.66910829 11.5809845,3.68586859 C11.5809845,3.69005866 11.5966518,3.71100903 11.616592,3.7319594 C11.6365322,3.75290977 11.6521995,3.77665353 11.6521995,3.78643037 C11.6521995,3.79620721 11.6607453,3.80458736 11.6707154,3.80458736 C11.687807,3.80458736 11.7234145,3.86604178 11.7234145,3.89816568 C11.7234145,3.90794252 11.7333846,3.91632267 11.744779,3.91632267 C11.7561734,3.91632267 11.7661435,3.92609951 11.7661435,3.93866973 C11.7661435,3.94984326 11.7818108,3.98057047 11.801751,4.00571092 C11.8216912,4.03085136 11.8373585,4.06157857 11.8373585,4.0727521 C11.8373585,4.08532233 11.8473286,4.09789255 11.858723,4.10347931 C11.8701174,4.10766939 11.8800875,4.12442968 11.8800875,4.13979329 C11.8800875,4.15515689 11.887209,4.16772712 11.8943305,4.16772712 C11.9028763,4.16772712 11.9085735,4.18309072 11.9085735,4.2026444 C11.9085735,4.22219808 11.9185436,4.24175176 11.929938,4.24594184 C11.9413324,4.2515286 11.9513025,4.26968559 11.9513025,4.28784258 C11.9513025,4.30599957 11.9569997,4.32136317 11.9626969,4.32136317 C11.9698184,4.32136317 11.9854857,4.34790031 11.9997287,4.3814209 C12.0125474,4.4135448 12.0324876,4.45963562 12.0424577,4.48198268 C12.0737923,4.54762718 12.1022783,4.61746175 12.1222185,4.67053602 C12.1478559,4.74037059 12.1777662,4.81299854 12.1934335,4.84093237 C12.2019793,4.85489928 12.2076765,4.87724635 12.2076765,4.89260995 C12.2076765,4.90657686 12.2176466,4.92613054 12.229041,4.93590738 C12.2404354,4.94568422 12.2504055,4.96663459 12.2504055,4.98339489 C12.2504055,5.00015519 12.2561027,5.01970887 12.2632242,5.02808902 C12.2689214,5.03507247 12.286013,5.07557652 12.300256,5.11747726 C12.314499,5.15937801 12.3344392,5.21384897 12.3458336,5.23898942 C12.3558037,5.26273317 12.3643495,5.29206369 12.3643495,5.30463391 C12.3643495,5.31720413 12.371471,5.32698097 12.3785925,5.32698097 C12.3871383,5.32698097 12.3928355,5.34374127 12.3928355,5.36608833 C12.3928355,5.3870387 12.4028056,5.41636922 12.4142,5.43033614 C12.4255944,5.44569974 12.4355645,5.47084019 12.4355645,5.48760048 C12.4355645,5.50436078 12.4412617,5.52251777 12.4469589,5.53089792 C12.4526562,5.53788137 12.4697478,5.58117881 12.4839908,5.62726962 C12.4982338,5.67336044 12.5139011,5.72084795 12.5210226,5.73202148 C12.5267198,5.7445917 12.5366899,5.77392222 12.5423871,5.79906266 C12.54666,5.82420311 12.5580544,5.84375679 12.5651759,5.84375679 C12.5722974,5.84375679 12.5779946,5.86470716 12.5779946,5.8912443 C12.5779946,5.91638474 12.5879647,5.94571526 12.5993591,5.9554921 C12.6107535,5.96526894 12.6207236,5.99040939 12.6207236,6.01135976 C12.6207236,6.03091344 12.6249965,6.0532605 12.6292694,6.05745057 C12.6449367,6.07281418 12.6905143,6.21248332 12.6919386,6.24600391 C12.6919386,6.26276421 12.6976358,6.27673112 12.7061816,6.27673112 C12.7133031,6.27673112 12.7232732,6.29907818 12.7289704,6.32561532 C12.7332433,6.35215246 12.7432134,6.37868959 12.7503349,6.38287967 C12.7574564,6.38706974 12.7631536,6.40383004 12.7631536,6.42198703 C12.7631536,6.43874732 12.7731237,6.46528446 12.7845181,6.48064806 C12.7959125,6.49461498 12.8058826,6.52115212 12.8058826,6.53791241 C12.8058826,6.55467271 12.8130041,6.5728297 12.8201256,6.57701977 C12.8286714,6.58120985 12.8343686,6.59657345 12.8343686,6.60914367 C12.8343686,6.6217139 12.8443387,6.65104441 12.8557331,6.67339148 C12.8671275,6.69434185 12.8770976,6.72087898 12.8770976,6.73065582 C12.8770976,6.74601943 12.9055836,6.81166393 12.9354939,6.86613489 C12.9426154,6.8801018 12.9483126,6.90244887 12.9483126,6.91781247 C12.9483126,6.93177938 12.9582827,6.95133306 12.9696771,6.9611099 C12.9810715,6.97088674 12.9910416,6.99323381 12.9910416,7.01139079 C12.9910416,7.02954778 12.9967388,7.04491139 13.0052846,7.04491139 C13.0124061,7.04491139 13.0223762,7.06725845 13.0280734,7.09379559 C13.0323463,7.12033272 13.0423164,7.14267979 13.0494379,7.14267979 C13.0565594,7.14267979 13.0622566,7.16083677 13.0622566,7.18318384 C13.0622566,7.2055309 13.0665295,7.22648127 13.0722267,7.22927465 C13.087894,7.23486142 13.1334716,7.32285297 13.1334716,7.34520004 C13.1334716,7.35497688 13.1434417,7.37034048 13.1548361,7.38011732 C13.1662305,7.38989416 13.1762006,7.40944784 13.1762006,7.42341476 C13.1762006,7.43877836 13.1818978,7.44995189 13.1904436,7.44995189 C13.1975651,7.44995189 13.2075352,7.4653155 13.2132324,7.48486918 C13.2175053,7.50442286 13.2274754,7.51978646 13.2345969,7.51978646 C13.2417184,7.51978646 13.2474156,7.53235668 13.2474156,7.54772029 C13.2474156,7.56448059 13.2630829,7.59381111 13.2830231,7.61476148 C13.3029633,7.63571185 13.3186306,7.65805891 13.3186306,7.66643906 C13.3186306,7.7083398 13.4311503,7.76281076 13.4952439,7.75163723 C13.5237299,7.74744716 13.5693075,7.73906701 13.5963692,7.73487694 C13.6234309,7.73068686 13.6504926,7.72091002 13.6547655,7.71392657 C13.6590384,7.70694311 13.6747057,7.70135634 13.690373,7.70135634 C13.7060403,7.70135634 13.7217076,7.6915795 13.7259805,7.68040597 C13.7316777,7.66923244 13.7430721,7.6594556 13.7516179,7.6594556 C13.7744067,7.6594556 13.9268068,7.51559639 13.9880517,7.43598498 C14.0151134,7.40106769 14.0521452,7.35916695 14.0692368,7.34240665 C14.0877527,7.32564636 14.1019957,7.30609268 14.1019957,7.30050591 C14.1019957,7.29352246 14.1162387,7.27257208 14.1347546,7.2544151 C14.1518462,7.23486142 14.1789079,7.19715075 14.1931509,7.17061361 C14.2088182,7.14407648 14.2358799,7.10636581 14.2543958,7.08681213 C14.2729117,7.06725845 14.2871547,7.04630808 14.2871547,7.03792793 C14.2871547,7.02954778 14.302822,7.00720072 14.3227622,6.98625035 C14.3427024,6.96529998 14.3583697,6.94434961 14.3583697,6.93876284 C14.3583697,6.93317608 14.3726127,6.90943232 14.3911286,6.88568857 C14.4096445,6.86194482 14.4281604,6.8312176 14.4338576,6.81864738 C14.4381305,6.80468047 14.449525,6.79350694 14.4580708,6.79350694 C14.4651923,6.79350694 14.4723138,6.78512679 14.4723138,6.77395326 C14.4723138,6.76277973 14.4765867,6.7516062 14.4837082,6.74881281 C14.4894054,6.74741612 14.5235886,6.7013253 14.5606204,6.64685434 C14.5976522,6.59378007 14.6403812,6.53511903 14.6560485,6.51835873 C14.6731401,6.50159844 14.6859588,6.48204476 14.6859588,6.47366461 C14.6859588,6.46668115 14.6959289,6.458301 14.7073233,6.45271424 C14.7187177,6.44852416 14.7286878,6.43735063 14.7286878,6.42757379 C14.7286878,6.41640026 14.7400822,6.39824327 14.7543252,6.38567305 C14.7956299,6.34796238 14.8369346,6.30047488 14.8654206,6.25578075 C14.8996038,6.20130979 14.9223926,6.17896272 14.9409085,6.17896272 C14.9494543,6.17896272 14.9565758,6.16918588 14.9565758,6.15801235 C14.9565758,6.14683882 14.9636973,6.13706198 14.9708188,6.13706198 C14.9793646,6.13706198 14.9850618,6.12728514 14.9850618,6.11611161 C14.9850618,6.10493808 14.990759,6.09516124 14.9978805,6.09516124 C15.005002,6.09516124 15.0577011,6.04907042 15.1160974,5.99320277 C15.1730694,5.93733511 15.2485573,5.87029393 15.2841648,5.84375679 C15.3197723,5.81721965 15.3496826,5.79068252 15.3525312,5.78509575 C15.3553798,5.77811229 15.3667742,5.77392222 15.3781686,5.77392222 C15.389563,5.77392222 15.3981088,5.76833545 15.3981088,5.75995531 C15.3981088,5.75297185 15.4137761,5.74319501 15.4337163,5.73760824 C15.4536566,5.73341817 15.4693239,5.72503802 15.4693239,5.71945126 C15.4693239,5.71386449 15.4949613,5.69710419 15.5262959,5.68174059 C15.5576305,5.66777367 15.5832679,5.65101338 15.5832679,5.64542661 C15.5832679,5.64123654 15.6032081,5.63285639 15.6259969,5.62726962 C15.65021,5.62168286 15.6687259,5.61190602 15.6687259,5.60492256 C15.6687259,5.5979391 15.6843932,5.59235234 15.7029091,5.59235234 C15.721425,5.59235234 15.7442138,5.5825755 15.7541839,5.57140197 C15.764154,5.56022844 15.7869428,5.5504516 15.8054587,5.5504516 C15.8225503,5.5504516 15.8410662,5.54486483 15.8453391,5.53788137 C15.8510363,5.53089792 15.8809466,5.52112108 15.9151298,5.51553431 C15.9478887,5.50994755 15.9820719,5.50017071 15.9891934,5.49458394 C15.9977392,5.48899718 16.0319224,5.48061703 16.0675299,5.47642695 C16.1031374,5.47223688 16.1928683,5.46106335 16.2669319,5.4526832 C16.4278778,5.43312952 16.7668613,5.44150967 16.836652,5.46665011 C16.9164128,5.49598063 16.9862035,5.52810453 16.9904764,5.54067476 C16.993325,5.54626152 17.0032951,5.5504516 17.0132652,5.5504516 C17.021811,5.5504516 17.0574185,5.57559204 17.0916017,5.60631925 C17.1243606,5.63704646 17.1571195,5.66218691 17.1613924,5.66218691 C17.1742111,5.6635836 17.249699,5.77112884 17.249699,5.78788913 C17.249699,5.79626928 17.2539719,5.80185605 17.2610934,5.80185605 C17.2767607,5.80185605 17.320914,5.88426084 17.320914,5.91359136 C17.320914,5.92616158 17.3294598,5.94571526 17.3408542,5.95409541 C17.363643,5.97364909 17.3793103,6.07560756 17.3793103,6.20689655 C17.3793103,6.33818554 17.363643,6.44014401 17.3408542,6.45969769 C17.3294598,6.46807784 17.320914,6.48763152 17.320914,6.50020174 C17.320914,6.52953226 17.2767607,6.61193706 17.2610934,6.61193706 C17.2539719,6.61193706 17.249699,6.61752382 17.249699,6.62590397 C17.249699,6.64406096 17.1742111,6.7502095 17.1599681,6.7516062 C17.1542709,6.7516062 17.121512,6.77674664 17.0901774,6.80747385 C17.0574185,6.83820106 17.0232353,6.86334151 17.0132652,6.86334151 C17.0032951,6.86334151 16.993325,6.86753158 16.9904764,6.87451504 C16.9847792,6.88708526 16.9050184,6.92339924 16.8295305,6.94714299 C16.7981959,6.95691983 16.7113136,6.97088674 16.63725,6.97647351 C16.4421209,6.99323381 16.3837245,7.00301065 16.3652086,7.02535771 C16.3566628,7.03653124 16.3395712,7.04491139 16.3281768,7.04491139 C16.3167824,7.04491139 16.2939936,7.06027499 16.2754777,7.07982867 C16.2569618,7.09938235 16.2370216,7.11474596 16.2299001,7.11474596 C16.2113842,7.11614265 16.0675299,7.26139855 16.0675299,7.28095223 C16.0675299,7.28933238 16.0589841,7.29631584 16.049014,7.29631584 C16.0390439,7.29631584 16.0191037,7.31586952 16.006285,7.33821658 C15.992042,7.36196033 15.9749504,7.38011732 15.9664046,7.38011732 C15.9592831,7.38011732 15.9535859,7.38989416 15.9535859,7.40106769 C15.9535859,7.41363792 15.9436158,7.42620814 15.9322214,7.43039821 C15.920827,7.43598498 15.9108569,7.44715851 15.9108569,7.45833204 C15.9108569,7.46950557 15.9051597,7.47788572 15.8966139,7.47788572 C15.8894924,7.47788572 15.8823709,7.48766256 15.8823709,7.49883609 C15.8823709,7.51000962 15.8766737,7.51978646 15.8695522,7.51978646 C15.8624307,7.51978646 15.8510363,7.53375338 15.8453391,7.55191036 C15.8396419,7.56867066 15.821126,7.59660449 15.8026101,7.61336478 C15.7840942,7.63012508 15.7684269,7.64967876 15.7684269,7.65666222 C15.7684269,7.66364567 15.7527596,7.68738943 15.7328194,7.70973649 C15.7128792,7.73208355 15.6972119,7.757224 15.6972119,7.76420746 C15.6972119,7.7725876 15.6815446,7.79493467 15.6630287,7.81448835 C15.6445128,7.83404202 15.6245726,7.86337254 15.6202997,7.88013284 C15.6146025,7.89689314 15.6032081,7.91086005 15.5960866,7.91086005 C15.5889651,7.91086005 15.5832679,7.92063689 15.5832679,7.93181042 C15.5832679,7.94298395 15.5761464,7.95276079 15.5690249,7.95276079 C15.5604791,7.95276079 15.5433875,7.97790124 15.5305688,8.00862845 C15.5163258,8.03935566 15.4978099,8.0644961 15.4878398,8.0644961 C15.4778697,8.0644961 15.4693239,8.07147956 15.4693239,8.07985971 C15.4693239,8.08823986 15.4607781,8.10360346 15.4522323,8.1133803 C15.4095032,8.15947112 15.3981088,8.17623142 15.3981088,8.18880164 C15.3981088,8.1957851 15.3881387,8.20416524 15.3767443,8.20975201 C15.3653499,8.21394208 15.3553798,8.22651231 15.3553798,8.23908253 C15.3553798,8.25025606 15.3496826,8.2600329 15.3411368,8.2600329 C15.3340153,8.2600329 15.3268938,8.26980974 15.3268938,8.28098327 C15.3268938,8.29355349 15.3169237,8.30612372 15.3055293,8.31031379 C15.2941349,8.31590056 15.2841648,8.3256774 15.2841648,8.33266085 C15.2841648,8.341041 15.2684975,8.36199137 15.2485573,8.38014836 C15.2286171,8.39830535 15.2129498,8.41925572 15.2129498,8.42763587 C15.2129498,8.43601602 15.2029797,8.44579286 15.1915853,8.44998293 C15.1801909,8.45556969 15.1702208,8.46394984 15.1702208,8.4709333 C15.1702208,8.47791676 15.1217946,8.53099103 15.0633983,8.58965207 C15.005002,8.64831311 14.9565758,8.698594 14.9565758,8.69999069 C14.9565758,8.70837084 14.8696935,8.79077563 14.8611477,8.79077563 C14.8568748,8.79077563 14.8226916,8.82150284 14.7842355,8.85921351 C14.7457794,8.89832087 14.7016261,8.93323815 14.6859588,8.93742823 C14.6702915,8.94301499 14.6574728,8.95279183 14.6574728,8.95977529 C14.6574728,8.96675874 14.6475027,8.97234551 14.6361083,8.97234551 C14.6247139,8.97234551 14.6147438,8.97793228 14.6147438,8.98491573 C14.6147438,8.99189919 14.6033494,9.00027934 14.5905307,9.0058661 C14.5606204,9.01424625 14.5178914,9.04078339 14.4894054,9.06732053 C14.4794353,9.07570067 14.4609194,9.08408082 14.449525,9.08408082 C14.4381305,9.08408082 14.4295847,9.09106428 14.4295847,9.09804774 C14.4295847,9.10642788 14.416766,9.11201465 14.4010987,9.11201465 C14.3854314,9.11201465 14.3683398,9.12179149 14.3640669,9.13296502 C14.3583697,9.14413855 14.3398538,9.15391539 14.3227622,9.15391539 C14.3042463,9.15391539 14.2843061,9.16089885 14.2800332,9.16788231 C14.2757603,9.17626245 14.2529715,9.18184922 14.231607,9.18184922 C14.2088182,9.18184922 14.1831808,9.19022937 14.174635,9.2014029 C14.1646649,9.21257643 14.1347546,9.22374996 14.1048443,9.22794004 C14.0763583,9.23213011 14.0079919,9.24609702 13.9524442,9.26006394 C13.8726834,9.27961762 13.7744067,9.28520438 13.4553635,9.28939446 C13.2274754,9.29218784 13.0522865,9.28939446 13.0423164,9.28101431 C13.0337706,9.27403085 12.9924659,9.26425401 12.9525855,9.25866725 C12.9112808,9.25308048 12.874249,9.24330364 12.8685518,9.23632018 C12.8642789,9.22933673 12.845763,9.22374996 12.8272471,9.22374996 C12.8087312,9.22374996 12.7759723,9.21536981 12.7531835,9.20419628 C12.731819,9.19302275 12.6947872,9.17626245 12.6705741,9.16788231 C12.6477853,9.15810547 12.617875,9.14553524 12.6064806,9.13855179 C12.5950862,9.13156833 12.575146,9.12179149 12.5637516,9.11620472 C12.5523572,9.11061796 12.5395385,9.1036345 12.5352656,9.09944443 C12.5309927,9.09525435 12.489688,9.06592383 12.442686,9.03519662 C12.3501065,8.9737422 12.2133737,8.84524659 12.1364615,8.74887489 C12.1093998,8.7139576 12.0837624,8.68323039 12.0794895,8.67904032 C12.0695194,8.66926348 12.0381848,8.62037928 12.0267904,8.59523883 C12.0210932,8.5840653 12.0025773,8.55892486 11.9840614,8.53937118 C11.9655455,8.5198175 11.9513025,8.49328036 11.9513025,8.48071014 C11.9513025,8.46674323 11.9413324,8.45556969 11.929938,8.45556969 C11.9185436,8.45556969 11.9085735,8.44439616 11.9071492,8.43182594 C11.9071492,8.41785903 11.8943305,8.38852851 11.8800875,8.36478475 C11.8558744,8.32707409 11.8174183,8.2600329 11.7818108,8.1943884 C11.7533248,8.13991744 11.6963528,8.01421521 11.687807,7.9848847 C11.6821098,7.96672771 11.6721397,7.95276079 11.6650182,7.95276079 C11.6578967,7.95276079 11.6521995,7.93739719 11.6521995,7.91784351 C11.6521995,7.89828983 11.6465023,7.88292622 11.6393808,7.88292622 C11.6322593,7.88292622 11.6222892,7.86476924 11.616592,7.84102548 C11.6108948,7.81867842 11.6009247,7.79633136 11.5938032,7.79214128 C11.5866817,7.78655452 11.5809845,7.76560415 11.5809845,7.74325708 C11.5809845,7.72230671 11.5710144,7.70135634 11.55962,7.69576958 C11.5468013,7.6915795 11.5382555,7.67062913 11.5382555,7.64688538 C11.5382555,7.62453832 11.5325583,7.60079456 11.5240125,7.59660449 C11.516891,7.59241441 11.5097695,7.57286073 11.5097695,7.55610044 C11.5097695,7.53794345 11.4997994,7.51559639 11.488405,7.50581955 C11.4770106,7.49604271 11.4670405,7.47788572 11.4670405,7.46391881 C11.4670405,7.44296843 11.4428273,7.38151401 11.4086441,7.32145628 C11.4015226,7.30748937 11.3958254,7.28514231 11.3958254,7.2697787 C11.3958254,7.25581179 11.3858553,7.23625811 11.3744609,7.22648127 C11.3630665,7.21670443 11.3530964,7.19156398 11.3530964,7.16921692 C11.3530964,7.14826655 11.3473992,7.12591949 11.3388534,7.12172941 C11.3317319,7.11753934 11.3246104,7.09938235 11.3246104,7.08262206 C11.3246104,7.06446507 11.3160646,7.03932462 11.3046702,7.02396102 C11.2947001,7.00859741 11.2833057,6.98066358 11.2790328,6.9611099 C11.2676384,6.91082901 11.2106664,6.7516062 11.1878776,6.70691207 C11.1764832,6.68735839 11.1679374,6.65802787 11.1679374,6.64266427 C11.1679374,6.62590397 11.1622402,6.60914367 11.1536944,6.6049536 C11.1465729,6.60076352 11.1394514,6.57981315 11.1394514,6.55886278 C11.1394514,6.53791241 11.1294813,6.50858189 11.1180869,6.49461498 C11.1066925,6.47925137 11.0967224,6.44992085 11.0967224,6.42757379 C11.0967224,6.40662342 11.0910252,6.38846643 11.0824794,6.38846643 C11.0753579,6.38846643 11.0653878,6.36611937 11.0596906,6.33958223 C11.0554177,6.3130451 11.0454476,6.28650796 11.0383261,6.28231789 C11.0312046,6.27812781 11.0255074,6.26276421 11.0255074,6.24600391 C11.0255074,6.23064031 11.0169616,6.20130979 11.0055672,6.18175611 C10.9941728,6.16080574 10.9785055,6.11611161 10.9685354,6.08119433 C10.9585653,6.04627704 10.942898,6.00158292 10.9315036,5.98063255 C10.9201092,5.96107887 10.9115634,5.92755827 10.9115634,5.90800459 C10.9115634,5.88845091 10.9058662,5.87169062 10.8973204,5.87169062 C10.8901989,5.87169062 10.8830774,5.86051709 10.8830774,5.84794686 C10.8830774,5.83397995 10.8731073,5.80464943 10.8617129,5.78230237 C10.8503185,5.761352 10.8403484,5.73202148 10.8403484,5.71805456 C10.8403484,5.70408765 10.8318026,5.68313728 10.8218325,5.67336044 C10.8033166,5.65520345 10.7919222,5.62307955 10.7734063,5.5336913 C10.7691334,5.51274093 10.757739,5.48760048 10.7463446,5.47922034 C10.7349502,5.47084019 10.7264044,5.45128651 10.7264044,5.43731959 C10.7264044,5.42335268 10.7207072,5.40938577 10.7135857,5.40519569 C10.7064642,5.40100562 10.6964941,5.37446848 10.6922212,5.34793134 C10.686524,5.32139421 10.6765539,5.29904715 10.6694324,5.29904715 C10.6608866,5.29904715 10.6551894,5.28368354 10.6551894,5.26412986 C10.6551894,5.24457618 10.6494922,5.22921258 10.6423707,5.22921258 C10.6352492,5.22921258 10.6252791,5.21524566 10.6195819,5.19848537 C10.6081875,5.15937801 10.5853987,5.10351035 10.5683071,5.07557652 C10.5611856,5.06440299 10.5512155,5.04484931 10.5469426,5.03367578 C10.5383968,5.01272541 10.5326996,5.00155188 10.4828491,4.91076694 C10.3760265,4.71802353 10.3589349,4.70964338 10.29769,4.81718862 C10.2749012,4.85629597 10.2521124,4.89680002 10.2478395,4.90797356 C10.2435666,4.91914709 10.2335965,4.94009746 10.226475,4.95266768 C10.2193535,4.96663459 10.2136563,4.98898166 10.2136563,5.00434526 C10.2136563,5.01831218 10.2036862,5.03786586 10.1922918,5.0476427 C10.1808974,5.05741954 10.1709273,5.07836991 10.1709273,5.0951302 C10.1709273,5.1118905 10.1652301,5.13144418 10.1581086,5.13842764 C10.1524114,5.14680778 10.1353198,5.18731183 10.1210768,5.22921258 C10.1068338,5.27111332 10.0868936,5.3227909 10.0769235,5.34374127 C10.0655291,5.36329495 10.0569833,5.39262547 10.0569833,5.40798907 C10.0569833,5.42335268 10.0470132,5.45407989 10.0356188,5.47503026 C10.0242244,5.49737732 10.0142543,5.52950123 10.0142543,5.54626152 C10.0142543,5.56302182 10.0085571,5.58117881 10.0000113,5.58536888 C9.9928898,5.58955896 9.9857683,5.6146994 9.9857683,5.64123654 C9.9857683,5.66777367 9.9800711,5.69151743 9.9729496,5.69710419 C9.9644038,5.70129427 9.9544337,5.73341817 9.9487365,5.76693876 C9.9444636,5.80185605 9.9344935,5.83397995 9.927372,5.83817002 C9.9202505,5.8423601 9.9145533,5.86889723 9.9145533,5.89822775 C9.9145533,5.92616158 9.90743179,5.95688879 9.89746169,5.96666563 C9.88891589,5.97504578 9.87609719,6.00856637 9.87039999,6.04208697 C9.84761119,6.16080574 9.82197379,6.26136752 9.81057938,6.27114436 C9.80488218,6.27673112 9.80060928,6.31164841 9.80060928,6.34796238 C9.80060928,6.38427636 9.79491208,6.41779695 9.78779058,6.42338372 C9.78066908,6.42757379 9.76927468,6.46528446 9.76500178,6.5071852 C9.75930458,6.55048263 9.74933448,6.5881933 9.74221298,6.59238338 C9.73509148,6.59657345 9.72939428,6.62450728 9.72939428,6.65523449 C9.72939428,6.6859617 9.72227278,6.72506906 9.71230268,6.74182936 C9.70233257,6.75858965 9.69093817,6.80468047 9.68381667,6.84239114 C9.66957367,6.93457277 9.63681477,7.08820882 9.62542037,7.11474596 C9.62114747,7.12591949 9.61402597,7.16363016 9.60975306,7.19854744 C9.59978296,7.29631584 9.57272126,7.42620814 9.55847826,7.45274527 C9.54993246,7.46671219 9.54423526,7.50023278 9.54423526,7.52676992 C9.54423526,7.55470375 9.53426516,7.59939787 9.52287076,7.6273317 C9.51147635,7.65386884 9.50150625,7.70135634 9.50150625,7.73068686 C9.50150625,7.76141407 9.49580905,7.79633136 9.48868755,7.81029827 C9.47302025,7.83543872 9.44453425,7.97790124 9.43456415,8.07846302 C9.43029125,8.1133803 9.42174545,8.14829759 9.41604825,8.15528105 C9.41035104,8.16366119 9.40038094,8.20556194 9.39468374,8.25025606 C9.38898654,8.29355349 9.37901644,8.33405754 9.37189494,8.33824762 C9.36477344,8.34243769 9.35907624,8.37456159 9.35907624,8.41087557 C9.35765194,8.44718955 9.34910614,8.49188367 9.33771174,8.51143735 C9.32631734,8.53099103 9.31777154,8.57289177 9.31634724,8.60641237 C9.31634724,8.63853627 9.31065003,8.67624694 9.30210423,8.69021385 C9.28643693,8.71814768 9.26079953,8.84943667 9.24940513,8.95139514 C9.24513223,8.9905025 9.23658643,9.02821317 9.23088923,9.03519662 C9.22519203,9.04357677 9.21522193,9.08547751 9.20952472,9.13017164 C9.20382752,9.17346907 9.19385742,9.21397312 9.18673592,9.2181632 C9.17961442,9.22235327 9.17391722,9.25447717 9.17391722,9.29079115 C9.17391722,9.32710512 9.16394712,9.36900587 9.15255272,9.38297278 C9.14115832,9.39833639 9.13118822,9.43744374 9.13118822,9.47096434 C9.13118822,9.50448493 9.12549102,9.5421956 9.11694522,9.55616251 C9.10412651,9.57850958 9.08561061,9.65253422 9.05997321,9.78242652 C9.03433581,9.90952544 9.0086984,10.0045005 8.9987283,10.0142773 C8.9930311,10.0198641 8.9887582,10.0477979 8.9887582,10.074335 C8.9887582,10.1022688 8.9802124,10.1371861 8.968818,10.1525497 C8.9588479,10.1679133 8.9460292,10.205624 8.9417563,10.2363512 C8.9389077,10.2670784 8.9246647,10.3271362 8.91042169,10.3690369 C8.89617869,10.4109376 8.88193569,10.4709954 8.87908709,10.5017226 C8.87481419,10.5324498 8.86769269,10.5603836 8.86199549,10.5645737 C8.85202539,10.5715572 8.82353939,10.6651355 8.80502348,10.7503337 C8.79790198,10.7796642 8.78508328,10.8117881 8.77653748,10.8201682 C8.76799168,10.8285484 8.76087018,10.8564822 8.76087018,10.8816226 C8.76087018,10.9067631 8.75517298,10.9277135 8.74662718,10.9277135 C8.73950568,10.9277135 8.72811128,10.9528539 8.72383838,10.9835811 C8.71814118,11.0143083 8.70959537,11.0394488 8.70247387,11.0394488 C8.69535237,11.0394488 8.68965517,11.0603991 8.68965517,11.0869363 C8.68965517,11.1134734 8.68395797,11.1386139 8.67683647,11.1442006 C8.66971497,11.1483907 8.65974487,11.1707378 8.65404767,11.1930848 C8.64835047,11.2168286 8.63838037,11.2349856 8.63125887,11.2349856 C8.62413737,11.2349856 8.61844017,11.2503492 8.61844017,11.2685062 C8.61844017,11.2880598 8.60847006,11.3118036 8.59707566,11.3243738 C8.58568126,11.3355473 8.57571116,11.3537043 8.57571116,11.3648779 C8.57571116,11.3760514 8.56004386,11.4137621 8.54010366,11.450076 C8.52016346,11.48639 8.50449615,11.5213073 8.50449615,11.5296875 C8.50449615,11.5366709 8.48882885,11.5673981 8.46888865,11.5981253 C8.44894845,11.6288525 8.43328115,11.6623731 8.43328115,11.6735467 C8.43328115,11.6847202 8.42331105,11.6958937 8.41191664,11.7014805 C8.40052224,11.7056706 8.39055214,11.7182408 8.39055214,11.730811 C8.39055214,11.7433812 8.37488484,11.7699184 8.35494464,11.7908687 C8.33500444,11.8118191 8.31933714,11.8355629 8.31933714,11.843943 C8.31933714,11.8523232 8.30224553,11.8774636 8.28088103,11.9026041 C8.25809223,11.9263478 8.21251462,11.9780254 8.17690712,12.0185294 C8.07435751,12.1358515 7.81086198,12.3104379 7.73537408,12.3104379 C7.72113108,12.3104379 7.70261517,12.3202148 7.69264507,12.3313883 C7.68267497,12.3439585 7.65134037,12.3523387 7.62000577,12.3523387 C7.59009546,12.3523387 7.56160946,12.3593221 7.55733656,12.3663056 C7.55306366,12.3746857 7.51460755,12.3802725 7.47187855,12.3802725 C7.42914955,12.3802725 7.36363174,12.3858593 7.32659994,12.3928427 C7.22120172,12.4137931 7.11010631,12.4179832 7.02322401,12.405413 Z" id="Path"></path>
                </g>
            </g>
        </g>
    </g>
</svg>