<?xml version="1.0" encoding="UTF-8"?>
<svg width="30px" height="30px" viewBox="0 0 30 30" version="1.1" xmlns="http://www.w3.org/2000/svg" xmlns:xlink="http://www.w3.org/1999/xlink">
    <!-- Generator: Sketch 52.6 (67491) - http://www.bohemiancoding.com/sketch -->
    <title>Group 19 Copy 3</title>
    <desc>Created with Sketch.</desc>
    <defs>
        <filter x="-43.8%" y="-43.8%" width="187.5%" height="187.5%" filterUnits="objectBoundingBox" id="filter-1">
            <feOffset dx="0" dy="2" in="SourceAlpha" result="shadowOffsetOuter1"></feOffset>
            <feGaussianBlur stdDeviation="1.5" in="shadowOffsetOuter1" result="shadowBlurOuter1"></feGaussianBlur>
            <feColorMatrix values="0 0 0 0 0.801684736   0 0 0 0 0.801684736   0 0 0 0 0.801684736  0 0 0 0.5 0" type="matrix" in="shadowBlurOuter1" result="shadowMatrixOuter1"></feColorMatrix>
            <feMerge>
                <feMergeNode in="shadowMatrixOuter1"></feMergeNode>
                <feMergeNode in="SourceGraphic"></feMergeNode>
            </feMerge>
        </filter>
    </defs>
    <g id="Page-1" stroke="none" stroke-width="1" fill="none" fill-rule="evenodd">
        <g id="Group-19-Copy-3" filter="url(#filter-1)" transform="translate(3.000000, 1.000000)">
            <circle id="Oval-Copy-32" fill="#FFFFFF" transform="translate(12.000000, 12.000000) rotate(-360.000000) translate(-12.000000, -12.000000) " cx="12" cy="12" r="12"></circle>
            <g id="Group-9-Copy-2" transform="translate(11.750000, 12.250000) rotate(-180.000000) translate(-11.750000, -12.250000) translate(2.250000, 5.250000)" fill="#000000" fill-rule="nonzero">
                <g id="24-env-pm2" transform="translate(0.593750, 0.000000)">
                    <path d="M10.2867188,0.7525 C10.9507549,0.7525 11.4890625,1.28136364 11.4890625,1.93375 C11.4890625,2.58613636 10.9507549,3.115 10.2867188,3.115 C9.62268263,3.115 9.084375,2.58613636 9.084375,1.93375 C9.08198082,1.61974784 9.207887,1.31792369 9.43389127,1.0958844 C9.65989554,0.873845119 9.96710941,0.750147825 10.2867188,0.7525 Z M14.6240625,8.68875 C14.6240625,9.34113636 15.1623701,9.87 15.8264062,9.87 C16.4904424,9.87 17.02875,9.34113636 17.02875,8.68875 C17.02875,8.03636364 16.4904424,7.5075 15.8264062,7.5075 C15.5067969,7.50514782 15.199583,7.62884512 14.9735788,7.8508844 C14.7475745,8.07292369 14.6216683,8.37474784 14.6240625,8.68875 Z M3.5625,8.68875 C3.5625,9.16652103 3.85544165,9.59724764 4.30472672,9.7800827 C4.75401178,9.96291775 5.27116127,9.86185502 5.61502917,9.52401989 C5.95889707,9.18618475 6.0617645,8.67810807 5.87566453,8.2367052 C5.68956456,7.79530232 5.2511464,7.5075 4.76484375,7.5075 C4.44523441,7.50514782 4.13802054,7.62884512 3.91201627,7.8508844 C3.686012,8.07292369 3.56010582,8.37474784 3.5625,8.68875 Z M6.3234375,5.31125 C6.3234375,5.78902103 6.61637915,6.21974764 7.06566422,6.4025827 C7.51494928,6.58541775 8.03209877,6.48435502 8.37596667,6.14651989 C8.71983457,5.80868475 8.822702,5.30060807 8.63660203,4.8592052 C8.45050206,4.41780232 8.0120839,4.13 7.52578125,4.13 C7.20617191,4.12764782 6.89895804,4.25134512 6.67295377,4.4733844 C6.4469495,4.69542369 6.32104332,4.99724784 6.3234375,5.31125 Z M9.084375,8.68875 C9.084375,9.34113636 9.62268263,9.87 10.2867188,9.87 C10.9507549,9.87 11.4890625,9.34113636 11.4890625,8.68875 C11.4890625,8.03636364 10.9507549,7.5075 10.2867188,7.5075 C9.62268263,7.5075 9.084375,8.03636364 9.084375,8.68875 Z M0.78375,5.31125 C0.78375,5.96363636 1.32205763,6.4925 1.98609375,6.4925 C2.65012987,6.4925 3.1884375,5.96363636 3.1884375,5.31125 C3.1884375,4.65886364 2.65012987,4.13 1.98609375,4.13 C1.32205763,4.13 0.78375,4.65886364 0.78375,5.31125 Z M11.8542187,5.31125 C11.8542187,5.96363636 12.3925264,6.4925 13.0565625,6.4925 C13.7205986,6.4925 14.2589062,5.96363636 14.2589062,5.31125 C14.2589062,4.65886364 13.7205986,4.13 13.0565625,4.13 C12.3925264,4.13 11.8542187,4.65886364 11.8542187,5.31125 Z M6.3234375,12.06625 C6.3234375,12.544021 6.61637915,12.9747476 7.06566422,13.1575827 C7.51494928,13.3404178 8.03209877,13.239355 8.37596667,12.9015199 C8.71983457,12.5636848 8.822702,12.0556081 8.63660203,11.6142052 C8.45050206,11.1728023 8.0120839,10.885 7.52578125,10.885 C7.20617191,10.8826478 6.89895804,11.0063451 6.67295377,11.2283844 C6.4469495,11.4504237 6.32104332,11.7522478 6.3234375,12.06625 Z M11.8542187,12.06625 C11.8542187,12.7186364 12.3925264,13.2475 13.0565625,13.2475 C13.7205986,13.2475 14.2589062,12.7186364 14.2589062,12.06625 C14.2589062,11.4138636 13.7205986,10.885 13.0565625,10.885 C12.3925264,10.885 11.8542187,11.4138636 11.8542187,12.06625 Z M3.5625,1.93375 C3.56251336,2.41231446 3.85642803,2.84358431 4.30680747,3.02589481 C4.75718692,3.2082053 5.27502766,3.10552844 5.61818381,2.76587664 C5.96133996,2.42622483 6.06199738,1.91671969 5.87308797,1.47560931 C5.68417856,1.03449894 5.24303439,0.748955079 4.7559375,0.752500001 C4.09538212,0.757307293 3.56248188,1.28476551 3.5625,1.93375 Z" id="Shape"></path>
                </g>
            </g>
        </g>
    </g>
</svg>