<?xml version="1.0" encoding="UTF-8"?>
<svg width="30px" height="30px" viewBox="0 0 30 30" version="1.1" xmlns="http://www.w3.org/2000/svg" xmlns:xlink="http://www.w3.org/1999/xlink">
    <!-- Generator: Sketch 52.6 (67491) - http://www.bohemiancoding.com/sketch -->
    <title>Group 20 Copy 3</title>
    <desc>Created with Sketch.</desc>
    <defs>
        <filter x="-43.8%" y="-43.8%" width="187.5%" height="187.5%" filterUnits="objectBoundingBox" id="filter-1">
            <feOffset dx="0" dy="2" in="SourceAlpha" result="shadowOffsetOuter1"></feOffset>
            <feGaussianBlur stdDeviation="1.5" in="shadowOffsetOuter1" result="shadowBlurOuter1"></feGaussianBlur>
            <feColorMatrix values="0 0 0 0 0.801684736   0 0 0 0 0.801684736   0 0 0 0 0.801684736  0 0 0 0.5 0" type="matrix" in="shadowBlurOuter1" result="shadowMatrixOuter1"></feColorMatrix>
            <feMerge>
                <feMergeNode in="shadowMatrixOuter1"></feMergeNode>
                <feMergeNode in="SourceGraphic"></feMergeNode>
            </feMerge>
        </filter>
    </defs>
    <g id="Page-1" stroke="none" stroke-width="1" fill="none" fill-rule="evenodd">
        <g id="Group-20-Copy-3" filter="url(#filter-1)" transform="translate(3.000000, 1.000000)">
            <circle id="Oval-Copy-33" fill="#FFFFFF" transform="translate(12.000000, 12.000000) rotate(-360.000000) translate(-12.000000, -12.000000) " cx="12" cy="12" r="12"></circle>
            <g id="Group-10-Copy-2" transform="translate(11.750000, 12.250000) rotate(-180.000000) translate(-11.750000, -12.250000) translate(2.250000, 5.250000)" fill="#000000" fill-rule="nonzero">
                <g id="24-env-pm10" transform="translate(0.593750, 0.000000)">
                    <path d="M10.2867187,0.35875 C11.1721002,0.35875 11.8898437,1.06390152 11.8898437,1.93375 C11.8898437,2.80359848 11.1721002,3.50875 10.2867187,3.50875 C9.40133726,3.50875 8.68359375,2.80359848 8.68359375,1.93375 C8.68120769,1.51531979 8.84934155,1.11334891 9.15050459,0.817469425 C9.45166764,0.521589942 9.86081657,0.356405798 10.2867187,0.35875 Z M14.25,8.68875 C14.25,9.55859848 14.9677435,10.26375 15.853125,10.26375 C16.7385065,10.26375 17.45625,9.55859848 17.45625,8.68875 C17.45625,7.81890152 16.7385065,7.11375 15.853125,7.11375 C14.9677435,7.11375 14.25,7.81890152 14.25,8.68875 Z M3.17953125,8.68875 C3.17953125,9.55859848 3.89727476,10.26375 4.78265625,10.26375 C5.66803774,10.26375 6.38578125,9.55859848 6.38578125,8.68875 C6.38578125,7.81890152 5.66803774,7.11375 4.78265625,7.11375 C4.3528707,7.10671159 3.93821174,7.26953622 3.63176375,7.56567232 C3.32531576,7.86180843 3.1527528,8.26644589 3.1528125,8.68875 L3.17953125,8.68875 Z M5.949375,5.31125 C5.949375,6.18109848 6.66711851,6.88625 7.5525,6.88625 C8.43788149,6.88625 9.155625,6.18109848 9.155625,5.31125 C9.155625,4.44140152 8.43788149,3.73625 7.5525,3.73625 C7.12271445,3.72921159 6.70805549,3.89203622 6.4016075,4.18817232 C6.09515951,4.48430843 5.92259655,4.88894589 5.92265625,5.31125 L5.949375,5.31125 Z M8.7103125,8.68875 C8.7103125,9.55859848 9.42805601,10.26375 10.3134375,10.26375 C11.198819,10.26375 11.9165625,9.55859848 11.9165625,8.68875 C11.9165625,7.81890152 11.198819,7.11375 10.3134375,7.11375 C9.88436185,7.10908543 9.47109983,7.27268205 9.1651818,7.56830604 C8.85926376,7.86393002 8.68593821,8.26718248 8.68359375,8.68875 L8.7103125,8.68875 Z M0.38296875,5.31125 C0.38296875,6.18109848 1.10071226,6.88625 1.98609375,6.88625 C2.87147524,6.88625 3.58921875,6.18109848 3.58921875,5.31125 C3.58921875,4.44140152 2.87147524,3.73625 1.98609375,3.73625 C1.10273613,3.74103171 0.387835845,4.44338988 0.38296875,5.31125 Z M11.4534375,5.31125 C11.4534375,6.18109848 12.171181,6.88625 13.0565625,6.88625 C13.941944,6.88625 14.6596875,6.18109848 14.6596875,5.31125 C14.6596875,4.44140152 13.941944,3.73625 13.0565625,3.73625 C12.1732049,3.74103171 11.4583046,4.44338988 11.4534375,5.31125 Z M5.92265625,12.06625 C5.92265625,12.9360985 6.64039976,13.64125 7.52578125,13.64125 C8.41116274,13.64125 9.12890625,12.9360985 9.12890625,12.06625 C9.12890625,11.1964015 8.41116274,10.49125 7.52578125,10.49125 C7.09987907,10.4889058 6.69073014,10.6540899 6.38956709,10.9499694 C6.08840405,11.2458489 5.92027019,11.6478198 5.92265625,12.06625 Z M11.4534375,12.06625 C11.4534375,12.9360985 12.171181,13.64125 13.0565625,13.64125 C13.941944,13.64125 14.6596875,12.9360985 14.6596875,12.06625 C14.6596875,11.1964015 13.941944,10.49125 13.0565625,10.49125 C12.6313873,10.49125 12.2236262,10.657187 11.9229819,10.9525568 C11.6223377,11.2479266 11.4534375,11.648534 11.4534375,12.06625 Z M3.1528125,1.93375 C3.1528125,2.80359848 3.87055601,3.50875 4.7559375,3.50875 C5.64131899,3.50875 6.3590625,2.80359848 6.3590625,1.93375 C6.3590625,1.06390152 5.64131899,0.35875 4.7559375,0.35875 C3.87055601,0.35875 3.1528125,1.06390152 3.1528125,1.93375 Z" id="Shape"></path>
                </g>
            </g>
        </g>
    </g>
</svg>