<?xml version="1.0" encoding="UTF-8"?>
<svg width="30px" height="30px" viewBox="0 0 30 30" version="1.1" xmlns="http://www.w3.org/2000/svg" xmlns:xlink="http://www.w3.org/1999/xlink">
    <!-- Generator: Sketch 52.6 (67491) - http://www.bohemiancoding.com/sketch -->
    <title>Group 10 Copy</title>
    <desc>Created with Sketch.</desc>
    <defs>
        <filter x="-43.8%" y="-43.8%" width="187.5%" height="187.5%" filterUnits="objectBoundingBox" id="filter-1">
            <feOffset dx="0" dy="2" in="SourceAlpha" result="shadowOffsetOuter1"></feOffset>
            <feGaussianBlur stdDeviation="1.5" in="shadowOffsetOuter1" result="shadowBlurOuter1"></feGaussianBlur>
            <feColorMatrix values="0 0 0 0 0.801684736   0 0 0 0 0.801684736   0 0 0 0 0.801684736  0 0 0 0.5 0" type="matrix" in="shadowBlurOuter1" result="shadowMatrixOuter1"></feColorMatrix>
            <feMerge>
                <feMergeNode in="shadowMatrixOuter1"></feMergeNode>
                <feMergeNode in="SourceGraphic"></feMergeNode>
            </feMerge>
        </filter>
    </defs>
    <g id="Page-1" stroke="none" stroke-width="1" fill="none" fill-rule="evenodd">
        <g id="Group-10-Copy" filter="url(#filter-1)" transform="translate(3.000000, 1.000000)">
            <g id="Group-11-Copy-21" fill="#FFFFFF">
                <circle id="Oval-Copy-11" cx="12" cy="12" r="12"></circle>
            </g>
            <path d="M2.54014009,14.8965517 L2.54014009,8.22292565 L4.24946121,8.22292565 L4.24946121,9.29579741 L4.35856681,9.29579741 C4.66769935,8.54418103 5.34657866,8.07745151 6.33459052,8.07745151 C7.81963901,8.07745151 8.61974677,8.98666487 8.61974677,10.580819 L8.61974677,14.8965517 L6.85587284,14.8965517 L6.85587284,10.9808728 C6.85587284,10.0413524 6.46188039,9.55037716 5.62540409,9.55037716 C4.80711207,9.55037716 4.30401401,10.1322737 4.30401401,11.0354256 L4.30401401,14.8965517 L2.54014009,14.8965517 Z M13.2931034,15.0359644 C11.2382812,15.0359644 10.0017511,13.7327586 10.0017511,11.556708 C10.0017511,9.39884159 11.2564655,8.07745151 13.2931034,8.07745151 C15.3297414,8.07745151 16.5844558,9.39278017 16.5844558,11.556708 C16.5844558,13.73882 15.3479256,15.0359644 13.2931034,15.0359644 Z M13.2931034,13.6418373 C14.2326239,13.6418373 14.7720905,12.8780981 14.7720905,11.556708 C14.7720905,10.2474407 14.2265625,9.47764009 13.2931034,9.47764009 C12.353583,9.47764009 11.8141164,10.2474407 11.8141164,11.556708 C11.8141164,12.8780981 12.3475216,13.6418373 13.2931034,13.6418373 Z M17.6391433,12.7265625 C17.6391433,11.629445 18.5362338,10.8899515 19.8333782,10.8899515 C21.1183998,10.8899515 21.8942619,11.556708 21.8942619,12.4780442 C21.8942619,13.1084321 21.5972522,13.5266703 20.6819774,14.2782866 L19.5484914,15.2056843 L19.5484914,15.2723599 L21.9609375,15.2723599 L21.9609375,16.3694774 L17.7179418,16.3694774 L17.7179418,15.4299569 L19.7363955,13.7145744 C20.4395205,13.1266164 20.5607489,12.9023438 20.5607489,12.5992726 C20.5607489,12.2477101 20.2758621,11.9507004 19.7606412,11.9507004 C19.2211746,11.9507004 18.8938578,12.2780172 18.8938578,12.7265625 L17.6391433,12.7265625 Z" id="no₂" fill="#000000"></path>
        </g>
    </g>
</svg>