<?xml version="1.0" encoding="UTF-8"?>
<svg width="30px" height="30px" viewBox="0 0 30 30" version="1.1" xmlns="http://www.w3.org/2000/svg" xmlns:xlink="http://www.w3.org/1999/xlink">
    <!-- Generator: Sketch 52.6 (67491) - http://www.bohemiancoding.com/sketch -->
    <title>Group 31 Copy</title>
    <desc>Created with Sketch.</desc>
    <defs>
        <filter x="-43.8%" y="-43.8%" width="187.5%" height="187.5%" filterUnits="objectBoundingBox" id="filter-1">
            <feOffset dx="0" dy="2" in="SourceAlpha" result="shadowOffsetOuter1"></feOffset>
            <feGaussianBlur stdDeviation="1.5" in="shadowOffsetOuter1" result="shadowBlurOuter1"></feGaussianBlur>
            <feColorMatrix values="0 0 0 0 0.801684736   0 0 0 0 0.801684736   0 0 0 0 0.801684736  0 0 0 0.5 0" type="matrix" in="shadowBlurOuter1" result="shadowMatrixOuter1"></feColorMatrix>
            <feMerge>
                <feMergeNode in="shadowMatrixOuter1"></feMergeNode>
                <feMergeNode in="SourceGraphic"></feMergeNode>
            </feMerge>
        </filter>
    </defs>
    <g id="Page-1" stroke="none" stroke-width="1" fill="none" fill-rule="evenodd">
        <g id="Group-31-Copy" filter="url(#filter-1)" transform="translate(3.000000, 1.000000)">
            <g id="Group-30">
                <g id="Group-12-Copy-6" fill="#FFFFFF">
                    <g id="Group-26">
                        <circle id="Oval-Copy-28" cx="12" cy="12" r="12"></circle>
                    </g>
                </g>
                <g id="Group-5-Copy-2" transform="translate(4.137931, 4.965517)" stroke="#000000" stroke-width="1.3614075">
                    <path d="M8.34157088,10.9046 C10.1053181,9.36220055 10.3032505,6.1339169 11.3887345,3.34363421 C11.5517604,2.92456943 10.9909864,2.40414724 10.5574878,2.57309898 C7.78250599,3.65462029 4.49153009,4.11076818 3.09373439,5.66016342 C1.69593869,7.20955865 1.89811212,9.26860959 3.28227392,10.661687 C4.67547174,12.0457296 6.57782366,12.4469995 8.34157088,10.9046 Z" id="Path" transform="translate(6.778636, 7.217053) rotate(-45.000000) translate(-6.778636, -7.217053) "></path>
                </g>
                <g id="lightning-svgrepo-com" transform="translate(11.413793, 9.103448)" fill="#000000" stroke="#FFFFFF" stroke-width="1.245">
                    <path d="M2.33377971,5.53184283 L1.70681231,5.4528105 C0.59451641,5.4528105 -0.258525816,4.00217948 0.508479797,3.05880034 L4.11440139,-0.191223189 C4.5863013,-0.711789068 5.397189,-0.76968192 5.93730208,-0.318100481 C6.49156079,0.145307935 6.55509173,0.966033961 6.08534661,1.4835176 L4.93460748,2.85698313 L5.53801175,2.89843327 C6.62688835,2.89843327 7.42421991,4.13907785 6.70467647,4.93634187 L3.14343145,8.98498159 C2.75339958,9.46005221 1.99263625,9.65607068 1.35622247,9.22873269 L1.35372564,9.22704734 C0.745942687,8.81465305 0.633069846,7.97555913 1.05507223,7.44862363 L2.33377971,5.53184283 Z" id="Path"></path>
                </g>
            </g>
        </g>
    </g>
</svg>