<?xml version="1.0" encoding="UTF-8"?>
<svg width="30px" height="30px" viewBox="0 0 30 30" version="1.1" xmlns="http://www.w3.org/2000/svg" xmlns:xlink="http://www.w3.org/1999/xlink">
    <!-- Generator: Sketch 52.6 (67491) - http://www.bohemiancoding.com/sketch -->
    <title>Group 18 Copy 2</title>
    <desc>Created with Sketch.</desc>
    <defs>
        <filter x="-43.8%" y="-43.8%" width="187.5%" height="187.5%" filterUnits="objectBoundingBox" id="filter-1">
            <feOffset dx="0" dy="2" in="SourceAlpha" result="shadowOffsetOuter1"></feOffset>
            <feGaussianBlur stdDeviation="1.5" in="shadowOffsetOuter1" result="shadowBlurOuter1"></feGaussianBlur>
            <feColorMatrix values="0 0 0 0 0.801684736   0 0 0 0 0.801684736   0 0 0 0 0.801684736  0 0 0 0.5 0" type="matrix" in="shadowBlurOuter1" result="shadowMatrixOuter1"></feColorMatrix>
            <feMerge>
                <feMergeNode in="shadowMatrixOuter1"></feMergeNode>
                <feMergeNode in="SourceGraphic"></feMergeNode>
            </feMerge>
        </filter>
    </defs>
    <g id="Page-1" stroke="none" stroke-width="1" fill="none" fill-rule="evenodd">
        <g id="Group-18-Copy-2" filter="url(#filter-1)" transform="translate(3.000000, 1.000000)">
            <g id="Group-11-Copy-34" fill="#FFFFFF">
                <circle id="Oval-Copy-11" cx="12" cy="12" r="12"></circle>
            </g>
            <g id="Mens-icon" transform="translate(4.137931, 8.758621)" fill="#000000" fill-rule="nonzero">
                <g id="Group" transform="translate(8.000000, 6.931034) scale(-1, 1) rotate(-180.000000) translate(-8.000000, -6.931034) translate(0.000000, 0.931034)">
                    <path d="M4.60586757,10.5444039 C5.52489648,10.5157779 6.00403557,9.86280757 5.65326154,9.26374113 C5.52961472,9.05535494 5.51149919,8.96155777 5.51149919,8.61240005 L5.51149919,8.11106066 L5.66709527,7.99610266 L5.79425565,7.90216394 C5.91500234,7.81172016 5.89713857,7.87643375 5.88734916,7.32201744 L5.8804206,6.86428163 L5.86586579,6.84479354 C5.85063922,6.82369379 5.71257249,6.73907977 5.74522397,6.73907977 C5.42768914,6.73907977 5.33532673,6.55161643 5.2952024,6.26547997 C5.21761045,5.72574572 4.97351295,5.19416458 4.63501255,4.82329732 L4.33036142,4.49199189 C4.31791118,4.48920672 4.30617922,4.48573179 4.28566215,4.47965476 C4.23358159,4.46347271 4.17653718,4.439364 4.1111934,4.40625609 C3.7585493,4.21782244 3.34254199,4.20826959 2.99184997,4.38033189 C2.69520977,4.52172845 2.73554225,4.50385128 2.727387,4.49131634 C2.69315258,4.48493413 2.66200335,4.47912708 2.63365779,4.4738119 C2.63351069,4.5597091 2.62354967,4.56650405 2.5976318,4.58418402 C2.57006043,4.62770368 2.57006043,4.62770368 2.54199482,4.66614799 C2.50498584,4.71597754 2.45577989,4.77627409 2.39888214,4.84131704 C2.19256142,5.07136933 2.1089961,5.20130489 1.97270767,5.50637748 C1.86656175,5.74194084 1.75700268,6.11465281 1.75700268,6.19859959 C1.75700268,6.48798448 1.6045881,6.67635544 1.32255869,6.74206552 C1.27342139,6.75310722 1.18479317,6.82348911 1.16793871,6.85866686 C1.14355732,6.91249337 1.14044588,6.94583083 1.14044588,7.35931741 C1.14044588,7.85323058 1.11907775,7.78137125 1.25468393,7.90076845 L1.5221239,8.13244581 L1.5221239,8.69552838 C1.5221239,9.15002719 1.55441474,9.36465932 1.63637384,9.54119878 C1.76377959,9.8163838 2.11598311,9.99136387 2.73235267,10.0245829 C3.10032301,10.0466327 3.18446076,10.0692932 3.4259692,10.2204322 C3.67643911,10.3764654 3.98543465,10.4961407 4.25964944,10.5445891 C4.30195739,10.5478405 4.4679204,10.5492232 4.60586757,10.5444039 Z M6.27841919,8.61240005 C6.27841919,8.83628902 6.27215779,8.80386926 6.31394414,8.87430583 C6.98993835,10.0287722 6.08229492,11.265708 4.63120152,11.310904 C4.44890522,11.3172762 4.24045643,11.3151226 4.15981613,11.3051739 L4.14248279,11.3026323 C3.76602783,11.2386154 3.35805438,11.081685 3.0197907,10.8709587 C2.89837522,10.7949759 2.9358687,10.8050738 2.68878357,10.7902608 C1.81934255,10.7434124 1.20700057,10.4391916 0.94059339,9.86377541 C0.80255877,9.56645043 0.755203902,9.25169009 0.755203902,8.69552838 L0.755203902,8.48273094 L0.750227453,8.47841936 C0.411740167,8.18043206 0.373525885,8.05192051 0.373525885,7.35931741 C0.373525885,6.82894268 0.382362954,6.73425799 0.472512939,6.53541342 C0.572555491,6.32559372 0.78131633,6.13670539 1.00542951,6.04191052 C1.04502786,5.80160287 1.15577877,5.45255098 1.27298933,5.1924364 C1.43930343,4.82014739 1.56539234,4.62305079 1.81767648,4.3407742 C1.78222424,4.29060914 1.74292771,4.23212078 1.71570773,4.1910852 L1.63269005,4.06050018 L1.58493358,4.06050018 C1.12444149,4.06050018 0.709353939,3.90343244 0.457150663,3.66613538 C0.289913466,3.50878256 0.191851251,3.32571531 0.25713383,3.10381461 C0.349487114,2.78989843 0.62342411,2.73920794 0.905657911,2.81469897 C1.04275413,2.85240815 1.15794016,2.86254438 1.49685404,2.86254438 C1.85218111,2.86254438 2.08188133,2.87654878 2.20985016,2.94393698 C2.32451259,3.00952299 2.45174461,3.18322352 2.66212945,3.50534357 C2.69505536,3.55506364 2.72662353,3.60220251 2.75580132,3.64523715 C3.25111655,3.43541956 3.8146676,3.43958063 4.30911507,3.65104858 C4.34991468,3.58961739 4.39247941,3.52574757 4.4242955,3.4777034 C4.69459523,3.06934261 4.79080853,2.9468281 4.98856276,2.89177525 C5.0719744,2.87158991 5.30487255,2.86254438 5.57036626,2.86254787 C6.19644418,2.85987901 6.48025097,2.75941638 6.76127008,2.46232928 C7.0049108,2.20446918 7.09443972,1.94198525 7.09693095,1.43873286 C7.09693095,1.05702229 7.11374655,0.950453271 7.2616024,0.795403898 C7.48902306,0.556918701 7.85343685,0.556918701 8.08085751,0.795403898 C8.23549912,0.957569167 8.24552897,1.03549669 8.24552897,1.51570354 C8.24552897,2.30442376 8.0738714,2.77849944 7.59735219,3.28182344 C7.10838053,3.79822129 6.56372404,4.01310348 5.68474779,4.05093559 L5.43441527,4.0612979 L5.3114381,4.24738951 L5.2426359,4.35241739 C5.64193307,4.80934296 5.92578194,5.41788279 6.03688517,6.04760926 C6.21487681,6.12865906 6.39181759,6.26308623 6.48396166,6.39083036 L6.6434928,6.60427277 L6.64537336,6.72851189 L6.65416546,7.30944323 C6.66755929,8.06789881 6.62829859,8.22951705 6.27841919,8.49749047 L6.27841919,8.61240005 Z M2.80744175,3.72072449 C2.82267328,3.74276255 2.83684578,3.76303679 2.84974647,3.78123336 C2.81548328,3.73290474 2.78701917,3.69236301 2.76346445,3.65864649 L2.80744175,3.72072449 Z M3.11650777,10.4434842 C3.03984829,10.3893446 3.08520327,10.402884 2.9677824,10.402884 C2.65145041,10.402884 2.27103574,10.3466004 2.00633323,10.258722 C1.6567305,10.1478859 1.40722398,9.94528426 1.2701677,9.64344959 C1.17246302,9.42516899 1.16624177,9.35784204 1.16624177,8.7324743 C1.16624177,8.5652286 1.15878537,8.35315669 1.16888179,8.28162579 C1.09389263,8.23567186 1.01180498,8.17155323 0.953354307,8.11434365 C0.930461387,8.09220656 0.930461387,8.09220656 0.895711072,8.0540772 C0.758037203,7.8930545 0.755203902,7.86335181 0.755203902,7.35315976 C0.755203902,7.06973094 0.763349329,6.86472964 0.801319455,6.74934654 C0.89114852,6.52954781 1.15974872,6.38339798 1.39925036,6.37300106 C1.38798777,6.40881875 1.3717607,6.40912207 1.3717607,6.37101391 C1.3717607,5.97344034 1.59133652,5.34906446 1.87068781,4.92201343 C2.0792607,4.59949348 2.45763013,4.24857963 2.78178052,4.08053803 C3.05799017,3.93962825 3.13159435,3.92473974 3.51974753,3.92473974 L3.86032176,3.92473974 L4.03838754,3.96859092 L4.28371316,4.09722471 C5.04102444,4.49062616 5.59085454,5.39769827 5.67488459,6.36002717 C5.68573278,6.47631497 5.59266507,6.36694051 5.65817194,6.37663906 C6.18486474,6.45554157 6.27841919,6.64309732 6.27841919,7.3470021 L6.27841919,8.01252112 L6.1056558,8.1261354 L5.92965718,8.24186014 C5.89296945,8.26553563 5.87452775,8.28130296 5.87437328,8.26716164 C5.8779694,8.2847228 5.86738132,8.45647347 5.86738132,8.60008474 C5.86738132,8.84630072 5.87337334,8.90285261 5.87907949,8.91372411 C5.91103376,8.97594154 5.91103376,8.97594154 5.96125432,9.07244507 C5.9873421,9.1227574 5.9873421,9.1227574 6.008835,9.16466208 C6.36942973,9.85558179 5.95404994,10.5730654 5.13672448,10.8258959 C4.49480273,11.0261115 3.7262228,10.8757925 3.11650777,10.4434842 Z M1.57216036,7.62931636 C1.6830819,7.68747543 1.79436495,7.7834683 1.86647054,7.91164914 C1.92309459,8.03040701 1.93316177,8.25738182 1.93316177,8.7324743 C1.93316177,9.24220854 1.93377327,9.24882633 1.96931341,9.32823968 C2.01017727,9.41822884 2.08527733,9.4792108 2.24299417,9.52924862 C2.43115423,9.59168991 2.73039796,9.63596404 2.9677824,9.63596404 C3.23926658,9.63596404 3.34885032,9.66867713 3.5595085,9.81745218 C3.98246151,10.1173394 4.50545579,10.2195673 4.90868217,10.0936643 C5.30924711,9.96987869 5.44324611,9.73851567 5.32740751,9.51653091 C5.30598241,9.47477669 5.30598241,9.47477669 5.28220641,9.42891726 L5.28061356,9.42584914 C5.23101065,9.33055315 5.23101065,9.33055315 5.20079753,9.2713764 C5.11370135,9.11306482 5.10046132,8.98810714 5.10046132,8.60008474 C5.10046132,8.33729594 5.11641227,8.10207255 5.14904433,8.0122967 C5.20023314,7.84231238 5.3262579,7.71850293 5.51103948,7.59927588 L5.51149919,7.3470021 C5.51149919,7.1022216 5.54767862,7.09141054 5.55812299,7.11029885 C5.11106161,7.06896181 4.95324416,6.8810982 4.91107612,6.42900377 C4.84864603,5.7140991 4.44238215,5.04387273 3.9288787,4.77711929 L3.76588939,4.69165974 L3.51974753,4.69165974 C3.244909,4.69165974 3.28896783,4.6827476 3.13252923,4.76254633 C2.93143679,4.86679966 2.65228289,5.12569734 2.5135857,5.34015766 C2.30907278,5.65280845 2.1386807,6.13732767 2.1386807,6.37101391 C2.1386807,6.80984566 1.923203,7.09487384 1.52504689,7.13455999 C1.52393099,7.20193301 1.5221239,7.28476436 1.5221239,7.35315976 C1.5221239,7.52824836 1.52413039,7.58695101 1.50238436,7.57766159 C1.52567097,7.59773505 1.55949227,7.62267415 1.57216036,7.62931636 Z" id="Shape"></path>
                    <path d="M10.2094769,8.36553065 C10.1724215,8.46144147 10.1100934,8.49196777 10.1329881,8.48784479 L10.2037207,8.47461529 C10.205318,8.40828446 10.2074202,8.37589495 10.2094769,8.36553065 Z M9.12555283,4.27298154 C9.07993997,4.35872503 9.06742682,4.4151002 9.06742682,4.48834143 C9.06742682,4.52595156 9.07085856,4.55915687 9.07876237,4.59178564 C9.20449037,4.62801948 9.2679067,4.62574686 9.37743401,4.49968778 C9.3023457,4.41841841 9.21876754,4.34336976 9.12555283,4.27298154 Z M7.47860897,10.6635427 C7.47860897,10.4633239 7.55812349,10.3022312 7.72837985,10.1855367 C7.89939201,10.0735487 8.02021041,10.0669472 8.30178811,10.1115319 C8.89188784,10.2014942 9.18427293,10.0945253 9.31338194,9.81148047 C9.39387077,9.63662244 9.43126878,9.3524282 9.4340771,8.792746 C9.4340771,8.09541548 9.48012426,7.87776309 9.821292,7.77372593 L9.82521105,7.54522741 C9.83189128,7.0846473 9.9122353,7.26054168 9.8475963,7.2514999 C9.40012029,7.18972849 9.22019777,6.9682094 9.22019777,6.50377118 C9.22019777,6.2734521 9.17427647,5.87780248 9.12423095,5.67988638 C9.02482954,5.27335085 8.89401234,5.05609062 8.65700548,4.8801844 C8.39087039,4.68658817 8.30357208,4.57236962 8.30357208,4.31541064 C8.30357208,3.93480637 8.6169585,3.68150138 8.97040522,3.74975412 C9.00378128,3.7026467 9.04272693,3.64574189 9.08720115,3.57897429 C9.28639546,3.28380015 9.42533046,3.0949694 9.51016752,3.0314808 C9.65940159,2.91886269 9.76876091,2.91008688 10.2758499,2.91008688 C10.7764494,2.91008688 10.9613895,2.87650212 11.2141475,2.74900759 C11.4289734,2.64211766 11.5838684,2.50458864 11.6990252,2.32209485 C11.8323402,2.11029501 11.8786583,1.92826395 11.9001141,1.49527398 C11.9221792,0.950324664 11.9352303,0.876457999 12.1438268,0.729590426 C12.386564,0.557321382 12.6823964,0.584025585 12.8811712,0.781699121 C13.0792928,0.958984452 13.0834151,0.99738686 13.0667918,1.60455126 C13.053654,2.02365721 13.0344211,2.16549821 12.952392,2.41867249 C12.6988212,3.1753941 12.1185774,3.73772419 11.3518344,3.97109143 C11.0588702,4.06189759 10.6157886,4.11719434 10.2086307,4.11719434 L10.1490591,4.11719434 L10.0133865,4.31711562 C9.97208057,4.37662417 9.93198805,4.43606118 9.89669887,4.48988176 C10.1618016,4.88598548 10.3334759,5.48305202 10.3804821,6.13967907 L10.382524,6.17154775 C10.6668196,6.29538164 10.9075494,6.55775274 10.9823285,6.8415249 C11.0203564,6.98338161 11.0297999,7.24487918 11.0197865,7.63947994 C11.0091761,8.22545061 10.9994982,8.30690226 10.8846948,8.49816486 C10.8157376,8.61170213 10.7206692,8.70251065 10.5982016,8.77461596 L10.5982016,9.00969553 C10.5982016,9.87136267 10.4504984,10.3894887 10.0589292,10.7924351 C9.69489764,11.1670439 9.25939246,11.3216773 8.63156965,11.314203 C8.41826552,11.3105447 8.18748391,11.2964695 8.07576105,11.2773794 C7.7069262,11.2149329 7.47860897,11.0206911 7.47860897,10.6635427 Z" id="Path"></path>
                    <path d="M14.047305,8.37632214 C13.9950777,8.49083911 14.0165045,8.48165709 14.0383445,8.47878544 L14.0534786,8.47691732 C14.0549797,8.40406958 14.0538394,8.36117925 14.047305,8.37632214 Z M12.9768419,4.26856689 L12.9169338,4.35736007 C12.9133676,4.37934497 12.9059371,4.40149959 12.8929836,4.42206818 C12.8787444,4.44441926 12.8590687,4.46235394 12.8369654,4.47588564 L12.8251501,4.49339788 L12.8807812,4.57429003 C12.9789005,4.59239705 13.0789825,4.57946843 13.1823068,4.5156157 C13.1973892,4.506295 13.2100962,4.49835069 13.2221837,4.48955214 C13.144119,4.40515691 13.0606544,4.32948504 12.9768419,4.26856689 Z M11.4837192,11.059392 C11.2840575,10.8269223 11.2943684,10.4738083 11.5086546,10.2530992 C11.6900897,10.0662259 11.7793095,10.0601503 12.1926858,10.1150897 C12.7963331,10.1971594 13.0778342,10.0752534 13.2029833,9.74096354 C13.2455469,9.63032138 13.2522192,9.56534625 13.2691231,8.97647052 C13.2805941,8.48812569 13.2987642,8.17532169 13.3464455,8.06504068 C13.4111537,7.9234144 13.5332477,7.83264899 13.6864317,7.7772411 L13.6904158,7.54075679 L13.6935877,7.25979465 C13.5387872,7.24906443 13.4063283,7.19518711 13.2890176,7.08850832 C13.1150063,6.9248663 13.1033961,6.86633434 13.0592602,6.29177591 C13.0257961,5.81210947 12.9593905,5.5052862 12.8473768,5.2771073 C12.7691699,5.11824282 12.6084232,4.93562409 12.4890604,4.86470579 C12.1715096,4.66846448 12.0429839,4.33261672 12.2451132,4.0116706 C12.3800757,3.79984928 12.6042154,3.70978961 12.8304661,3.74821397 C12.8809042,3.66999548 12.9440368,3.58099754 12.9472323,3.57635593 C13.1187444,3.31521686 13.2593033,3.1195792 13.3410656,3.05230016 C13.4836641,2.93932118 13.5894884,2.92850808 14.1870797,2.90668713 C14.6511233,2.89220372 14.714457,2.88429681 14.8885836,2.82705871 C15.1787072,2.72636953 15.5205364,2.87474568 15.5003652,3.2499559 C15.4912222,3.42002746 15.3954967,3.56953487 15.2518453,3.69961084 C14.9810277,3.94483555 14.5483734,4.10627979 14.0149019,4.12612819 L13.9977554,4.12663277 L13.7525323,4.49009173 C14.0145657,4.89522315 14.1634504,5.39512827 14.223485,6.04278379 L14.2357646,6.17031379 C14.4226401,6.24903586 14.5968889,6.38165629 14.704748,6.53253636 C14.8399404,6.71355419 14.8428183,6.74414464 14.8542203,7.5114118 C14.8649855,8.28016793 14.8633471,8.30143018 14.7291357,8.50576664 C14.6682898,8.59736076 14.568124,8.69377482 14.4652313,8.76249995 L14.4541522,9.10455357 C14.4442578,9.52577853 14.4209609,9.7855882 14.3733482,9.94890037 C14.1809831,10.6481861 13.7010784,11.1307822 13.036012,11.2758356 C12.7901021,11.3280998 12.1861117,11.3270896 11.9146006,11.2745051 C11.7509807,11.2448447 11.5834808,11.1735817 11.4837192,11.059392 Z" id="Path"></path>
                </g>
            </g>
            <g id="152-1528392_png-file-svg-bluetooth-icon-svg-transparent-png" transform="translate(11.586207, 6.206897) rotate(-90.000000) translate(-11.586207, -6.206897) translate(8.275862, 0.000000)" fill="#000000">
                <g id="Group" transform="translate(3.310345, 6.676969) scale(-1, 1) rotate(-180.000000) translate(-3.310345, -6.676969) translate(0.000000, 0.947526)">
                    <path d="M3.90167218,11.0160304 C3.58786963,10.6986507 3.50080302,10.5990082 3.50080302,10.5621036 C3.50080302,10.5288894 3.55159188,10.4569254 3.67675012,10.3148426 C3.92343883,10.0325222 4.11389702,9.78526122 4.26989136,9.54538116 C4.921077,8.5378849 5.30562116,7.41967478 5.38905999,6.28485757 C5.41264053,5.95456118 5.4017572,5.24414716 5.36910723,4.92861262 C5.2856684,4.12778226 5.07707133,3.41736824 4.69978271,2.64975205 C4.39867737,2.03713528 4.27896079,1.86183831 3.56610298,0.98904394 L3.45908361,0.858032522 L3.87446386,0.433629339 C4.1030137,0.201130204 4.29528578,0.0110713874 4.30254133,0.0110713874 C4.3370052,0.0110713874 4.78684932,0.540652751 5.0081436,0.841425441 C5.54324043,1.57029178 5.92597071,2.30653904 6.20349551,3.14058355 C6.81114785,4.96551724 6.74947567,6.9897359 6.02936231,8.78514589 C5.85704299,9.21323953 5.53054322,9.83508246 5.27841285,10.2152001 C5.07344355,10.5251989 4.68527161,11.0160304 4.43314124,11.2854342 L4.30254133,11.4238265 L3.90167218,11.0160304 Z" id="Path"></path>
                    <path d="M2.14401512,9.23169185 L1.72137931,8.80175297 L1.85923477,8.63568216 C2.35986774,8.0415177 2.67367029,7.43443663 2.84598961,6.72586784 C2.91854511,6.42878561 2.93849787,6.2036674 2.93849787,5.71283589 C2.93849787,5.22015915 2.91854511,4.99688617 2.84598961,4.69795871 C2.67548418,3.99677085 2.30000945,3.2789759 1.82114313,2.74570407 L1.71775154,2.62760927 L2.13313179,2.20505132 C2.36168162,1.97255219 2.55758148,1.78249337 2.5702787,1.78249337 C2.58116202,1.78249337 2.66641474,1.86737401 2.758923,1.97255219 C3.46815305,2.77338254 3.93976382,3.7993311 4.11208314,4.91938646 C4.15743033,5.21646869 4.15743033,6.17045323 4.11208314,6.50074963 C3.95790269,7.62080498 3.45182806,8.69288433 2.68092584,9.53800023 L2.56665092,9.66347595 L2.14401512,9.23169185 Z" id="Path"></path>
                    <path d="M0.40449693,7.4621151 C0.183202645,7.23699689 0,7.04509284 0,7.03586668 C0,7.02664053 0.0489749646,6.95467651 0.107019367,6.87348633 C0.29929145,6.61515396 0.415380255,6.35497636 0.473424658,6.05420367 C0.506074634,5.88813286 0.506074634,5.53753892 0.473424658,5.37146811 C0.417194143,5.08361204 0.281152574,4.78283935 0.0997638167,4.54111406 C0.0453471894,4.46915004 0,4.40087648 0,4.39165033 C0,4.36766232 0.803552197,3.55391535 0.828946623,3.55391535 C0.881549362,3.55391535 1.16632971,3.92849729 1.34046292,4.22926998 C1.44022674,4.40272172 1.54905999,4.6795064 1.60529051,4.89908892 C1.84653755,5.85122823 1.63975437,6.89378388 1.06475201,7.62265021 C0.963174303,7.7518164 0.848899386,7.87175643 0.827132735,7.87175643 C0.818063297,7.87175643 0.627605102,7.68723331 0.40449693,7.4621151 Z" id="Path"></path>
                </g>
            </g>
        </g>
    </g>
</svg>