<?xml version="1.0" encoding="UTF-8"?>
<svg width="32px" height="32px" viewBox="0 0 32 32" version="1.1" xmlns="http://www.w3.org/2000/svg" xmlns:xlink="http://www.w3.org/1999/xlink">
    <!-- Generator: Sketch 52.6 (67491) - http://www.bohemiancoding.com/sketch -->
    <title>Group 24</title>
    <desc>Created with Sketch.</desc>
    <defs>
        <circle id="path-1" cx="12" cy="12" r="12"></circle>
        <filter x="-31.2%" y="-18.8%" width="162.5%" height="162.5%" filterUnits="objectBoundingBox" id="filter-2">
            <feOffset dx="0" dy="3" in="SourceAlpha" result="shadowOffsetOuter1"></feOffset>
            <feGaussianBlur stdDeviation="2" in="shadowOffsetOuter1" result="shadowBlurOuter1"></feGaussianBlur>
            <feColorMatrix values="0 0 0 0 0.801684736   0 0 0 0 0.801684736   0 0 0 0 0.801684736  0 0 0 0.5 0" type="matrix" in="shadowBlurOuter1"></feColorMatrix>
        </filter>
    </defs>
    <g id="Page-1" stroke="none" stroke-width="1" fill="none" fill-rule="evenodd">
        <g id="Group-24" transform="translate(4.000000, 1.000000)">
            <g id="Group-22">
                <g id="Group-23">
                    <g id="Group-21" transform="translate(3.222123, 3.222123)" fill="#000000" fill-rule="nonzero">
                        <path d="M1.14069852,12.2593431 C0.898304136,12.5017375 0.505305184,12.5017375 0.262910796,12.2593431 C0.0205164076,12.0169487 0.0205164076,11.6239497 0.262910796,11.3815554 L1.47728232,10.1671838 C1.71967671,9.92478944 2.11267566,9.92478944 2.35507005,10.1671838 C2.59746443,10.4095782 2.59746443,10.8025772 2.35507005,11.0449716 L1.14069852,12.2593431 Z" id="Path-2"></path>
                        <path d="M11.0581595,2.34188206 C10.8157652,2.58427645 10.4227662,2.58427645 10.1803718,2.34188206 C9.93797743,2.09948767 9.93797743,1.70648872 10.1803718,1.46409433 L11.3815554,0.262910796 C11.6239497,0.0205164076 12.0169487,0.0205164076 12.2593431,0.262910796 C12.5017375,0.505305184 12.5017375,0.898304136 12.2593431,1.14069852 L11.0581595,2.34188206 Z" id="Path-2"></path>
                    </g>
                    <g id="Group-21" transform="translate(9.671414, 8.843827) rotate(-90.000000) translate(-9.671414, -8.843827) translate(3.464517, 2.636931)" fill="#000000" fill-rule="nonzero">
                        <path d="M1.06940487,11.4931341 C0.842160127,11.7203789 0.47372361,11.7203789 0.246478871,11.4931341 C0.0192341321,11.2658894 0.0192341321,10.8974529 0.246478871,10.6702081 L1.38495217,9.53173484 C1.61219691,9.3044901 1.98063343,9.3044901 2.20787817,9.53173484 C2.43512291,9.75897958 2.43512291,10.1274161 2.20787817,10.3546608 L1.06940487,11.4931341 Z" id="Path-2"></path>
                        <path d="M10.3670246,2.19551443 C10.1397798,2.42275917 9.77134332,2.42275917 9.54409858,2.19551443 C9.31685384,1.96826969 9.31685384,1.59983318 9.54409858,1.37258844 L10.6702081,0.246478871 C10.8974529,0.0192341321 11.2658894,0.0192341321 11.4931341,0.246478871 C11.7203789,0.47372361 11.7203789,0.842160127 11.4931341,1.06940487 L10.3670246,2.19551443 Z" id="Path-2"></path>
                    </g>
                    <g id="Group-21" transform="translate(3.222123, 3.222123)" fill="#000000" fill-rule="nonzero">
                        <path d="M1.14069852,12.2593431 C0.898304136,12.5017375 0.505305184,12.5017375 0.262910796,12.2593431 C0.0205164076,12.0169487 0.0205164076,11.6239497 0.262910796,11.3815554 L1.47728232,10.1671838 C1.71967671,9.92478944 2.11267566,9.92478944 2.35507005,10.1671838 C2.59746443,10.4095782 2.59746443,10.8025772 2.35507005,11.0449716 L1.14069852,12.2593431 Z" id="Path-2"></path>
                        <path d="M11.0581595,2.34188206 C10.8157652,2.58427645 10.4227662,2.58427645 10.1803718,2.34188206 C9.93797743,2.09948767 9.93797743,1.70648872 10.1803718,1.46409433 L11.3815554,0.262910796 C11.6239497,0.0205164076 12.0169487,0.0205164076 12.2593431,0.262910796 C12.5017375,0.505305184 12.5017375,0.898304136 12.2593431,1.14069852 L11.0581595,2.34188206 Z" id="Path-2"></path>
                    </g>
                    <g id="Group-21" transform="translate(9.671414, 8.843827) rotate(-90.000000) translate(-9.671414, -8.843827) translate(3.464517, 2.636931)" fill="#000000" fill-rule="nonzero">
                        <path d="M1.06940487,11.4931341 C0.842160127,11.7203789 0.47372361,11.7203789 0.246478871,11.4931341 C0.0192341321,11.2658894 0.0192341321,10.8974529 0.246478871,10.6702081 L1.38495217,9.53173484 C1.61219691,9.3044901 1.98063343,9.3044901 2.20787817,9.53173484 C2.43512291,9.75897958 2.43512291,10.1274161 2.20787817,10.3546608 L1.06940487,11.4931341 Z" id="Path-2"></path>
                        <path d="M10.3670246,2.19551443 C10.1397798,2.42275917 9.77134332,2.42275917 9.54409858,2.19551443 C9.31685384,1.96826969 9.31685384,1.59983318 9.54409858,1.37258844 L10.6702081,0.246478871 C10.8974529,0.0192341321 11.2658894,0.0192341321 11.4931341,0.246478871 C11.7203789,0.47372361 11.7203789,0.842160127 11.4931341,1.06940487 L10.3670246,2.19551443 Z" id="Path-2"></path>
                    </g>
                    <path d="M11.1576033,18.4984377 L12.3719748,17.2840662" id="Path-2" stroke="#000000" stroke-width="1.5" stroke-linecap="round"></path>
                    <path d="M11.3864242,5.05259933 L12.5876077,3.8514158" id="Path-2" stroke="#000000" stroke-width="1.5" stroke-linecap="round"></path>
                    <g id="Group-14-Copy-12">
                        <g id="Oval-Copy-30">
                            <use fill="black" fill-opacity="1" filter="url(#filter-2)" xlink:href="#path-1"></use>
                            <use fill="#FFFFFF" fill-rule="evenodd" xlink:href="#path-1"></use>
                        </g>
                    </g>
                    <g id="Group-35" transform="translate(3.000000, 3.000000)" fill="#000000">
                        <g id="Group-34-Copy" transform="translate(10.053345, 7.946655) rotate(-45.000000) translate(-10.053345, -7.946655) translate(3.722311, 4.594931)">
                            <path d="M5.44554841,-0.65132863 L3.5094802,7.07072178 C3.43695203,7.36000199 3.61266427,7.65330564 3.90194449,7.72583382 C4.09559153,7.7743849 4.30022628,7.71213374 4.43403137,7.5639697 L5.94324042,5.89280372 L7.5039552,7.59906549 C7.70524361,7.81912538 8.0468139,7.83434266 8.26687379,7.63305425 C8.41308152,7.49931829 8.47430178,7.29624894 8.42637441,7.10398616 L6.4933021,-0.650619168 C6.42116575,-0.939997339 6.12810032,-1.11610663 5.83872215,-1.04397028 C5.64521538,-0.995732803 5.4940479,-0.844769902 5.44554841,-0.65132863 Z" id="Path-4" transform="translate(5.967782, 3.357236) rotate(-270.000000) translate(-5.967782, -3.357236) "></path>
                        </g>
                        <path d="M1.71210327,8.40164411 L2.67044468,8.40164411 C3.00090751,8.40164411 3.26880057,8.66953717 3.26880057,9 C3.26880057,9.33046283 3.00090751,9.59835589 2.67044468,9.59835589 L1.71210327,9.59835589 C2.00052209,13.1594614 4.84053861,15.9994779 8.40164411,16.2878967 L8.40164411,15.3295553 C8.40164411,14.9990925 8.66953717,14.7311994 9,14.7311994 C9.33046283,14.7311994 9.59835589,14.9990925 9.59835589,15.3295553 L9.59835589,16.2878967 C13.1594614,15.9994779 15.9994779,13.1594614 16.2878967,9.59835589 L15.3295553,9.59835589 C14.9990925,9.59835589 14.7311994,9.33046283 14.7311994,9 C14.7311994,8.66953717 14.9990925,8.40164411 15.3295553,8.40164411 L16.2878967,8.40164411 C15.9994779,4.84053861 13.1594614,2.00052209 9.59835589,1.71210327 L9.59835589,2.67044468 C9.59835589,3.00090751 9.33046283,3.26880057 9,3.26880057 C8.66953717,3.26880057 8.40164411,3.00090751 8.40164411,2.67044468 L8.40164411,1.71210327 C4.84053861,2.00052209 2.00052209,4.84053861 1.71210327,8.40164411 Z M17.5655172,9 C17.5655172,13.7306045 13.7306045,17.5655172 9,17.5655172 C4.26939545,17.5655172 0.434482759,13.7306045 0.434482759,9 C0.434482759,4.26939545 4.26939545,0.434482759 9,0.434482759 C13.7306045,0.434482759 17.5655172,4.26939545 17.5655172,9 Z" id="Combined-Shape" fill-rule="nonzero"></path>
                    </g>
                </g>
            </g>
        </g>
    </g>
</svg>