<?xml version="1.0" encoding="UTF-8"?>
<svg width="32px" height="32px" viewBox="0 0 32 32" version="1.1" xmlns="http://www.w3.org/2000/svg" xmlns:xlink="http://www.w3.org/1999/xlink">
    <!-- Generator: Sketch 52.6 (67491) - http://www.bohemiancoding.com/sketch -->
    <title>Group 20</title>
    <desc>Created with Sketch.</desc>
    <defs>
        <circle id="path-1" cx="12" cy="12" r="12"></circle>
        <filter x="-31.2%" y="-18.8%" width="162.5%" height="162.5%" filterUnits="objectBoundingBox" id="filter-2">
            <feOffset dx="0" dy="3" in="SourceAlpha" result="shadowOffsetOuter1"></feOffset>
            <feGaussianBlur stdDeviation="2" in="shadowOffsetOuter1" result="shadowBlurOuter1"></feGaussianBlur>
            <feColorMatrix values="0 0 0 0 0.801684736   0 0 0 0 0.801684736   0 0 0 0 0.801684736  0 0 0 0.5 0" type="matrix" in="shadowBlurOuter1"></feColorMatrix>
        </filter>
    </defs>
    <g id="Page-1" stroke="none" stroke-width="1" fill="none" fill-rule="evenodd">
        <g id="Group-20" transform="translate(4.000000, 1.000000)">
            <g id="Group-14-Copy-9">
                <g id="Oval-Copy-30">
                    <use fill="black" fill-opacity="1" filter="url(#filter-2)" xlink:href="#path-1"></use>
                    <use fill="#FFFFFF" fill-rule="evenodd" xlink:href="#path-1"></use>
                </g>
                <path d="M9.76894026,2.74571154 C9.75752163,2.84037345 9.7516453,2.93674186 9.7516453,3.03448276 C9.7516453,4.35239197 10.8200218,5.42076847 12.137931,5.42076847 C13.4558402,5.42076847 14.5242167,4.35239197 14.5242167,3.03448276 C14.5242167,2.96167345 14.5209559,2.88962575 14.5145723,2.81847773 C14.9873133,2.94764988 15.4453825,3.11235655 15.8857312,3.30954904 C15.7448802,5.2564527 14.1207517,6.79219704 12.137931,6.79219704 C10.1160226,6.79219704 8.46708777,5.19530704 8.38353883,3.19393926 C8.82936059,3.01065387 9.29216665,2.86023905 9.76894026,2.74571154 Z M7.4476453,8.69391133 L8.74593101,7.39562562 C8.99768769,7.12544527 8.99025913,6.70441673 8.72912809,6.44328569 C8.46799704,6.18215464 8.0469685,6.17472609 7.77678816,6.42648276 L6.47850244,7.72476847 C6.21111649,7.99248737 6.21111649,8.42619243 6.47850244,8.69391133 C6.60910422,8.8193271 6.78204784,8.89111501 6.96307387,8.89505419 C7.14448107,8.89294767 7.31807222,8.82089097 7.4476453,8.69391133 Z M12.8236453,10.3487685 L12.8236453,8.52019704 C12.8236453,8.1414875 12.5166406,7.83448276 12.137931,7.83448276 C11.7592215,7.83448276 11.4522167,8.1414875 11.4522167,8.52019704 L11.4522167,10.3487685 C11.4522167,10.727478 11.7592215,11.0344828 12.137931,11.0344828 C12.5166406,11.0344828 12.8236453,10.727478 12.8236453,10.3487685 Z M17.7973596,8.69391133 C18.0647455,8.42619243 18.0647455,7.99248737 17.7973596,7.72476847 L16.4990739,6.42648276 C16.2288935,6.17472609 15.807865,6.18215464 15.546734,6.44328569 C15.2856029,6.70441673 15.2781744,7.12544527 15.529931,7.39562562 L16.8282167,8.69391133 C16.9577898,8.82089097 17.131381,8.89294767 17.3127882,8.89505419 C17.4938142,8.89111501 17.6667578,8.8193271 17.7973596,8.69391133 Z" id="Shape" fill="#000000" fill-rule="nonzero"></path>
            </g>
            <path d="M7.71659483,12.3758082 L7.71659483,16.0773168 C7.71659483,16.8248922 8.16109914,17.309806 8.94100216,17.309806 C9.72090517,17.309806 10.1613685,16.8248922 10.1613685,16.0773168 L10.1613685,12.3758082 L11.3817349,12.3758082 L11.3817349,16.1945043 C11.3817349,17.4835668 10.4321121,18.3564116 8.94100216,18.3564116 C7.44989224,18.3564116 6.49622845,17.4835668 6.49622845,16.1945043 L6.49622845,12.3758082 L7.71659483,12.3758082 Z M15.8227371,18.2068966 L14.3477909,18.2068966 L12.3758082,12.3758082 L13.7537716,12.3758082 L15.0792026,16.8733836 L15.1519397,16.8733836 L16.453125,12.3758082 L17.7664332,12.3758082 L15.8227371,18.2068966 Z" id="UV-Copy" fill="#000000"></path>
        </g>
    </g>
</svg>