<?xml version="1.0" encoding="UTF-8"?>
<svg width="32px" height="32px" viewBox="0 0 32 32" version="1.1" xmlns="http://www.w3.org/2000/svg" xmlns:xlink="http://www.w3.org/1999/xlink">
    <!-- Generator: Sketch 52.6 (67491) - http://www.bohemiancoding.com/sketch -->
    <title>Group 40</title>
    <desc>Created with Sketch.</desc>
    <defs>
        <circle id="path-1" cx="12" cy="12" r="12"></circle>
        <filter x="-31.2%" y="-18.8%" width="162.5%" height="162.5%" filterUnits="objectBoundingBox" id="filter-2">
            <feOffset dx="0" dy="3" in="SourceAlpha" result="shadowOffsetOuter1"></feOffset>
            <feGaussianBlur stdDeviation="2" in="shadowOffsetOuter1" result="shadowBlurOuter1"></feGaussianBlur>
            <feColorMatrix values="0 0 0 0 0.801684736   0 0 0 0 0.801684736   0 0 0 0 0.801684736  0 0 0 0.5 0" type="matrix" in="shadowBlurOuter1"></feColorMatrix>
        </filter>
    </defs>
    <g id="Page-1" stroke="none" stroke-width="1" fill="none" fill-rule="evenodd">
        <g id="Group-40" transform="translate(4.000000, 1.000000)">
            <g id="Group-20-Copy-6">
                <g id="Group-14-Copy-9">
                    <g id="Oval-Copy-30">
                        <use fill="black" fill-opacity="1" filter="url(#filter-2)" xlink:href="#path-1"></use>
                        <use fill="#FFFFFF" fill-rule="evenodd" xlink:href="#path-1"></use>
                    </g>
                </g>
            </g>
            <g id="Group-33" transform="translate(4.137931, 3.333333)">
                <path d="M11.0118743,8.40255506 C12.3945935,8.11907737 13.4068966,6.85941862 13.4068966,5.38461746 C13.4068966,3.68512516 12.0731618,2.30769231 10.4275862,2.30769231 C9.8126172,2.30769231 9.2274626,2.4996392 8.7334794,2.8530343 C8.3718142,3.11176923 7.87295497,2.99208869 7.65875804,2.59519959 C7.30721642,1.94382218 6.66432901,1.53846154 5.95862069,1.53846154 C4.93280497,1.53846154 4.07396019,2.39428954 3.99776004,3.50357666 C3.97162195,3.88408319 3.67941762,4.18732951 3.31111354,4.21617057 C2.29313986,4.29588577 1.48965517,5.21508462 1.48965517,6.33603255 C1.48965517,7.3620124 2.16586878,8.2306518 3.07766732,8.42237581 C3.21135247,8.45048581 3.33499406,8.5159763 3.43510115,8.61170141 C3.32754174,8.50885019 3.24211714,8.47405531 3.16557107,8.45964393 C3.17339618,8.45998125 3.20293862,8.46153846 3.24744828,8.46153846 L10.8383105,8.46153846 C10.892407,8.43516525 10.9504931,8.41513912 11.0118743,8.40255506 Z M10.4275862,0.769230769 C12.8958757,0.769230769 14.8965517,2.83545639 14.8965517,5.38461746 C14.8965517,7.47401177 13.5428345,9.27471309 11.6430809,9.82715308 C11.5158997,9.93458172 11.3529162,10 11.1724138,10 L3.24744828,10 C2.99060319,10 2.80476572,9.98129285 2.63827299,9.89670811 C1.10153463,9.50184529 0,8.03639427 0,6.33603255 C0,4.63635872 1.09691732,3.18896319 2.60285641,2.78443277 C2.97497746,1.18212575 4.33900902,0 5.95862069,0 C6.95794468,0 7.8809755,0.453266125 8.52372796,1.20788585 C9.11191708,0.921501678 9.75921692,0.769230769 10.4275862,0.769230769 Z" id="Combined-Shape-Copy" fill="#000000" fill-rule="nonzero"></path>
                <path d="M4.01060632,12.8735926 C4.23881237,13.2514165 4.15194346,13.766123 3.81657918,14.0232217 C3.4812149,14.2803203 3.02435088,14.1824532 2.79614483,13.8046292 L1.78249713,12.1264074 C1.55429108,11.7485835 1.64115999,11.233877 1.97652427,10.9767783 C2.31188855,10.7196797 2.76875257,10.8175468 2.99695862,11.1953708 L4.01060632,12.8735926 Z" id="Path-Copy-12" fill="#000000" fill-rule="nonzero"></path>
                <path d="M7.32095115,16.2069259 C7.5491572,16.5847499 7.46228829,17.0994563 7.12692401,17.356555 C6.79155973,17.6136537 6.33469571,17.5157865 6.10648966,17.1379626 L5.09284195,15.4597407 C4.8646359,15.0819168 4.95150481,14.5672103 5.2868691,14.3101117 C5.62223338,14.053013 6.0790974,14.1508802 6.30730344,14.5287041 L7.32095115,16.2069259 Z" id="Path-Copy-13" fill="#000000" fill-rule="nonzero"></path>
                <path d="M11.4784651,16.1865616 C11.6715724,16.5703358 11.5980642,17.0931483 11.3142798,17.3542959 C11.0304955,17.6154436 10.6438984,17.5160351 10.4507911,17.1322609 L10.0387763,16.3134384 C9.84566897,15.9296642 9.91917721,15.4068517 10.2029615,15.1457041 C10.4867459,14.8845564 10.873343,14.9839649 11.0664503,15.3677391 L11.4784651,16.1865616 Z" id="Path-Copy-15" fill="#000000" fill-rule="nonzero"></path>
                <g id="Time-Circle" transform="translate(4.965517, 4.166667)">
                    <path d="M9.99014778,5.41666918 C9.99014778,7.98103072 7.92598802,10.0595238 5.37931034,10.0595238 C2.83263267,10.0595238 0.768472906,7.98103072 0.768472906,5.41666918 C0.768472906,2.85230261 2.83263267,0.773809524 5.37931034,0.773809524 C7.92598802,0.773809524 9.99014778,2.85230261 9.99014778,5.41666918 Z" id="Path-Copy-17" fill="#FFFFFF"></path>
                    <path d="M9.22167488,5.41666918 C9.22167488,3.27966655 7.50157289,1.54761905 5.37931034,1.54761905 C3.2570478,1.54761905 1.53694581,3.27966655 1.53694581,5.41666918 C1.53694581,7.55366743 3.25704845,9.28571429 5.37931034,9.28571429 C7.50157224,9.28571429 9.22167488,7.55366743 9.22167488,5.41666918 Z M10.7586207,5.41666918 C10.7586207,8.40839402 8.35040379,10.8333333 5.37931034,10.8333333 C2.4082169,10.8333333 0,8.40839402 0,5.41666918 C0,2.42494022 2.408216,0 5.37931034,0 C8.35040469,0 10.7586207,2.42494022 10.7586207,5.41666918 Z" id="Path" fill="#000000" fill-rule="nonzero"></path>
                    <path d="M7.24620572,6.26543153 C7.62951039,6.4489231 7.79251677,6.91056008 7.61029066,7.29652659 C7.42806455,7.6824931 6.96961127,7.84663147 6.58630659,7.6631399 L4.53704551,6.68213925 C4.26919068,6.5539146 4.09852217,6.28192816 4.09852217,5.98328506 L4.09852217,3.86904762 C4.09852217,3.44168442 4.44257921,3.0952381 4.86699507,3.0952381 C5.29141094,3.0952381 5.63546798,3.44168442 5.63546798,3.86904762 L5.63546798,5.49435614 L7.24620572,6.26543153 Z" id="Path" fill="#000000" fill-rule="nonzero"></path>
                </g>
            </g>
        </g>
    </g>
</svg>