<?xml version="1.0" encoding="UTF-8"?>
<svg width="32px" height="32px" viewBox="0 0 32 32" version="1.1" xmlns="http://www.w3.org/2000/svg" xmlns:xlink="http://www.w3.org/1999/xlink">
    <!-- Generator: Sketch 52.6 (67491) - http://www.bohemiancoding.com/sketch -->
    <title>Group 29</title>
    <desc>Created with Sketch.</desc>
    <defs>
        <circle id="path-1" cx="12" cy="12" r="12"></circle>
        <filter x="-31.2%" y="-18.8%" width="162.5%" height="162.5%" filterUnits="objectBoundingBox" id="filter-2">
            <feOffset dx="0" dy="3" in="SourceAlpha" result="shadowOffsetOuter1"></feOffset>
            <feGaussianBlur stdDeviation="2" in="shadowOffsetOuter1" result="shadowBlurOuter1"></feGaussianBlur>
            <feColorMatrix values="0 0 0 0 0.801684736   0 0 0 0 0.801684736   0 0 0 0 0.801684736  0 0 0 0.5 0" type="matrix" in="shadowBlurOuter1"></feColorMatrix>
        </filter>
    </defs>
    <g id="Page-1" stroke="none" stroke-width="1" fill="none" fill-rule="evenodd">
        <g id="Group-29" transform="translate(4.000000, 1.000000)">
            <g id="Group-20-Copy-5">
                <g id="Group-14-Copy-9">
                    <g id="Oval-Copy-30">
                        <use fill="black" fill-opacity="1" filter="url(#filter-2)" xlink:href="#path-1"></use>
                        <use fill="#FFFFFF" fill-rule="evenodd" xlink:href="#path-1"></use>
                    </g>
                </g>
            </g>
            <g id="wind-copy" transform="translate(11.586207, 11.172414) scale(-1, 1) translate(-11.586207, -11.172414) translate(4.137931, 4.965517)" fill="#000000">
                <path d="M14.1830113,7.52706289 L9.61670311,7.52706289 C8.75138702,7.52706289 8.04757585,6.7492963 8.04757585,5.79331842 C8.04757585,4.83734053 8.75138702,4.05914401 9.61670311,4.05914401 C10.3335514,4.05914401 10.9583614,4.59356295 11.1367951,5.35843125 C11.2348656,5.77999019 11.6236449,6.03387143 12.0056138,5.9250959 C12.3871934,5.81653533 12.6169974,5.38702244 12.5187324,4.9654635 C12.1778208,3.50387284 10.9844357,2.48275862 9.61689769,2.48275862 C7.96487755,2.48275862 6.62068966,3.96799613 6.62068966,5.79331842 C6.62068966,7.61864071 7.96487755,9.10344828 9.61689769,9.10344828 L14.1832059,9.10344828 C14.5770444,9.10344828 14.8965517,8.75068018 14.8965517,8.31536307 C14.8965517,7.88004595 14.5768498,7.52706289 14.1830113,7.52706289 Z" id="Path"></path>
                <path d="M12.5058586,10.8820813 L2.78298088,10.8820813 C2.05969878,10.8820813 1.47144271,10.2697308 1.47144271,9.51724138 C1.47144271,8.76475195 2.05969878,8.15219256 2.78298088,8.15219256 C3.50566109,8.15219256 4.09371653,8.7645431 4.09371653,9.51724138 C4.09371653,9.94016425 4.42335661,10.2830973 4.82963852,10.2830973 C5.23592042,10.2830973 5.56515924,9.94016425 5.56515924,9.51724138 C5.56515924,7.92036817 4.31661983,6.62068966 2.78298088,6.62068966 C1.2485394,6.62068966 0,7.92015932 0,9.51724138 C0,11.1143234 1.2485394,12.4137931 2.78298088,12.4137931 L12.5058586,12.4137931 C12.9115386,12.4137931 13.2413793,12.0708601 13.2413793,11.6479372 C13.2413793,11.2250144 12.9115386,10.8820813 12.5058586,10.8820813 Z" id="Path"></path>
                <path d="M4.67147409,5.79310345 C4.86472733,5.79310345 5.05681406,5.70055636 5.19776839,5.51822477 C5.46315136,5.17405089 5.44312613,4.64017849 5.15227416,4.32570255 C4.63006268,3.76052068 4.59370618,2.79775467 5.07061786,2.17939276 C5.29847782,1.8840248 5.6101327,1.70929037 5.94745099,1.68718957 C6.34037333,1.66163552 6.64152955,1.26336073 6.61956011,0.797862669 C6.59797952,0.332594827 6.26299427,-0.0244711901 5.86890541,0.00131307423 C5.1565514,0.04827727 4.49960702,0.417084336 4.0184181,1.04051101 C3.01054605,2.34606961 3.08811954,4.37888259 4.19047959,5.57209547 C4.32696227,5.71989455 4.49980144,5.79310345 4.67147409,5.79310345 Z" id="Path"></path>
            </g>
        </g>
    </g>
</svg>