<?xml version="1.0" encoding="UTF-8"?>
<svg width="32px" height="32px" viewBox="0 0 32 32" version="1.1" xmlns="http://www.w3.org/2000/svg" xmlns:xlink="http://www.w3.org/1999/xlink">
    <!-- Generator: Sketch 52.6 (67491) - http://www.bohemiancoding.com/sketch -->
    <title>Group 42</title>
    <desc>Created with Sketch.</desc>
    <defs>
        <circle id="path-1" cx="12" cy="12" r="12"></circle>
        <filter x="-31.2%" y="-18.8%" width="162.5%" height="162.5%" filterUnits="objectBoundingBox" id="filter-2">
            <feOffset dx="0" dy="3" in="SourceAlpha" result="shadowOffsetOuter1"></feOffset>
            <feGaussianBlur stdDeviation="2" in="shadowOffsetOuter1" result="shadowBlurOuter1"></feGaussianBlur>
            <feColorMatrix values="0 0 0 0 0.801684736   0 0 0 0 0.801684736   0 0 0 0 0.801684736  0 0 0 0.5 0" type="matrix" in="shadowBlurOuter1"></feColorMatrix>
        </filter>
    </defs>
    <g id="Page-1" stroke="none" stroke-width="1" fill="none" fill-rule="evenodd">
        <g id="Group-42" transform="translate(4.000000, 1.000000)">
            <g id="Group-40-Copy">
                <g id="Group-20-Copy-6">
                    <g id="Group-14-Copy-9">
                        <g id="Oval-Copy-30">
                            <use fill="black" fill-opacity="1" filter="url(#filter-2)" xlink:href="#path-1"></use>
                            <use fill="#FFFFFF" fill-rule="evenodd" xlink:href="#path-1"></use>
                        </g>
                    </g>
                </g>
            </g>
            <g id="Group-41" transform="translate(4.000000, 3.000000)">
                <path d="M11.1498054,8.7358884 C12.5325246,8.4524107 13.5448276,7.19275195 13.5448276,5.7179508 C13.5448276,4.01845849 12.2110929,2.64102564 10.5655172,2.64102564 C9.95054823,2.64102564 9.36539363,2.83297253 8.87141043,3.18636764 C8.50974524,3.44510256 8.010886,3.32542203 7.79668908,2.92853292 C7.44514746,2.27715551 6.80226005,1.87179487 6.09655172,1.87179487 C5.070736,1.87179487 4.21189122,2.72762288 4.13569108,3.83691 C4.10955298,4.21741653 3.81734865,4.52066285 3.44904457,4.5495039 C2.4310709,4.6292191 1.62758621,5.54841796 1.62758621,6.66936588 C1.62758621,7.69534574 2.30379982,8.56398513 3.21559835,8.75570914 C3.3492835,8.78381914 3.4729251,8.84930964 3.57303219,8.94503474 C3.46547277,8.84218352 3.38004818,8.80738865 3.30350211,8.79297727 C3.31132722,8.79331458 3.34086965,8.79487179 3.38537931,8.79487179 L10.9762415,8.79487179 C11.030338,8.76849859 11.0884241,8.74847245 11.1498054,8.7358884 Z M10.5655172,1.1025641 C13.0338068,1.1025641 15.0344828,3.16878972 15.0344828,5.7179508 C15.0344828,7.8073451 13.6807655,9.60804643 11.781012,10.1604864 C11.6538307,10.267915 11.4908473,10.3333333 11.3103448,10.3333333 L3.38537931,10.3333333 C3.12853423,10.3333333 2.94269675,10.3146262 2.77620402,10.2300414 C1.23946567,9.83517862 0.137931034,8.36972761 0.137931034,6.66936588 C0.137931034,4.96969206 1.23484836,3.52229652 2.74078744,3.11776611 C3.11290849,1.51545908 4.47694005,0.333333333 6.09655172,0.333333333 C7.09587571,0.333333333 8.01890654,0.786599459 8.661659,1.54121918 C9.24984812,1.25483501 9.89714796,1.1025641 10.5655172,1.1025641 Z" id="Combined-Shape-Copy" fill="#000000" fill-rule="nonzero"></path>
                <path d="M4.14853736,13.2069259 C4.37674341,13.5847499 4.2898745,14.0994563 3.95451022,14.356555 C3.61914593,14.6136537 3.16228191,14.5157865 2.93407587,14.1379626 L1.92042816,12.4597407 C1.69222211,12.0819168 1.77909102,11.5672103 2.1144553,11.3101117 C2.44981958,11.053013 2.9066836,11.1508802 3.13488965,11.5287041 L4.14853736,13.2069259 Z" id="Path-Copy-12" fill="#000000" fill-rule="nonzero"></path>
                <path d="M7.45888219,16.5402593 C7.68708823,16.9180832 7.60021932,17.4327897 7.26485504,17.6898883 C6.92949076,17.946987 6.47262674,17.8491198 6.24442069,17.4712959 L5.23077299,15.7930741 C5.00256694,15.4152501 5.08943585,14.9005437 5.42480013,14.643445 C5.76016441,14.3863463 6.21702843,14.4842135 6.44523448,14.8620374 L7.45888219,16.5402593 Z" id="Path-Copy-13" fill="#000000" fill-rule="nonzero"></path>
                <path d="M11.6163961,16.5198949 C11.8095034,16.9036691 11.7359952,17.4264816 11.4522109,17.6876293 C11.1684265,17.9487769 10.7818294,17.8493685 10.5887221,17.4655943 L10.1767073,16.6467717 C9.9836,16.2629975 10.0571082,15.7401851 10.3408926,15.4790374 C10.6246769,15.2178897 11.011274,15.3172982 11.2043813,15.7010724 L11.6163961,16.5198949 Z" id="Path-Copy-15" fill="#000000" fill-rule="nonzero"></path>
                <rect id="Rectangle-Copy-124" fill="#FFFFFF" x="5.93103448" y="6.16666667" width="8.27586207" height="7.5" rx="2.7"></rect>
                <path d="M11.4827586,6.86111111 L11.4827586,5.33333333 L12.5517241,5.33333333 C14.3799771,5.33333333 15.862069,6.70135215 15.862069,8.38888889 L15.862069,11.4444444 C15.862069,13.1319812 14.3799771,14.5 12.5517241,14.5 L8.4137931,14.5 C6.58554014,14.5 5.10344828,13.1319812 5.10344828,11.4444444 L5.10344828,8.38888889 C5.10344828,6.96512266 6.15843265,5.76879605 7.5862069,5.42959669 L7.5862069,7.06550058 C7.09147473,7.32966055 6.75862069,7.82339542 6.75862069,8.38888889 L6.75862069,11.4444444 C6.75862069,12.2882128 7.49966662,12.9722222 8.4137931,12.9722222 L12.5517241,12.9722222 C13.4658506,12.9722222 14.2068966,12.2882128 14.2068966,11.4444444 L14.2068966,8.38888889 C14.2068966,7.54512052 13.4658506,6.86111111 12.5517241,6.86111111 L11.4827586,6.86111111 Z M10.4827586,6.86111111 L8.5862069,6.86111111 L8.5862069,5.33333333 L10.4827586,5.33333333 L10.4827586,6.86111111 Z" id="Combined-Shape" fill="#000000" fill-rule="nonzero"></path>
                <g id="Group-38-Copy" transform="translate(8.413793, 4.500000)" fill="#000000" fill-rule="nonzero">
                    <path d="M1.37931034,4.21488625 C1.37931034,4.62097798 1.07054121,4.95018037 0.689655172,4.95018037 C0.308769138,4.95018037 0,4.62097798 0,4.21488625 L1.22507368e-16,0.735294118 C1.22507368e-16,0.32920239 0.308769138,0 0.689655172,0 C1.07054121,0 1.37931034,0.32920239 1.37931034,0.735294118 L1.37931034,4.21488625 Z" id="Path-Copy-18"></path>
                    <path d="M4.13793103,4.21488625 C4.13793103,4.62097798 3.8291619,4.95018037 3.44827586,4.95018037 C3.06738983,4.95018037 2.75862069,4.62097798 2.75862069,4.21488625 L2.75862069,0.735294118 C2.75862069,0.32920239 3.06738983,9.09494702e-13 3.44827586,9.09494702e-13 C3.8291619,9.09494702e-13 4.13793103,0.32920239 4.13793103,0.735294118 L4.13793103,4.21488625 Z" id="Path-Copy-19"></path>
                </g>
            </g>
        </g>
    </g>
</svg>