<?xml version="1.0" encoding="UTF-8"?>
<svg width="32px" height="32px" viewBox="0 0 32 32" version="1.1" xmlns="http://www.w3.org/2000/svg" xmlns:xlink="http://www.w3.org/1999/xlink">
    <!-- Generator: Sketch 52.6 (67491) - http://www.bohemiancoding.com/sketch -->
    <title>Group 11 Copy 6</title>
    <desc>Created with Sketch.</desc>
    <defs>
        <circle id="path-1" cx="12" cy="12" r="12"></circle>
        <filter x="-31.2%" y="-18.8%" width="162.5%" height="162.5%" filterUnits="objectBoundingBox" id="filter-2">
            <feOffset dx="0" dy="3" in="SourceAlpha" result="shadowOffsetOuter1"></feOffset>
            <feGaussianBlur stdDeviation="2" in="shadowOffsetOuter1" result="shadowBlurOuter1"></feGaussianBlur>
            <feColorMatrix values="0 0 0 0 0.801684736   0 0 0 0 0.801684736   0 0 0 0 0.801684736  0 0 0 0.5 0" type="matrix" in="shadowBlurOuter1"></feColorMatrix>
        </filter>
    </defs>
    <g id="Page-1" stroke="none" stroke-width="1" fill="none" fill-rule="evenodd">
        <g id="Group-11-Copy-6" transform="translate(4.000000, 1.000000)">
            <g id="Oval-Copy-11">
                <use fill="black" fill-opacity="1" filter="url(#filter-2)" xlink:href="#path-1"></use>
                <use fill="#FFFFFF" fill-rule="evenodd" xlink:href="#path-1"></use>
            </g>
            <g id="Group-6-Copy-2" transform="translate(6.689655, 1.517241)" stroke="#000000">
                <g id="Group-3" transform="translate(0.000000, 0.331142)">
                    <path d="M5.31034483,13.1839475 L5.31034483,10.1433405" id="Line-2" stroke-width="1.5" stroke-linecap="square"></path>
                    <path d="M5.31034483,1.70334069 L5.31034483,0.87575448" id="Line-2" stroke-width="1.5" stroke-linecap="square"></path>
                    <path d="" id="Line-2" stroke-width="1.79976431" stroke-linecap="square" transform="translate(1.125000, 8.020580) rotate(-270.000000) translate(-1.125000, -8.020580) "></path>
                    <path d="" id="Line-2" stroke-width="1.79976431" stroke-linecap="square" transform="translate(16.125000, 8.020580) rotate(-270.000000) translate(-16.125000, -8.020580) "></path>
                    <path d="M0.886827966,3.46112284 L0.886827966,2.63353663" id="Line-2" stroke-width="1.5" stroke-linecap="square" transform="translate(0.886828, 3.047330) rotate(-240.000000) translate(-0.886828, -3.047330) "></path>
                    <path d="M10.16269,3.4922595 L10.16269,2.66467329" id="Line-2" stroke-width="1.5" stroke-linecap="square" transform="translate(10.162690, 3.078466) rotate(-300.000000) translate(-10.162690, -3.078466) "></path>
                    <ellipse id="Oval" stroke-width="1.5" fill="#000000" cx="5.31034483" cy="14.1773737" rx="1" ry="1"></ellipse>
                    <path d="M2.31034483,11.5489424 L2.31034483,8.13793103 C2.31034483,6.48107678 3.65349058,5.13793103 5.31034483,5.13793103 C6.96719908,5.13793103 8.31034483,6.48107678 8.31034483,8.13793103 L8.31034483,11.5489424 C8.93270824,12.2494402 9.31034483,13.169596 9.31034483,14.1773737 C9.31034483,16.3719903 7.51948383,18.1510786 5.31034483,18.1510786 C3.10120583,18.1510786 1.31034483,16.3719903 1.31034483,14.1773737 C1.31034483,13.169596 1.68798142,12.2494402 2.31034483,11.5489424 Z" id="Combined-Shape" stroke-width="1.5"></path>
                </g>
            </g>
        </g>
    </g>
</svg>