<?xml version="1.0" encoding="UTF-8"?>
<svg width="32px" height="32px" viewBox="0 0 32 32" version="1.1" xmlns="http://www.w3.org/2000/svg" xmlns:xlink="http://www.w3.org/1999/xlink">
    <!-- Generator: Sketch 52.6 (67491) - http://www.bohemiancoding.com/sketch -->
    <title>Group 11 Copy 29</title>
    <desc>Created with Sketch.</desc>
    <defs>
        <circle id="path-1" cx="12" cy="12" r="12"></circle>
        <filter x="-31.2%" y="-18.8%" width="162.5%" height="162.5%" filterUnits="objectBoundingBox" id="filter-2">
            <feOffset dx="0" dy="3" in="SourceAlpha" result="shadowOffsetOuter1"></feOffset>
            <feGaussianBlur stdDeviation="2" in="shadowOffsetOuter1" result="shadowBlurOuter1"></feGaussianBlur>
            <feColorMatrix values="0 0 0 0 0.801684736   0 0 0 0 0.801684736   0 0 0 0 0.801684736  0 0 0 0.5 0" type="matrix" in="shadowBlurOuter1"></feColorMatrix>
        </filter>
    </defs>
    <g id="Mockups" stroke="none" stroke-width="1" fill="none" fill-rule="evenodd">
        <g id="Group-11-Copy-29" transform="translate(4.000000, 1.000000)">
            <g id="Oval-Copy-11">
                <use fill="black" fill-opacity="1" filter="url(#filter-2)" xlink:href="#path-1"></use>
                <use fill="#FFFFFF" fill-rule="evenodd" xlink:href="#path-1"></use>
            </g>
            <g id="Icons-/-Chat" transform="translate(3.000000, 3.000000)" fill="#000000">
                <path d="M7.84809375,17.226625 C6.18984375,17.129 4.58659375,16.46625 3.32434375,15.359375 C2.03184375,14.223625 1.16696875,12.6905 0.86446875,10.99925 C0.71184375,10.14675 0.71184375,9.21175 0.86446875,8.35925 C1.10784375,6.99525 1.71421875,5.737125 2.62859375,4.694875 C3.86059375,3.292375 5.56559375,2.393125 7.40809375,2.173125 C8.52596875,2.03975 9.58746875,2.148375 10.6915937,2.511375 C10.8084687,2.549875 10.8387187,2.563625 10.8318437,2.580125 C10.8098437,2.642 10.7520937,2.96925 10.7342187,3.152125 C10.7094687,3.391375 10.7149687,3.658125 10.7493437,3.861625 C10.7603437,3.933125 10.7685937,3.993625 10.7644687,3.996375 C10.7617187,3.999125 10.7039687,3.979875 10.6379687,3.952375 C8.69371875,3.146625 6.41946875,3.4175 4.69934375,4.659125 C4.17134375,5.04 3.66946875,5.541875 3.28859375,6.069875 C2.45534375,7.2235 2.04146875,8.66175 2.13496875,10.067 C2.24771875,11.728 2.98884375,13.233625 4.23184375,14.325375 C6.32459375,16.162375 9.36746875,16.37825 11.6898437,14.853375 C13.0895937,13.93625 14.0754687,12.460875 14.3779687,10.83425 C14.3908021,10.7664167 14.4082187,10.6683333 14.4302187,10.54 L15.8354688,8.63002282 C15.8272188,8.80334094 15.8272187,8.935375 15.8354687,9.026125 C15.9454687,10.172875 15.7708437,11.374625 15.3335937,12.4705 C14.5649687,14.399625 13.0290937,15.9355 11.0999687,16.704125 C10.0742187,17.113875 8.96321875,17.29125 7.84809375,17.226625 Z M8.01309375,14.482125 C6.96259375,14.399625 6.09496875,14.061375 5.29059375,13.423375 C5.09671875,13.269375 4.71859375,12.89125 4.56459375,12.697375 C3.98296875,11.9645 3.65296875,11.179375 3.52784375,10.236125 C3.49484375,9.9845 3.49484375,9.38225 3.52784375,9.143 C3.57321875,8.817125 3.69421875,8.29875 3.76296875,8.132375 L3.78221875,8.087 C4.09106831,7.58780373 4.43695749,7.40963648 4.81988629,7.55249825 C5.39427948,7.7667909 5.07196875,8.5435 5.07334375,8.5435 C5.07471875,8.544875 5.05684375,8.604 5.03484375,8.6755 C4.98396875,8.836375 4.92071875,9.119625 4.89734375,9.29425 C4.86984375,9.490875 4.87396875,9.95425 4.90284375,10.14675 C5.04859375,11.09275 5.51334375,11.8765 6.26271875,12.436125 C6.73021875,12.78675 7.27059375,13.004 7.88934375,13.092 C8.05434375,13.115375 8.56859375,13.115375 8.72809375,13.090625 C9.25196875,13.013625 9.70159375,12.851375 10.1017187,12.597 L10.1965937,12.5365 L9.43346875,11.773375 L8.67034375,11.01025 L8.54246875,11.03225 C7.79446875,11.160125 7.08496875,10.656875 6.95434375,9.90475 C6.79484375,8.989 7.61846875,8.165375 8.53421875,8.324875 C9.28634375,8.4555 9.78959375,9.165 9.66171875,9.913 L9.63971875,10.040875 L11.1082187,11.509375 L12.3818188,12.7764613 C12.6594543,13.1205562 12.6594543,13.4411524 12.3818188,13.73825 C12.1041834,14.0353476 11.7810584,14.0378763 11.4124438,13.7458363 L11.3983437,13.73825 L11.1893437,13.52925 L11.1205937,13.57875 C10.5320937,14.005 9.82946875,14.300625 9.11034375,14.423 C8.79546875,14.478 8.29084375,14.5055 8.01309375,14.482125 Z M12.1738437,11.0625 L11.6334687,10.522125 L11.6747187,10.310375 C11.6980937,10.1935 11.7242187,10.021625 11.7338437,9.92675 C11.7682187,9.5555 11.7104687,9.072875 11.5825937,8.6755 C11.5592187,8.604 11.5427187,8.544875 11.5440937,8.5435 C11.5465445,8.54166192 11.1614593,7.89714274 11.8110633,7.60271694 C12.4606673,7.30829114 12.817358,8.09463731 12.8242187,8.093875 C12.8599687,8.087 13.0029687,8.610875 13.0579687,8.9505 C13.1803437,9.6985 13.1170937,10.4685 12.8723437,11.193125 C12.8269687,11.330625 12.7279687,11.58775 12.7169687,11.600125 C12.7155937,11.6015 12.4708437,11.3595 12.1738437,11.0625 Z M13.9778437,8.074625 C13.3500838,7.291172 13.3233437,7.084625 13.0222187,6.578625 C12.7183437,6.069875 12.5822187,5.822375 12.3525937,5.36175 C11.8974687,4.446 11.7269687,3.885 11.7517187,3.38175 C11.7860937,2.681875 12.0459687,2.076875 12.5230937,1.581875 C12.9410937,1.147375 13.4649687,0.8765 14.0837187,0.77475 C14.2830937,0.74175 14.7093437,0.74175 14.9087187,0.77475 C15.5274687,0.8765 16.0513437,1.147375 16.4693437,1.581875 C16.9464687,2.076875 17.2063437,2.681875 17.2407187,3.38175 C17.2654687,3.885 17.0949687,4.446 16.6398437,5.36175 C16.3662187,5.91175 16.0151446,6.46743916 15.6402187,7.12175 C14.6112224,8.91752769 14.1579183,8.29936055 13.9778437,8.074625 Z M14.6955937,6.031375 C15.3652187,4.917625 15.7529687,4.114625 15.8492187,3.64025 C15.8767187,3.50825 15.8767187,3.43675 15.8505937,3.2745 C15.7694687,2.772625 15.4105937,2.351875 14.9265937,2.186875 C14.8179687,2.151125 14.6130937,2.11675 14.4962187,2.11675 C13.9173437,2.11675 13.3810937,2.5045 13.1913437,3.061375 C13.1583437,3.16175 13.1212187,3.372125 13.1212187,3.468375 C13.1212187,3.7915 13.4718437,4.615125 13.9943437,5.519875 C14.1620937,5.811375 14.4879687,6.35175 14.4962187,6.35175 C14.5003437,6.35175 14.5897187,6.207375 14.6955937,6.031375 Z" id="Combined-Shape" transform="translate(8.996525, 8.994796) scale(1, -1) translate(-8.996525, -8.994796) "></path>
            </g>
        </g>
    </g>
</svg>