<?xml version="1.0" encoding="UTF-8"?>
<svg width="30px" height="30px" viewBox="0 0 30 30" version="1.1" xmlns="http://www.w3.org/2000/svg" xmlns:xlink="http://www.w3.org/1999/xlink">
    <!-- Generator: Sketch 52.6 (67491) - http://www.bohemiancoding.com/sketch -->
    <title>Group 6 Copy</title>
    <desc>Created with Sketch.</desc>
    <defs>
        <filter x="-43.8%" y="-43.8%" width="187.5%" height="187.5%" filterUnits="objectBoundingBox" id="filter-1">
            <feOffset dx="0" dy="2" in="SourceAlpha" result="shadowOffsetOuter1"></feOffset>
            <feGaussianBlur stdDeviation="1.5" in="shadowOffsetOuter1" result="shadowBlurOuter1"></feGaussianBlur>
            <feColorMatrix values="0 0 0 0 0.801684736   0 0 0 0 0.801684736   0 0 0 0 0.801684736  0 0 0 0.5 0" type="matrix" in="shadowBlurOuter1" result="shadowMatrixOuter1"></feColorMatrix>
            <feMerge>
                <feMergeNode in="shadowMatrixOuter1"></feMergeNode>
                <feMergeNode in="SourceGraphic"></feMergeNode>
            </feMerge>
        </filter>
    </defs>
    <g id="Page-1" stroke="none" stroke-width="1" fill="none" fill-rule="evenodd">
        <g id="Group-6-Copy" filter="url(#filter-1)" transform="translate(3.000000, 1.000000)">
            <g id="Group-11-Copy-16" fill="#FFFFFF">
                <circle id="Oval-Copy-11" cx="12" cy="12" r="12"></circle>
            </g>
            <path d="M9.85102371,6.75323276 C12.4271282,6.75323276 14.0576509,8.51710668 14.0576509,11.3477909 C14.0576509,14.1784752 12.4331897,15.9484106 9.85102371,15.9484106 C7.25067349,15.9484106 5.63833513,14.1784752 5.63833513,11.3477909 C5.63833513,8.51104526 7.27491918,6.75323276 9.85102371,6.75323276 Z M9.85102371,8.3049569 C8.42658944,8.3049569 7.51131466,9.48693427 7.51131466,11.3477909 C7.51131466,13.2025862 8.40840517,14.3966864 9.85102371,14.3966864 C11.275458,14.3966864 12.1846713,13.2025862 12.1846713,11.3477909 C12.1846713,9.48693427 11.2693966,8.3049569 9.85102371,8.3049569 Z M16.5549569,14.936153 L16.5549569,13.9905711 L17.2762662,13.9905711 C17.7733028,13.9905711 18.1006196,13.7420528 18.1006196,13.372306 C18.1006196,13.0207435 17.7975485,12.7661638 17.288389,12.7661638 C16.7549838,12.7661638 16.4337284,13.0146821 16.4034213,13.4329203 L15.1547683,13.4329203 C15.1850754,12.3903556 16.0276131,11.7175377 17.3550647,11.7175377 C18.6582705,11.7175377 19.3795797,12.3661099 19.3795797,13.1662177 C19.3735183,13.8147899 18.9370959,14.233028 18.3188308,14.3724407 L18.3188308,14.4451778 C19.1310614,14.548222 19.6038524,15.0270744 19.6038524,15.7301994 C19.6038524,16.6818427 18.6461476,17.3425377 17.3065733,17.3425377 C15.9791218,17.3425377 15.0759698,16.6515356 15.0274784,15.5847252 L16.3306843,15.5847252 C16.35493,15.9847791 16.7246767,16.2332974 17.288389,16.2332974 C17.8399784,16.2332974 18.2157866,15.9787177 18.2157866,15.5847252 C18.2157866,15.1786099 17.8581627,14.936153 17.2762662,14.936153 L16.5549569,14.936153 Z" id="O₃" fill="#000000"></path>
        </g>
    </g>
</svg>