<?xml version="1.0" encoding="UTF-8"?>
<svg width="30px" height="30px" viewBox="0 0 30 30" version="1.1" xmlns="http://www.w3.org/2000/svg" xmlns:xlink="http://www.w3.org/1999/xlink">
    <!-- Generator: Sketch 52.6 (67491) - http://www.bohemiancoding.com/sketch -->
    <title>Group 18 Copy 3</title>
    <desc>Created with Sketch.</desc>
    <defs>
        <filter x="-43.8%" y="-43.8%" width="187.5%" height="187.5%" filterUnits="objectBoundingBox" id="filter-1">
            <feOffset dx="0" dy="2" in="SourceAlpha" result="shadowOffsetOuter1"></feOffset>
            <feGaussianBlur stdDeviation="1.5" in="shadowOffsetOuter1" result="shadowBlurOuter1"></feGaussianBlur>
            <feColorMatrix values="0 0 0 0 0.801684736   0 0 0 0 0.801684736   0 0 0 0 0.801684736  0 0 0 0.5 0" type="matrix" in="shadowBlurOuter1" result="shadowMatrixOuter1"></feColorMatrix>
            <feMerge>
                <feMergeNode in="shadowMatrixOuter1"></feMergeNode>
                <feMergeNode in="SourceGraphic"></feMergeNode>
            </feMerge>
        </filter>
    </defs>
    <g id="Page-1" stroke="none" stroke-width="1" fill="none" fill-rule="evenodd">
        <g id="Group-18-Copy-3" filter="url(#filter-1)" transform="translate(3.000000, 1.000000)">
            <circle id="Oval-Copy-31" fill="#FFFFFF" cx="12" cy="12" r="12"></circle>
            <g id="Group-8-Copy-2" transform="translate(11.625000, 12.000000) rotate(-180.000000) translate(-11.625000, -12.000000) translate(3.000000, 5.250000)" fill="#000000" fill-rule="nonzero">
                <g id="24-env-pm1" transform="translate(0.303571, 0.125000)">
                    <path d="M9.60803571,0.18375 C10.1110093,0.18375 10.51875,0.575500844 10.51875,1.05875 C10.51875,1.54199916 10.1110093,1.93375 9.60803571,1.93375 C9.1050621,1.93375 8.69732143,1.54199916 8.69732143,1.05875 C8.69732143,0.575500844 9.1050621,0.18375 9.60803571,0.18375 Z M14.3619643,7.81375 C14.3619643,8.29699916 14.769705,8.68875 15.2726786,8.68875 C15.7756522,8.68875 16.1833929,8.29699916 16.1833929,7.81375 C16.1833929,7.33050084 15.7756522,6.93875 15.2726786,6.93875 C14.769705,6.93875 14.3619643,7.33050084 14.3619643,7.81375 Z M3.04178571,7.81375 C3.04178571,8.29699916 3.44952639,8.68875 3.9525,8.68875 C4.45547361,8.68875 4.86321429,8.29699916 4.86321429,7.81375 C4.86321429,7.33050084 4.45547361,6.93875 3.9525,6.93875 C3.44952639,6.93875 3.04178571,7.33050084 3.04178571,7.81375 Z M5.87410714,4.43625 C5.87410714,4.91949916 6.28184782,5.31125 6.78482143,5.31125 C7.28779504,5.31125 7.69553571,4.91949916 7.69553571,4.43625 C7.69553571,3.95300084 7.28779504,3.56125 6.78482143,3.56125 C6.28184782,3.56125 5.87410714,3.95300084 5.87410714,4.43625 Z M8.69732143,7.81375 C8.69732143,8.29699916 9.1050621,8.68875 9.60803571,8.68875 C10.1110093,8.68875 10.51875,8.29699916 10.51875,7.81375 C10.51875,7.33050084 10.1110093,6.93875 9.60803571,6.93875 C9.1050621,6.93875 8.69732143,7.33050084 8.69732143,7.81375 Z M0.209464286,4.43625 C0.209464286,4.91949916 0.61720496,5.31125 1.12017857,5.31125 C1.62315218,5.31125 2.03089286,4.91949916 2.03089286,4.43625 C2.03089286,3.95300084 1.62315218,3.56125 1.12017857,3.56125 C0.61720496,3.56125 0.209464286,3.95300084 0.209464286,4.43625 Z M11.5296429,4.43625 C11.5296429,4.91949916 11.9373835,5.31125 12.4403571,5.31125 C12.9433308,5.31125 13.3510714,4.91949916 13.3510714,4.43625 C13.3510714,3.95300084 12.9433308,3.56125 12.4403571,3.56125 C11.9373835,3.56125 11.5296429,3.95300084 11.5296429,4.43625 Z M5.87410714,11.19125 C5.87410714,11.6744992 6.28184782,12.06625 6.78482143,12.06625 C7.28779504,12.06625 7.69553571,11.6744992 7.69553571,11.19125 C7.69553571,10.7080008 7.28779504,10.31625 6.78482143,10.31625 C6.28184782,10.31625 5.87410714,10.7080008 5.87410714,11.19125 Z M11.5296429,11.19125 C11.5296429,11.6744992 11.9373835,12.06625 12.4403571,12.06625 C12.9433308,12.06625 13.3510714,11.6744992 13.3510714,11.19125 C13.3510714,10.7080008 12.9433308,10.31625 12.4403571,10.31625 C11.9373835,10.31625 11.5296429,10.7080008 11.5296429,11.19125 Z M3.04178571,1.05875 C3.04178571,1.54199916 3.44952639,1.93375 3.9525,1.93375 C4.45547361,1.93375 4.86321429,1.54199916 4.86321429,1.05875 C4.86321429,0.575500844 4.45547361,0.18375 3.9525,0.18375 C3.44952639,0.18375 3.04178571,0.575500844 3.04178571,1.05875 Z" id="Shape"></path>
                </g>
            </g>
        </g>
    </g>
</svg>