<?xml version="1.0" encoding="UTF-8"?>
<svg width="29px" height="29px" viewBox="0 0 29 29" version="1.1" xmlns="http://www.w3.org/2000/svg" xmlns:xlink="http://www.w3.org/1999/xlink">
    <!-- Generator: Sketch 52.6 (67491) - http://www.bohemiancoding.com/sketch -->
    <title>Group 19 Copy</title>
    <desc>Created with Sketch.</desc>
    <g id="Page-1" stroke="none" stroke-width="1" fill="none" fill-rule="evenodd">
        <g id="icons" transform="translate(-59.000000, -416.000000)">
            <g id="Group-19-Copy" transform="translate(59.000000, 416.000000)">
                <circle id="Oval-Copy-32" fill="#FFFFFF" transform="translate(14.500000, 14.500000) rotate(-360.000000) translate(-14.500000, -14.500000) " cx="14.5" cy="14.5" r="14.5"></circle>
                <g id="Group-9-Copy-2" transform="translate(14.197917, 14.802083) rotate(-180.000000) translate(-14.197917, -14.802083) translate(2.718750, 6.343750)" fill="#000000" fill-rule="nonzero">
                    <g id="24-env-pm2" transform="translate(0.717448, 0.000000)">
                        <path d="M12.4297852,0.909270833 C13.2321621,0.909270833 13.8826172,1.5483144 13.8826172,2.33661458 C13.8826172,3.12491477 13.2321621,3.76395833 12.4297852,3.76395833 C11.6274082,3.76395833 10.9769531,3.12491477 10.9769531,2.33661458 C10.9740602,1.95719531 11.1261968,1.59249112 11.3992853,1.32419365 C11.6723738,1.05589619 12.0435905,0.906428621 12.4297852,0.909270833 Z M17.6707422,10.4989063 C17.6707422,11.2872064 18.3211972,11.92625 19.1235742,11.92625 C19.9259512,11.92625 20.5764062,11.2872064 20.5764062,10.4989063 C20.5764062,9.71060606 19.9259512,9.0715625 19.1235742,9.0715625 C18.7373796,9.06872029 18.3661628,9.21818785 18.0930743,9.48648532 C17.8199858,9.75478279 17.6678492,10.119487 17.6707422,10.4989062 Z M4.3046875,10.4989063 C4.3046875,11.0762129 4.65865866,11.5966742 5.20154478,11.8175999 C5.74443091,12.0385256 6.36931986,11.9164081 6.78482691,11.5081907 C7.20033396,11.0999732 7.3246321,10.4860472 7.09976131,9.95268544 C6.87489051,9.41932364 6.34513524,9.0715625 5.75751953,9.0715625 C5.37132491,9.06872029 5.00010815,9.21818785 4.72701966,9.48648532 C4.45393116,9.75478279 4.30179453,10.119487 4.3046875,10.4989062 Z M7.64082031,6.41776042 C7.64082031,6.99506707 7.99479147,7.5155284 8.5376776,7.73645409 C9.08056372,7.95737979 9.70545268,7.83526231 10.1209597,7.42704486 C10.5364668,7.01882741 10.6607649,6.40490142 10.4358941,5.87153961 C10.2110233,5.33817781 9.68126805,4.99041667 9.09365234,4.99041667 C8.70745773,4.98757445 8.33624096,5.13704202 8.06315247,5.40533949 C7.79006397,5.67363696 7.63792735,6.03834114 7.64082031,6.41776042 Z M10.9769531,10.4989063 C10.9769531,11.2872064 11.6274082,11.92625 12.4297852,11.92625 C13.2321621,11.92625 13.8826172,11.2872064 13.8826172,10.4989063 C13.8826172,9.71060606 13.2321621,9.0715625 12.4297852,9.0715625 C11.6274082,9.0715625 10.9769531,9.71060606 10.9769531,10.4989063 Z M0.94703125,6.41776042 C0.94703125,7.2060606 1.59748631,7.84510417 2.39986328,7.84510417 C3.20224026,7.84510417 3.85269531,7.2060606 3.85269531,6.41776042 C3.85269531,5.62946023 3.20224026,4.99041667 2.39986328,4.99041667 C1.59748631,4.99041667 0.94703125,5.62946023 0.94703125,6.41776042 Z M14.3238477,6.41776042 C14.3238477,7.2060606 14.9743027,7.84510417 15.7766797,7.84510417 C16.5790567,7.84510417 17.2295117,7.2060606 17.2295117,6.41776042 C17.2295117,5.62946023 16.5790567,4.99041667 15.7766797,4.99041667 C14.9743027,4.99041667 14.3238477,5.62946023 14.3238477,6.41776042 Z M7.64082031,14.5800521 C7.64082031,15.1573587 7.99479147,15.6778201 8.5376776,15.8987458 C9.08056372,16.1196715 9.70545268,15.997554 10.1209597,15.5893365 C10.5364668,15.1811191 10.6607649,14.5671931 10.4358941,14.0338313 C10.2110233,13.5004695 9.68126805,13.1527083 9.09365234,13.1527083 C8.70745773,13.1498661 8.33624096,13.2993337 8.06315247,13.5676312 C7.79006397,13.8359286 7.63792735,14.2006328 7.64082031,14.5800521 Z M14.3238477,14.5800521 C14.3238477,15.3683523 14.9743027,16.0073958 15.7766797,16.0073958 C16.5790567,16.0073958 17.2295117,15.3683523 17.2295117,14.5800521 C17.2295117,13.7917519 16.5790567,13.1527083 15.7766797,13.1527083 C14.9743027,13.1527083 14.3238477,13.7917519 14.3238477,14.5800521 Z M4.3046875,2.33661458 C4.30470365,2.91487997 4.65985053,3.43599771 5.20405903,3.65628956 C5.74826753,3.8765814 6.37399176,3.75251353 6.78863877,3.34210093 C7.20328579,2.93168833 7.32491351,2.31603629 7.09664797,1.78302792 C6.86838243,1.25001955 6.33533322,0.904987386 5.74675781,0.909270833 C4.94858673,0.915079645 4.3046656,1.55242499 4.3046875,2.33661458 Z" id="Shape"></path>
                    </g>
                </g>
            </g>
        </g>
    </g>
</svg>