<?xml version="1.0" encoding="UTF-8"?>
<svg width="29px" height="29px" viewBox="0 0 29 29" version="1.1" xmlns="http://www.w3.org/2000/svg" xmlns:xlink="http://www.w3.org/1999/xlink">
    <!-- Generator: Sketch 52.6 (67491) - http://www.bohemiancoding.com/sketch -->
    <title>Group 20</title>
    <desc>Created with Sketch.</desc>
    <g id="Page-1" stroke="none" stroke-width="1" fill="none" fill-rule="evenodd">
        <g id="icons" transform="translate(-59.000000, -807.000000)">
            <g id="Group-20" transform="translate(59.000000, 807.000000)">
                <g id="Group-11-Copy-25" fill="#FFFFFF">
                    <g id="Group-11-Copy-20">
                        <circle id="Oval-Copy-11" cx="14.5" cy="14.5" r="14.5"></circle>
                    </g>
                </g>
                <path d="M10.2177734,13.7485352 L8.22558594,13.7485352 C8.07910156,12.972168 7.52978516,12.4594727 6.62158203,12.4594727 C5.47167969,12.4594727 4.82714844,13.3457031 4.82714844,14.949707 C4.82714844,16.5756836 5.47900391,17.4765625 6.62158203,17.4765625 C7.49316406,17.4765625 8.06445312,17.0444336 8.22558594,16.2387695 L10.2177734,16.2387695 C10.0419922,18.0112305 8.72363281,19.168457 6.62158203,19.168457 C4.10205078,19.168457 2.67382812,17.6376953 2.67382812,14.949707 C2.67382812,12.2910156 4.09472656,10.7602539 6.62158203,10.7602539 C8.76025391,10.7602539 10.0419922,11.9467773 10.2177734,13.7485352 Z M11.9536133,19 L11.9536133,7.85253906 L14.0483398,7.85253906 L14.0483398,12.2543945 L14.1801758,12.2543945 C14.5537109,11.3388672 15.4326172,10.7822266 16.6191406,10.7822266 C18.3549805,10.7822266 19.3876953,11.8735352 19.3876953,13.8071289 L19.3876953,19 L17.2563477,19 L17.2563477,14.2905273 C17.2563477,13.1479492 16.7363281,12.5620117 15.7695312,12.5620117 C14.7001953,12.5620117 14.0849609,13.2871094 14.0849609,14.3564453 L14.0849609,19 L11.9536133,19 Z M24.2802734,20.7797852 L24.2802734,19.6958008 L20.9257812,19.6958008 L20.9257812,18.4213867 C21.7680664,16.9785156 22.6542969,15.6455078 23.5478516,14.3344727 L25.8476562,14.3344727 L25.8476562,18.3774414 L26.7119141,18.3774414 L26.7119141,19.6958008 L25.8476562,19.6958008 L25.8476562,20.7797852 L24.2802734,20.7797852 Z M22.3613281,18.3554688 L22.3613281,18.4360352 L24.3242188,18.4360352 L24.3242188,15.5356445 L24.2436523,15.5356445 C23.6137695,16.421875 22.9399414,17.4033203 22.3613281,18.3554688 Z" id="ch₄" fill="#000000"></path>
            </g>
        </g>
    </g>
</svg>