<?xml version="1.0" encoding="UTF-8"?>
<svg width="29px" height="29px" viewBox="0 0 29 29" version="1.1" xmlns="http://www.w3.org/2000/svg" xmlns:xlink="http://www.w3.org/1999/xlink">
    <!-- Generator: Sketch 52.6 (67491) - http://www.bohemiancoding.com/sketch -->
    <title>Group 13</title>
    <desc>Created with Sketch.</desc>
    <g id="Page-1" stroke="none" stroke-width="1" fill="none" fill-rule="evenodd">
        <g id="icons" transform="translate(-59.000000, -1031.000000)">
            <g id="Group-13" transform="translate(59.000000, 1031.000000)">
                <g id="Group-4">
                    <g id="Group-11-Copy-6" fill="#FFFFFF">
                        <circle id="Oval-Copy-11" cx="14.5" cy="14.5" r="14.5"></circle>
                    </g>
                    <g id="82-512" transform="translate(6.000000, 3.000000)" fill="#000000">
                        <g id="Group" transform="translate(9.003564, 9.967857) scale(-1, 1) rotate(-180.000000) translate(-9.003564, -9.967857) translate(0.003564, 0.967857)">
                            <path d="M8.64712871,17.9214286 C8.46534653,17.8607143 8.28,17.7071429 8.19445545,17.5392857 C8.12673267,17.4035714 8.12316832,17.3285714 8.12316832,15.4857143 C8.12316832,14.4357143 8.11247525,13.575 8.09821782,13.575 C8.0839604,13.575 7.85584158,13.7892857 7.59207921,14.05 C7.17861386,14.4571429 7.08237624,14.5321429 6.93623762,14.575 C6.72950495,14.6321429 6.5619802,14.6071429 6.35524752,14.4857143 C6.12712871,14.35 6.00950495,14.1535714 5.99168317,13.8821429 C5.9809901,13.7035714 5.99524752,13.6357143 6.0629703,13.5142857 C6.17346535,13.3142857 8.40475248,11.125 8.56871287,11.0571429 C8.73267327,10.9857143 9.02851485,10.9892857 9.18534653,11.0642857 C9.37069307,11.1535714 11.6091089,13.3785714 11.6910891,13.5571429 C11.8229703,13.8464286 11.7445545,14.1642857 11.4807921,14.4035714 C11.3417822,14.5285714 11.1493069,14.6107143 10.9924752,14.6107143 C10.7536634,14.6107143 10.6360396,14.5321429 10.129901,14.0285714 L9.62376238,13.525 L9.61306931,15.4928571 L9.60237624,17.4607143 L9.49544554,17.6178571 C9.3029703,17.8892857 8.9429703,18.0178571 8.64712871,17.9214286 Z" id="Path"></path>
                            <path d="M0.441980198,14.7285714 C0.285148515,14.6464286 0.178217822,14.5392857 0.0926732673,14.3785714 L0.0142574257,14.2357143 L0.00356435644,9.02142857 C-0.00356435644,3.10714286 0.00356435644,0.757142857 0.0320792079,0.621428571 C0.0605940594,0.492857143 0.114059406,0.389285714 0.213861386,0.275 C0.474059406,-0.0214285714 -0.299405941,0.00357142857 8.9429703,0.00357142857 C15.8079208,0.00357142857 17.1908911,0.0107142857 17.3263366,0.0535714286 C17.5687129,0.125 17.7291089,0.267857143 17.8538614,0.514285714 L17.9607921,0.728571429 L17.9607921,8.925 C17.9607921,14.9607143 17.950099,14.1571429 17.9215842,14.2571429 C17.750495,14.825 17.0126733,14.9785714 16.6134653,14.525 C16.5528713,14.4535714 16.4851485,14.3392857 16.4673267,14.2642857 C16.4423762,14.175 16.4281188,13.025 16.4281188,13.8607143 L16.4245545,10.5928571 L15.4871287,9.67857143 C14.3572277,8.575 14.3287129,8.55714286 13.7548515,8.55714286 C13.4162376,8.55714286 13.3627723,8.56785714 13.1738614,8.65714286 C13.059802,8.71428571 12.8744554,8.84285714 12.7639604,8.94642857 C12.3718812,9.3 12.1152475,9.45714286 11.6447525,9.61785714 C11.3346535,9.725 11.2811881,9.73214286 10.7964356,9.73214286 C10.190495,9.73571429 9.88752475,9.66785714 9.4419802,9.42857143 C9.11049505,9.25 8.96079208,9.12857143 8.45821782,8.63928571 C7.93425743,8.13214286 7.78455446,8.05714286 7.28554455,8.06071429 C6.80792079,8.06071429 6.64752475,8.13571429 6.19485149,8.56071429 C5.47485149,9.23928571 4.92594059,9.475 4.07762376,9.475 C3.20435644,9.475 2.65544554,9.23214286 1.91049505,8.50714286 L1.52910891,8.13571429 L1.52910891,12.6678571 C1.52910891,13.975 1.52554455,14.2071429 1.46138614,14.3428571 C1.39366337,14.4964286 1.18336634,14.7 1.04079208,14.7571429 C0.905346535,14.8071429 0.55960396,14.7928571 0.441980198,14.7285714 Z M16.4281188,4.98571429 L16.4281188,1.50357143 L8.97861386,1.50357143 L1.52910891,1.50357143 L1.52910891,3.76785714 L1.52910891,6.03214286 L2.39524752,6.87857143 C2.86930693,7.34285714 3.3219802,7.76071429 3.40039604,7.81071429 C3.61782178,7.93571429 3.96712871,8.01428571 4.20594059,7.98928571 C4.56237624,7.95357143 4.79049505,7.84285714 5.08990099,7.55714286 C5.66376238,7.01071429 6.06653465,6.76428571 6.60831683,6.625 C6.98257426,6.525 7.69188119,6.53214286 8.06257426,6.63928571 C8.62930693,6.8 8.93584158,7 9.5560396,7.6 C10.1370297,8.16785714 10.2689109,8.23571429 10.7786139,8.23571429 C11.2241584,8.23571429 11.409505,8.16071429 11.8051485,7.81785714 C12.2756436,7.41071429 12.6748515,7.20357143 13.1916832,7.09642857 C13.7334653,6.98571429 14.3679208,7.04285714 14.8669307,7.25 C15.219802,7.4 15.5441584,7.63571429 16.000396,8.07142857 C16.2249505,8.28928571 16.4138614,8.46428571 16.4209901,8.46428571 C16.4245545,8.46785714 16.4281188,6.9 16.4281188,4.98571429 Z" id="Shape" fill-rule="nonzero"></path>
                        </g>
                    </g>
                </g>
            </g>
        </g>
    </g>
</svg>