<?xml version="1.0" encoding="UTF-8"?>
<svg width="29px" height="29px" viewBox="0 0 29 29" version="1.1" xmlns="http://www.w3.org/2000/svg" xmlns:xlink="http://www.w3.org/1999/xlink">
    <!-- Generator: Sketch 52.6 (67491) - http://www.bohemiancoding.com/sketch -->
    <title>Group 31</title>
    <desc>Created with Sketch.</desc>
    <g id="Page-1" stroke="none" stroke-width="1" fill="none" fill-rule="evenodd">
        <g id="icons" transform="translate(-59.000000, -1423.000000)">
            <g id="Group-31" transform="translate(59.000000, 1423.000000)">
                <g id="Group-30">
                    <g id="Group-12-Copy-6" fill="#FFFFFF">
                        <g id="Group-26">
                            <circle id="Oval-Copy-28" cx="14.5" cy="14.5" r="14.5"></circle>
                        </g>
                    </g>
                    <g id="Group-5-Copy-2" transform="translate(5.000000, 6.000000)" stroke="#000000" stroke-width="1.64025">
                        <path d="M10.0793981,13.1763917 C12.2105927,11.312659 12.449761,7.41181626 13.7613876,4.04022466 C13.9583771,3.53385473 13.2807752,2.90501125 12.7569644,3.10916126 C9.40386141,4.41599952 5.42726553,4.96717822 3.73826239,6.83936413 C2.04925925,8.71155004 2.29355214,11.1995699 3.96608099,12.8828718 C5.64952836,14.5552566 7.94820358,15.0401244 10.0793981,13.1763917 Z" id="Path" transform="translate(8.190852, 8.720606) rotate(-45.000000) translate(-8.190852, -8.720606) "></path>
                    </g>
                    <g id="lightning-svgrepo-com" transform="translate(15.000000, 11.000000)" fill="#000000" stroke="#FFFFFF" stroke-width="1.5">
                        <path d="M1.61542633,6.68259185 L0.85406488,6.58662519 C-0.530229046,6.58662519 -1.21905693,4.86699435 -0.341253188,3.78143143 L3.76485571,-0.22959217 C4.33428103,-0.857741037 5.3127693,-0.927599634 5.96450355,-0.382693205 C6.63328585,0.176466876 6.70994178,1.16674851 6.14311705,1.79117891 L4.74988449,3.45407266 L5.48343087,3.50446103 C6.79744353,3.50446103 7.75955175,5.0014974 6.89150814,5.96330176 L2.58828897,10.8554647 C2.11766061,11.4287043 1.19962622,11.6652453 0.431654938,11.1495693 L0.428646704,11.1475387 C-0.304688996,10.6499541 -0.440880085,9.63751289 0.0683653432,9.00163419 L1.61542633,6.68259185 Z" id="Path"></path>
                    </g>
                </g>
            </g>
        </g>
    </g>
</svg>