<?xml version="1.0" encoding="UTF-8"?>
<svg width="29px" height="29px" viewBox="0 0 29 29" version="1.1" xmlns="http://www.w3.org/2000/svg" xmlns:xlink="http://www.w3.org/1999/xlink">
    <!-- Generator: Sketch 52.6 (67491) - http://www.bohemiancoding.com/sketch -->
    <title>Group 19</title>
    <desc>Created with Sketch.</desc>
    <g id="Page-1" stroke="none" stroke-width="1" fill="none" fill-rule="evenodd">
        <g id="icons" transform="translate(-59.000000, -1591.000000)">
            <g id="Group-19" transform="translate(59.000000, 1591.000000)">
                <g id="Group-11-Copy-35" fill="#FFFFFF">
                    <circle id="Oval-Copy-11" cx="14.5" cy="14.5" r="14.5"></circle>
                </g>
                <g id="18-512" transform="translate(17.000000, 7.000000)" fill="#000000" fill-rule="nonzero" stroke="#000000" stroke-width="0.4">
                    <g id="18-512-(1)">
                        <g id="Group" transform="translate(3.510324, 6.495574) scale(-1, 1) rotate(-180.000000) translate(-3.510324, -6.495574) translate(0.010324, 0.995574)">
                            <path d="M3.52064897,10.8803245 C3.42566372,10.8404942 3.33067847,10.7453439 3.29144543,10.6524064 C3.25427729,10.5661073 3.25221239,10.4665314 3.25221239,8.48829061 C3.25221239,7.34648718 3.2460177,6.4126867 3.23775811,6.4126867 C3.22743363,6.4126867 2.65545723,6.89065093 1.96578171,7.47482943 C1.27610619,8.05900793 0.685545723,8.55024894 0.654572271,8.56795132 C0.561651917,8.61884566 0.472861357,8.62990964 0.377876106,8.60335608 C0.175516224,8.54582335 0.0516224189,8.38207634 0.0516224189,8.17186059 C0.0516224189,7.94172967 0.0103244838,7.98377282 1.53421829,6.6649456 C2.30442478,5.9988936 2.93421829,5.45011986 2.93628319,5.44126867 C2.93834808,5.43463028 2.30855457,4.89470773 1.53628319,4.24414531 C0.761946903,3.59358289 0.109439528,3.03153236 0.0825958702,2.99391481 C-0.0412979351,2.82131661 -0.0206489676,2.57348331 0.132153392,2.40973631 C0.231268437,2.30352204 0.330383481,2.26811728 0.487315634,2.27918126 C0.582300885,2.28581966 0.62359882,2.30352204 0.685545723,2.35662917 C1.2719764,2.85893417 3.1820059,4.46542504 3.19439528,4.46542504 C3.20265487,4.46542504 3.21091445,3.53383736 3.21091445,2.39645952 C3.21091445,0.371749954 3.21091445,0.323068412 3.25221239,0.238982113 C3.33480826,0.064171123 3.55781711,-0.0398303522 3.73746313,0.0154895814 C3.79734513,0.0331919602 4.22477876,0.382813941 5.29646018,1.29227365 C6.1079646,1.98045362 6.8079646,2.57790891 6.84926254,2.62216485 C6.91120944,2.68854877 6.92772861,2.72174073 6.94011799,2.82131661 C6.94631268,2.88548774 6.96076696,2.93859487 6.97109145,2.93859487 C7,2.93859487 6.99174041,3.08906509 6.96076696,3.15544901 C6.91120944,3.25502489 6.81828909,3.3368984 5.54837758,4.39904112 C4.87522124,4.96109165 4.3280236,5.43241748 4.33215339,5.44569427 C4.33628319,5.45897105 4.90412979,5.94799926 5.5979351,6.53439056 C6.32271386,7.14954822 6.88436578,7.63857643 6.92359882,7.69389637 C6.98141593,7.77798267 6.98967552,7.80453623 6.98967552,7.92624009 C6.98967552,8.0855615 6.96076696,8.19398857 6.89882006,8.26922368 C6.84513274,8.3333948 3.9460177,10.7940254 3.84896755,10.8581966 C3.77256637,10.9090909 3.61150442,10.9201549 3.52064897,10.8803245 Z M5.38318584,8.36437396 C5.65162242,8.13645584 5.87256637,7.94394247 5.87463127,7.93509128 C5.87463127,7.9196017 4.08643068,6.39055873 4.06784661,6.39055873 C4.06165192,6.39055873 4.05752212,7.08758989 4.05752212,7.93951687 L4.05752212,9.48847501 L4.47669617,9.13221464 C4.70589971,8.93748848 5.11474926,8.59007929 5.38318584,8.36437396 Z M4.96814159,3.72856353 C5.45958702,3.31034483 5.86430678,2.96072285 5.86637168,2.94965886 C5.87050147,2.93638208 5.64749263,2.73944311 5.37492625,2.50709939 C5.10029499,2.27696847 4.69351032,1.92955928 4.46637168,1.73704592 L4.05752212,1.38963673 L4.05752212,2.93859487 C4.05752212,3.79052185 4.06165192,4.48755301 4.06784661,4.48755301 C4.0719764,4.48755301 4.47876106,4.14678222 4.96814159,3.72856353 Z" id="Shape"></path>
                        </g>
                    </g>
                </g>
                <g id="Mens-icon-Copy" transform="translate(2.000000, 10.000000)" fill="#000000" stroke="#000000" stroke-width="0.924">
                    <g id="Group" transform="translate(8.000000, 6.000000) scale(-1, 1) rotate(-180.000000) translate(-8.000000, -6.000000) ">
                        <path d="M5.08317795,11.992224 C4.689389,11.9252596 4.25302826,11.7578483 3.89471579,11.5346334 C3.6747616,11.3969841 3.64638042,11.3895436 3.27387735,11.3672221 C2.37632235,11.3188589 1.79450804,11.0286794 1.55681561,10.515285 C1.42555262,10.2325461 1.37588555,9.91632486 1.37588555,9.29876346 L1.37588555,8.83001203 L1.21269373,8.68864255 C0.925334222,8.43566559 0.914691278,8.40218334 0.914691278,7.6841752 C0.914691278,7.11497704 0.921786574,7.0368518 0.989191891,6.88804182 C1.07433545,6.70946985 1.29783729,6.53089788 1.49650559,6.48625489 C1.62422092,6.45649289 1.65969741,6.41557015 1.65969741,6.28164117 C1.65969741,6.09934894 1.80869863,5.59339502 1.96124751,5.25485232 C2.14572521,4.84190464 2.27344055,4.64473142 2.55370476,4.33223046 C2.67077715,4.19830148 2.75946836,4.0792535 2.75237306,4.06437251 C2.74882541,4.04577126 2.62465773,3.85603854 2.4827518,3.63654382 L2.22732112,3.23475688 L1.91512808,3.23475688 C0.914691278,3.23475688 0.442854063,2.49814749 0.971453649,2.63951697 C1.18786019,2.69904096 1.3652426,2.71392196 1.80869863,2.71392196 C2.12089168,2.71392196 2.40470354,2.73252321 2.44018002,2.75112446 C2.47920415,2.77344595 2.65303891,3.01154192 2.83042132,3.28312012 C3.00780373,3.55097808 3.16390026,3.77419305 3.17809085,3.7704728 C3.19228144,3.7704728 3.29871089,3.72210956 3.41578328,3.66630582 C3.96921641,3.39472761 4.62907898,3.40960861 5.18605975,3.70722856 C5.28184625,3.7555918 5.37053746,3.7853538 5.38472805,3.76675255 C5.39891864,3.75187155 5.55501517,3.51749584 5.73239758,3.24963788 C5.94170882,2.93341668 6.08361475,2.75112446 6.13682948,2.73624346 C6.1829489,2.72508271 6.44902252,2.71392196 6.73283438,2.71392196 C7.60555584,2.71020171 8.07029776,2.54651074 8.50665849,2.08519981 C8.8898045,1.67969262 9.03525808,1.24814368 9.03880573,0.530135544 C9.03880573,0.195313095 9.04944867,0.135789104 9.10975869,0.0725448639 C9.20199755,-0.0241816213 9.33680818,-0.0241816213 9.42904704,0.0725448639 C9.4929047,0.139509354 9.5,0.195313095 9.5,0.62314178 C9.5,1.46391815 9.33326053,1.92150883 8.84368508,2.4386235 C8.34346668,2.96689892 7.8006765,3.18267339 6.84990677,3.22359613 L6.31066424,3.24591763 L6.03040003,3.67002607 L5.75013582,4.09785475 L5.94170882,4.30618872 C6.41709369,4.82702364 6.75057262,5.55619253 6.85700207,6.29652216 C6.87474031,6.42301065 6.89957385,6.47137389 6.94214562,6.47137389 C7.06631331,6.47137389 7.36431576,6.65366611 7.46364991,6.79131534 L7.56653171,6.92896457 L7.57717466,7.63209171 C7.59136525,8.43566559 7.57717466,8.48774908 7.27917221,8.71096405 L7.12307568,8.82629178 L7.12307568,9.19831672 C7.12307568,9.54429992 7.13017098,9.58150241 7.22950513,9.74891364 C7.85034357,10.8091847 7.01309859,11.9513013 5.5798487,11.9959443 C5.36698981,12.0033848 5.14348797,11.9996645 5.08317795,11.992224 Z M6.06942416,11.4304664 C6.80378734,11.2035312 7.13726628,10.6306128 6.84990677,10.0800158 C6.79669205,9.97584885 6.72219143,9.83447938 6.6902626,9.77123514 C6.63704788,9.67450865 6.62640493,9.55918092 6.62640493,9.18343572 C6.62640493,8.92673851 6.64414317,8.66632105 6.66542906,8.60679706 C6.68671495,8.53611232 6.77540616,8.45054659 6.91376444,8.3612606 L7.12307568,8.22361137 L7.12307568,7.66929421 C7.12307568,7.01825055 7.11598039,7.00708981 6.76831086,6.95500631 C6.46676076,6.91036332 6.42773663,6.86200008 6.3958078,6.51973713 C6.30711659,5.50410904 5.72884993,4.55172518 4.96255791,4.15365849 L4.66455546,3.99740802 L4.25302826,3.99740802 C3.85214401,3.99740802 3.83440577,4.00112826 3.5718798,4.13505724 C3.25613911,4.29874822 2.85880251,4.66705291 2.64949126,4.99071461 C2.35503646,5.4408648 2.12089168,6.11050969 2.12089168,6.48997514 C2.12089168,6.82107733 2.00736693,6.95500631 1.72355507,6.95500631 C1.59583974,6.95500631 1.42910027,7.0442923 1.39717144,7.12241754 C1.38652849,7.15589978 1.37588555,7.4051565 1.37588555,7.6767347 C1.37588555,8.16408738 1.37588555,8.16780763 1.4752197,8.26453411 C1.52843442,8.31661761 1.62067328,8.38730235 1.68453094,8.42078459 C1.74838861,8.45426684 1.81579393,8.51379083 1.83707982,8.55099332 C1.85836571,8.59563631 1.8725563,8.92301826 1.8725563,9.34340645 C1.8725563,10.0242121 1.87610395,10.0725753 1.95769986,10.2548676 C2.0641293,10.4892433 2.25924996,10.649214 2.56434771,10.7459405 C2.84461192,10.8389467 3.25613911,10.8984707 3.5860704,10.8984707 C3.82021518,10.8984707 3.85923931,10.9096315 4.03307407,11.0323997 C4.65746016,11.4751094 5.43794277,11.6276396 6.06942416,11.4304664 Z" id="Shape" fill-rule="nonzero"></path>
                        <path d="M9.83596878,11.9617236 C9.58860715,11.919932 9.5,11.8439472 9.5,11.6767808 C9.5,11.5817999 9.52584375,11.5324098 9.59229911,11.4868189 C9.67352233,11.4336296 9.72151787,11.4298304 9.96149557,11.4678228 C10.858643,11.6045953 11.4198216,11.3994365 11.6745671,10.8409486 C11.8074779,10.5522066 11.8591654,10.1532867 11.8628573,9.41623475 C11.8628573,8.65638734 11.8665493,8.64498963 12.1619065,8.59180031 L12.3243529,8.56140641 L12.3354288,7.91553611 C12.3465047,7.15188946 12.3428127,7.14809023 11.9625404,7.09490091 C11.6597993,7.0531093 11.6044198,6.98852227 11.6044198,6.65039017 C11.6044198,6.33885274 11.5453484,5.8221565 11.475201,5.54481219 C11.3312144,4.95593045 11.1170805,4.59880217 10.7331162,4.31385939 C10.5189822,4.15809067 10.4968304,4.12769677 10.4968304,4.00612119 C10.4968304,3.81995857 10.6371251,3.72497764 10.8069555,3.79336391 C10.8697189,3.81995857 10.9472501,3.85035247 10.9767858,3.85795094 C11.0137055,3.86934865 11.1392323,3.71357993 11.3644421,3.37544784 C11.5490403,3.10190277 11.7299466,2.85495236 11.7705582,2.82455846 C11.8259377,2.78276686 11.9846922,2.77136914 12.416652,2.77136914 C13.0885896,2.77136914 13.3802548,2.71817983 13.7568352,2.52821797 C14.0928039,2.36105154 14.3438575,2.13689656 14.5284557,1.8443553 C14.7388977,1.51002244 14.812737,1.21368195 14.8422727,0.617201737 C14.8607326,0.161293291 14.8718085,0.100505498 14.9419558,0.0511154161 C15.0490228,-0.024869325 15.1560897,-0.0172708509 15.2557728,0.0815093125 C15.340688,0.157494053 15.340688,0.176490239 15.3259201,0.7159819 C15.3111522,1.18708729 15.2926924,1.31626135 15.2114692,1.567011 C14.9530317,2.33825612 14.3660093,2.90814168 13.5796209,3.14749361 C13.2731878,3.24247454 12.7821565,3.30326233 12.3354288,3.30326233 L12.0179198,3.30326233 L11.7188707,3.74397383 C11.5527323,3.98332576 11.4198216,4.19608304 11.4198216,4.21507922 C11.4198216,4.23407541 11.4862769,4.34805252 11.5675002,4.46582887 C11.8407055,4.868548 12.0289957,5.51821753 12.0806832,6.24007257 L12.102835,6.58580314 L12.2874333,6.64659094 C12.5347949,6.72257568 12.7636967,6.95432914 12.8227681,7.17848412 C12.8523038,7.288662 12.8633797,7.57740401 12.8523038,8.01431627 C12.8412279,8.62599344 12.833844,8.69058047 12.7563128,8.81975453 C12.7009333,8.91093622 12.6160181,8.97932249 12.5089511,9.02871257 L12.3428127,9.09709883 L12.3428127,9.6783821 C12.3428127,10.6129944 12.1951341,11.1258914 11.8222457,11.5096144 C11.478893,11.8629434 11.0764689,12.0073144 10.437759,11.9997159 C10.2162411,11.9959167 9.94672771,11.9807198 9.83596878,11.9617236 Z" id="Path"></path>
                    </g>
                </g>
            </g>
        </g>
    </g>
</svg>