<?xml version="1.0" encoding="UTF-8"?>
<svg width="29px" height="29px" viewBox="0 0 29 29" version="1.1" xmlns="http://www.w3.org/2000/svg" xmlns:xlink="http://www.w3.org/1999/xlink">
    <!-- Generator: Sketch 52.6 (67491) - http://www.bohemiancoding.com/sketch -->
    <title>Group 24</title>
    <desc>Created with Sketch.</desc>
    <g id="Page-1" stroke="none" stroke-width="1" fill="none" fill-rule="evenodd">
        <g id="icons" transform="translate(-58.000000, -1647.000000)">
            <g id="Group-24" transform="translate(58.000000, 1647.000000)">
                <g id="Group-22">
                    <g id="Group-23">
                        <g id="Group-21" transform="translate(3.893398, 3.893398)" fill="#000000" fill-rule="nonzero">
                            <path d="M1.37834405,14.8133729 C1.08545083,15.1062661 0.610577097,15.1062661 0.317683878,14.8133729 C0.0247906591,14.5204797 0.0247906591,14.0456059 0.317683878,13.7527127 L1.78504947,12.2853471 C2.07794269,11.9924539 2.55281642,11.9924539 2.84570964,12.2853471 C3.13860286,12.5782404 3.13860286,13.0531141 2.84570964,13.3460073 L1.37834405,14.8133729 Z" id="Path-2"></path>
                            <path d="M13.3619428,2.82977416 C13.0690496,3.12266738 12.5941758,3.12266738 12.3012826,2.82977416 C12.0083894,2.53688094 12.0083894,2.0620072 12.3012826,1.76911398 L13.7527127,0.317683878 C14.0456059,0.0247906591 14.5204797,0.0247906591 14.8133729,0.317683878 C15.1062661,0.610577097 15.1062661,1.08545083 14.8133729,1.37834405 L13.3619428,2.82977416 Z" id="Path-2"></path>
                        </g>
                        <g id="Group-21" transform="translate(11.686292, 10.686292) rotate(-90.000000) translate(-11.686292, -10.686292) translate(4.186292, 3.186292)" fill="#000000" fill-rule="nonzero">
                            <path d="M1.29219755,13.8875371 C1.01761015,14.1621245 0.572416028,14.1621245 0.297828636,13.8875371 C0.0232412429,13.6129497 0.0232412429,13.1677556 0.297828636,12.8931682 L1.67348388,11.5175129 C1.94807127,11.2429255 2.39326539,11.2429255 2.66785279,11.5175129 C2.94244018,11.7921003 2.94244018,12.2372945 2.66785279,12.5118818 L1.29219755,13.8875371 Z" id="Path-2"></path>
                            <path d="M12.5268214,2.65291327 C12.252234,2.92750066 11.8070398,2.92750066 11.5324525,2.65291327 C11.2578651,2.37832588 11.2578651,1.93313175 11.5324525,1.65854436 L12.8931682,0.297828636 C13.1677556,0.0232412429 13.6129497,0.0232412429 13.8875371,0.297828636 C14.1621245,0.572416028 14.1621245,1.01761015 13.8875371,1.29219755 L12.5268214,2.65291327 Z" id="Path-2"></path>
                        </g>
                        <g id="Group-21" transform="translate(3.893398, 3.893398)" fill="#000000" fill-rule="nonzero">
                            <path d="M1.37834405,14.8133729 C1.08545083,15.1062661 0.610577097,15.1062661 0.317683878,14.8133729 C0.0247906591,14.5204797 0.0247906591,14.0456059 0.317683878,13.7527127 L1.78504947,12.2853471 C2.07794269,11.9924539 2.55281642,11.9924539 2.84570964,12.2853471 C3.13860286,12.5782404 3.13860286,13.0531141 2.84570964,13.3460073 L1.37834405,14.8133729 Z" id="Path-2"></path>
                            <path d="M13.3619428,2.82977416 C13.0690496,3.12266738 12.5941758,3.12266738 12.3012826,2.82977416 C12.0083894,2.53688094 12.0083894,2.0620072 12.3012826,1.76911398 L13.7527127,0.317683878 C14.0456059,0.0247906591 14.5204797,0.0247906591 14.8133729,0.317683878 C15.1062661,0.610577097 15.1062661,1.08545083 14.8133729,1.37834405 L13.3619428,2.82977416 Z" id="Path-2"></path>
                        </g>
                        <g id="Group-21" transform="translate(11.686292, 10.686292) rotate(-90.000000) translate(-11.686292, -10.686292) translate(4.186292, 3.186292)" fill="#000000" fill-rule="nonzero">
                            <path d="M1.29219755,13.8875371 C1.01761015,14.1621245 0.572416028,14.1621245 0.297828636,13.8875371 C0.0232412429,13.6129497 0.0232412429,13.1677556 0.297828636,12.8931682 L1.67348388,11.5175129 C1.94807127,11.2429255 2.39326539,11.2429255 2.66785279,11.5175129 C2.94244018,11.7921003 2.94244018,12.2372945 2.66785279,12.5118818 L1.29219755,13.8875371 Z" id="Path-2"></path>
                            <path d="M12.5268214,2.65291327 C12.252234,2.92750066 11.8070398,2.92750066 11.5324525,2.65291327 C11.2578651,2.37832588 11.2578651,1.93313175 11.5324525,1.65854436 L12.8931682,0.297828636 C13.1677556,0.0232412429 13.6129497,0.0232412429 13.8875371,0.297828636 C14.1621245,0.572416028 14.1621245,1.01761015 13.8875371,1.29219755 L12.5268214,2.65291327 Z" id="Path-2"></path>
                        </g>
                        <path d="M13.4821039,22.3522789 L14.9494695,20.8849133" id="Path-2" stroke="#000000" stroke-width="1.5" stroke-linecap="round"></path>
                        <path d="M13.7585959,6.1052242 L15.210026,4.65379409" id="Path-2" stroke="#000000" stroke-width="1.5" stroke-linecap="round"></path>
                        <g id="Group-14-Copy-12" fill="#FFFFFF">
                            <circle id="Oval-Copy-30" cx="14.5" cy="14.5" r="14.5"></circle>
                        </g>
                        <g id="Group-34-Copy" transform="translate(15.500000, 13.000000) rotate(-45.000000) translate(-15.500000, -13.000000) translate(8.000000, 9.000000)" fill="#000000">
                            <path d="M6.57872843,-1.1169588 L4.06602722,8.83131405 C3.9929939,9.12046715 4.1681936,9.41407725 4.4573467,9.48711056 C4.65054678,9.53590839 4.8549193,9.47434149 4.98901642,9.32694589 L7.07085062,7.03865527 L9.21157432,9.36180709 C9.41367044,9.58112544 9.75529437,9.5950868 9.97461271,9.39299068 C10.1200517,9.25897245 10.180593,9.05617009 10.1324231,8.86435496 L7.62602419,-1.11624502 C7.55338508,-1.4054974 7.26001407,-1.58109715 6.97076169,-1.50845805 C6.77799383,-1.46004882 6.62740037,-1.30966049 6.57872843,-1.1169588 Z" id="Path-4" transform="translate(7.099078, 4.005517) rotate(-270.000000) translate(-7.099078, -4.005517) "></path>
                        </g>
                    </g>
                    <path d="M14.5,25 C8.70101013,25 4,20.2989899 4,14.5 C4,8.70101013 8.70101013,4 14.5,4 C20.2989899,4 25,8.70101013 25,14.5 C25,20.2989899 20.2989899,25 14.5,25 Z M14.5,23.4634146 C19.4503572,23.4634146 23.4634146,19.4503572 23.4634146,14.5 C23.4634146,9.54964279 19.4503572,5.53658537 14.5,5.53658537 C9.54964279,5.53658537 5.53658537,9.54964279 5.53658537,14.5 C5.53658537,19.4503572 9.54964279,23.4634146 14.5,23.4634146 Z" id="Oval-Copy-30" fill="#000000" fill-rule="nonzero" transform="translate(14.500000, 14.500000) rotate(-90.000000) translate(-14.500000, -14.500000) "></path>
                </g>
                <path d="M4.73349182,15.2334918 C4.32839547,15.2334918 4,14.9050963 4,14.5 C4,14.0949037 4.32839547,13.7665082 4.73349182,13.7665082 L6.74094366,13.7665082 C7.14604001,13.7665082 7.47443548,14.0949037 7.47443548,14.5 C7.47443548,14.9050963 7.14604001,15.2334918 6.74094366,15.2334918 L4.73349182,15.2334918 Z M13.7665082,22.2590563 C13.7665082,21.85396 14.0949037,21.5255645 14.5,21.5255645 C14.9050963,21.5255645 15.2334918,21.85396 15.2334918,22.2590563 L15.2334918,24.2665082 C15.2334918,24.6716045 14.9050963,25 14.5,25 C14.0949037,25 13.7665082,24.6716045 13.7665082,24.2665082 L13.7665082,22.2590563 Z M13.7665082,4.73349182 C13.7665082,4.32839547 14.0949037,4 14.5,4 C14.9050963,4 15.2334918,4.32839547 15.2334918,4.73349182 L15.2334918,6.74094366 C15.2334918,7.14604001 14.9050963,7.47443548 14.5,7.47443548 C14.0949037,7.47443548 13.7665082,7.14604001 13.7665082,6.74094366 L13.7665082,4.73349182 Z M22.2590563,15.2334918 C21.85396,15.2334918 21.5255645,14.9050963 21.5255645,14.5 C21.5255645,14.0949037 21.85396,13.7665082 22.2590563,13.7665082 L24.2665082,13.7665082 C24.6716045,13.7665082 25,14.0949037 25,14.5 C25,14.9050963 24.6716045,15.2334918 24.2665082,15.2334918 L22.2590563,15.2334918 Z" id="Path-2" fill="#000000" fill-rule="nonzero"></path>
            </g>
        </g>
    </g>
</svg>