<?xml version="1.0" encoding="UTF-8"?>
<svg width="29px" height="29px" viewBox="0 0 29 29" version="1.1" xmlns="http://www.w3.org/2000/svg" xmlns:xlink="http://www.w3.org/1999/xlink">
    <!-- Generator: Sketch 52.6 (67491) - http://www.bohemiancoding.com/sketch -->
    <title>Group 20</title>
    <desc>Created with Sketch.</desc>
    <g id="Page-1" stroke="none" stroke-width="1" fill="none" fill-rule="evenodd">
        <g id="icons" transform="translate(-59.000000, -1815.000000)">
            <g id="Group-20" transform="translate(59.000000, 1815.000000)">
                <g id="Group-14-Copy-9">
                    <circle id="Oval-Copy-30" fill="#FFFFFF" cx="14.5" cy="14.5" r="14.5"></circle>
                    <path d="M11.8041362,3.31773478 C11.7903386,3.43211791 11.7832381,3.54856308 11.7832381,3.66666667 C11.7832381,5.25914029 13.074193,6.55009524 14.6666666,6.55009524 C16.2591403,6.55009524 17.5500952,5.25914029 17.5500952,3.66666667 C17.5500952,3.57868876 17.5461551,3.49163112 17.5384416,3.40566059 C18.1096703,3.5617436 18.6631705,3.76076417 19.1952585,3.99903843 C19.0250635,6.35154701 17.062575,8.2072381 14.6666666,8.2072381 C12.2235273,8.2072381 10.2310644,6.27766268 10.1301094,3.85934327 C10.6688107,3.63787343 11.2280347,3.45612218 11.8041362,3.31773478 Z M8.99923807,10.5051429 L10.568,8.93638095 C10.872206,8.60991303 10.8632298,8.10117021 10.5476964,7.78563687 C10.2321631,7.47010353 9.72342027,7.46112735 9.39695235,7.76533333 L7.82819045,9.33409524 C7.50509909,9.65758891 7.50509909,10.1816492 7.82819045,10.5051429 C7.98600094,10.6566869 8.19497447,10.7434306 8.41371426,10.7481905 C8.63291463,10.7456451 8.8426706,10.6585766 8.99923807,10.5051429 Z M15.4952381,12.5047619 L15.4952381,10.2952381 C15.4952381,9.83763073 15.124274,9.46666667 14.6666666,9.46666667 C14.2090593,9.46666667 13.8380952,9.83763073 13.8380952,10.2952381 L13.8380952,12.5047619 C13.8380952,12.9623693 14.2090593,13.3333333 14.6666666,13.3333333 C15.124274,13.3333333 15.4952381,12.9623693 15.4952381,12.5047619 Z M21.5051429,10.5051429 C21.8282342,10.1816492 21.8282342,9.65758891 21.5051429,9.33409524 L19.9363809,7.76533333 C19.609913,7.46112735 19.1011702,7.47010353 18.7856369,7.78563687 C18.4701035,8.10117021 18.4611273,8.60991303 18.7653333,8.93638095 L20.3340952,10.5051429 C20.4906627,10.6585766 20.7004187,10.7456451 20.919619,10.7481905 C21.1383588,10.7434306 21.3473324,10.6566869 21.5051429,10.5051429 Z" id="Shape" fill="#000000" fill-rule="nonzero"></path>
                </g>
                <path d="M9.32421875,14.9541016 L9.32421875,19.4267578 C9.32421875,20.3300781 9.86132812,20.9160156 10.8037109,20.9160156 C11.7460938,20.9160156 12.2783203,20.3300781 12.2783203,19.4267578 L12.2783203,14.9541016 L13.7529297,14.9541016 L13.7529297,19.5683594 C13.7529297,21.1259766 12.6054688,22.1806641 10.8037109,22.1806641 C9.00195312,22.1806641 7.84960938,21.1259766 7.84960938,19.5683594 L7.84960938,14.9541016 L9.32421875,14.9541016 Z M19.1191406,22 L17.3369141,22 L14.9541016,14.9541016 L16.6191406,14.9541016 L18.2207031,20.3886719 L18.3085938,20.3886719 L19.8808594,14.9541016 L21.4677734,14.9541016 L19.1191406,22 Z" id="UV-Copy" fill="#000000"></path>
            </g>
        </g>
    </g>
</svg>