<?xml version="1.0" encoding="UTF-8"?>
<svg width="29px" height="29px" viewBox="0 0 29 29" version="1.1" xmlns="http://www.w3.org/2000/svg" xmlns:xlink="http://www.w3.org/1999/xlink">
    <!-- Generator: Sketch 52.6 (67491) - http://www.bohemiancoding.com/sketch -->
    <title>Group 36</title>
    <desc>Created with Sketch.</desc>
    <g id="Page-1" stroke="none" stroke-width="1" fill="none" fill-rule="evenodd">
        <g id="icons" transform="translate(-58.000000, -1703.000000)">
            <g id="Group-36" transform="translate(58.000000, 1703.000000)">
                <g id="Group-20-Copy-4" fill="#FFFFFF">
                    <g id="Group-14-Copy-9">
                        <circle id="Oval-Copy-30" cx="14.5" cy="14.5" r="14.5"></circle>
                    </g>
                </g>
                <g id="wind-speed" transform="translate(7.000000, 10.000000)" fill="#000000">
                    <path d="M1.7,14.8490195 C1.10691244,14.5778934 0.538857274,14.2655322 -4.3050008e-12,13.9158737 L0,0.391986063 L1.7,0.391986063 L1.7,14.8490195 Z" id="Combined-Shape"></path>
                    <path d="M1.23621239,3.76784659 L4.72639755,2.12593316 C4.98532132,2.00412576 5.51597708,1.92759845 5.80186408,1.97090291 L15.172633,3.39033112 C15.2274185,3.39862974 15.3,3.47714659 15.3,3.52713034 L15.3,5.09656304 C15.3,5.1461657 15.226241,5.22635754 15.1713757,5.23474612 L5.80060681,6.66748403 C5.5159974,6.71099919 4.98309245,6.63507956 4.72527402,6.5142363 L1.23508885,4.87833523 L0.464911147,6.27613757 L3.95509633,7.91203865 C4.53598263,8.1843086 5.4361484,8.31254962 6.07862425,8.21431866 L15.4493932,6.78158075 C16.3244602,6.64778791 17,5.91333154 17,5.09656304 L17,3.52713034 C17,2.70794337 16.3230558,1.97564148 15.4481359,1.84311382 L6.07736698,0.423685595 C5.43332172,0.326129456 4.53552172,0.455603637 3.9539728,0.729185962 L0.463787608,2.37109939 L1.23621239,3.76784659 Z" id="Path"></path>
                    <polygon id="Path" points="5.1 1.17543184 5.1 7.44773519 6.8 7.44773519 6.8 1.17543184"></polygon>
                    <polygon id="Path" points="8.5 1.95993031 8.5 6.66376307 10.2 6.66376307 10.2 1.95993031"></polygon>
                    <polygon id="Path" points="11.9 2.35191638 11.9 6.271777 13.6 6.271777 13.6 2.35191638"></polygon>
                </g>
            </g>
        </g>
    </g>
</svg>