<?xml version="1.0" encoding="UTF-8"?>
<svg width="29px" height="29px" viewBox="0 0 29 29" version="1.1" xmlns="http://www.w3.org/2000/svg" xmlns:xlink="http://www.w3.org/1999/xlink">
    <!-- Generator: Sketch 52.6 (67491) - http://www.bohemiancoding.com/sketch -->
    <title>Group 38</title>
    <desc>Created with Sketch.</desc>
    <g id="Page-1" stroke="none" stroke-width="1" fill="none" fill-rule="evenodd">
        <g id="icons" transform="translate(-59.000000, -1927.000000)">
            <g id="Group-38" transform="translate(59.000000, 1927.000000)">
                <g id="Group-32">
                    <circle id="Oval-Copy-12" fill="#FFFFFF" cx="14.5" cy="14.5" r="14.5"></circle>
                    <g id="Group-35" transform="translate(5.000000, 4.000000)">
                        <g id="Group-33">
                            <path d="M13.3060148,10.0830661 C14.9768005,9.74289284 16.2,8.23130234 16.2,6.46154096 C16.2,4.42215019 14.5884039,2.76923077 12.6,2.76923077 C11.8569124,2.76923077 11.1498506,2.99956704 10.5529543,3.42364116 C10.1159422,3.73412308 9.51315392,3.59050643 9.25433264,3.11423951 C8.82955318,2.33258661 8.05273089,1.84615385 7.2,1.84615385 C5.96047267,1.84615385 4.9227019,2.87314745 4.83062672,4.204292 C4.79904319,4.66089983 4.44596295,5.02479541 4.00092885,5.05940468 C2.77087733,5.15506292 1.8,6.25810155 1.8,7.60323906 C1.8,8.83441488 2.61709145,9.87678215 3.71884801,10.106851 C3.88038423,10.140583 4.02978449,10.2191716 4.15074722,10.3340417 C4.0207796,10.2106202 3.91755822,10.1688664 3.82506505,10.1515727 C3.83452039,10.1519775 3.87021749,10.1538462 3.924,10.1538462 L13.0962918,10.1538462 C13.1616584,10.1221983 13.2318458,10.0981669 13.3060148,10.0830661 Z M12.6,0.923076923 C15.5825165,0.923076923 18,3.40254766 18,6.46154096 C18,8.96881412 16.3642583,11.1296557 14.0687228,11.7925837 C13.9150455,11.9214981 13.7181071,12 13.5,12 L3.924,12 C3.61364552,12 3.38909191,11.9775514 3.18791319,11.8760497 C1.33102101,11.4022143 0,9.64367313 0,7.60323906 C0,5.56363047 1.32544176,3.82675582 3.14511816,3.34131933 C3.59476443,1.4185509 5.24296923,0 7.2,0 C8.40751649,0 9.5228454,0.54391935 10.2995046,1.44946302 C11.0102331,1.10580201 11.7923871,0.923076923 12.6,0.923076923 Z" id="Combined-Shape-Copy" fill="#000000" fill-rule="nonzero"></path>
                            <g id="Time-Circle" transform="translate(6.000000, 5.000000)">
                                <path d="M12.0714286,6.50000301 C12.0714286,9.57723687 9.57723552,12.0714286 6.5,12.0714286 C3.42276448,12.0714286 0.928571429,9.57723687 0.928571429,6.50000301 C0.928571429,3.42276313 3.42276448,0.928571429 6.5,0.928571429 C9.57723552,0.928571429 12.0714286,3.42276313 12.0714286,6.50000301 Z" id="Path-Copy-17" fill="#FFFFFF"></path>
                                <path d="M11.1428571,6.50000301 C11.1428571,3.93559986 9.06440057,1.85714286 6.5,1.85714286 C3.93559943,1.85714286 1.85714286,3.93559986 1.85714286,6.50000301 C1.85714286,9.06440092 3.93560021,11.1428571 6.5,11.1428571 C9.06439979,11.1428571 11.1428571,9.06440092 11.1428571,6.50000301 Z M13,6.50000301 C13,10.0900728 10.0900712,13 6.5,13 C2.90992875,13 0,10.0900728 0,6.50000301 C0,2.90992827 2.90992767,0 6.5,0 C10.0900723,0 13,2.90992827 13,6.50000301 Z" id="Path" fill="#000000" fill-rule="nonzero"></path>
                                <path d="M8.75583191,7.51851783 C9.21899173,7.73870772 9.41595777,8.2926721 9.19576788,8.75583191 C8.975578,9.21899173 8.42161361,9.41595777 7.9584538,9.19576788 L5.48226333,8.01856709 C5.1586054,7.86469753 4.95238095,7.5383138 4.95238095,7.17994207 L4.95238095,4.64285714 C4.95238095,4.1300213 5.36811654,3.71428571 5.88095238,3.71428571 C6.39378822,3.71428571 6.80952381,4.1300213 6.80952381,4.64285714 L6.80952381,6.59322737 L8.75583191,7.51851783 Z" id="Path" fill="#000000" fill-rule="nonzero"></path>
                            </g>
                        </g>
                        <path d="M5.20692441,15.4117218 C5.51762706,15.8683204 5.399355,16.490341 4.94275637,16.8010437 C4.48615773,17.1117463 3.86413715,16.9934742 3.5534345,16.5368756 L2.17335266,14.5087517 C1.86265001,14.052153 1.98092207,13.4301324 2.43752071,13.1194298 C2.89411934,12.8087271 3.51613992,12.9269992 3.82684257,13.3835978 L5.20692441,15.4117218 Z" id="Path-Copy-12" fill="#000000" fill-rule="nonzero"></path>
                        <path d="M10.2069244,20.4117218 C10.5176271,20.8683204 10.399355,21.490341 9.94275637,21.8010437 C9.48615773,22.1117463 8.86413715,21.9934742 8.5534345,21.5368756 L7.17335266,19.5087517 C6.86265001,19.052153 6.98092207,18.4301324 7.43752071,18.1194298 C7.89411934,17.8087271 8.51613992,17.9269992 8.82684257,18.3835978 L10.2069244,20.4117218 Z" id="Path-Copy-13" fill="#000000" fill-rule="nonzero"></path>
                        <path d="M15.4897593,20.3577989 C15.8004619,20.8143976 15.6821898,21.4364181 15.2255912,21.7471208 C14.7689926,22.0578234 14.146972,21.9395514 13.8362694,21.4829527 L13.1733527,20.5087517 C12.86265,20.052153 12.9809221,19.4301324 13.4375207,19.1194298 C13.8941193,18.8087271 14.5161399,18.9269992 14.8268426,19.3835978 L15.4897593,20.3577989 Z" id="Path-Copy-15" fill="#000000" fill-rule="nonzero"></path>
                    </g>
                </g>
            </g>
        </g>
    </g>
</svg>