<?xml version="1.0" encoding="UTF-8"?>
<svg width="29px" height="29px" viewBox="0 0 29 29" version="1.1" xmlns="http://www.w3.org/2000/svg" xmlns:xlink="http://www.w3.org/1999/xlink">
    <!-- Generator: Sketch 52.6 (67491) - http://www.bohemiancoding.com/sketch -->
    <title>Group 29</title>
    <desc>Created with Sketch.</desc>
    <g id="Page-1" stroke="none" stroke-width="1" fill="none" fill-rule="evenodd">
        <g id="icons" transform="translate(-59.000000, -1759.000000)">
            <g id="Group-29" transform="translate(59.000000, 1759.000000)">
                <g id="Group-20-Copy-5" fill="#FFFFFF">
                    <g id="Group-14-Copy-9">
                        <circle id="Oval-Copy-30" cx="14.5" cy="14.5" r="14.5"></circle>
                    </g>
                </g>
                <g id="wind-copy" transform="translate(14.000000, 13.500000) scale(-1, 1) translate(-14.000000, -13.500000) translate(5.000000, 6.000000)" fill="#000000">
                    <path d="M17.1378054,9.09520099 L11.6201829,9.09520099 C10.5745927,9.09520099 9.72415415,8.1553997 9.72415415,7.00025976 C9.72415415,5.84511981 10.5745927,4.90479901 11.6201829,4.90479901 C12.4863746,4.90479901 13.2413534,5.55055523 13.4569608,6.47477109 C13.5754626,6.98415482 14.0452376,7.29092798 14.5067833,7.15949088 C14.9678587,7.02831353 15.2455385,6.50931879 15.1268016,5.99993506 C14.7148668,4.23384635 13.2728598,3 11.620418,3 C9.62422703,3 8,4.79466199 8,7.00025976 C8,9.20585752 9.62422703,11 11.620418,11 L17.1380405,11 C17.6139287,11 18,10.5737386 18,10.0477304 C18,9.52172219 17.6136935,9.09520099 17.1378054,9.09520099 Z" id="Path"></path>
                    <path d="M15.1112458,13.1491816 L3.36276857,13.1491816 C2.48880269,13.1491816 1.77799327,12.4092581 1.77799327,11.5 C1.77799327,10.5907419 2.48880269,9.85056601 3.36276857,9.85056601 C4.23600715,9.85056601 4.94657414,10.5904896 4.94657414,11.5 C4.94657414,12.0110318 5.34488924,12.4254092 5.83581321,12.4254092 C6.32673717,12.4254092 6.72456741,12.0110318 6.72456741,11.5 C6.72456741,9.57044488 5.21591563,8 3.36276857,8 C1.50865178,8 0,9.57019252 0,11.5 C0,13.4298075 1.50865178,15 3.36276857,15 L15.1112458,15 C15.6014425,15 16,14.5856226 16,14.0745908 C16,13.563559 15.6014425,13.1491816 15.1112458,13.1491816 Z" id="Path"></path>
                    <path d="M5.64469786,7 C5.87821219,7 6.11031699,6.88817226 6.2806368,6.66785493 C6.6013079,6.25197816 6.57711074,5.60688234 6.22566461,5.22689058 C5.59465907,4.54396249 5.5507283,3.38062023 6.12699658,2.63343292 C6.40232737,2.27652997 6.77891035,2.06539253 7.18650328,2.0386874 C7.66128444,2.00780959 8.02518154,1.52656088 7.99863514,0.964084058 C7.97255859,0.401885417 7.56778474,-0.0295693547 7.09159403,0.00158663137 C6.23083294,0.0583350345 5.43702515,0.503976907 4.85558854,1.25728414 C3.63774315,2.83483411 3.73147777,5.2911498 5.06349618,6.73294869 C5.22841274,6.91153925 5.43726007,7 5.64469786,7 Z" id="Path"></path>
                </g>
            </g>
        </g>
    </g>
</svg>