<?xml version="1.0" encoding="UTF-8"?>
<svg width="29px" height="30px" viewBox="0 0 29 30" version="1.1" xmlns="http://www.w3.org/2000/svg" xmlns:xlink="http://www.w3.org/1999/xlink">
    <!-- Generator: Sketch 52.6 (67491) - http://www.bohemiancoding.com/sketch -->
    <title>Group 39 Copy</title>
    <desc>Created with Sketch.</desc>
    <g id="Page-1" stroke="none" stroke-width="1" fill="none" fill-rule="evenodd">
        <g id="icons" transform="translate(-59.000000, -1983.000000)">
            <g id="Group-39-Copy" transform="translate(59.000000, 1983.000000)">
                <g id="Group-32-Copy-2">
                    <g id="Group-37">
                        <g id="Group-18-Copy-4" transform="translate(0.000000, 0.028124)" fill="#FFFFFF">
                            <circle id="Oval-Copy-31" cx="14.5" cy="14.5" r="14.5"></circle>
                        </g>
                        <g id="Group-34" transform="translate(5.000000, 4.000000)">
                            <path d="M13.3060148,10.0830661 C14.9768005,9.74289284 16.2,8.23130234 16.2,6.46154096 C16.2,4.42215019 14.5884039,2.76923077 12.6,2.76923077 C11.8569124,2.76923077 11.1498506,2.99956704 10.5529543,3.42364116 C10.1159422,3.73412308 9.51315392,3.59050643 9.25433264,3.11423951 C8.82955318,2.33258661 8.05273089,1.84615385 7.2,1.84615385 C5.96047267,1.84615385 4.9227019,2.87314745 4.83062672,4.204292 C4.79904319,4.66089983 4.44596295,5.02479541 4.00092885,5.05940468 C2.77087733,5.15506292 1.8,6.25810155 1.8,7.60323906 C1.8,8.83441488 2.61709145,9.87678215 3.71884801,10.106851 C3.88038423,10.140583 4.02978449,10.2191716 4.15074722,10.3340417 C4.0207796,10.2106202 3.91755822,10.1688664 3.82506505,10.1515727 C3.83452039,10.1519775 3.87021749,10.1538462 3.924,10.1538462 L13.0962918,10.1538462 C13.1616584,10.1221983 13.2318458,10.0981669 13.3060148,10.0830661 Z M12.6,0.923076923 C15.5825165,0.923076923 18,3.40254766 18,6.46154096 C18,8.96881412 16.3642583,11.1296557 14.0687228,11.7925837 C13.9150455,11.9214981 13.7181071,12 13.5,12 L3.924,12 C3.61364552,12 3.38909191,11.9775514 3.18791319,11.8760497 C1.33102101,11.4022143 0,9.64367313 0,7.60323906 C0,5.56363047 1.32544176,3.82675582 3.14511816,3.34131933 C3.59476443,1.4185509 5.24296923,0 7.2,0 C8.40751649,0 9.5228454,0.54391935 10.2995046,1.44946302 C11.0102331,1.10580201 11.7923871,0.923076923 12.6,0.923076923 Z" id="Combined-Shape-Copy" fill="#000000" fill-rule="nonzero"></path>
                            <rect id="Rectangle-Copy-124" fill="#FFFFFF" x="7" y="7" width="10" height="9" rx="2.7"></rect>
                            <path d="M13.5,7.83333333 L13.5,6 L15,6 C17.209139,6 19,7.64162258 19,9.66666667 L19,13.3333333 C19,15.3583774 17.209139,17 15,17 L10,17 C7.790861,17 6,15.3583774 6,13.3333333 L6,9.66666667 C6,7.95814719 7.27477279,6.52255525 9,6.11551603 L9,8.07860069 C8.40219863,8.39559266 8,8.98807451 8,9.66666667 L8,13.3333333 C8,14.3458554 8.8954305,15.1666667 10,15.1666667 L15,15.1666667 C16.1045695,15.1666667 17,14.3458554 17,13.3333333 L17,9.66666667 C17,8.65414463 16.1045695,7.83333333 15,7.83333333 L13.5,7.83333333 Z M12.5,7.83333333 L10,7.83333333 L10,6 L12.5,6 L12.5,7.83333333 Z" id="Combined-Shape" fill="#000000" fill-rule="nonzero"></path>
                            <g id="Group-38-Copy" transform="translate(10.000000, 5.000000)" fill="#000000" fill-rule="nonzero">
                                <path d="M1.66666667,5.0578635 C1.66666667,5.54517358 1.29357062,5.94021644 0.833333333,5.94021644 C0.373096042,5.94021644 0,5.54517358 0,5.0578635 L1.48029737e-16,0.882352941 C1.48029737e-16,0.395042868 0.373096042,0 0.833333333,0 C1.29357062,0 1.66666667,0.395042868 1.66666667,0.882352941 L1.66666667,5.0578635 Z" id="Path-Copy-18"></path>
                                <path d="M5,5.0578635 C5,5.54517358 4.62690396,5.94021644 4.16666667,5.94021644 C3.70642938,5.94021644 3.33333333,5.54517358 3.33333333,5.0578635 L3.33333333,0.882352941 C3.33333333,0.395042868 3.70642938,9.09494702e-13 4.16666667,9.09494702e-13 C4.62690396,9.09494702e-13 5,0.395042868 5,0.882352941 L5,5.0578635 Z" id="Path-Copy-19"></path>
                            </g>
                            <path d="M5.20692441,15.4656447 C5.51762706,15.9222433 5.399355,16.5442639 4.94275637,16.8549665 C4.48615773,17.1656692 3.86413715,17.0473971 3.5534345,16.5907985 L2.17335266,14.5626745 C1.86265001,14.1060759 1.98092207,13.4840553 2.43752071,13.1733527 C2.89411934,12.86265 3.51613992,12.9809221 3.82684257,13.4375207 L5.20692441,15.4656447 Z" id="Path-Copy-12" fill="#000000" fill-rule="nonzero"></path>
                            <path d="M10.2069244,20.4656447 C10.5176271,20.9222433 10.399355,21.5442639 9.94275637,21.8549665 C9.48615773,22.1656692 8.86413715,22.0473971 8.5534345,21.5907985 L7.17335266,19.5626745 C6.86265001,19.1060759 6.98092207,18.4840553 7.43752071,18.1733527 C7.89411934,17.86265 8.51613992,17.9809221 8.82684257,18.4375207 L10.2069244,20.4656447 Z" id="Path-Copy-13" fill="#000000" fill-rule="nonzero"></path>
                            <path d="M15.4897593,20.4117218 C15.8004619,20.8683204 15.6821898,21.490341 15.2255912,21.8010437 C14.7689926,22.1117463 14.146972,21.9934742 13.8362694,21.5368756 L13.1733527,20.5626745 C12.86265,20.1060759 12.9809221,19.4840553 13.4375207,19.1733527 C13.8941193,18.86265 14.5161399,18.9809221 14.8268426,19.4375207 L15.4897593,20.4117218 Z" id="Path-Copy-15" fill="#000000" fill-rule="nonzero"></path>
                        </g>
                    </g>
                </g>
            </g>
        </g>
    </g>
</svg>