<?xml version="1.0" encoding="UTF-8"?>
<svg width="29px" height="29px" viewBox="0 0 29 29" version="1.1" xmlns="http://www.w3.org/2000/svg" xmlns:xlink="http://www.w3.org/1999/xlink">
    <!-- Generator: Sketch 52.6 (67491) - http://www.bohemiancoding.com/sketch -->
    <title>Group 11 Copy 6</title>
    <desc>Created with Sketch.</desc>
    <g id="Page-1" stroke="none" stroke-width="1" fill="none" fill-rule="evenodd">
        <g id="icons" transform="translate(-59.000000, -1871.000000)">
            <g id="Group-11-Copy-6" transform="translate(59.000000, 1871.000000)">
                <circle id="Oval-Copy-11" fill="#FFFFFF" cx="14.5" cy="14.5" r="14.5"></circle>
                <g id="Group-6-Copy-2" transform="translate(5.666667, 3.041667)" stroke="#000000" stroke-width="1.79976431">
                    <g id="Group-3" transform="translate(0.000000, 0.400130)">
                        <path d="M8.83333333,14.7222699 L8.83333333,11.0482031" id="Line-2" stroke-linecap="square"></path>
                        <path d="M8.83333333,2.05820333 L8.83333333,1.05820333" id="Line-2" stroke-linecap="square"></path>
                        <path d="M1.83333333,9.05820333 L1.83333333,8.05820333" id="Line-2" stroke-linecap="square" transform="translate(1.625000, 8.520580) rotate(-270.000000) translate(-1.625000, -8.520580) "></path>
                        <path d="M16.8333333,9.05820333 L16.8333333,8.05820333" id="Line-2" stroke-linecap="square" transform="translate(16.625000, 8.520580) rotate(-270.000000) translate(-16.625000, -8.520580) "></path>
                        <path d="M3.83333333,4.05820333 L3.83333333,3.05820333" id="Line-2" stroke-linecap="square" transform="translate(3.625000, 3.520580) rotate(-240.000000) translate(-3.625000, -3.520580) "></path>
                        <path d="M14.8333333,4.05820333 L14.8333333,3.05820333" id="Line-2" stroke-linecap="square" transform="translate(14.625000, 3.520580) rotate(-300.000000) translate(-14.625000, -3.520580) "></path>
                        <ellipse id="Oval" fill="#000000" cx="8.83333333" cy="15.9226599" rx="1.20833333" ry="1.20039001"></ellipse>
                        <path d="M5.20833333,12.7466388 L5.20833333,8.59952863 C5.20833333,6.61156386 6.81989719,5 8.80786196,5 L8.85880471,5 C10.8467695,5 12.4583333,6.61156386 12.4583333,8.59952863 L12.4583333,12.7466388 C13.2103558,13.5930736 13.6666667,14.7049285 13.6666667,15.9226599 C13.6666667,18.5744883 11.5027096,20.72422 8.83333333,20.72422 C6.16395704,20.72422 4,18.5744883 4,15.9226599 C4,14.7049285 4.45631088,13.5930736 5.20833333,12.7466388 Z" id="Combined-Shape"></path>
                    </g>
                </g>
            </g>
        </g>
    </g>
</svg>