<?xml version="1.0" encoding="UTF-8"?>
<svg width="59px" height="59px" viewBox="0 0 59 59" version="1.1" xmlns="http://www.w3.org/2000/svg" xmlns:xlink="http://www.w3.org/1999/xlink">
    <!-- Generator: Sketch 52.6 (67491) - http://www.bohemiancoding.com/sketch -->
    <title>Group 6</title>
    <desc>Created with Sketch.</desc>
    <defs>
        <filter x="-153.4%" y="-153.4%" width="406.9%" height="406.9%" filterUnits="objectBoundingBox" id="filter-1">
            <feOffset dx="0" dy="8" in="SourceAlpha" result="shadowOffsetOuter1"></feOffset>
            <feGaussianBlur stdDeviation="7.5" in="shadowOffsetOuter1" result="shadowBlurOuter1"></feGaussianBlur>
            <feColorMatrix values="0 0 0 0 0.243137255   0 0 0 0 0.450980392   0 0 0 0 0.866666667  0 0 0 0.1 0" type="matrix" in="shadowBlurOuter1" result="shadowMatrixOuter1"></feColorMatrix>
            <feMerge>
                <feMergeNode in="shadowMatrixOuter1"></feMergeNode>
                <feMergeNode in="SourceGraphic"></feMergeNode>
            </feMerge>
        </filter>
    </defs>
    <g id="Mockups" stroke="none" stroke-width="1" fill="none" fill-rule="evenodd">
        <g id="icons" transform="translate(-44.000000, -2033.000000)">
            <g id="Group-6" transform="translate(59.000000, 2040.000000)">
                <g id="Group-39">
                    <g id="Play" filter="url(#filter-1)" fill="#FFFFFF">
                        <circle id="Oval" cx="14.5" cy="14.5" r="14.5"></circle>
                    </g>
                    <g id="Icons-/-Chat" transform="translate(5.000000, 7.000000)" fill="#000000">
                        <path d="M3.01820711,4.48641617 C2.67641074,3.79044374 2.73765008,3.31449651 3.20192514,3.0585745 C3.6662002,2.80265248 4.09158626,3.03481251 4.47808332,3.75505459 L4.47808332,3.76766428 C5.12358751,5.03888852 5.12358751,6.51892871 4.47808332,7.79015295 L3.73533928,9.24026642 C3.31539012,10.0672933 3.31539012,11.0108341 3.73533928,11.837861 L4.47808332,13.2879745 C4.7840609,13.8903195 4.67973323,14.3056816 4.26008297,14.5137699 C3.84043271,14.7218582 3.3954641,14.6826359 3.01820711,14.0067264 L2.35229867,12.7079291 L2.27546308,12.5566129 C1.62995872,11.2853886 1.62995872,9.79273878 2.27546308,8.52151453 L3.01820711,7.07140106 C3.43815643,6.24437416 3.43815643,5.31344307 3.01820711,4.48641617 Z M2.19862749,0.375659719 C2.30768973,0.37131508 2.41653481,0.388463407 2.51877578,0.426098449 L4.77261974,1.23311812 C5.0632452,1.3202253 5.28110742,1.55846532 5.33872256,1.85217153 C5.39633769,2.14587774 5.28425507,2.44687311 5.04748211,2.63429122 C4.81070915,2.82170933 4.48808404,2.86480772 4.20915875,2.74628 C3.25180044,2.37005407 2.77312128,2.18194111 2.77312128,2.18194111 C2.77312128,2.18194111 2.6541903,2.71892195 2.41632832,3.79288364 C2.3591062,4.08655633 2.14167749,4.32500831 1.85129831,4.41254661 C1.56091914,4.50008491 1.24518551,4.42236114 1.03080421,4.21056657 C0.816422917,3.99877201 0.738533154,3.68762184 0.828392801,3.40198349 L1.44307752,0.980924473 C1.53267992,0.637725117 1.83914667,0.392217169 2.19862749,0.375659719 Z M9.44556304,4.48641617 C9.10376666,3.79044374 9.16500601,3.31449651 9.62928107,3.0585745 C10.0935561,2.80265248 10.5189422,3.03481251 10.9054392,3.75505459 L10.9054392,3.76766428 C11.5509434,5.03888852 11.5509434,6.51892871 10.9054392,7.79015295 L10.1626952,9.24026642 C9.74274605,10.0672933 9.74274605,11.0108341 10.1626952,11.837861 L10.9054392,13.2879745 C11.2114168,13.8903195 11.1070892,14.3056816 10.6874389,14.5137699 C10.2677886,14.7218582 9.82282003,14.6826359 9.44556304,14.0067264 L8.77965459,12.7079291 L8.702819,12.5566129 C8.05731465,11.2853886 8.05731465,9.79273878 8.702819,8.52151453 L9.44556304,7.07140106 C9.86551236,6.24437416 9.86551236,5.31344307 9.44556304,4.48641617 Z M8.62598341,0.375659719 C8.73504566,0.37131508 8.84389074,0.388463407 8.9461317,0.426098449 L11.1999757,1.23311812 C11.4906011,1.3202253 11.7084633,1.55846532 11.7660785,1.85217153 C11.8236936,2.14587774 11.711611,2.44687311 11.474838,2.63429122 C11.2380651,2.82170933 10.91544,2.86480772 10.6365147,2.74628 C9.67915637,2.37005407 9.20047721,2.18194111 9.20047721,2.18194111 C9.20047721,2.18194111 9.08154622,2.71892195 8.84368425,3.79288364 C8.78646213,4.08655633 8.56903341,4.32500831 8.27865424,4.41254661 C7.98827507,4.50008491 7.67254144,4.42236114 7.45816014,4.21056657 C7.24377885,3.99877201 7.16588908,3.68762184 7.25574873,3.40198349 L7.87043345,0.980924473 C7.96003585,0.637725117 8.2665026,0.392217169 8.62598341,0.375659719 Z M15.872919,4.48641617 C15.5311226,3.79044374 15.5923619,3.31449651 16.056637,3.0585745 C16.5209121,2.80265248 16.9462981,3.03481251 17.3327952,3.75505459 L17.3327952,3.76766428 C17.9782994,5.03888852 17.9782994,6.51892871 17.3327952,7.79015295 L16.5900511,9.24026642 C16.170102,10.0672933 16.170102,11.0108341 16.5900511,11.837861 L17.3327952,13.2879745 C17.6387728,13.8903195 17.5344451,14.3056816 17.1147948,14.5137699 C16.6951446,14.7218582 16.250176,14.6826359 15.872919,14.0067264 L15.2070105,12.7079291 L15.1301749,12.5566129 C14.4846706,11.2853886 14.4846706,9.79273878 15.1301749,8.52151453 L15.872919,7.07140106 C16.2928683,6.24437416 16.2928683,5.31344307 15.872919,4.48641617 Z M15.0533393,0.375659719 C15.1624016,0.37131508 15.2712467,0.388463407 15.3734876,0.426098449 L17.6273316,1.23311812 C17.9179571,1.3202253 18.1358193,1.55846532 18.1934344,1.85217153 C18.2510496,2.14587774 18.1389669,2.44687311 17.902194,2.63429122 C17.665421,2.82170933 17.3427959,2.86480772 17.0638706,2.74628 C16.1065123,2.37005407 15.6278331,2.18194111 15.6278331,2.18194111 C15.6278331,2.18194111 15.5089022,2.71892195 15.2710402,3.79288364 C15.2138181,4.08655633 14.9963893,4.32500831 14.7060102,4.41254661 C14.415631,4.50008491 14.0998974,4.42236114 13.8855161,4.21056657 C13.6711348,3.99877201 13.593245,3.68762184 13.6831047,3.40198349 L14.2977894,0.980924473 C14.3873918,0.637725117 14.6938585,0.392217169 15.0533393,0.375659719 Z" id="Shape"></path>
                    </g>
                </g>
            </g>
        </g>
    </g>
</svg>