<?xml version="1.0" encoding="UTF-8"?>
<svg width="59px" height="59px" viewBox="0 0 59 59" version="1.1" xmlns="http://www.w3.org/2000/svg" xmlns:xlink="http://www.w3.org/1999/xlink">
    <!-- Generator: Sketch 52.6 (67491) - http://www.bohemiancoding.com/sketch -->
    <title>Group 6 Copy 3</title>
    <desc>Created with Sketch.</desc>
    <defs>
        <filter x="-153.4%" y="-153.4%" width="406.9%" height="406.9%" filterUnits="objectBoundingBox" id="filter-1">
            <feOffset dx="0" dy="8" in="SourceAlpha" result="shadowOffsetOuter1"></feOffset>
            <feGaussianBlur stdDeviation="7.5" in="shadowOffsetOuter1" result="shadowBlurOuter1"></feGaussianBlur>
            <feColorMatrix values="0 0 0 0 0.243137255   0 0 0 0 0.450980392   0 0 0 0 0.866666667  0 0 0 0.1 0" type="matrix" in="shadowBlurOuter1" result="shadowMatrixOuter1"></feColorMatrix>
            <feMerge>
                <feMergeNode in="shadowMatrixOuter1"></feMergeNode>
                <feMergeNode in="SourceGraphic"></feMergeNode>
            </feMerge>
        </filter>
    </defs>
    <g id="Mockups" stroke="none" stroke-width="1" fill="none" fill-rule="evenodd">
        <g id="icons" transform="translate(-44.000000, -2089.000000)">
            <g id="Group-6-Copy-3" transform="translate(59.000000, 2096.000000)">
                <g id="Play" filter="url(#filter-1)" fill="#FFFFFF">
                    <circle id="Oval" cx="14.5" cy="14.5" r="14.5"></circle>
                </g>
                <g id="Icons-/-Chat" transform="translate(5.000000, 5.000000)" fill="#000000">
                    <path d="M8.72010417,19.1406944 C6.87760417,19.0322222 5.09621528,18.2958333 3.69371528,17.0659722 C2.25760417,15.8040278 1.29663194,14.1005556 0.960520833,12.2213889 C0.7909375,11.2741667 0.7909375,10.2352778 0.960520833,9.28805556 C1.2309375,7.7725 1.9046875,6.37458333 2.92065972,5.21652778 C4.28954861,3.65819444 6.18399306,2.65902778 8.23121528,2.41458333 C9.47329861,2.26638889 10.6527431,2.38708333 11.8795486,2.79041667 C12.0094097,2.83319444 12.0430208,2.84847222 12.0353819,2.86680556 C12.0109375,2.93555556 11.9467708,3.29916667 11.9269097,3.50236111 C11.8994097,3.76819444 11.9055208,4.06458333 11.9437153,4.29069444 C11.9559375,4.37013889 11.9651042,4.43736111 11.9605208,4.44041667 C11.9574653,4.44347222 11.8932986,4.42208333 11.8199653,4.39152778 C9.6596875,3.49625 7.13274306,3.79722222 5.22149306,5.17680556 C4.63482639,5.6 4.0771875,6.15763889 3.65399306,6.74430556 C2.72815972,8.02611111 2.26829861,9.62416667 2.3721875,11.1855556 C2.49746528,13.0311111 3.3209375,14.7040278 4.70204861,15.9170833 C7.02732639,17.9581944 10.4082986,18.1980556 12.9887153,16.50375 C14.5439931,15.4847222 15.6394097,13.8454167 15.9755208,12.0380556 C15.9897801,11.9626852 16.0091319,11.8537037 16.0335764,11.7111111 L17.5949653,9.58891425 C17.5857986,9.78148993 17.5857986,9.92819444 17.5949653,10.0290278 C17.7171875,11.3031944 17.5231597,12.6384722 17.0373264,13.8561111 C16.1832986,15.9995833 14.4767708,17.7061111 12.3332986,18.5601389 C11.1935764,19.0154167 9.95913194,19.2125 8.72010417,19.1406944 Z M8.9034375,16.09125 C7.73621528,15.9995833 6.7721875,15.62375 5.8784375,14.9148611 C5.66302083,14.74375 5.24288194,14.3236111 5.07177083,14.1081944 C4.42552083,13.2938889 4.05885417,12.4215278 3.91982639,11.3734722 C3.88315972,11.0938889 3.88315972,10.4247222 3.91982639,10.1588889 C3.97024306,9.79680556 4.1046875,9.22083333 4.18107639,9.03597222 L4.20246528,8.98555556 C4.54563146,8.43089303 4.92995277,8.23292942 5.35542921,8.39166472 C5.99364387,8.62976767 5.63552083,9.49277778 5.63704861,9.49277778 C5.63857639,9.49430556 5.61871528,9.56 5.59427083,9.63944444 C5.53774306,9.81819444 5.46746528,10.1329167 5.44149306,10.3269444 C5.4109375,10.5454167 5.41552083,11.0602778 5.44760417,11.2741667 C5.60954861,12.3252778 6.1259375,13.1961111 6.95857639,13.8179167 C7.47802083,14.2075 8.0784375,14.4488889 8.7659375,14.5466667 C8.94927083,14.5726389 9.52065972,14.5726389 9.69788194,14.5451389 C10.2799653,14.4595833 10.7795486,14.2793056 11.2241319,13.9966667 L11.3295486,13.9294444 L10.4816319,13.0815278 L9.63371528,12.2336111 L9.49163194,12.2580556 C8.66052083,12.4001389 7.8721875,11.8409722 7.72704861,11.0052778 C7.54982639,9.98777778 8.46496528,9.07263889 9.48246528,9.24986111 C10.3181597,9.395 10.8773264,10.1833333 10.7352431,11.0144444 L10.7107986,11.1565278 L12.3424653,12.7881944 L13.7575765,14.1960681 C14.0660603,14.5783958 14.0660603,14.9346138 13.7575765,15.2647222 C13.4490927,15.5948306 13.0900649,15.5976403 12.6804932,15.2731514 L12.6648264,15.2647222 L12.4326042,15.0325 L12.3562153,15.0875 C11.7023264,15.5611111 10.9216319,15.8895833 10.1226042,16.0255556 C9.77274306,16.0866667 9.21204861,16.1172222 8.9034375,16.09125 Z M13.5264931,12.2916667 L12.9260764,11.69125 L12.9719097,11.4559722 C12.9978819,11.3261111 13.0269097,11.1351389 13.0376042,11.0297222 C13.0757986,10.6172222 13.0116319,10.0809722 12.8695486,9.63944444 C12.8435764,9.56 12.8252431,9.49430556 12.8267708,9.49277778 C12.8294939,9.49073546 12.4016215,8.77460305 13.1234036,8.44746327 C13.8451858,8.12032349 14.2415089,8.99404145 14.2491319,8.99319444 C14.2888542,8.98555556 14.4477431,9.56763889 14.5088542,9.945 C14.6448264,10.7761111 14.5745486,11.6316667 14.3026042,12.4368056 C14.2521875,12.5895833 14.1421875,12.8752778 14.1299653,12.8890278 C14.1284375,12.8905556 13.8564931,12.6216667 13.5264931,12.2916667 Z M15.5309375,8.97180556 C14.8334265,8.10130222 14.8037153,7.87180556 14.4691319,7.30958333 C14.1314931,6.74430556 13.9802431,6.46930556 13.7251042,5.9575 C13.2194097,4.94 13.0299653,4.31666667 13.0574653,3.7575 C13.0956597,2.97986111 13.3844097,2.30763889 13.9145486,1.75763889 C14.3789931,1.27486111 14.9610764,0.973888889 15.6485764,0.860833333 C15.8701042,0.824166667 16.3437153,0.824166667 16.5652431,0.860833333 C17.2527431,0.973888889 17.8348264,1.27486111 18.2992708,1.75763889 C18.8294097,2.30763889 19.1181597,2.97986111 19.1563542,3.7575 C19.1838542,4.31666667 18.9944097,4.94 18.4887153,5.9575 C18.1846875,6.56861111 17.7946051,7.18604351 17.3780208,7.91305556 C16.2346916,9.9083641 15.7310204,9.22151172 15.5309375,8.97180556 Z M16.3284375,6.70152778 C17.0724653,5.46402778 17.5032986,4.57180556 17.6102431,4.04472222 C17.6407986,3.89805556 17.6407986,3.81861111 17.6117708,3.63833333 C17.5216319,3.08069444 17.1228819,2.61319444 16.5851042,2.42986111 C16.4644097,2.39013889 16.2367708,2.35194444 16.1069097,2.35194444 C15.4637153,2.35194444 14.8678819,2.78277778 14.6570486,3.40152778 C14.6203819,3.51305556 14.5791319,3.74680556 14.5791319,3.85375 C14.5791319,4.21277778 14.9687153,5.12791667 15.5492708,6.13319444 C15.7356597,6.45708333 16.0977431,7.0575 16.1069097,7.0575 C16.1114931,7.0575 16.2107986,6.89708333 16.3284375,6.70152778 Z" id="Combined-Shape" transform="translate(9.996139, 9.994217) scale(1, -1) translate(-9.996139, -9.994217) "></path>
                </g>
            </g>
        </g>
    </g>
</svg>