<?xml version="1.0" encoding="UTF-8"?>
<svg width="59px" height="59px" viewBox="0 0 59 59" version="1.1" xmlns="http://www.w3.org/2000/svg" xmlns:xlink="http://www.w3.org/1999/xlink">
    <!-- Generator: Sketch 52.6 (67491) - http://www.bohemiancoding.com/sketch -->
    <title>Group 6 Copy 4</title>
    <desc>Created with Sketch.</desc>
    <defs>
        <filter x="-153.4%" y="-153.4%" width="406.9%" height="406.9%" filterUnits="objectBoundingBox" id="filter-1">
            <feOffset dx="0" dy="8" in="SourceAlpha" result="shadowOffsetOuter1"></feOffset>
            <feGaussianBlur stdDeviation="7.5" in="shadowOffsetOuter1" result="shadowBlurOuter1"></feGaussianBlur>
            <feColorMatrix values="0 0 0 0 0.243137255   0 0 0 0 0.450980392   0 0 0 0 0.866666667  0 0 0 0.1 0" type="matrix" in="shadowBlurOuter1" result="shadowMatrixOuter1"></feColorMatrix>
            <feMerge>
                <feMergeNode in="shadowMatrixOuter1"></feMergeNode>
                <feMergeNode in="SourceGraphic"></feMergeNode>
            </feMerge>
        </filter>
    </defs>
    <g id="Mockups" stroke="none" stroke-width="1" fill="none" fill-rule="evenodd">
        <g id="icons" transform="translate(-44.000000, -2145.000000)">
            <g id="Group-6-Copy-4" transform="translate(59.000000, 2152.000000)">
                <g id="Play" filter="url(#filter-1)" fill="#FFFFFF">
                    <circle id="Oval" cx="14.5" cy="14.5" r="14.5"></circle>
                </g>
                <g id="Icons-/-Chat" transform="translate(5.000000, 6.000000)" fill="#000000">
                    <path d="M15.0416667,14.8333333 C15.0416667,15.7077842 14.3327842,16.4166667 13.4583333,16.4166667 L5.54166667,16.4166667 C4.66721581,16.4166667 3.95833333,15.7077842 3.95833333,14.8333333 L3.95833333,11.9041667 C3.59416667,11.7616667 2.12708333,11.3803169 1.375,11.3803169 C0.937774573,11.3803169 0.583333333,11.0258757 0.583333333,10.5886502 C0.583333333,10.1514248 0.937774573,9.79698357 1.375,9.79698357 C2.02416667,9.79698357 3.53875,10.1466667 3.95833333,10.2495833 L3.95833333,8.7375 C3.59416667,8.595 2.12708333,8.21365023 1.375,8.21365023 C0.937774573,8.21365023 0.583333333,7.85920899 0.583333333,7.42198357 C0.583333333,6.98475814 0.937774573,6.6303169 1.375,6.6303169 C2.02416667,6.6303169 3.53875,6.98 3.95833333,7.08291667 L3.95833333,5.57083333 C3.59416667,5.42833333 2.12708333,5.04698357 1.375,5.04698357 C0.937774573,5.04698357 0.583333333,4.69254233 0.583333333,4.2553169 C0.583333333,3.81809147 0.937774573,3.46365023 1.375,3.46365023 C2.02416667,3.46365023 3.53875,3.81333333 3.95833333,3.91625 L3.95833333,2.16666667 C3.95833333,1.29221581 4.66721581,0.583333333 5.54166667,0.583333333 L13.4583333,0.583333333 C14.3327842,0.583333333 15.0416667,1.29221581 15.0416667,2.16666667 L15.0416667,3.87666667 C16.4508333,4.12208333 18.07375,5.28520012 18.2083333,5.41186679 C18.5170833,5.72061679 18.5170833,6.22728346 18.2083333,6.53603346 C17.8995833,6.84478346 17.4879167,6.83686679 17.0841667,6.53603346 L16.0629167,5.89541667 C16.0629167,5.89541667 15.2395833,5.33333333 13.4583333,5.33333333 C12.4608333,5.33333333 11.80375,5.65791667 11.04375,6.04583333 C10.2204167,6.44958333 9.29416667,6.91666667 7.91666667,6.91666667 C7.63166667,6.91666667 7.37041667,6.91666667 7.125,6.885 L7.125,5.29375 C7.3625,5.33333333 7.62375,5.33333333 7.91666667,5.33333333 C8.91416667,5.33333333 9.57125,5.00875 10.33125,4.62875 C11.1545833,4.21708333 12.08875,3.75 13.4583333,3.75 L13.4583333,2.16666667 L5.54166667,2.16666667 L5.54166667,14.8333333 L13.4583333,14.8333333 L13.4583333,13.25 C14.6458333,13.25 15.0179167,13.4795833 15.0416667,13.4954167 L15.0416667,14.8333333 Z M10.33125,7.79541667 C9.57125,8.17541667 8.91416667,8.5 7.91666667,8.5 C7.62375,8.5 7.3625,8.5 7.125,8.46041667 L7.125,10.0516667 C7.37041667,10.0833333 7.63166667,10.0833333 7.91666667,10.0833333 C9.29416667,10.0833333 10.2204167,9.61625 11.04375,9.2125 C11.80375,8.8325 12.4608333,8.5 13.4583333,8.5 C15.2395833,8.5 17.0629167,10.0620833 17.0629167,10.0620833 C17.4666667,10.3708333 17.8783333,10.3708333 18.1870833,10.0620833 C18.4958333,9.75333333 18.4958333,9.25458333 18.1870833,8.93791667 C18.0208333,8.77166667 16.03125,6.91666667 13.4583333,6.91666667 C12.08875,6.91666667 11.1545833,7.38375 10.33125,7.79541667 Z M13.4583333,10.0833333 C12.08875,10.0833333 11.1545833,10.5504167 10.33125,10.9620833 C9.57125,11.3420833 8.91416667,11.6666667 7.91666667,11.6666667 C7.62375,11.6666667 7.3625,11.6666667 7.125,11.6270833 L7.125,13.2183333 C7.37041667,13.25 7.63166667,13.25 7.91666667,13.25 C9.29416667,13.25 10.2204167,12.7829167 11.04375,12.3791667 C11.80375,11.9991667 12.4608333,11.6666667 13.4583333,11.6666667 C15.2395833,11.6666667 17.0629167,13.22875 17.0629167,13.22875 C17.4666667,13.5375 17.8783333,13.5375 18.1870833,13.22875 C18.4958333,12.92 18.4958333,12.42125 18.1870833,12.1045833 C18.0208333,11.9383333 16.03125,10.0833333 13.4583333,10.0833333 Z" id="Shape"></path>
                </g>
            </g>
        </g>
    </g>
</svg>