<?xml version="1.0" encoding="UTF-8"?>
<svg width="29px" height="29px" viewBox="0 0 29 29" version="1.1" xmlns="http://www.w3.org/2000/svg" xmlns:xlink="http://www.w3.org/1999/xlink">
    <!-- Generator: Sketch 52.6 (67491) - http://www.bohemiancoding.com/sketch -->
    <title>Group 5</title>
    <desc>Created with Sketch.</desc>
    <g id="Page-1" stroke="none" stroke-width="1" fill="none" fill-rule="evenodd">
        <g id="icons" transform="translate(-59.000000, -529.000000)">
            <g id="Group-5" transform="translate(59.000000, 529.000000)">
                <g id="Group-11-Copy-15" fill="#FFFFFF">
                    <circle id="Oval-Copy-11" cx="14.5" cy="14.5" r="14.5"></circle>
                </g>
                <path d="M3.88623047,12.2871094 C3.88623047,10.7783203 5.23388672,9.76025391 7.24804688,9.76025391 C9.29882812,9.76025391 10.5073242,10.6171875 10.6245117,12.140625 L8.65429688,12.140625 C8.54443359,11.605957 8.05371094,11.2763672 7.26269531,11.2763672 C6.50097656,11.2763672 5.93701172,11.6352539 5.93701172,12.1625977 C5.93701172,12.5727539 6.28125,12.8291016 7.02832031,12.9975586 L8.54443359,13.3271484 C10.1118164,13.6713867 10.8149414,14.3305664 10.8149414,15.5317383 C10.8149414,17.128418 9.37207031,18.168457 7.25537109,18.168457 C5.12402344,18.168457 3.83496094,17.296875 3.68847656,15.7734375 L5.76855469,15.7734375 C5.9296875,16.3300781 6.44970703,16.659668 7.29931641,16.659668 C8.12695312,16.659668 8.69824219,16.293457 8.69824219,15.7587891 C8.69824219,15.3486328 8.390625,15.0996094 7.68017578,14.9384766 L6.21533203,14.6088867 C4.64794922,14.2646484 3.88623047,13.5249023 3.88623047,12.2871094 Z M16.1469727,18.168457 C13.6640625,18.168457 12.1699219,16.59375 12.1699219,13.9643555 C12.1699219,11.3569336 13.6860352,9.76025391 16.1469727,9.76025391 C18.6079102,9.76025391 20.1240234,11.3496094 20.1240234,13.9643555 C20.1240234,16.6010742 18.6298828,18.168457 16.1469727,18.168457 Z M16.1469727,16.4838867 C17.2822266,16.4838867 17.934082,15.5610352 17.934082,13.9643555 C17.934082,12.3823242 17.2749023,11.4521484 16.1469727,11.4521484 C15.0117188,11.4521484 14.3598633,12.3823242 14.3598633,13.9643555 C14.3598633,15.5610352 15.0043945,16.4838867 16.1469727,16.4838867 Z M21.3984375,15.3779297 C21.3984375,14.0522461 22.4824219,13.1586914 24.0498047,13.1586914 C25.6025391,13.1586914 26.5400391,13.9643555 26.5400391,15.0776367 C26.5400391,15.8393555 26.1811523,16.3447266 25.0751953,17.2529297 L23.7055664,18.3735352 L23.7055664,18.4541016 L26.6206055,18.4541016 L26.6206055,19.7797852 L21.4936523,19.7797852 L21.4936523,18.6445312 L23.9326172,16.5717773 C24.7822266,15.8613281 24.9287109,15.590332 24.9287109,15.2241211 C24.9287109,14.7993164 24.5844727,14.4404297 23.9619141,14.4404297 C23.3100586,14.4404297 22.9145508,14.8359375 22.9145508,15.3779297 L21.3984375,15.3779297 Z" id="so₂" fill="#000000"></path>
            </g>
        </g>
    </g>
</svg>