<?xml version="1.0" encoding="UTF-8"?>
<svg width="29px" height="29px" viewBox="0 0 29 29" version="1.1" xmlns="http://www.w3.org/2000/svg" xmlns:xlink="http://www.w3.org/1999/xlink">
    <!-- Generator: Sketch 52.6 (67491) - http://www.bohemiancoding.com/sketch -->
    <title>Group 6 Copy 10</title>
    <desc>Created with Sketch.</desc>
    <g id="Mockups" stroke="none" stroke-width="1" fill="none" fill-rule="evenodd">
        <g id="icons" transform="translate(-59.000000, -2488.000000)">
            <g id="Group-6-Copy-10" transform="translate(59.000000, 2488.000000)">
                <g id="Play" fill="#FFFFFF">
                    <circle id="Oval" cx="14.5" cy="14.5" r="14.5"></circle>
                </g>
                <g id="Group-40" transform="translate(4.000000, 4.000000)" fill="#000000">
                    <g id="luminus">
                        <path d="M10.4995893,3.90922727 C10.9402857,3.90922727 11.2976071,3.55331818 11.2976071,3.11436364 L11.2976071,0.915272727 C11.2976071,0.475909091 10.9402857,0.12 10.4995893,0.12 C10.0588929,0.12 9.70157143,0.475909091 9.70157143,0.915272727 L9.70157143,3.11395455 C9.70157143,3.55290909 10.0588929,3.90922727 10.4995893,3.90922727 Z" id="Path"></path>
                        <path d="M4.65594643,5.85404545 C4.81160714,6.00909091 5.01614286,6.08681818 5.22067857,6.08681818 C5.42480357,6.08681818 5.62933929,6.00909091 5.785,5.85404545 C6.09673214,5.54395455 6.09673214,5.04036364 5.78541071,4.72986364 L4.15343948,3.19992146 C3.84170734,2.88942146 3.33570734,2.88942146 3.02438591,3.19992146 C2.71224306,3.51001237 2.71224306,4.01360328 3.02438591,4.32410328 L4.65594643,5.85404545 Z" id="Path"></path>
                        <path d="M3.83205357,10.5504091 C3.83205357,10.1114545 3.47473214,9.75554545 3.03403571,9.75554545 L0.823071429,9.75554545 C0.382375,9.75554545 0.0254642857,10.1114545 0.0250535714,10.5504091 C0.0250535714,10.9893636 0.382375,11.3452727 0.823071429,11.3452727 L3.03403571,11.3456818 C3.47473214,11.3456818 3.83205357,10.9897727 3.83205357,10.5504091 Z" id="Path"></path>
                        <path d="M20.1773393,9.75513636 L17.9659643,9.75513636 C17.5256786,9.75513636 17.1675357,10.1110455 17.1675357,10.55 C17.1675357,10.9889545 17.5256786,11.3448636 17.9659643,11.3448636 L20.1773393,11.3448636 C20.6180357,11.3448636 20.9753571,10.9889545 20.9753571,10.55 C20.9753571,10.1110455 20.6180357,9.75513636 20.1773393,9.75513636 Z" id="Path"></path>
                        <path d="M15.7793214,6.08681818 C15.9834464,6.08681818 16.1879821,6.00909091 16.3436429,5.85363636 L17.9166667,4.2957928 C18.2283988,3.98570189 18.2283988,3.48211098 17.9166667,3.17161098 C17.6053452,2.86111098 17.099756,2.86111098 16.7876131,3.17161098 L15.215,4.72945455 C14.9032679,5.03954545 14.9032679,5.54313636 15.215,5.85363636 C15.3706607,6.00909091 15.574375,6.08681818 15.7793214,6.08681818 Z" id="Path"></path>
                    </g>
                    <path d="M10.5,15.8 C7.57289083,15.8 5.2,13.4271092 5.2,10.5 C5.2,7.57289083 7.57289083,5.2 10.5,5.2 C13.4271092,5.2 15.8,7.57289083 15.8,10.5 C15.8,13.4271092 13.4271092,15.8 10.5,15.8 Z M10.5,14.2 C12.5434536,14.2 14.2,12.5434536 14.2,10.5 C14.2,8.45654643 12.5434536,6.8 10.5,6.8 C8.45654643,6.8 6.8,8.45654643 6.8,10.5 C6.8,12.5434536 8.45654643,14.2 10.5,14.2 Z" id="Oval" fill-rule="nonzero"></path>
                    <g id="luminus-copy" transform="translate(10.500000, 17.500000) rotate(-180.000000) translate(-10.500000, -17.500000) translate(2.000000, 14.000000)">
                        <path d="M8.49958929,3.90922727 C8.94028571,3.90922727 9.29760714,3.55331818 9.29760714,3.11436364 L9.29760714,0.915272727 C9.29760714,0.475909091 8.94028571,0.12 8.49958929,0.12 C8.05889286,0.12 7.70157143,0.475909091 7.70157143,0.915272727 L7.70157143,3.11395455 C7.70157143,3.55290909 8.05889286,3.90922727 8.49958929,3.90922727 Z" id="Path"></path>
                        <path d="M2.65594643,5.85404545 C2.81160714,6.00909091 3.01614286,6.08681818 3.22067857,6.08681818 C3.42480357,6.08681818 3.62933929,6.00909091 3.785,5.85404545 C4.09673214,5.54395455 4.09673214,5.04036364 3.78541071,4.72986364 L2.15343948,3.19992146 C1.84170734,2.88942146 1.33570734,2.88942146 1.02438591,3.19992146 C0.712243056,3.51001237 0.712243056,4.01360328 1.02438591,4.32410328 L2.65594643,5.85404545 Z" id="Path"></path>
                        <path d="M13.7793214,6.08681818 C13.9834464,6.08681818 14.1879821,6.00909091 14.3436429,5.85363636 L15.9166667,4.2957928 C16.2283988,3.98570189 16.2283988,3.48211098 15.9166667,3.17161098 C15.6053452,2.86111098 15.099756,2.86111098 14.7876131,3.17161098 L13.215,4.72945455 C12.9032679,5.03954545 12.9032679,5.54313636 13.215,5.85363636 C13.3706607,6.00909091 13.574375,6.08681818 13.7793214,6.08681818 Z" id="Path"></path>
                    </g>
                </g>
            </g>
        </g>
    </g>
</svg>