<?xml version="1.0" encoding="UTF-8"?>
<svg width="29px" height="29px" viewBox="0 0 29 29" version="1.1" xmlns="http://www.w3.org/2000/svg" xmlns:xlink="http://www.w3.org/1999/xlink">
    <!-- Generator: Sketch 52.6 (67491) - http://www.bohemiancoding.com/sketch -->
    <title>Group 8</title>
    <desc>Created with Sketch.</desc>
    <g id="Page-1" stroke="none" stroke-width="1" fill="none" fill-rule="evenodd">
        <g id="icons" transform="translate(-59.000000, -695.000000)">
            <g id="Group-8" transform="translate(59.000000, 695.000000)">
                <g id="Group-11-Copy-32" fill="#FFFFFF">
                    <circle id="Oval-Copy-11" cx="14.5" cy="14.5" r="14.5"></circle>
                </g>
                <g id="icon-audio-waveform-512-copy-2" transform="translate(4.000000, 7.000000)" fill="#000000">
                    <g id="Group" transform="translate(10.500000, 7.500000) scale(-1, 1) rotate(-180.000000) translate(-10.500000, -7.500000) ">
                        <path d="M8.48639567,14.989874 C8.43476479,14.9831233 8.34355024,14.9729973 8.28331421,14.9662466 C8.22479921,14.9594959 8.1714473,14.9476823 8.16628422,14.9409316 C8.16112113,14.9324932 8.1301426,14.9257426 8.09744304,14.9257426 C8.06474348,14.9257426 8.03892804,14.9189919 8.03892804,14.9088659 C8.03892804,14.9004275 8.01827569,14.8869262 7.99246025,14.8818632 C7.96492378,14.8751125 7.91501393,14.8514851 7.88059335,14.8295455 C7.84445173,14.8092934 7.80486805,14.7907291 7.78937879,14.7907291 C7.77561056,14.7907291 7.76356335,14.7789154 7.76356335,14.765414 C7.76356335,14.7519127 7.75323717,14.740099 7.74118997,14.740099 C7.72914276,14.740099 7.69988526,14.7215347 7.67406982,14.6979073 C7.64825438,14.6742799 7.62415997,14.6557156 7.61899689,14.6557156 C7.60178659,14.6557156 7.50540895,14.5561431 7.50540895,14.5375788 C7.50540895,14.5291404 7.49336174,14.5207021 7.47959351,14.5207021 C7.46582527,14.5207021 7.45377807,14.5122637 7.45377807,14.5038254 C7.45377807,14.4936994 7.43484675,14.465009 7.41075234,14.439694 C7.38665792,14.4143789 7.3677266,14.3856886 7.3677266,14.3738749 C7.3677266,14.3620612 7.3556794,14.3519352 7.34191116,14.3519352 C7.32814293,14.3519352 7.31609572,14.3401215 7.31609572,14.3266202 C7.31609572,14.3131188 7.3092116,14.3013051 7.29888543,14.3013051 C7.29028028,14.3013051 7.28167514,14.2861161 7.28167514,14.2675518 C7.28167514,14.2506751 7.27134896,14.2287354 7.25930175,14.2219847 C7.24725455,14.215234 7.22316014,14.179793 7.20422881,14.1460396 C7.18529749,14.1105986 7.16464514,14.0819082 7.15776102,14.0819082 C7.14915588,14.0819082 7.14399279,14.0633438 7.14399279,14.0414041 C7.14399279,14.0194644 7.13194558,13.9975248 7.11817735,13.9907741 C7.10440911,13.9857111 7.09236191,13.965459 7.09236191,13.9468947 C7.09236191,13.9283303 7.08547779,13.9131413 7.07515161,13.9131413 C7.06654647,13.9131413 7.05794132,13.8979523 7.05794132,13.8810756 C7.05794132,13.8625113 7.04761515,13.8270702 7.03384691,13.8000675 C6.99254221,13.7224347 6.95467956,13.6313006 6.95467956,13.6110486 C6.95467956,13.6009226 6.94779544,13.5924842 6.93746927,13.5924842 C6.92886412,13.5924842 6.92025897,13.5739199 6.92025897,13.5519802 C6.92025897,13.5283528 6.90821177,13.4996625 6.89444353,13.4844734 C6.8806753,13.4709721 6.86862809,13.4473447 6.86862809,13.430468 C6.86862809,13.3933393 6.83764957,13.2937669 6.80667104,13.2330108 C6.7929028,13.2060081 6.78257663,13.1671917 6.78257663,13.145252 C6.78257663,13.1233123 6.77569251,13.099685 6.76536633,13.094622 C6.75676119,13.089559 6.74815604,13.0676193 6.74815604,13.0473672 C6.74815604,13.0271152 6.73610883,12.9882988 6.7223406,12.9612961 C6.70857237,12.9359811 6.69652516,12.8937894 6.69652516,12.8684743 C6.69652516,12.8431593 6.68447795,12.8077183 6.67070972,12.7891539 C6.65694149,12.7722772 6.64489428,12.7283978 6.64489428,12.6946445 C6.64489428,12.6608911 6.63801016,12.6271377 6.62768399,12.6220747 C6.61907884,12.6170117 6.61047369,12.5832583 6.61047369,12.549505 C6.61047369,12.5157516 6.59842649,12.4718722 6.58465825,12.4549955 C6.57089002,12.4364311 6.55884281,12.3891764 6.55884281,12.35036 C6.55884281,12.309856 6.5519587,12.2744149 6.54335355,12.2676643 C6.5347484,12.2626013 6.52098017,12.2170342 6.51581708,12.1664041 C6.50893296,12.1140864 6.49688576,12.0685194 6.48828061,12.0634563 C6.47967546,12.0583933 6.47279135,12.0229523 6.47279135,11.9841359 C6.47107032,11.9453195 6.46074414,11.8946895 6.44697591,11.8710621 C6.43320767,11.8474347 6.42288149,11.7968047 6.42116047,11.7579883 C6.42116047,11.7191719 6.41427635,11.6837309 6.4056712,11.6769802 C6.39706605,11.6719172 6.38329782,11.6246625 6.3764137,11.5706571 C6.37125061,11.5183393 6.35920341,11.4677093 6.35231929,11.4575833 C6.34371415,11.4491449 6.335109,11.3985149 6.32994591,11.3478848 C6.32478282,11.2972547 6.30757253,11.1943069 6.29208327,11.1200495 C6.276594,11.0457921 6.25766268,10.9394689 6.25077856,10.8837759 C6.24389444,10.8280828 6.22840518,10.7605761 6.218079,10.735261 C6.2060318,10.7082583 6.19742665,10.6576283 6.19742665,10.6204995 C6.19742665,10.5833708 6.19054253,10.5394914 6.18193739,10.5243024 C6.16816915,10.4972997 6.15095886,10.3994149 6.11137518,10.0990099 C6.07523357,9.84079658 6.05113916,9.69565707 6.03909195,9.68384338 C6.03048681,9.67709271 6.02532372,9.62646265 6.02532372,9.57245725 C6.02532372,9.51676418 6.01671857,9.4560081 6.00467137,9.43575608 C5.99434519,9.41550405 5.97885593,9.34124662 5.97025078,9.27205221 C5.96336666,9.20285779 5.94443534,9.06615662 5.9306671,8.96827183 C5.91517784,8.87038704 5.89624652,8.73368587 5.88764137,8.66449145 C5.87903622,8.59529703 5.8601049,8.46534653 5.84461564,8.37758776 C5.8308474,8.28982898 5.81191608,8.15650315 5.80331093,8.08224572 C5.79470579,8.0079883 5.78093755,7.92529253 5.76889035,7.8999775 C5.75856417,7.8729748 5.74995902,7.80378038 5.74995902,7.74639964 C5.74995902,7.6890189 5.74479594,7.6350135 5.73791182,7.62826283 C5.72414358,7.61644914 5.69832814,7.44936994 5.66390756,7.17090459 C5.62604491,6.84687219 5.61055565,6.74729973 5.59506638,6.72029703 C5.58474021,6.70342034 5.57785609,6.6409766 5.57785609,6.58190819 C5.57785609,6.52115212 5.56925094,6.4519577 5.55720374,6.424955 C5.54687756,6.39963996 5.5313883,6.32031953 5.52450418,6.25112511 C5.51762006,6.18193069 5.49868874,6.04860486 5.48319948,5.95578308 C5.46771021,5.8629613 5.44705786,5.73807381 5.43845271,5.67731773 C5.40403213,5.41910441 5.37993772,5.2739649 5.36789051,5.26215122 C5.35928536,5.25540054 5.35412228,5.20645815 5.35412228,5.15414041 C5.35412228,5.10013501 5.34207507,5.02925293 5.32830683,4.99718722 C5.3145386,4.96343384 5.30249139,4.89761476 5.30249139,4.85036004 C5.30249139,4.80310531 5.29560728,4.75247525 5.28700213,4.73559856 C5.26807081,4.70015752 5.23192919,4.5010126 5.22160302,4.37781278 C5.21816096,4.32718272 5.20955581,4.27317732 5.20439272,4.25967597 C5.19062449,4.22761026 5.15104081,4.02846535 5.13383052,3.90526553 C5.1269464,3.85463546 5.11145714,3.79556706 5.09940993,3.77531503 C5.08736273,3.75506301 5.07875758,3.70443294 5.07875758,3.66224122 C5.07875758,3.6200495 5.07187346,3.58460846 5.06326832,3.58460846 C5.0563842,3.58460846 5.04433699,3.5390414 5.03745288,3.48334833 C5.03056876,3.42765527 5.01852155,3.37871287 5.00991641,3.37364986 C4.99959023,3.36689919 4.99270611,3.32977048 4.99270611,3.28926643 C4.99270611,3.24876238 4.985822,3.21163366 4.97721685,3.20657066 C4.9686117,3.19981998 4.9565645,3.15762826 4.94968038,3.11206121 C4.94279626,3.06649415 4.93074906,3.02430243 4.92214391,3.01755176 C4.91353876,3.01248875 4.90665465,2.98042304 4.90665465,2.944982 C4.90665465,2.91122862 4.89460744,2.86734923 4.88083921,2.84878488 C4.86707097,2.83190819 4.85502377,2.79309181 4.85502377,2.76271377 C4.85502377,2.7340234 4.84813965,2.70533303 4.8395345,2.69858236 C4.82920833,2.69351935 4.81716112,2.65470297 4.810277,2.61419892 C4.80511392,2.5720072 4.79306671,2.53825383 4.78446156,2.53825383 C4.77585642,2.53825383 4.7689723,2.50787579 4.7689723,2.47074707 C4.7689723,2.43361836 4.76208818,2.40324032 4.75176201,2.40324032 C4.74315686,2.40324032 4.73455171,2.38973897 4.73455171,2.37454995 C4.73455171,2.35767327 4.72250451,2.32223222 4.70873627,2.29522952 C4.69496804,2.26991449 4.68292083,2.23447345 4.68292083,2.21759676 C4.68292083,2.20072007 4.67087363,2.17878038 4.65710539,2.1669667 C4.64333716,2.15515302 4.63128995,2.13490099 4.63128995,2.12308731 C4.63128995,2.10958596 4.62612686,2.09945995 4.61924275,2.09945995 C4.60203245,2.10114761 4.54523849,2.2209721 4.54523849,2.25641314 C4.54523849,2.27160216 4.53835437,2.28679118 4.52974922,2.29354185 C4.52114407,2.29860486 4.50909687,2.32560756 4.50221275,2.35261026 C4.49532863,2.38130063 4.48328143,2.40324032 4.47467628,2.40324032 C4.46607114,2.40324032 4.45918702,2.42011701 4.45918702,2.44205671 C4.45918702,2.46230873 4.44713981,2.49437444 4.43337158,2.51125113 C4.41960334,2.52981548 4.40755614,2.56188119 4.40755614,2.58382088 C4.40755614,2.60576058 4.40067202,2.62263726 4.3937879,2.62263726 C4.38690379,2.62263726 4.36625143,2.66651665 4.34904114,2.72052205 C4.33183085,2.77283978 4.31289952,2.82853285 4.30429438,2.8420342 C4.29741026,2.85722322 4.28536306,2.89266427 4.28019997,2.9230423 C4.27331585,2.95173267 4.25954762,2.98042304 4.25094247,2.98548605 C4.24233732,2.99223672 4.2354532,3.01755176 4.2354532,3.04286679 C4.2354532,3.06986949 4.223406,3.10024752 4.20963776,3.11206121 C4.19586953,3.12387489 4.18382232,3.15425293 4.18382232,3.18125563 C4.18382232,3.20657066 4.17693821,3.23357336 4.16661203,3.23863636 C4.15628585,3.24369937 4.14940174,3.26226373 4.14940174,3.27745275 C4.14940174,3.29264176 4.13735453,3.32808281 4.1235863,3.35508551 C4.10981806,3.38040054 4.09777086,3.41752925 4.09777086,3.43440594 C4.09777086,3.4529703 4.09088674,3.479973 4.08228159,3.49684968 C4.05646615,3.54747975 4.01171939,3.69768227 4.01171939,3.73143564 C4.01171939,3.75 3.99967218,3.77869037 3.98590395,3.79725473 C3.97213572,3.81413141 3.96008851,3.85463546 3.96008851,3.8850135 C3.96008851,3.91370387 3.95492542,3.9390189 3.94632028,3.9390189 C3.93943616,3.9390189 3.92394689,3.97445995 3.91189969,4.01833933 C3.87403704,4.16179118 3.85854778,4.21579658 3.83789543,4.29849235 C3.82584822,4.34237174 3.81035896,4.37781278 3.80175381,4.37781278 C3.79486969,4.37781278 3.78798558,4.40650315 3.78798558,4.44194419 C3.78798558,4.47569757 3.77593837,4.51957696 3.76217014,4.53645365 C3.7484019,4.555018 3.7363547,4.59045905 3.7363547,4.61577408 C3.7363547,4.64108911 3.72947058,4.66640414 3.72086543,4.67146715 C3.71226029,4.67821782 3.70021308,4.7119712 3.69332896,4.74909991 C3.68644485,4.78622862 3.67439764,4.819982 3.66579249,4.82673267 C3.65718735,4.83179568 3.65030323,4.85542304 3.65030323,4.87905041 C3.65030323,4.92124212 3.6072775,5.06638164 3.57974103,5.12376238 C3.57113588,5.14063906 3.56425176,5.17439244 3.56425176,5.19970747 C3.56425176,5.22671017 3.55220456,5.26215122 3.53843632,5.2790279 C3.52466809,5.29759226 3.51262088,5.3279703 3.51262088,5.34653465 C3.51089985,5.38535104 3.45582691,5.55243024 3.43689559,5.5709946 C3.4317325,5.57605761 3.42656941,5.60643564 3.42656941,5.63850135 C3.42656941,5.66887939 3.42140633,5.69419442 3.41280118,5.69419442 C3.39903295,5.69419442 3.36289133,5.81064356 3.34568104,5.90852835 C3.34051795,5.93890639 3.32674971,5.97265977 3.31298148,5.98278578 C3.29921324,5.99291179 3.28888707,6.02328983 3.28888707,6.05029253 C3.28888707,6.07560756 3.28200295,6.10261026 3.27167677,6.10767327 C3.26307163,6.11273627 3.25446648,6.13130063 3.25446648,6.14648965 C3.25446648,6.16167867 3.24241928,6.19711971 3.22865104,6.22412241 C3.21488281,6.24943744 3.2028356,6.28487849 3.2028356,6.30175518 C3.2028356,6.31863186 3.1907884,6.35407291 3.17702016,6.37938794 C3.16325193,6.40639064 3.15120472,6.44183168 3.15120472,6.45870837 C3.15120472,6.47389739 3.1443206,6.48739874 3.13399443,6.48739874 C3.12538928,6.48739874 3.11678413,6.50933843 3.11678413,6.53634113 C3.11678413,6.56334383 3.10473693,6.59372187 3.09096869,6.60553555 C3.07720046,6.61734923 3.06515325,6.64435194 3.06515325,6.66629163 C3.06515325,6.68823132 3.05826914,6.70679568 3.04794296,6.70679568 C3.03933781,6.70679568 3.02729061,6.73379838 3.02040649,6.76586409 C3.0152434,6.79792979 3.0031962,6.82493249 2.99459105,6.82493249 C2.9859859,6.82493249 2.97910179,6.84349685 2.97910179,6.86543654 C2.97910179,6.88737624 2.96705458,6.91437894 2.95328635,6.92619262 C2.93951811,6.9380063 2.92747091,6.965009 2.92747091,6.98694869 C2.92747091,7.00888839 2.92058679,7.02745275 2.91026061,7.02745275 C2.90165547,7.02745275 2.89305032,7.03757876 2.89305032,7.05108011 C2.89305032,7.07470747 2.79667268,7.26035104 2.77085724,7.2890414 C2.76225209,7.29747975 2.75536797,7.31773177 2.75536797,7.33460846 C2.75536797,7.35148515 2.75020488,7.3649865 2.74159974,7.3649865 C2.73471562,7.3649865 2.71062121,7.40380288 2.68824783,7.44936994 C2.66587445,7.49662466 2.64005901,7.53375338 2.63317489,7.53375338 C2.62456974,7.53375338 2.61768563,7.54556706 2.61768563,7.55906841 C2.61768563,7.57256976 2.61080151,7.58438344 2.60219636,7.58438344 C2.59359121,7.58438344 2.58154401,7.60294779 2.57638092,7.62657516 C2.5694968,7.65020252 2.5574496,7.66876688 2.54884445,7.66876688 C2.53851828,7.66876688 2.53163416,7.68058056 2.53163416,7.69408191 C2.53163416,7.70758326 2.52130798,7.71939694 2.50926078,7.71939694 C2.4989346,7.71939694 2.47828225,7.73964896 2.46795607,7.76665167 C2.44386166,7.81559406 2.20119653,8.07380738 2.17538109,8.07380738 C2.16849697,8.07380738 2.1409605,8.09068407 2.11686609,8.11262376 C2.06179315,8.15987849 2.01532536,8.19025653 1.97746271,8.20207021 C1.96025242,8.20882088 1.94648418,8.21894689 1.94648418,8.22738524 C1.94648418,8.23582358 1.92755286,8.24257426 1.90517948,8.24257426 C1.8828061,8.24257426 1.86043272,8.25438794 1.8535486,8.26788929 C1.84838551,8.28139064 1.82945419,8.29320432 1.81052287,8.29320432 C1.79159154,8.29320432 1.77266022,8.299955 1.76749713,8.30839334 C1.76233404,8.31683168 1.72791346,8.32864536 1.69349287,8.33539604 C1.65735125,8.34214671 1.62120964,8.35227273 1.61088346,8.36071107 C1.60227832,8.36746175 1.56269464,8.37758776 1.52483199,8.38265077 C1.48696935,8.38771377 1.39403376,8.39952745 1.31830847,8.41134113 C1.15136863,8.4349685 0.740042616,8.42484248 0.655712178,8.39446445 C0.559334535,8.3590234 0.475004098,8.32020702 0.46984101,8.30670567 C0.466398951,8.29826733 0.454351746,8.29320432 0.44230454,8.29320432 C0.431978364,8.29320432 0.388952631,8.26282628 0.347647927,8.22569757 C0.308064252,8.18856886 0.268480577,8.15819082 0.263317489,8.15819082 C0.247828225,8.15650315 0.15661367,8.02655266 0.15661367,8.00630063 C0.15661367,7.99617462 0.151450582,7.98942394 0.144566465,7.98942394 C0.123914112,7.98942394 0.0705622029,7.88985149 0.0705622029,7.85441044 C0.0705622029,7.83922142 0.0602360269,7.81559406 0.0464677922,7.80546805 C-0.0154892641,7.75483798 -0.0154892641,7.24516202 0.0464677922,7.19453195 C0.0602360269,7.18440594 0.0705622029,7.16077858 0.0705622029,7.14558956 C0.0705622029,7.11014851 0.123914112,7.01057606 0.144566465,7.01057606 C0.151450582,7.01057606 0.15661367,7.00382538 0.15661367,6.99369937 C0.15661367,6.97175968 0.247828225,6.84349685 0.265038518,6.84180918 C0.271922636,6.84180918 0.31150631,6.81143114 0.349368956,6.77430243 C0.388952631,6.73717372 0.430257335,6.70679568 0.44230454,6.70679568 C0.454351746,6.70679568 0.466398951,6.70173267 0.46984101,6.694982 C0.475004098,6.67979298 0.566218653,6.63760126 0.655712178,6.60722322 C0.688411736,6.59540954 0.771021144,6.58190819 0.836420259,6.57684518 C0.943124078,6.56671917 0.962055401,6.5599685 1.0033601,6.51440144 C1.02917554,6.48571107 1.05154893,6.45027003 1.05154893,6.43508101 C1.05154893,6.41989199 1.06359613,6.4030153 1.07736437,6.39626463 C1.0911326,6.39120162 1.10317981,6.37094959 1.10317981,6.35238524 C1.10317981,6.33382088 1.11178495,6.31863186 1.1203901,6.31863186 C1.13071628,6.31863186 1.13760039,6.30006751 1.13760039,6.27812781 C1.13760039,6.25618812 1.1496476,6.22918542 1.16341583,6.21737174 C1.17718407,6.20555806 1.18923127,6.1869937 1.18923127,6.17518002 C1.18923127,6.15661566 1.22365186,6.07729523 1.25979348,6.01147615 C1.26839862,5.99459946 1.27528274,5.96759676 1.27528274,5.9490324 C1.27528274,5.93215572 1.28732995,5.90852835 1.30109818,5.89671467 C1.31486642,5.88490099 1.32691362,5.85789829 1.32691362,5.8359586 C1.32691362,5.81570657 1.33551877,5.79207921 1.34412391,5.7870162 C1.35445009,5.7819532 1.36133421,5.75832583 1.36133421,5.73638614 C1.36133421,5.71444644 1.37338141,5.68575608 1.38714965,5.67056706 C1.40091788,5.65706571 1.41296509,5.63175068 1.41296509,5.61487399 C1.41296509,5.58112061 1.46803803,5.43260576 1.48696935,5.4140414 C1.49385347,5.40729073 1.49901655,5.3819757 1.49901655,5.35834833 C1.49901655,5.33472097 1.51106376,5.29927993 1.52483199,5.28240324 C1.53860023,5.26383888 1.55064743,5.23177318 1.55064743,5.21152115 C1.55064743,5.18958146 1.55925258,5.16764176 1.56785773,5.16257876 C1.5781839,5.15751575 1.58506802,5.12713771 1.58506802,5.09675968 C1.58506802,5.06469397 1.59711523,5.03094059 1.61088346,5.01912691 C1.6246517,5.00731323 1.6366989,4.97693519 1.6366989,4.94993249 C1.6366989,4.92461746 1.64358302,4.89930243 1.65218817,4.89423942 C1.66079331,4.88748875 1.67284052,4.85373537 1.67972464,4.81660666 C1.68660875,4.77947795 1.69865596,4.74572457 1.7072611,4.7389739 C1.71586625,4.73391089 1.72275037,4.71028353 1.72275037,4.6849685 C1.72275037,4.65965347 1.73307654,4.62421242 1.74684478,4.60564806 C1.75889198,4.58708371 1.77438125,4.549955 1.77954434,4.52126463 C1.80708081,4.38118812 1.8242911,4.32211971 1.84150139,4.30524302 C1.85182757,4.29511701 1.86043272,4.26473897 1.86043272,4.23942394 C1.86043272,4.21242124 1.86731683,4.17866787 1.87592198,4.16179118 C1.90001639,4.11959946 1.94648418,3.96264626 1.94648418,3.92720522 C1.94648418,3.90864086 1.95853139,3.8799505 1.97229962,3.86138614 C1.98606786,3.84450945 1.99811506,3.80569307 1.99811506,3.77531503 C1.99811506,3.74662466 2.00672021,3.71624662 2.01532536,3.71118362 C2.02565153,3.70612061 2.03253565,3.67574257 2.03253565,3.64536454 C2.03253565,3.61329883 2.04458286,3.57954545 2.05835109,3.56773177 C2.07211932,3.55591809 2.08416653,3.52554005 2.08416653,3.49853735 C2.08416653,3.47153465 2.09105065,3.43609361 2.09965579,3.41921692 C2.1237502,3.3770252 2.170218,3.22007201 2.170218,3.18463096 C2.170218,3.16606661 2.1822652,3.13737624 2.19603344,3.11881188 C2.20980167,3.10193519 2.22184888,3.06143114 2.22184888,3.03274077 C2.22184888,3.00236274 2.23045402,2.9770477 2.23905917,2.9770477 C2.24938535,2.9770477 2.25626946,2.94835734 2.25626946,2.91122862 C2.25626946,2.87409991 2.26659564,2.8369712 2.2820849,2.82515752 C2.29585314,2.81334383 2.30790034,2.7880288 2.30790034,2.76777678 C2.30962137,2.7289604 2.36469431,2.56188119 2.38362564,2.54331683 C2.38878872,2.53825383 2.39395181,2.51631413 2.39395181,2.49606211 C2.39395181,2.47581008 2.40599902,2.44543204 2.41976725,2.42686769 C2.43353549,2.409991 2.44558269,2.37454995 2.44558269,2.34923492 C2.44558269,2.32391989 2.45418784,2.29860486 2.46279298,2.29354185 C2.47139813,2.28847885 2.48000328,2.26147615 2.48000328,2.23616112 C2.48000328,2.21084608 2.49205048,2.17540504 2.50581872,2.15684068 C2.51958695,2.139964 2.53163416,2.1129613 2.53163416,2.09777228 C2.53163416,2.08258326 2.54368136,2.04714221 2.5574496,2.02182718 C2.57121783,1.99482448 2.58326504,1.95938344 2.58326504,1.94419442 C2.58326504,1.92731773 2.59187019,1.91381638 2.60047533,1.91381638 C2.61080151,1.91381638 2.61768563,1.89525203 2.61768563,1.87331233 C2.61768563,1.84968497 2.62973283,1.8209946 2.64350107,1.80580558 C2.6572693,1.79230423 2.66931651,1.76192619 2.66931651,1.73829883 C2.66931651,1.71467147 2.67792165,1.69441944 2.6865268,1.69441944 C2.69685297,1.69441944 2.70373709,1.67585509 2.70373709,1.65391539 C2.70373709,1.63028803 2.7157843,1.60159766 2.72955253,1.58640864 C2.74332077,1.57290729 2.75536797,1.5509676 2.75536797,1.53746625 C2.75536797,1.50708821 2.80871988,1.40245275 2.82937223,1.3940144 C2.83625635,1.39063906 2.84141944,1.36869937 2.84141944,1.34675968 C2.84141944,1.32481998 2.84830356,1.30625563 2.85518767,1.30625563 C2.87067694,1.30625563 2.92747091,1.18980648 2.92747091,1.15942844 C2.92747091,1.14930243 2.93951811,1.13242574 2.95328635,1.12061206 C2.96705458,1.10879838 2.97910179,1.08517102 2.97910179,1.069982 C2.97910179,1.05310531 2.98426487,1.03622862 2.99287002,1.03285329 C2.99975414,1.03116562 3.0445009,0.967034203 3.09096869,0.892776778 C3.13743649,0.818519352 3.18218325,0.756075608 3.18906737,0.75270027 C3.19595148,0.749324932 3.2028356,0.73919892 3.2028356,0.729072907 C3.2028356,0.718946895 3.22176692,0.693631863 3.24586133,0.671692169 C3.26995574,0.649752475 3.28888707,0.627812781 3.28888707,0.621062106 C3.28888707,0.604185419 3.52466809,0.378037804 3.54359941,0.378037804 C3.55392559,0.378037804 3.56425176,0.372974797 3.56769382,0.366224122 C3.57629897,0.345972097 3.69677102,0.25990099 3.71570234,0.25990099 C3.72602852,0.25990099 3.7363547,0.248087309 3.74323881,0.234585959 C3.7484019,0.221084608 3.76389117,0.209270927 3.7776594,0.209270927 C3.8069169,0.209270927 3.91362072,0.155265527 3.92222586,0.138388839 C3.92566792,0.129950495 3.94976233,0.124887489 3.97385674,0.124887489 C3.99967218,0.124887489 4.0358138,0.113073807 4.05302409,0.0995724572 C4.07195542,0.0860711071 4.11670218,0.0742574257 4.15112277,0.0742574257 C4.18726438,0.0742574257 4.21996394,0.0675067507 4.22512703,0.0590684068 C4.23029012,0.0523177318 4.29568923,0.0405040504 4.36797246,0.0354410441 C4.44197673,0.0303780378 4.56072775,0.0185643564 4.63301098,0.00843834383 C4.71734142,-0.00168766877 4.79995083,-0.00168766877 4.86534994,0.00843834383 C4.92042288,0.0168766877 5.01335847,0.028690369 5.07015243,0.0337533753 C5.1269464,0.0405040504 5.18029831,0.050630063 5.19062449,0.0590684068 C5.19922963,0.0675067507 5.2267661,0.0742574257 5.25086051,0.0742574257 C5.27495493,0.0742574257 5.31109654,0.0860711071 5.33002786,0.0995724572 C5.34723816,0.113073807 5.37993772,0.124887489 5.4023111,0.124887489 C5.42296345,0.124887489 5.44017374,0.131638164 5.44017374,0.141764176 C5.44017374,0.15020252 5.45910506,0.162016202 5.48319948,0.168766877 C5.50729389,0.173829883 5.52622521,0.185643564 5.52622521,0.194081908 C5.52622521,0.202520252 5.53827241,0.209270927 5.55204065,0.209270927 C5.56580888,0.209270927 5.57785609,0.216021602 5.57785609,0.224459946 C5.57785609,0.23289829 5.59506638,0.24639964 5.61399771,0.251462646 C5.63465006,0.258213321 5.67595476,0.288591359 5.70693329,0.320657066 C5.73791182,0.352722772 5.7723324,0.378037804 5.78265858,0.378037804 C5.79298476,0.378037804 5.8015899,0.389851485 5.8015899,0.403352835 C5.8015899,0.416854185 5.81363711,0.428667867 5.82740534,0.428667867 C5.84117358,0.428667867 5.85322078,0.437106211 5.85322078,0.447232223 C5.85322078,0.457358236 5.88075725,0.489423942 5.91345681,0.51980198 C5.94615637,0.551867687 5.97369284,0.583933393 5.97369284,0.595747075 C5.97369284,0.605873087 5.97885593,0.614311431 5.98746107,0.614311431 C5.99434519,0.614311431 6.0184396,0.644689469 6.04253401,0.681818182 C6.06490739,0.718946895 6.09072283,0.749324932 6.09760695,0.749324932 C6.10449107,0.749324932 6.11137518,0.764513951 6.11137518,0.781390639 C6.11137518,0.799954995 6.11653827,0.816831683 6.12514342,0.820207021 C6.14407474,0.828645365 6.29208327,1.10879838 6.35920341,1.26406391 C6.37469267,1.30119262 6.39534503,1.34507201 6.40395017,1.36026103 C6.41427635,1.37713771 6.42116047,1.40414041 6.42116047,1.42270477 C6.42116047,1.43958146 6.43320767,1.46320882 6.44697591,1.4750225 C6.46074414,1.48683618 6.47279135,1.51383888 6.47279135,1.53409091 C6.47279135,1.5560306 6.48483855,1.59484698 6.49860679,1.62016202 C6.51237502,1.64716472 6.52442223,1.68260576 6.52442223,1.69779478 C6.52442223,1.7129838 6.53302737,1.73154815 6.54163252,1.73661116 C6.5519587,1.74167417 6.55884281,1.76867687 6.55884281,1.79567957 C6.55884281,1.82268227 6.57089002,1.85474797 6.58465825,1.86993699 C6.59842649,1.88343834 6.61047369,1.92225473 6.61047369,1.95432043 C6.61047369,1.98807381 6.61907884,2.01507651 6.62768399,2.01507651 C6.63801016,2.01507651 6.64489428,2.04039154 6.64489428,2.07076958 C6.64489428,2.10114761 6.65694149,2.14165167 6.67070972,2.16021602 C6.68447795,2.17709271 6.69652516,2.2209721 6.69652516,2.25641314 C6.69652516,2.29016652 6.70340928,2.31885689 6.71201442,2.31885689 C6.72061957,2.31885689 6.73266678,2.3559856 6.73955089,2.40324032 C6.74643501,2.44880738 6.75848222,2.4909991 6.76708736,2.49774977 C6.77569251,2.50281278 6.78257663,2.53319082 6.78257663,2.56525653 C6.78257663,2.5990099 6.79118177,2.64120162 6.80322898,2.66145365 C6.8221603,2.69689469 6.83592854,2.75765077 6.86518604,2.95173267 C6.87379118,2.9989874 6.88755942,3.0529928 6.89960662,3.07324482 C6.91165383,3.09349685 6.92025897,3.14075158 6.92025897,3.17788029 C6.92025897,3.215009 6.92714309,3.24876238 6.93574824,3.25382538 C6.94435338,3.25888839 6.95640059,3.30445545 6.96328471,3.35677318 C6.9684478,3.40740324 6.98221603,3.4529703 6.99082118,3.4580333 C6.99942632,3.46478398 7.00631044,3.50191269 7.00631044,3.54241674 C7.00631044,3.58292079 7.01491559,3.63692619 7.02696279,3.66392889 C7.04589412,3.70949595 7.05794132,3.78375338 7.08719882,4.02340234 C7.09580397,4.08415842 7.10785117,4.14322682 7.11645632,4.15672817 C7.12506147,4.16854185 7.1388297,4.22592259 7.14571382,4.28330333 C7.15431896,4.3389964 7.17325029,4.45038254 7.18701852,4.52970297 C7.20250779,4.6090234 7.22143911,4.73053555 7.22832323,4.79972997 C7.23520734,4.87061206 7.24725455,4.93811881 7.25758072,4.95162016 C7.26618587,4.96512151 7.27823308,5.03094059 7.28511719,5.09507201 C7.31609572,5.38028803 7.32814293,5.46973447 7.34191116,5.49167417 C7.35051631,5.50517552 7.36256351,5.56930693 7.36944763,5.63343834 C7.40214719,5.91865437 7.42107851,6.04185419 7.43656778,6.0789829 C7.44689395,6.10092259 7.45377807,6.15830333 7.45377807,6.20893339 C7.45377807,6.25787579 7.46238322,6.32031953 7.47270939,6.34732223 C7.48303557,6.37263726 7.49852483,6.46377138 7.50885101,6.54646715 C7.51745615,6.63085059 7.53122439,6.75573807 7.53810851,6.82493249 C7.54671365,6.89412691 7.56048189,6.97344734 7.57252909,6.99876238 C7.58285527,7.02576508 7.59146042,7.0949595 7.59146042,7.1540279 C7.59146042,7.21309631 7.59834453,7.26541404 7.60694968,7.27047705 C7.61555483,7.27554005 7.62760203,7.34810981 7.63448615,7.43249325 C7.64137027,7.51687669 7.65341747,7.58944644 7.66202262,7.59450945 C7.67062777,7.59957246 7.67751188,7.65189019 7.67751188,7.7109586 C7.67751188,7.770027 7.68611703,7.83922142 7.69644321,7.86622412 C7.71537453,7.91010351 7.72914276,8.0079883 7.76184232,8.3269577 C7.76872644,8.39783978 7.78077364,8.46534653 7.78765776,8.47716022 C7.79626291,8.4889739 7.80831011,8.56154365 7.81691526,8.63748875 C7.8427307,8.88557606 7.86682511,9.04421692 7.8840354,9.07290729 C7.89436158,9.08978398 7.9012457,9.14378938 7.9012457,9.19441944 C7.9012457,9.2450495 7.90985084,9.30749325 7.92017702,9.33449595 C7.93910834,9.37837534 7.95287658,9.47963546 7.98557614,9.76991449 C7.99246025,9.83573357 8.00794952,9.909991 8.01827569,9.93530603 C8.0303229,9.96230873 8.03892804,10.0281278 8.03892804,10.0821332 C8.03892804,10.1361386 8.04581216,10.185081 8.05441731,10.1918317 C8.06302246,10.1968947 8.07679069,10.2492124 8.08195378,10.3099685 C8.0888379,10.3707246 8.1008851,10.42473 8.10949025,10.429793 C8.11809539,10.434856 8.12497951,10.4770477 8.12497951,10.5226148 C8.12497951,10.5698695 8.13358466,10.6238749 8.14563186,10.6441269 C8.15595804,10.6643789 8.1714473,10.730198 8.17833142,10.7909541 C8.21103098,11.0457921 8.22479921,11.1251125 8.23856745,11.1470522 C8.24717259,11.1605536 8.2592198,11.2094959 8.26610392,11.255063 C8.28503524,11.3883888 8.32117686,11.5470297 8.33666612,11.5605311 C8.34355024,11.5672817 8.34871333,11.6044104 8.34871333,11.6415392 C8.34871333,11.6803555 8.3590395,11.7259226 8.37280774,11.7444869 C8.38485494,11.7630513 8.40034421,11.8086184 8.40550729,11.8457471 C8.43132273,12.02464 8.446812,12.0921467 8.46574332,12.1107111 C8.47779053,12.1225248 8.48639567,12.1562781 8.48639567,12.1849685 C8.48639567,12.2153465 8.49327979,12.2440369 8.50188494,12.2507876 C8.51221111,12.2558506 8.52425832,12.294667 8.53114244,12.335171 C8.53630552,12.3773627 8.54835273,12.4161791 8.55695788,12.4212421 C8.56556302,12.4263051 8.57244714,12.4516202 8.57244714,12.4769352 C8.57244714,12.5039379 8.58449435,12.5343159 8.59826258,12.5461296 C8.61203081,12.5579433 8.62407802,12.5883213 8.62407802,12.6136364 C8.62407802,12.6372637 8.62924111,12.6625788 8.6344042,12.6693294 C8.64989346,12.6845185 8.71012949,12.62545 8.71012949,12.595072 C8.71012949,12.569757 8.74110802,12.4954995 8.78069169,12.4246175 C8.78929684,12.4077408 8.79618095,12.3773627 8.79618095,12.3571107 C8.79618095,12.335171 8.80822816,12.3031053 8.82199639,12.2862286 C8.83576463,12.2676643 8.84781183,12.2322232 8.84781183,12.2052205 C8.84781183,12.1799055 8.85469595,12.1579658 8.8633011,12.1579658 C8.87190624,12.1579658 8.88395345,12.1242124 8.88911654,12.0820207 C8.89600066,12.0415167 8.90804786,12.0027003 8.91837404,11.9976373 C8.92697918,11.9908866 8.9338633,11.9655716 8.9338633,11.9368812 C8.9338633,11.9098785 8.94074742,11.8744374 8.94935257,11.8575608 C8.97516801,11.8119937 9.01991477,11.6584158 9.01991477,11.6145365 C9.0216358,11.5925968 9.03196197,11.5571557 9.04573021,11.5335284 C9.05949844,11.509901 9.06982462,11.4626463 9.07154565,11.4288929 C9.07154565,11.3934518 9.07842977,11.3647615 9.08703491,11.3647615 C9.09391903,11.3647615 9.11112932,11.3175068 9.1214555,11.260126 C9.1335027,11.2010576 9.14899197,11.1200495 9.15759712,11.0778578 C9.16620226,11.0356661 9.18169153,10.9563456 9.19373873,10.9006526 C9.20406491,10.8449595 9.21955417,10.7926418 9.22815932,10.7842034 C9.23676446,10.7740774 9.24364858,10.7369487 9.24364858,10.69982 C9.24364858,10.6610036 9.25569579,10.6086859 9.26946402,10.5816832 C9.28323226,10.5563681 9.29527946,10.5074257 9.29527946,10.4770477 C9.29527946,10.444982 9.30216358,10.4061656 9.31076873,10.3892889 C9.33142108,10.3538479 9.36584167,10.174955 9.37616784,10.0534428 C9.38133093,10.0045005 9.38993608,9.9639964 9.39854122,9.9639964 C9.40542534,9.9639964 9.41747255,9.91505401 9.42435666,9.85429793 C9.42951975,9.79354185 9.44328799,9.74459946 9.45189313,9.74459946 C9.46049828,9.74459946 9.4673824,9.70578308 9.4673824,9.65852835 C9.4673824,9.61127363 9.47598754,9.55726823 9.48803475,9.5370162 C9.50008195,9.51676418 9.51385019,9.46275878 9.52073431,9.41550405 C9.52761842,9.36993699 9.54654975,9.27373987 9.56203901,9.20454545 C9.57752827,9.13535104 9.5964596,9.03577858 9.60506474,8.98514851 C9.61366989,8.93451845 9.63260121,8.840009 9.64809048,8.77418992 C9.66357974,8.71005851 9.68251106,8.61892439 9.68939518,8.57166967 C9.6962793,8.52610261 9.71004753,8.47040954 9.72209474,8.45015752 C9.73414194,8.42990549 9.74274709,8.3809631 9.74274709,8.34045905 C9.74274709,8.299955 9.74963121,8.25945095 9.75823635,8.2510126 C9.77200459,8.23582358 9.78233077,8.19025653 9.82879856,7.91347885 C9.8374037,7.86791179 9.85633503,7.77677768 9.87182429,7.7109586 C9.88731356,7.64682718 9.90624488,7.55906841 9.913129,7.51687669 C9.92001311,7.47468497 9.93033929,7.43080558 9.93894444,7.4189919 C9.94582855,7.40717822 9.95959679,7.35654815 9.9664809,7.30929343 C9.97508605,7.26035104 9.99401737,7.17259226 10.0095066,7.11183618 C10.0232749,7.05108011 10.0404852,6.97175968 10.0456483,6.93463096 C10.0508113,6.89750225 10.0611375,6.85193519 10.0697427,6.83337084 C10.088674,6.79117912 10.1213735,6.65110261 10.1334208,6.56334383 C10.1385838,6.52621512 10.1540731,6.48064806 10.1661203,6.46208371 C10.1798885,6.44351935 10.1902147,6.40470297 10.1902147,6.37432493 C10.1902147,6.34563456 10.1970988,6.31694419 10.205704,6.31188119 C10.2143091,6.30681818 10.2263563,6.2680018 10.2315194,6.22581008 C10.2384035,6.18530603 10.2504507,6.14648965 10.2607769,6.14142664 C10.2693821,6.13467597 10.2762662,6.09754725 10.2762662,6.0570432 C10.2762662,6.01653915 10.2831503,5.97941044 10.2917554,5.97434743 C10.3003606,5.96759676 10.3124078,5.93384338 10.3192919,5.89671467 C10.326176,5.85958596 10.3382232,5.82583258 10.3468284,5.81908191 C10.3554335,5.8140189 10.3623177,5.78532853 10.3623177,5.7549505 C10.3623177,5.72288479 10.3743649,5.68913141 10.3881331,5.67731773 C10.4019013,5.66550405 10.4139485,5.64018902 10.4139485,5.61993699 C10.4139485,5.58280828 10.4673004,5.43429343 10.4879528,5.4140414 C10.4948369,5.40729073 10.5,5.38028803 10.5,5.354973 C10.5,5.32965797 10.5068841,5.30434293 10.5154893,5.29927993 C10.5240944,5.29421692 10.5361416,5.26215122 10.5413047,5.23008551 C10.5481888,5.1980198 10.560236,5.1710171 10.5688412,5.1710171 C10.5791673,5.1710171 10.5860515,5.15582808 10.5860515,5.13557606 C10.5860515,5.1170117 10.5963776,5.07988299 10.6101459,5.05625563 C10.6239141,5.03094059 10.6497296,4.97862286 10.6652188,4.93980648 C10.6824291,4.89930243 10.7013604,4.86723672 10.7099656,4.86723672 C10.7168497,4.86723672 10.7237338,4.84867237 10.7237338,4.825045 C10.7237338,4.80141764 10.7306179,4.78285329 10.7392231,4.78285329 C10.7478282,4.78285329 10.7598754,4.76091359 10.7667595,4.73222322 C10.7736437,4.70522052 10.7856909,4.68159316 10.794296,4.68159316 C10.8029012,4.68159316 10.8097853,4.66640414 10.8097853,4.64783978 C10.8097853,4.6309631 10.8201115,4.6090234 10.8321587,4.60227273 C10.8562531,4.58708371 10.8923947,4.53307831 10.9061629,4.49257426 C10.913047,4.47569757 10.9233732,4.46219622 10.9319784,4.46219622 C10.9405835,4.46219622 10.9474676,4.45207021 10.9474676,4.44025653 C10.9474676,4.42844284 10.966399,4.39975248 10.9904934,4.37443744 C11.0145878,4.34912241 11.0335191,4.32043204 11.0335191,4.31030603 C11.0335191,4.30186769 11.0455663,4.29342934 11.0593345,4.29342934 C11.0731028,4.29342934 11.08515,4.28667867 11.08515,4.27655266 C11.08515,4.26811431 11.1161285,4.22929793 11.1539911,4.19216922 C11.1918538,4.1550405 11.2314375,4.12466247 11.2400426,4.12466247 C11.2503688,4.12466247 11.2572529,4.11284878 11.2572529,4.09934743 C11.2572529,4.08584608 11.2658581,4.0740324 11.2744632,4.0740324 C11.2847894,4.0740324 11.3140469,4.05546805 11.3398623,4.03184068 C11.3656778,4.00821332 11.3966563,3.98964896 11.4087035,3.98964896 C11.4207507,3.98964896 11.4345189,3.97783528 11.439682,3.96433393 C11.4465661,3.95083258 11.4689395,3.9390189 11.4913129,3.9390189 C11.5136863,3.9390189 11.5326176,3.93226823 11.5326176,3.92214221 C11.5326176,3.91370387 11.5481069,3.90526553 11.5687592,3.90526553 C11.5876905,3.90526553 11.615227,3.89345185 11.6289952,3.8799505 C11.6444845,3.86644914 11.6789051,3.85463546 11.7064416,3.85463546 C11.733978,3.85463546 11.7563514,3.84788479 11.7563514,3.84113411 C11.7563514,3.83269577 11.8010982,3.81581908 11.8561711,3.8040054 C11.9766432,3.7770027 12.8319948,3.76181368 12.8836256,3.78544104 C12.902557,3.79387939 12.9541878,3.80569307 12.9989346,3.81244374 C13.0436814,3.81750675 13.0849861,3.82932043 13.0901492,3.83944644 C13.0970333,3.84788479 13.1228487,3.85463546 13.1503852,3.85463546 C13.1779217,3.85463546 13.2106212,3.86644914 13.2261105,3.8799505 C13.2398787,3.89345185 13.2639731,3.90526553 13.2777414,3.90526553 C13.3035568,3.90526553 13.3379774,3.92045455 13.4085396,3.95927093 C13.4223078,3.9660216 13.4464022,3.97783528 13.4601705,3.98458596 C13.4739387,3.99133663 13.489428,3.99977498 13.4945911,4.00483798 C13.5100803,4.02171467 13.5703163,4.05715572 13.6030159,4.06728173 C13.6185052,4.0740324 13.6322734,4.08922142 13.6322734,4.1010351 C13.6322734,4.11453645 13.6425996,4.12466247 13.6546468,4.12466247 C13.6752991,4.12466247 13.9936896,4.43350585 13.9936896,4.45375788 C13.9936896,4.45882088 14.0126209,4.48413591 14.0367153,4.50945095 C14.0608097,4.53476598 14.079741,4.56345635 14.079741,4.57527003 C14.079741,4.58708371 14.0900672,4.59720972 14.1021144,4.59720972 C14.1227668,4.59720972 14.1657925,4.67146715 14.1657925,4.71028353 C14.1657925,4.72209721 14.1778397,4.73222322 14.1916079,4.73222322 C14.2053762,4.73222322 14.2174234,4.7440369 14.2174234,4.75922592 C14.2174234,4.77272727 14.2363547,4.80985599 14.2604491,4.84023402 C14.2845435,4.87061206 14.3034748,4.90774077 14.3034748,4.92124212 C14.3034748,4.93643114 14.315522,4.95162016 14.3292903,4.95837084 C14.3430585,4.96343384 14.3551057,4.98368587 14.3551057,5.00225023 C14.3551057,5.02081458 14.3637109,5.0360036 14.372316,5.0360036 C14.3826422,5.0360036 14.3895263,5.05456796 14.3895263,5.07819532 C14.3895263,5.10182268 14.4015735,5.12545005 14.4153417,5.13051305 C14.42911,5.13726373 14.4411572,5.15920342 14.4411572,5.18114311 C14.4411572,5.20308281 14.4480413,5.22164716 14.4549254,5.22164716 C14.4635306,5.22164716 14.4824619,5.25371287 14.4996722,5.29421692 C14.5151614,5.3330333 14.5392559,5.38872637 14.5513031,5.41572907 C14.5891657,5.4950495 14.6235863,5.57943294 14.6476807,5.64356436 C14.6786592,5.72794779 14.7148009,5.81570657 14.7337322,5.84945995 C14.7440584,5.86633663 14.7509425,5.89333933 14.7509425,5.91190369 C14.7509425,5.92878038 14.7629897,5.95240774 14.7767579,5.96422142 C14.7905261,5.9760351 14.8025733,6.00135014 14.8025733,6.02160216 C14.8025733,6.04185419 14.8094575,6.06548155 14.8180626,6.07560756 C14.8249467,6.0840459 14.8455991,6.1329883 14.8628094,6.18361836 C14.8800197,6.23424842 14.9041141,6.30006751 14.9178823,6.33044554 C14.9299295,6.35913591 14.9402557,6.39457696 14.9402557,6.40976598 C14.9402557,6.424955 14.9488608,6.43676868 14.957466,6.43676868 C14.9677922,6.43676868 14.9746763,6.4570207 14.9746763,6.4840234 C14.9746763,6.50933843 14.9867235,6.54477948 15.0004917,6.56165617 C15.01426,6.58022052 15.0263072,6.61059856 15.0263072,6.63085059 C15.0263072,6.65110261 15.0331913,6.6730423 15.0400754,6.68316832 C15.0469595,6.69160666 15.0676119,6.74392439 15.0848222,6.79961746 C15.1020325,6.85531053 15.1209638,6.91269127 15.1295689,6.92619262 C15.136453,6.94138164 15.1485002,6.97682268 15.1553844,7.00720072 C15.1605475,7.03757876 15.1743157,7.06120612 15.1829208,7.06120612 C15.191526,7.06120612 15.1984101,7.08652115 15.1984101,7.11858686 C15.1984101,7.1489649 15.2104573,7.18440594 15.2242255,7.19621962 C15.2379938,7.2080333 15.250041,7.23841134 15.250041,7.26372637 C15.250041,7.28735374 15.2552041,7.31435644 15.2603672,7.31941944 C15.2792985,7.3379838 15.3343714,7.50675068 15.3360924,7.54725473 C15.3360924,7.56750675 15.3429766,7.58438344 15.3533027,7.58438344 C15.3619079,7.58438344 15.3739551,7.61138614 15.3808392,7.64345185 C15.3860023,7.67551755 15.3980495,7.70758326 15.4066546,7.71264626 C15.4152598,7.71770927 15.4221439,7.7379613 15.4221439,7.75990099 C15.4221439,7.78015302 15.4341911,7.81221872 15.4479594,7.83078308 C15.4617276,7.84765977 15.4737748,7.87972547 15.4737748,7.8999775 C15.4737748,7.92022952 15.4823799,7.94216922 15.4909851,7.94723222 C15.5013113,7.95229523 15.5081954,7.97085959 15.5081954,7.9860486 C15.5081954,8.00123762 15.5202426,8.03667867 15.5340108,8.06368137 C15.5477791,8.0889964 15.5598263,8.12106211 15.5598263,8.13287579 C15.5598263,8.15144014 15.5942468,8.23076058 15.6303885,8.29657966 C15.6389936,8.31345635 15.6458777,8.34045905 15.6458777,8.3590234 C15.6458777,8.37590009 15.6579249,8.39952745 15.6716932,8.41134113 C15.6854614,8.42315482 15.6975086,8.45015752 15.6975086,8.47209721 C15.6975086,8.4940369 15.7043927,8.51260126 15.7147189,8.51260126 C15.723324,8.51260126 15.7353713,8.53960396 15.7422554,8.57166967 C15.7474185,8.60373537 15.7594657,8.63073807 15.7680708,8.63073807 C15.776676,8.63073807 15.7835601,8.65267777 15.7835601,8.67968047 C15.7835601,8.70668317 15.7887232,8.7319982 15.7956073,8.73537354 C15.8145386,8.74212421 15.8696115,8.84844734 15.8696115,8.87545005 C15.8696115,8.88726373 15.8816587,8.90582808 15.895427,8.91764176 C15.9091952,8.92945545 15.9212424,8.95308281 15.9212424,8.9699595 C15.9212424,8.98852385 15.9281265,9.0020252 15.9384527,9.0020252 C15.9470579,9.0020252 15.9591051,9.02058956 15.9659892,9.04421692 C15.9711523,9.06784428 15.9831995,9.08640864 15.9918046,9.08640864 C16.0004098,9.08640864 16.0072939,9.10159766 16.0072939,9.12016202 C16.0072939,9.14041404 16.0262252,9.17585509 16.0503196,9.20117012 C16.074414,9.22648515 16.0933454,9.25348785 16.0933454,9.26361386 C16.0933454,9.31424392 16.2293067,9.38006301 16.306753,9.36656166 C16.3411736,9.36149865 16.3962465,9.35137264 16.4289461,9.34630963 C16.4616456,9.34124662 16.4943452,9.32943294 16.4995083,9.3209946 C16.5046714,9.31255626 16.5236027,9.30580558 16.542534,9.30580558 C16.5614653,9.30580558 16.5803967,9.2939919 16.5855597,9.28049055 C16.5924439,9.2669892 16.6062121,9.25517552 16.6165383,9.25517552 C16.6440747,9.25517552 16.8282249,9.08134563 16.9022291,8.98514851 C16.9349287,8.9429568 16.9796755,8.89232673 17.0003278,8.87207471 C17.0227012,8.85182268 17.0399115,8.82819532 17.0399115,8.82144464 C17.0399115,8.8130063 17.0571218,8.78769127 17.0794952,8.76575158 C17.1001475,8.74212421 17.1328471,8.69655716 17.1500574,8.66449145 C17.1689887,8.63242574 17.2016882,8.58685869 17.2240616,8.56323132 C17.246435,8.53960396 17.2636453,8.51428893 17.2636453,8.50416292 C17.2636453,8.4940369 17.2825766,8.4670342 17.306671,8.44171917 C17.3307654,8.41640414 17.3496968,8.39108911 17.3496968,8.38433843 C17.3496968,8.37758776 17.3669071,8.34889739 17.3892804,8.32020702 C17.4116538,8.29151665 17.4340272,8.25438794 17.4409113,8.23919892 C17.4460744,8.22232223 17.4598426,8.20882088 17.4701688,8.20882088 C17.478774,8.20882088 17.4873791,8.19869487 17.4873791,8.18519352 C17.4873791,8.17169217 17.4925422,8.15819082 17.5011474,8.15481548 C17.5080315,8.15312781 17.5493362,8.09743474 17.5940829,8.03161566 C17.6388297,7.96748425 17.6904606,7.89660216 17.7093919,7.87635014 C17.7300443,7.85609811 17.7455335,7.83247075 17.7455335,7.82234473 C17.7455335,7.81390639 17.7575807,7.80378038 17.771349,7.7970297 C17.7851172,7.7919667 17.7971644,7.77846535 17.7971644,7.76665167 C17.7971644,7.75315032 17.8109326,7.73121062 17.8281429,7.7160216 C17.8780528,7.67045455 17.9279626,7.61307381 17.9623832,7.55906841 C18.0036879,7.49324932 18.0312244,7.46624662 18.0535978,7.46624662 C18.0639239,7.46624662 18.0725291,7.45443294 18.0725291,7.44093159 C18.0725291,7.42743024 18.0811342,7.41561656 18.0897394,7.41561656 C18.1000656,7.41561656 18.1069497,7.40380288 18.1069497,7.39030153 C18.1069497,7.37680018 18.1138338,7.3649865 18.1224389,7.3649865 C18.1310441,7.3649865 18.1947222,7.30929343 18.2652844,7.24178668 C18.3341256,7.17427993 18.4253401,7.09327183 18.4683658,7.06120612 C18.5113916,7.02914041 18.5475332,6.99707471 18.5509752,6.99032403 C18.5544173,6.98188569 18.5681855,6.97682268 18.5819538,6.97682268 C18.595722,6.97682268 18.6060482,6.97007201 18.6060482,6.95994599 C18.6060482,6.95150765 18.6249795,6.93969397 18.6490739,6.93294329 C18.6731683,6.92788029 18.6920997,6.91775428 18.6920997,6.9110036 C18.6920997,6.90425293 18.7230782,6.8840009 18.7609408,6.86543654 C18.7988035,6.84855986 18.829782,6.82830783 18.829782,6.82155716 C18.829782,6.81649415 18.8538764,6.80636814 18.8814129,6.79961746 C18.9106704,6.79286679 18.9330438,6.78105311 18.9330438,6.77261476 C18.9330438,6.76417642 18.9519751,6.75742574 18.9743485,6.75742574 C18.9967218,6.75742574 19.0242583,6.74561206 19.0363055,6.73211071 C19.0483527,6.71860936 19.0758892,6.70679568 19.0982626,6.70679568 C19.1189149,6.70679568 19.1412883,6.700045 19.1464514,6.69160666 C19.1533355,6.68316832 19.1894771,6.67135464 19.2307818,6.66460396 C19.2703655,6.65785329 19.3116702,6.6460396 19.3202754,6.63928893 C19.3306015,6.63253825 19.3719062,6.62241224 19.414932,6.61734923 C19.4579577,6.61228623 19.5663826,6.59878488 19.6558761,6.58865887 C19.8503524,6.5650315 20.2599574,6.57515752 20.3442878,6.60553555 C20.4406655,6.6409766 20.5249959,6.67979298 20.530159,6.694982 C20.533601,6.70173267 20.5456483,6.70679568 20.5576955,6.70679568 C20.5680216,6.70679568 20.6110474,6.73717372 20.6523521,6.77430243 C20.6919357,6.81143114 20.7315194,6.84180918 20.7366825,6.84180918 C20.7521718,6.84349685 20.8433863,6.97344734 20.8433863,6.99369937 C20.8433863,7.00382538 20.8485494,7.01057606 20.8571546,7.01057606 C20.8760859,7.01057606 20.9294378,7.11014851 20.9294378,7.14558956 C20.9294378,7.16077858 20.939764,7.18440594 20.9535322,7.19453195 C20.9810687,7.21815932 21,7.34135914 21,7.5 C21,7.65864086 20.9810687,7.78184068 20.9535322,7.80546805 C20.939764,7.81559406 20.9294378,7.83922142 20.9294378,7.85441044 C20.9294378,7.88985149 20.8760859,7.98942394 20.8571546,7.98942394 C20.8485494,7.98942394 20.8433863,7.99617462 20.8433863,8.00630063 C20.8433863,8.02824032 20.7521718,8.15650315 20.7349615,8.15819082 C20.7280774,8.15819082 20.6884937,8.18856886 20.650631,8.22569757 C20.6110474,8.26282628 20.5697427,8.29320432 20.5576955,8.29320432 C20.5456483,8.29320432 20.533601,8.29826733 20.530159,8.30670567 C20.5232749,8.32189469 20.4268972,8.36577408 20.3356827,8.39446445 C20.29782,8.40627813 20.1928372,8.42315482 20.1033437,8.42990549 C19.8675627,8.45015752 19.7970005,8.4619712 19.7746271,8.4889739 C19.7643009,8.50247525 19.7436486,8.51260126 19.7298803,8.51260126 C19.7161121,8.51260126 19.6885756,8.53116562 19.6662023,8.55479298 C19.6438289,8.57842034 19.6197345,8.5969847 19.6111293,8.5969847 C19.5887559,8.59867237 19.414932,8.77418992 19.414932,8.79781728 C19.414932,8.80794329 19.4046058,8.81638164 19.3925586,8.81638164 C19.3805114,8.81638164 19.356417,8.840009 19.3409277,8.8670117 C19.3237174,8.89570207 19.3030651,8.91764176 19.2927389,8.91764176 C19.2841337,8.91764176 19.2772496,8.92945545 19.2772496,8.9429568 C19.2772496,8.95814581 19.2652024,8.97333483 19.2514342,8.97839784 C19.237666,8.98514851 19.2256188,8.99864986 19.2256188,9.01215122 C19.2256188,9.02565257 19.2187346,9.03577858 19.2084085,9.03577858 C19.1998033,9.03577858 19.1911982,9.04759226 19.1911982,9.06109361 C19.1911982,9.07459496 19.184314,9.08640864 19.1757089,9.08640864 C19.1671038,9.08640864 19.1533355,9.10328533 19.1464514,9.12522502 C19.1395673,9.14547705 19.1171939,9.17923042 19.0948205,9.19948245 C19.0724471,9.21973447 19.0535158,9.24336184 19.0535158,9.25180018 C19.0535158,9.26023852 19.0345845,9.28892889 19.0104901,9.31593159 C18.9863957,9.34293429 18.9674644,9.37331233 18.9674644,9.38175068 C18.9674644,9.39187669 18.948533,9.41887939 18.9261596,9.44250675 C18.9037863,9.46613411 18.8796919,9.50157516 18.8745288,9.52182718 C18.8676446,9.54207921 18.8538764,9.5589559 18.8452713,9.5589559 C18.8366661,9.5589559 18.829782,9.57076958 18.829782,9.58427093 C18.829782,9.59777228 18.8211769,9.60958596 18.8125717,9.60958596 C18.8022455,9.60958596 18.7815932,9.639964 18.7661039,9.67709271 C18.7488936,9.71422142 18.7265202,9.74459946 18.714473,9.74459946 C18.7024258,9.74459946 18.6920997,9.7530378 18.6920997,9.76316382 C18.6920997,9.77328983 18.6817735,9.79185419 18.6714473,9.80366787 C18.6198164,9.85936094 18.6060482,9.87961296 18.6060482,9.89480198 C18.6060482,9.90324032 18.594001,9.91336634 18.5802327,9.92011701 C18.5664645,9.92518002 18.5544173,9.94036904 18.5544173,9.95555806 C18.5544173,9.96905941 18.5475332,9.98087309 18.537207,9.98087309 C18.5286019,9.98087309 18.5199967,9.99268677 18.5199967,10.0061881 C18.5199967,10.0213771 18.5079495,10.0365662 18.4941813,10.0416292 C18.480413,10.0483798 18.4683658,10.0601935 18.4683658,10.0686319 C18.4683658,10.0787579 18.4494345,10.1040729 18.4253401,10.1260126 C18.4012457,10.1479523 18.3823144,10.1732673 18.3823144,10.1833933 C18.3823144,10.1935194 18.3702672,10.205333 18.3564989,10.210396 C18.3427307,10.2171467 18.3306835,10.2272727 18.3306835,10.2357111 C18.3306835,10.2441494 18.2721685,10.3082808 18.2016063,10.3791629 C18.1310441,10.450045 18.0725291,10.5108011 18.0725291,10.5124887 C18.0725291,10.5226148 17.9675463,10.6221872 17.9572201,10.6221872 C17.952057,10.6221872 17.9107523,10.6593159 17.8642845,10.704883 C17.8178168,10.7521377 17.7644648,10.7943294 17.7455335,10.7993924 C17.7266022,10.8061431 17.7111129,10.8179568 17.7111129,10.8263951 C17.7111129,10.8348335 17.6990657,10.8415842 17.6852975,10.8415842 C17.6715293,10.8415842 17.6594821,10.8483348 17.6594821,10.8567732 C17.6594821,10.8652115 17.6457138,10.8753375 17.6302246,10.8820882 C17.5940829,10.8922142 17.5424521,10.9242799 17.5080315,10.9563456 C17.4959843,10.9664716 17.4736109,10.9765977 17.4598426,10.9765977 C17.4460744,10.9765977 17.4357482,10.985036 17.4357482,10.9934743 C17.4357482,11.0036004 17.420259,11.010351 17.4013277,11.010351 C17.3823963,11.010351 17.361744,11.0221647 17.3565809,11.0356661 C17.3496968,11.0491674 17.3273234,11.0609811 17.306671,11.0609811 C17.2842977,11.0609811 17.2602032,11.0694194 17.2550402,11.0778578 C17.2498771,11.0879838 17.2223406,11.0947345 17.1965252,11.0947345 C17.1689887,11.0947345 17.1380102,11.1048605 17.127684,11.1183618 C17.1156368,11.1318632 17.0794952,11.1453645 17.0433535,11.1504275 C17.008933,11.1554905 16.9263236,11.1723672 16.8592034,11.1892439 C16.7628258,11.2128713 16.6440747,11.219622 16.2585642,11.224685 C15.9831995,11.2280603 15.7715129,11.224685 15.7594657,11.214559 C15.7491395,11.2061206 15.6992296,11.1943069 15.6510408,11.1875563 C15.601131,11.1808056 15.5563842,11.1689919 15.5495001,11.1605536 C15.544337,11.1521152 15.5219636,11.1453645 15.4995902,11.1453645 C15.4772168,11.1453645 15.4376332,11.1352385 15.4100967,11.1217372 C15.3842813,11.1082358 15.3395345,11.0879838 15.310277,11.0778578 C15.2827405,11.0660441 15.2465989,11.0508551 15.2328307,11.0424167 C15.2190624,11.0339784 15.194968,11.0221647 15.1811998,11.015414 C15.1674316,11.0086634 15.1519423,11.000225 15.1467792,10.995162 C15.1416161,10.990099 15.0917063,10.954658 15.0349123,10.9175293 C14.9230454,10.8432718 14.7578266,10.6880063 14.664891,10.5715572 C14.6321914,10.5293654 14.6012129,10.4922367 14.5960498,10.4871737 C14.5840026,10.47536 14.54614,10.4162916 14.5323717,10.3859136 C14.5254876,10.3724122 14.5031142,10.3420342 14.4807409,10.3184068 C14.4583675,10.2947795 14.4411572,10.2627138 14.4411572,10.2475248 C14.4411572,10.2306481 14.42911,10.2171467 14.4153417,10.2171467 C14.4015735,10.2171467 14.3895263,10.2036454 14.3878053,10.1884563 C14.3878053,10.1715797 14.372316,10.1361386 14.3551057,10.1074482 C14.3258482,10.0618812 14.2793804,9.98087309 14.2363547,9.90155266 C14.2019341,9.83573357 14.1330929,9.68384338 14.1227668,9.64840234 C14.1158826,9.62646265 14.1038354,9.60958596 14.0952303,9.60958596 C14.0866251,9.60958596 14.079741,9.5910216 14.079741,9.56739424 C14.079741,9.54376688 14.0728569,9.52520252 14.0642518,9.52520252 C14.0556466,9.52520252 14.0435994,9.50326283 14.0367153,9.47457246 C14.0298312,9.44756976 14.017784,9.42056706 14.0091788,9.41550405 C14.0005737,9.40875338 13.9936896,9.38343834 13.9936896,9.35643564 C13.9936896,9.33112061 13.9816424,9.30580558 13.9678741,9.29905491 C13.9523849,9.2939919 13.9420587,9.26867687 13.9420587,9.2399865 C13.9420587,9.2129838 13.9351746,9.18429343 13.9248484,9.17923042 C13.9162432,9.17416742 13.9076381,9.15054005 13.9076381,9.13028803 C13.9076381,9.10834833 13.8955909,9.08134563 13.8818227,9.06953195 C13.8680544,9.05771827 13.8560072,9.03577858 13.8560072,9.01890189 C13.8560072,8.99358686 13.8267497,8.91932943 13.785445,8.84675968 C13.7768399,8.82988299 13.7699557,8.80288029 13.7699557,8.78431593 C13.7699557,8.76743924 13.7579085,8.74381188 13.7441403,8.7319982 C13.7303721,8.72018452 13.7183249,8.68980648 13.7183249,8.66280378 C13.7183249,8.63748875 13.7114407,8.61048605 13.7011146,8.60542304 C13.6925094,8.60036004 13.6839043,8.57842034 13.6839043,8.55816832 C13.6839043,8.53622862 13.6735781,8.50585059 13.6598099,8.48728623 C13.6477627,8.46872187 13.6339944,8.4349685 13.6288313,8.41134113 C13.6150631,8.35058506 13.5462219,8.15819082 13.5186855,8.10418542 C13.5049172,8.08055806 13.4945911,8.04511701 13.4945911,8.02655266 C13.4945911,8.00630063 13.4877069,7.9860486 13.4773808,7.9809856 C13.4687756,7.97592259 13.4601705,7.95060756 13.4601705,7.92529253 C13.4601705,7.8999775 13.4481233,7.86453645 13.434355,7.84765977 C13.4205868,7.82909541 13.4085396,7.79365437 13.4085396,7.76665167 C13.4085396,7.74133663 13.4016555,7.71939694 13.3913293,7.71939694 C13.3827241,7.71939694 13.3706769,7.69239424 13.3637928,7.66032853 C13.3586297,7.62826283 13.3465825,7.59619712 13.3379774,7.59113411 C13.3293722,7.58607111 13.3224881,7.56750675 13.3224881,7.54725473 C13.3224881,7.52869037 13.3121619,7.49324932 13.2983937,7.46962196 C13.2846255,7.44430693 13.2656941,7.39030153 13.2536469,7.34810981 C13.2415997,7.30591809 13.2226684,7.25191269 13.2089002,7.22659766 C13.1951319,7.2029703 13.1848058,7.16246625 13.1848058,7.13883888 C13.1848058,7.11521152 13.1779217,7.0949595 13.1675955,7.0949595 C13.1589903,7.0949595 13.1503852,7.08145815 13.1503852,7.06626913 C13.1503852,7.04939244 13.138338,7.0139514 13.1245697,6.98694869 C13.1108015,6.96163366 13.0987543,6.92619262 13.0987543,6.90931593 C13.0987543,6.89243924 13.0884281,6.86712421 13.0763809,6.85531053 C13.0540075,6.83337084 13.0402393,6.79455446 13.0178659,6.68654365 C13.0127028,6.66122862 12.9989346,6.63085059 12.9851664,6.62072457 C12.9713981,6.61059856 12.961072,6.5869712 12.961072,6.57009451 C12.961072,6.55321782 12.9541878,6.53634113 12.9455827,6.53127813 C12.9369775,6.52621512 12.9249303,6.49414941 12.9197673,6.46208371 C12.9128831,6.430018 12.9008359,6.4030153 12.8922308,6.4030153 C12.8819046,6.4030153 12.8750205,6.38445095 12.8750205,6.36082358 C12.8750205,6.33719622 12.8681364,6.31863186 12.8595312,6.31863186 C12.8509261,6.31863186 12.8388789,6.30175518 12.8319948,6.28150315 C12.8182265,6.23424842 12.7906901,6.16674167 12.7700377,6.1329883 C12.7614326,6.11948695 12.7493853,6.09585959 12.7442223,6.08235824 C12.7338961,6.0570432 12.727012,6.04354185 12.6667759,5.93384338 C12.5376987,5.70094509 12.5170464,5.69081908 12.4430421,5.82076958 C12.4155057,5.8680243 12.3879692,5.9169667 12.3828061,5.93046805 C12.377643,5.9439694 12.3655958,5.96928443 12.3569907,5.98447345 C12.3483855,6.00135014 12.3415014,6.02835284 12.3415014,6.04691719 C12.3415014,6.06379388 12.3294542,6.08742124 12.315686,6.09923492 C12.3019177,6.1110486 12.2898705,6.13636364 12.2898705,6.15661566 C12.2898705,6.17686769 12.2829864,6.20049505 12.2743812,6.20893339 C12.2674971,6.21905941 12.2468448,6.2680018 12.2296345,6.31863186 C12.2124242,6.36926193 12.1883298,6.43170567 12.1762826,6.4570207 C12.1625143,6.48064806 12.1521882,6.51608911 12.1521882,6.53465347 C12.1521882,6.55321782 12.140141,6.59034653 12.1263727,6.61566157 C12.1126045,6.64266427 12.1005573,6.68148065 12.1005573,6.70173267 C12.1005573,6.7219847 12.0936732,6.74392439 12.083347,6.7489874 C12.0747418,6.75405041 12.0661367,6.78442844 12.0661367,6.81649415 C12.0661367,6.84855986 12.0592526,6.87725023 12.0506474,6.8840009 C12.0403213,6.88906391 12.0282741,6.92788029 12.0213899,6.96838434 C12.0162268,7.01057606 12.0041796,7.04939244 11.9955745,7.05445545 C11.9869693,7.05951845 11.9800852,7.09158416 11.9800852,7.1270252 C11.9800852,7.16077858 11.9714801,7.19790729 11.9594329,7.20972097 C11.9491067,7.21984698 11.9336174,7.26035104 11.9267333,7.30085509 C11.8991969,7.44430693 11.8682183,7.56581908 11.8544501,7.57763276 C11.847566,7.58438344 11.8424029,7.62657516 11.8424029,7.67045455 C11.8424029,7.71433393 11.8355188,7.75483798 11.8269136,7.76158866 C11.8183085,7.76665167 11.8045402,7.81221872 11.7993772,7.86284878 C11.792493,7.91516652 11.7804458,7.96073357 11.7718407,7.96579658 C11.7632355,7.97085959 11.7563514,8.00461296 11.7563514,8.04174167 C11.7563514,8.07887039 11.7477463,8.12612511 11.7356991,8.14637714 C11.7236519,8.16662916 11.7098836,8.22232223 11.7012785,8.26788929 C11.6840682,8.37927543 11.6444845,8.56491899 11.6307163,8.5969847 C11.6255532,8.61048605 11.616948,8.65605311 11.611785,8.69824482 C11.5997377,8.81638164 11.5670382,8.97333483 11.5498279,9.00540054 C11.5395017,9.02227723 11.5326176,9.06278128 11.5326176,9.09484698 C11.5326176,9.12860036 11.5205704,9.18260576 11.5068022,9.21635914 C11.4930339,9.24842484 11.4809867,9.30580558 11.4809867,9.34124662 C11.4809867,9.37837534 11.4741026,9.42056706 11.4654975,9.43744374 C11.4465661,9.46782178 11.4121455,9.639964 11.4000983,9.76147615 C11.3949353,9.80366787 11.3846091,9.84585959 11.377725,9.85429793 C11.3708408,9.86442394 11.3587936,9.91505401 11.3519095,9.96905941 C11.3450254,10.0213771 11.3329782,10.0703195 11.3243731,10.0753825 C11.3157679,10.0804455 11.3088838,10.1192619 11.3088838,10.1631413 C11.3071628,10.2070207 11.2968366,10.2610261 11.2830683,10.2846535 C11.2693001,10.3082808 11.2589739,10.3589109 11.2572529,10.3994149 C11.2572529,10.4382313 11.2503688,10.4837984 11.2400426,10.5006751 C11.2211113,10.5344284 11.1901328,10.6930693 11.1763645,10.8162691 C11.1712014,10.8635239 11.1608753,10.9090909 11.1539911,10.9175293 C11.147107,10.9276553 11.1350598,10.9782853 11.1281757,11.0322907 C11.1212916,11.0846085 11.1092444,11.1335509 11.1006392,11.1386139 C11.0920341,11.1436769 11.08515,11.1824932 11.08515,11.2263726 C11.08515,11.270252 11.0731028,11.3208821 11.0593345,11.3377588 C11.0455663,11.3563231 11.0335191,11.4035779 11.0335191,11.4440819 C11.0335191,11.484586 11.026635,11.530153 11.0163088,11.5470297 C11.0008195,11.5740324 10.9784462,11.6634788 10.9474676,11.820432 C10.9164891,11.9740099 10.8855106,12.0887714 10.8734634,12.1005851 C10.8665792,12.1073357 10.8614162,12.1410891 10.8614162,12.1731548 C10.8614162,12.2069082 10.85109,12.2490999 10.8373218,12.2676643 C10.8252745,12.2862286 10.8097853,12.3317957 10.8046222,12.3689244 C10.8011801,12.4060531 10.7839698,12.4786229 10.7667595,12.5292529 C10.7495493,12.579883 10.732339,12.6524527 10.7288969,12.6895815 C10.7237338,12.7267102 10.7151287,12.7604635 10.7082446,12.7655266 C10.6961973,12.7739649 10.6617768,12.8870387 10.6394034,12.9899865 C10.6307982,13.0254275 10.615309,13.0642439 10.6049828,13.0743699 C10.5946566,13.0844959 10.5860515,13.1182493 10.5860515,13.1486274 C10.5860515,13.1790054 10.5791673,13.2043204 10.5688412,13.2043204 C10.560236,13.2043204 10.5464678,13.2346985 10.5413047,13.2718272 C10.5344206,13.3089559 10.5240944,13.3393339 10.5154893,13.3393339 C10.5068841,13.3393339 10.5,13.364649 10.5,13.3967147 C10.5,13.4287804 10.4931159,13.4591584 10.4845107,13.4659091 C10.4759056,13.4709721 10.4638584,13.4979748 10.4569743,13.5249775 C10.4500901,13.5536679 10.4380429,13.5756076 10.4294378,13.5756076 C10.4208327,13.5756076 10.4139485,13.5941719 10.4139485,13.6161116 C10.4139485,13.639739 10.4019013,13.6684293 10.3881331,13.6836184 C10.3743649,13.6971197 10.3623177,13.7190594 10.3623177,13.7325608 C10.3623177,13.7460621 10.3433863,13.7916292 10.3192919,13.8355086 C10.2951975,13.8793879 10.2762662,13.9215797 10.2762662,13.9317057 C10.2762662,13.940144 10.2573349,13.9772727 10.2332405,14.0144014 C10.209146,14.0515302 10.1902147,14.0920342 10.1902147,14.1055356 C10.1902147,14.1190369 10.1781675,14.1325383 10.1643993,14.1392889 C10.150631,14.1443519 10.1385838,14.159541 10.1385838,14.17473 C10.1385838,14.189919 10.1196525,14.2219847 10.0955581,14.2472997 C10.0714637,14.2726148 10.0525324,14.3013051 10.0525324,14.3114311 C10.0525324,14.3215572 10.03188,14.3519352 10.0060646,14.3823132 C9.97852811,14.4110036 9.92345517,14.4734473 9.88042944,14.5223897 C9.75651533,14.6641539 9.4381249,14.8751125 9.34691034,14.8751125 C9.32970005,14.8751125 9.30732667,14.8869262 9.29527946,14.9004275 C9.28323226,14.9156166 9.24536961,14.9257426 9.20750697,14.9257426 C9.17136535,14.9257426 9.13694476,14.9341809 9.13178168,14.9426193 C9.12661859,14.9527453 9.08015079,14.9594959 9.02851991,14.9594959 C8.97688903,14.9594959 8.89772168,14.9662466 8.85297492,14.974685 C8.72561875,15 8.59137846,15.005063 8.48639567,14.989874 Z" id="Path"></path>
                    </g>
                </g>
            </g>
        </g>
    </g>
</svg>