<?xml version="1.0" encoding="UTF-8"?>
<svg width="29px" height="29px" viewBox="0 0 29 29" version="1.1" xmlns="http://www.w3.org/2000/svg" xmlns:xlink="http://www.w3.org/1999/xlink">
    <!-- Generator: Sketch 52.6 (67491) - http://www.bohemiancoding.com/sketch -->
    <title>Group 9</title>
    <desc>Created with Sketch.</desc>
    <g id="Page-1" stroke="none" stroke-width="1" fill="none" fill-rule="evenodd">
        <g id="icons" transform="translate(-59.000000, -751.000000)">
            <g id="Group-9" transform="translate(59.000000, 751.000000)">
                <g id="Group-11-Copy-19" fill="#FFFFFF">
                    <circle id="Oval-Copy-11" cx="14.5" cy="14.5" r="14.5"></circle>
                </g>
                <path d="M11.2177734,12.7485352 L9.22558594,12.7485352 C9.07910156,11.972168 8.52978516,11.4594727 7.62158203,11.4594727 C6.47167969,11.4594727 5.82714844,12.3457031 5.82714844,13.949707 C5.82714844,15.5756836 6.47900391,16.4765625 7.62158203,16.4765625 C8.49316406,16.4765625 9.06445312,16.0444336 9.22558594,15.2387695 L11.2177734,15.2387695 C11.0419922,17.0112305 9.72363281,18.168457 7.62158203,18.168457 C5.10205078,18.168457 3.67382812,16.6376953 3.67382812,13.949707 C3.67382812,11.2910156 5.09472656,9.76025391 7.62158203,9.76025391 C9.76025391,9.76025391 11.0419922,10.9467773 11.2177734,12.7485352 Z M16.4619141,18.168457 C13.9790039,18.168457 12.4848633,16.59375 12.4848633,13.9643555 C12.4848633,11.3569336 14.0009766,9.76025391 16.4619141,9.76025391 C18.9228516,9.76025391 20.4389648,11.3496094 20.4389648,13.9643555 C20.4389648,16.6010742 18.9448242,18.168457 16.4619141,18.168457 Z M16.4619141,16.4838867 C17.597168,16.4838867 18.2490234,15.5610352 18.2490234,13.9643555 C18.2490234,12.3823242 17.5898438,11.4521484 16.4619141,11.4521484 C15.3266602,11.4521484 14.6748047,12.3823242 14.6748047,13.9643555 C14.6748047,15.5610352 15.3193359,16.4838867 16.4619141,16.4838867 Z M21.7133789,15.3779297 C21.7133789,14.0522461 22.7973633,13.1586914 24.3647461,13.1586914 C25.9174805,13.1586914 26.8549805,13.9643555 26.8549805,15.0776367 C26.8549805,15.8393555 26.4960938,16.3447266 25.3901367,17.2529297 L24.0205078,18.3735352 L24.0205078,18.4541016 L26.9355469,18.4541016 L26.9355469,19.7797852 L21.8085938,19.7797852 L21.8085938,18.6445312 L24.2475586,16.5717773 C25.097168,15.8613281 25.2436523,15.590332 25.2436523,15.2241211 C25.2436523,14.7993164 24.8994141,14.4404297 24.2768555,14.4404297 C23.625,14.4404297 23.2294922,14.8359375 23.2294922,15.3779297 L21.7133789,15.3779297 Z" id="co₂" fill="#000000"></path>
            </g>
        </g>
    </g>
</svg>