<?xml version="1.0" encoding="UTF-8"?>
<svg width="29px" height="29px" viewBox="0 0 29 29" version="1.1" xmlns="http://www.w3.org/2000/svg" xmlns:xlink="http://www.w3.org/1999/xlink">
    <!-- Generator: Sketch 52.6 (67491) - http://www.bohemiancoding.com/sketch -->
    <title>Group 18 Copy</title>
    <desc>Created with Sketch.</desc>
    <g id="Page-1" stroke="none" stroke-width="1" fill="none" fill-rule="evenodd">
        <g id="icons" transform="translate(-59.000000, -360.000000)">
            <g id="Group-18-Copy" transform="translate(59.000000, 360.000000)">
                <circle id="Oval-Copy-31" fill="#FFFFFF" cx="14.5" cy="14.5" r="14.5"></circle>
                <g id="Group-8-Copy-2" transform="translate(14.046875, 14.500000) rotate(-180.000000) translate(-14.046875, -14.500000) translate(3.625000, 6.343750)" fill="#000000" fill-rule="nonzero">
                    <g id="24-env-pm1" transform="translate(0.366815, 0.151042)">
                        <path d="M11.6097098,0.22203125 C12.2174696,0.22203125 12.7101562,0.695396853 12.7101562,1.27932292 C12.7101562,1.86324898 12.2174696,2.33661458 11.6097098,2.33661458 C11.00195,2.33661458 10.5092634,1.86324898 10.5092634,1.27932292 C10.5092634,0.695396853 11.00195,0.22203125 11.6097098,0.22203125 Z M17.3540402,9.44161458 C17.3540402,10.0255406 17.8467268,10.4989062 18.4544866,10.4989062 C19.0622464,10.4989062 19.554933,10.0255406 19.554933,9.44161458 C19.554933,8.85768852 19.0622464,8.38432292 18.4544866,8.38432292 C17.8467268,8.38432292 17.3540402,8.85768852 17.3540402,9.44161458 Z M3.67549107,9.44161458 C3.67549107,10.0255406 4.16817772,10.4989062 4.7759375,10.4989062 C5.38369728,10.4989062 5.87638393,10.0255406 5.87638393,9.44161458 C5.87638393,8.85768852 5.38369728,8.38432292 4.7759375,8.38432292 C4.16817772,8.38432292 3.67549107,8.85768852 3.67549107,9.44161458 Z M7.09787946,5.36046875 C7.09787946,5.94439481 7.59056611,6.41776042 8.19832589,6.41776042 C8.80608567,6.41776042 9.29877232,5.94439481 9.29877232,5.36046875 C9.29877232,4.77654269 8.80608567,4.30317708 8.19832589,4.30317708 C7.59056611,4.30317708 7.09787946,4.77654269 7.09787946,5.36046875 Z M10.5092634,9.44161458 C10.5092634,10.0255406 11.00195,10.4989062 11.6097098,10.4989062 C12.2174696,10.4989062 12.7101562,10.0255406 12.7101562,9.44161458 C12.7101562,8.85768852 12.2174696,8.38432292 11.6097098,8.38432292 C11.00195,8.38432292 10.5092634,8.85768852 10.5092634,9.44161458 Z M0.253102679,5.36046875 C0.253102679,5.94439481 0.745789327,6.41776042 1.35354911,6.41776042 C1.96130889,6.41776042 2.45399554,5.94439481 2.45399554,5.36046875 C2.45399554,4.77654269 1.96130889,4.30317708 1.35354911,4.30317708 C0.745789327,4.30317708 0.253102679,4.77654269 0.253102679,5.36046875 Z M13.9316518,5.36046875 C13.9316518,5.94439481 14.4243384,6.41776042 15.0320982,6.41776042 C15.639858,6.41776042 16.1325446,5.94439481 16.1325446,5.36046875 C16.1325446,4.77654269 15.639858,4.30317708 15.0320982,4.30317708 C14.4243384,4.30317708 13.9316518,4.77654269 13.9316518,5.36046875 Z M7.09787946,13.5227604 C7.09787946,14.1066865 7.59056611,14.5800521 8.19832589,14.5800521 C8.80608567,14.5800521 9.29877232,14.1066865 9.29877232,13.5227604 C9.29877232,12.9388344 8.80608567,12.4654687 8.19832589,12.4654687 C7.59056611,12.4654687 7.09787946,12.9388344 7.09787946,13.5227604 Z M13.9316518,13.5227604 C13.9316518,14.1066865 14.4243384,14.5800521 15.0320982,14.5800521 C15.639858,14.5800521 16.1325446,14.1066865 16.1325446,13.5227604 C16.1325446,12.9388344 15.639858,12.4654687 15.0320982,12.4654687 C14.4243384,12.4654687 13.9316518,12.9388344 13.9316518,13.5227604 Z M3.67549107,1.27932292 C3.67549107,1.86324898 4.16817772,2.33661458 4.7759375,2.33661458 C5.38369728,2.33661458 5.87638393,1.86324898 5.87638393,1.27932292 C5.87638393,0.695396853 5.38369728,0.22203125 4.7759375,0.22203125 C4.16817772,0.22203125 3.67549107,0.695396853 3.67549107,1.27932292 Z" id="Shape"></path>
                    </g>
                </g>
            </g>
        </g>
    </g>
</svg>