<?xml version="1.0" encoding="UTF-8"?>
<svg width="29px" height="39px" viewBox="0 0 29 39" version="1.1" xmlns="http://www.w3.org/2000/svg" xmlns:xlink="http://www.w3.org/1999/xlink">
    <!-- Generator: Sketch 52.6 (67491) - http://www.bohemiancoding.com/sketch -->
    <title>3</title>
    <desc>Created with Sketch.</desc>
    <g id="Page-1" stroke="none" stroke-width="1" fill="none" fill-rule="evenodd">
        <path d="M1.14689254,20.111573 C0.382293677,18.3093087 0,16.4319776 0,14.4795196 C0,12.5270616 0.382293677,10.6497185 1.14689254,8.84745417 C1.84322391,7.14076115 2.87405135,5.59793539 4.23940697,4.21891697 C5.56380057,2.89453296 7.09980272,1.87052434 8.84745657,1.1468911 C10.6224192,0.382285049 12.4997504,0 14.4795196,0 C16.5002496,0 18.3844116,0.382285049 20.1320654,1.1468911 C21.8660577,1.87052434 23.4020646,2.89453296 24.7401102,4.21891697 C26.105467,5.58427379 27.1431253,7.12709955 27.8531089,8.84745417 C28.617703,10.6497185 29,12.5270616 29,14.4795196 C29,16.4319776 28.617703,18.3093087 27.8531089,20.111573 C27.361579,21.2175153 26.8563995,22.132291 26.3375704,22.8559243 L16.7528214,37.4173667 C16.1247594,38.3731153 15.3738269,38.8509824 14.5,38.8509824 C13.6261731,38.8509824 12.8684098,38.3731153 12.2266982,37.4173667 L2.66242962,22.8559243 C2.03436644,21.9820974 1.52919173,21.0673216 1.14689254,20.111573 Z M9.11369953,14.4795196 C9.11369953,15.9814085 9.63252745,17.2511701 10.6701977,18.2888403 C11.7351743,19.3538098 13.0049299,19.8862885 14.4795196,19.8862885 C15.9950581,19.8862885 17.2716505,19.3538098 18.3093207,18.2888403 C19.3606405,17.2648197 19.8863005,15.9950581 19.8863005,14.4795196 C19.8863005,12.9912803 19.3606405,11.7215187 18.3093207,10.6701989 C17.2716505,9.60521744 15.9950581,9.07273871 14.4795196,9.07273871 C13.0049299,9.07273871 11.7351743,9.60521744 10.6701977,10.6701989 C9.63252745,11.7351683 9.11369953,13.0049299 9.11369953,14.4795196 Z" id="3" fill="#357BEB"></path>
    </g>
</svg>